<?xml version="1.0" encoding="utf-8"?>
<!-- Generator: Adobe Illustrator 25.2.1, SVG Export Plug-In . SVG Version: 6.00 Build 0)  -->
<svg version="1.1" id="Layer_1" xmlns="http://www.w3.org/2000/svg" xmlns:xlink="http://www.w3.org/1999/xlink" x="0px" y="0px"
	 viewBox="0 0 78.46 21.18" style="enable-background:new 0 0 78.46 21.18;" xml:space="preserve">
<style type="text/css">
	.st0{fill:#FFFFFF;}
	.st1{fill:#E93E3A;}
	.st2{fill:#BC3636;}
	.st3{fill:#BD3A38;}
	.st4{fill:#BD3A37;}
	.st5{fill:#BD3B38;}
	.st6{fill:#BD3937;}
	.st7{fill:#BC3736;}
	.st8{fill:#BD3637;}
	.st9{fill:#E93F3B;}
</style>
<g id="mono_angular1">
	<g>
		<g>
			<path class="st0" d="M3.09,6.69c0.53-0.19,6.98-5.62,6.98-5.62l1.96,2.21l5.34,11.73l-0.67,1.57l-1.99,0.44L3.79,16.93
				l-1.15-0.35"/>
		</g>
		<g>
			<g>
				<g>
					<path class="st1" d="M9.87,21.18c-0.7-0.38-1.4-0.75-2.1-1.14c-2.01-1.11-4.01-2.23-6.02-3.33c-0.19-0.1-0.25-0.23-0.28-0.43
						C1.02,12.32,0.56,8.37,0.1,4.42C0.09,4.28,0.03,4.15,0,4.02c0-0.18,0-0.36,0-0.55c0.12-0.03,0.24-0.05,0.35-0.09
						c3.14-1.12,6.29-2.24,9.43-3.36C9.81,0.01,9.84,0,9.87,0c0,0.83,0,1.66,0.01,2.5c-2.04,4.53-4.08,9.08-6.13,13.62
						c0.68,0,1.32-0.01,1.96,0.01c0.24,0.01,0.36-0.06,0.44-0.29c0.32-0.86,0.68-1.73,1.04-2.58c0.04-0.09,0.17-0.22,0.26-0.22
						c0.81-0.02,1.61,0,2.42,0C9.87,15.75,9.87,18.46,9.87,21.18z"/>
				</g>
				<g>
					<path class="st2" d="M9.87,21.18c0-2.71,0-5.43,0-8.14c0.88-0.01,1.76,0,2.64-0.02c0.21,0,0.3,0.06,0.38,0.25
						c0.37,0.89,0.76,1.78,1.15,2.67c0.04,0.08,0.12,0.21,0.18,0.21c0.69,0.02,1.38,0.01,2.08,0.01c-0.02-0.06-0.05-0.13-0.08-0.19
						c-2.07-4.41-4.13-8.82-6.2-13.22C9.98,2.66,9.92,2.59,9.87,2.52c0-0.83,0-1.66-0.01-2.5c0.3,0.09,0.6,0.18,0.9,0.28
						c3,1.02,6.01,2.04,9.01,3.07c0.08,0.02,0.15,0.06,0.25,0.09c-0.09,0.7-0.17,1.41-0.25,2.11c-0.32,2.53-0.64,5.07-0.96,7.6
						c-0.13,1.03-0.25,2.07-0.4,3.09c-0.02,0.13-0.13,0.3-0.25,0.36c-2.68,1.5-5.37,2.98-8.06,4.46
						C10.04,21.12,9.96,21.14,9.87,21.18z"/>
				</g>
				<g>
					<path class="st3" d="M24.26,8.02c0,2.56,0,5.11,0,7.68c-0.39,0-0.77,0-1.16,0c0-3.2,0-6.39,0-9.62c0.37,0,0.76-0.02,1.14,0.01
						c0.09,0.01,0.19,0.13,0.26,0.23c1.82,2.39,3.64,4.79,5.47,7.19c0.06,0.08,0.13,0.16,0.24,0.29c0-2.6,0-5.14,0-7.7
						c0.4,0,0.78,0,1.18,0c0,3.2,0,6.39,0,9.62c-0.38,0-0.77,0.02-1.15-0.01c-0.09-0.01-0.17-0.13-0.24-0.21
						c-1.83-2.42-3.65-4.84-5.47-7.26C24.47,8.17,24.4,8.09,24.33,8C24.3,8,24.28,8.02,24.26,8.02z"/>
				</g>
				<g>
					<path class="st4" d="M72.23,7.15c0,2.86,0,5.71,0,8.56c-0.43,0-0.83,0-1.26,0c0-3.2,0-6.39,0-9.6
						c0.05-0.01,0.09-0.02,0.14-0.02c1.4,0,2.8,0,4.2,0.01c0.21,0,0.43,0.02,0.64,0.06c1.76,0.31,2.5,2.24,1.4,3.66
						c-0.41,0.53-0.97,0.86-1.57,1.12c-0.2,0.09-0.4,0.16-0.63,0.25c1.1,1.51,2.18,3,3.3,4.53c-0.55,0-1.05,0.01-1.55-0.01
						c-0.07,0-0.16-0.09-0.21-0.16c-0.95-1.34-1.92-2.67-2.83-4.03c-0.16-0.24-0.12-0.61-0.17-0.91c0.47-0.13,0.89-0.21,1.27-0.36
						c0.37-0.16,0.74-0.36,1.04-0.62c0.5-0.44,0.59-1.03,0.44-1.65c-0.12-0.5-0.51-0.82-1.12-0.84C74.32,7.12,73.3,7.15,72.23,7.15z
						"/>
				</g>
				<g>
					<path class="st5" d="M49.78,6.09c0.42,0,0.82,0,1.23,0c0.01,0.1,0.02,0.21,0.02,0.3c0,1.84,0.01,3.67,0,5.51
						c0,0.39-0.03,0.78-0.09,1.16c-0.24,1.36-1.04,2.23-2.38,2.57c-1.03,0.26-2.07,0.25-3.09,0c-1.44-0.36-2.29-1.41-2.43-2.94
						c-0.02-0.29-0.04-0.59-0.04-0.89c0-1.78,0-3.57,0-5.35c0-0.11,0-0.22,0-0.35c0.42,0,0.82,0,1.25,0c0,0.11,0,0.22,0,0.32
						c0,1.83,0,3.65,0,5.48c0,0.3,0.02,0.61,0.07,0.91c0.17,1.03,0.79,1.69,1.82,1.88c0.44,0.08,0.92,0.11,1.37,0.06
						c1.45-0.16,2.21-0.98,2.26-2.45c0.02-0.72,0.01-1.45,0.01-2.17c0-1.23,0-2.47,0-3.7C49.78,6.33,49.78,6.22,49.78,6.09z"/>
				</g>
				<g>
					<path class="st3" d="M64.83,4.8c1.61,3.66,3.2,7.26,4.8,10.92c-0.46,0-0.87,0.01-1.28-0.01c-0.06,0-0.15-0.12-0.18-0.21
						c-0.36-0.85-0.7-1.69-1.04-2.55c-0.08-0.2-0.17-0.28-0.4-0.28c-0.95,0.02-1.9,0.01-2.9,0.01c0.11-0.33,0.2-0.64,0.32-0.93
						c0.02-0.06,0.17-0.08,0.26-0.09c0.71-0.01,1.42,0,2.18,0c-0.6-1.44-1.18-2.85-1.8-4.34c-0.07,0.16-0.11,0.25-0.15,0.35
						c-1.06,2.58-2.12,5.16-3.17,7.75c-0.09,0.23-0.21,0.31-0.44,0.29c-0.31-0.02-0.63-0.01-0.99-0.01
						C61.64,12.08,63.22,8.48,64.83,4.8z"/>
				</g>
				<g>
					<path class="st6" d="M41.01,7.41c-0.59-0.13-1.16-0.32-1.73-0.35c-0.74-0.04-1.5-0.04-2.22,0.09
						c-1.44,0.26-2.33,1.23-2.48,2.69c-0.07,0.67-0.08,1.37,0.03,2.03c0.28,1.73,1.36,2.68,3.15,2.82c0.59,0.04,1.18-0.06,1.76-0.09
						c0.21-0.01,0.25-0.11,0.25-0.29c-0.01-0.98,0-1.95,0-2.95c0.41,0,0.8,0,1.22,0c0.01,0.06,0.02,0.13,0.02,0.19
						c0,1.18,0,2.37,0.01,3.55c0,0.19-0.07,0.27-0.24,0.32c-1.5,0.47-3.02,0.5-4.53,0.06c-1.49-0.44-2.41-1.43-2.79-2.93
						c-0.28-1.12-0.29-2.24-0.04-3.36c0.39-1.71,1.57-2.76,3.44-3.07c1.3-0.21,2.58-0.13,3.85,0.19c0.23,0.06,0.32,0.16,0.29,0.4
						C40.99,6.95,41.01,7.19,41.01,7.41z"/>
				</g>
				<g>
					<path class="st7" d="M54.49,14.71c1.69,0,3.36,0,5.04,0c0,0.34,0,0.66,0,1c-2.09,0-4.17,0-6.26,0c0-3.2,0-6.4,0-9.61
						c0.4,0,0.8,0,1.23,0C54.49,8.97,54.49,11.83,54.49,14.71z"/>
				</g>
				<g>
					<path class="st8" d="M9.86,7.06c0.01-0.04,0.02-0.07,0.05-0.2c0.71,1.48,1.38,2.89,2.07,4.33c-0.74,0-1.42,0-2.11,0
						C9.87,9.8,9.86,8.44,9.86,7.06z"/>
				</g>
				<g>
					<path class="st9" d="M9.86,7.06c0,1.38,0.01,2.75,0.01,4.13c-0.57,0-1.14,0-1.73,0c0.02-0.06,0.02-0.13,0.04-0.17
						C8.72,9.73,9.26,8.45,9.8,7.17C9.81,7.12,9.84,7.09,9.86,7.06z"/>
				</g>
			</g>
		</g>
	</g>
</g>
</svg>
