<?xml version="1.0" encoding="utf-8"?>
<!-- Generator: Adobe Illustrator 25.2.1, SVG Export Plug-In . SVG Version: 6.00 Build 0)  -->
<svg version="1.1" id="Layer_1" xmlns="http://www.w3.org/2000/svg" xmlns:xlink="http://www.w3.org/1999/xlink" x="0px" y="0px"
	 viewBox="0 0 32.31 36.36" style="enable-background:new 0 0 32.31 36.36;" xml:space="preserve">
<style type="text/css">
	.st0{fill:#FFFFFF;}
	.st1{fill:#2163AB;}
	.st2{fill:#8F9ECE;}
	.st3{fill:#389AD2;}
	.st4{fill:#D4D3D2;}
	.st5{fill:#D4D5D6;}
	.st6{fill:#3B9AD2;}
	.st7{fill:#DFDFDF;}
	.st8{fill:#E9E8E8;}
	.st9{fill:#5DA4D3;}
</style>
<g id="mono_css1">
	<g>
		<rect x="14.17" y="5.41" class="st0" width="12.16" height="24.9"/>
		<g>
			<path class="st1" d="M16.18,36.36c-0.03,0-0.07,0-0.1,0c-0.08-0.03-0.17-0.07-0.25-0.1C11.65,35.13,7.46,34,3.28,32.88
				c-0.2-0.05-0.26-0.14-0.28-0.34c-0.14-1.57-0.28-3.14-0.43-4.72c-0.16-1.74-0.32-3.48-0.48-5.22c-0.14-1.54-0.28-3.08-0.43-4.61
				c-0.16-1.74-0.32-3.48-0.49-5.22c-0.16-1.74-0.32-3.48-0.48-5.22C0.51,5.6,0.33,3.65,0.15,1.7C0.11,1.32,0.05,0.94,0,0.56
				c0-0.17,0-0.34,0-0.51c10.63,0,21.25,0,31.88,0c0.08,0,0.16-0.01,0.23,0.01c0.05,0.01,0.1,0.07,0.15,0.1
				c-0.12,1.34-0.24,2.67-0.37,4.01c-0.16,1.74-0.32,3.48-0.48,5.22c-0.18,1.92-0.36,3.83-0.53,5.75c-0.18,1.92-0.35,3.83-0.53,5.75
				c-0.19,2.1-0.39,4.2-0.59,6.3c-0.17,1.8-0.34,3.6-0.49,5.39c-0.02,0.17-0.07,0.24-0.24,0.28c-3.57,0.95-7.13,1.92-10.7,2.88
				C17.62,35.95,16.9,36.16,16.18,36.36z M13.79,11.87c-0.53,0.22-1.05,0.44-1.58,0.66c-0.59,0.24-1.17,0.48-1.76,0.73
				c-0.4,0.16-0.81,0.33-1.21,0.49c-0.73,0.31-1.46,0.62-2.19,0.92c-0.17,0.05-0.33,0.07-0.3,0.34c0.11,1.13,0.19,2.27,0.28,3.41
				c0.01,0.2,0.07,0.26,0.28,0.26c2.82,0,5.64,0.01,8.46,0.02c0.12,0,0.23,0.02,0.35,0.03c0,2.14,0,4.27,0,6.41
				c-0.09-0.01-0.18-0.02-0.27-0.04c-1.29-0.33-2.58-0.66-3.88-0.97c-0.23-0.06-0.29-0.15-0.31-0.37c-0.06-0.89-0.14-1.78-0.21-2.67
				c-0.01-0.14-0.03-0.23-0.21-0.23c-1.24,0.01-2.48,0.01-3.72,0c-0.14,0-0.19,0.04-0.18,0.19c0.04,0.44,0.07,0.87,0.11,1.31
				c0.13,1.5,0.26,2.99,0.39,4.49c0.01,0.17,0.07,0.23,0.23,0.27c0.33,0.09,0.66,0.19,0.99,0.29c2.35,0.7,4.7,1.39,7.06,2.09
				c0,1.24,0,2.48,0,3.73c0,0.35,0,0.35,0.34,0.26c3.33-0.9,6.67-1.8,10.01-2.69c0.22-0.06,0.32-0.16,0.34-0.39
				c0.12-1.42,0.24-2.84,0.37-4.26c0.11-1.24,0.21-2.49,0.32-3.73c0.13-1.47,0.26-2.94,0.39-4.41c0.11-1.24,0.21-2.47,0.32-3.71
				c0.13-1.45,0.26-2.91,0.39-4.36c0.09-1.05,0.18-2.1,0.27-3.15c0.11-1.25,0.22-2.51,0.34-3.76c0.02-0.24-0.06-0.3-0.29-0.3
				c-4.17,0.01-8.33,0.01-12.5,0c-0.24,0-0.3,0.08-0.3,0.3c0.01,1.23,0,2.47,0,3.7c-0.12,0-0.24,0.01-0.35,0.01
				c-3.21,0-6.42,0-9.63,0c-0.19,0-0.25,0.03-0.22,0.25c0.15,1.15,0.29,2.31,0.42,3.47c0.02,0.21,0.1,0.26,0.3,0.26
				c2.53-0.01,5.07-0.01,7.6,0c0.62,0,1.25,0.01,1.87,0.01c0,0.06,0.01,0.13,0.01,0.19c-0.01,0.01-0.01,0.02-0.01,0.03
				C15.35,11.22,14.57,11.54,13.79,11.87z"/>
			<path class="st2" d="M32.3,0.16l-0.02,0.02l-0.02-0.01c-0.05-0.04-0.09-0.09-0.15-0.1c-0.07-0.02-0.15-0.01-0.23-0.01
				c-10.63,0-21.25,0-31.88,0c0.01-0.02,0.02-0.05,0.03-0.05c0.06,0,0.12,0,0.18,0c10.63,0,21.26,0,31.89,0
				C32.2,0.01,32.35-0.04,32.3,0.16z"/>
			<path class="st3" d="M16.13,6.69c0-1.23,0.01-2.47,0-3.7c0-0.23,0.06-0.31,0.3-0.3c4.17,0.01,8.33,0.01,12.5,0
				c0.23,0,0.32,0.06,0.29,0.3c-0.12,1.25-0.23,2.5-0.34,3.76c-0.09,1.05-0.18,2.1-0.27,3.15c-0.13,1.45-0.26,2.91-0.39,4.36
				c-0.11,1.24-0.21,2.47-0.32,3.71c-0.13,1.47-0.26,2.94-0.39,4.41c-0.11,1.24-0.22,2.49-0.32,3.73c-0.12,1.42-0.25,2.84-0.37,4.26
				c-0.02,0.23-0.12,0.33-0.34,0.39c-3.34,0.89-6.67,1.79-10.01,2.69c-0.34,0.09-0.34,0.09-0.34-0.26c0-1.24,0-2.48,0-3.73v-0.02
				c0.04,0,0.08,0,0.12-0.01c2.65-0.77,5.29-1.55,7.94-2.31c0.15-0.04,0.19-0.12,0.2-0.27c0.13-1.61,0.28-3.23,0.42-4.84
				c0.2-2.34,0.41-4.67,0.61-7.01c0.01-0.17-0.02-0.22-0.2-0.22c-2.98,0.01-5.96,0.01-8.94,0.01c0.08-0.06,0.15-0.13,0.23-0.17
				c1.75-0.75,3.49-1.49,5.24-2.24c1.33-0.57,2.65-1.14,3.98-1.71c0.02-0.07,0.06-0.14,0.07-0.21c0.12-1.15,0.24-2.3,0.35-3.45
				c0.03-0.31,0.03-0.31-0.3-0.31c-3.15,0-6.3,0-9.45,0c-0.09,0-0.19,0.01-0.28,0.01L16.13,6.69z"/>
			<path class="st4" d="M16.13,29.47c-2.35-0.7-4.7-1.39-7.06-2.09c-0.33-0.1-0.66-0.21-0.99-0.29c-0.15-0.04-0.21-0.1-0.23-0.27
				c-0.12-1.5-0.26-2.99-0.39-4.49c-0.04-0.44-0.07-0.87-0.11-1.31c-0.01-0.15,0.03-0.19,0.18-0.19c1.24,0,2.48,0.01,3.72,0
				c0.18,0,0.2,0.09,0.21,0.23c0.07,0.89,0.15,1.78,0.21,2.67c0.02,0.21,0.08,0.31,0.31,0.37c1.29,0.31,2.58,0.65,3.88,0.97
				c0.09,0.02,0.18,0.03,0.27,0.04c0,0.01,0,0.02,0.01,0.03c0,1.43,0,2.86,0,4.3C16.13,29.45,16.13,29.47,16.13,29.47z"/>
			<path class="st4" d="M16.12,10.67c-0.62,0-1.25-0.01-1.87-0.01c-2.53,0-5.07,0-7.6,0c-0.2,0-0.28-0.05-0.3-0.26
				C6.22,9.24,6.08,8.09,5.93,6.93C5.9,6.71,5.96,6.68,6.15,6.68c3.21,0.01,6.42,0,9.63,0c0.12,0,0.24-0.01,0.35-0.01v0.02
				c0,1.31,0,2.62,0,3.94C16.13,10.66,16.12,10.66,16.12,10.67z"/>
			<path class="st4" d="M16.13,18.72c-0.12-0.01-0.23-0.03-0.35-0.03c-2.82-0.01-5.64-0.02-8.46-0.02c-0.21,0-0.27-0.06-0.28-0.26
				C6.96,17.27,6.87,16.14,6.76,15c-0.02-0.26,0.14-0.28,0.3-0.34c0.12,0.03,0.23,0.09,0.35,0.09c2.78,0.01,5.55,0,8.33,0.01
				c0.13,0,0.27,0.03,0.4,0.05c0,1.29,0,2.59,0,3.88C16.13,18.7,16.13,18.71,16.13,18.72z"/>
			<path class="st5" d="M16.13,14.81c-0.13-0.02-0.27-0.05-0.4-0.05c-2.78,0-5.55,0-8.33-0.01c-0.12,0-0.23-0.06-0.35-0.09
				c0.73-0.31,1.46-0.62,2.19-0.92c0.4-0.17,0.8-0.33,1.21-0.49c0.11,0.03,0.21,0.09,0.32,0.09c1.55,0.01,3.11,0.01,4.66,0
				c0.78,0,0.69,0.1,0.69-0.71c0-0.24,0-0.47,0-0.71c0-0.34,0-0.69,0-1.03c0-0.01,0-0.02,0.01-0.03c0.15-0.07,0.3-0.13,0.45-0.2
				c0.06,0,0.12-0.01,0.18-0.01c2.91,0,5.82,0,8.73,0c0.08,0,0.17,0.01,0.25,0.01c-1.33,0.57-2.65,1.14-3.98,1.71
				c-1.75,0.75-3.49,1.49-5.24,2.24c-0.08,0.04-0.15,0.11-0.23,0.17C16.24,14.8,16.18,14.81,16.13,14.81z"/>
			<path class="st6" d="M16.13,25.13c0-2.14,0-4.27,0-6.41c0-0.01,0-0.02,0-0.03c0.11,0,0.22,0.01,0.33,0.01
				c1.43,0,2.86,0.01,4.28,0.01c0.18,0,0.25,0.03,0.23,0.24c-0.1,1.56-0.2,3.12-0.28,4.68c-0.01,0.17-0.06,0.25-0.23,0.3
				c-0.57,0.15-1.14,0.31-1.71,0.48c-0.88,0.25-1.75,0.51-2.62,0.76C16.13,25.15,16.13,25.14,16.13,25.13z"/>
			<path class="st7" d="M16.13,12.63c0,0.81,0.09,0.71-0.69,0.71c-1.55,0-3.11,0-4.66,0c-0.11,0-0.21-0.06-0.32-0.09
				c0.59-0.24,1.17-0.48,1.76-0.73c0.2,0.04,0.39,0.1,0.59,0.1C13.91,12.64,15.02,12.63,16.13,12.63z"/>
			<path class="st8" d="M16.13,12.63c-1.11,0-2.22,0.01-3.33,0c-0.2,0-0.39-0.07-0.59-0.1c0.53-0.22,1.05-0.44,1.58-0.66
				c0.12,0.02,0.23,0.05,0.35,0.05c0.66,0,1.33,0,1.99,0C16.13,12.16,16.13,12.39,16.13,12.63z"/>
			<path class="st9" d="M16.58,10.66c-0.15,0.07-0.3,0.13-0.45,0.2c0-0.06-0.01-0.13-0.01-0.19c0-0.01,0-0.02,0.01-0.03
				C16.28,10.65,16.43,10.66,16.58,10.66z"/>
		</g>
	</g>
</g>
</svg>
