<?xml version="1.0" encoding="utf-8"?>
<!-- Generator: Adobe Illustrator 25.2.1, SVG Export Plug-In . SVG Version: 6.00 Build 0)  -->
<svg version="1.1" id="Layer_1" xmlns="http://www.w3.org/2000/svg" xmlns:xlink="http://www.w3.org/1999/xlink" x="0px" y="0px"
	 viewBox="0 0 55.22 73.87" style="enable-background:new 0 0 55.22 73.87;" xml:space="preserve">
<style type="text/css">
	.st0{fill:#E75732;}
	.st1{fill:#F66D34;}
	.st2{fill:#FFFFFF;}
	.st3{fill:#020202;}
</style>
<g id="mono_html2">
	<g>
		<g>
			<path class="st0" d="M55.22,15.43l-4.35,50.46c-6.45,5.01-14.54,7.98-23.34,7.98c-8.72,0-16.74-2.93-23.16-7.84L0,15.45h55.22
				V15.43z"/>
		</g>
		<g>
			<polygon class="st1" points="27.61,20.15 27.61,72.7 45.76,67.56 49.82,20.15 			"/>
		</g>
		<g>
			<polygon class="st2" points="10.39,26.75 12.19,47.83 35.84,47.83 35.06,56.53 27.61,58.55 19.86,56.36 19.67,50.94 12.43,50.94 
				13.34,61.64 27.61,65.68 41.88,61.64 43.66,40.71 18.74,40.71 18.13,33.89 18.13,33.89 44.23,33.74 44.83,26.75 			"/>
		</g>
		<g>
			<polygon class="st3" points="11.61,0 11.61,4 8.61,4 8.61,0 5.61,0 5.61,10 8.61,10 8.61,7 11.61,7 11.61,10 14.61,10 14.61,0 
							"/>
		</g>
		<g>
			<polygon class="st3" points="26.61,0 16.61,0 16.61,4 20.61,4 20.61,11 23.61,11 23.61,4 26.61,4 			"/>
		</g>
		<g>
			<polygon class="st3" points="44.61,7 44.61,0 41.61,0 41.61,7.31 41.61,10 44.61,10 49.61,10 49.61,7 			"/>
		</g>
		<g>
			<polygon class="st3" points="36.09,0 33.62,3.57 31.13,0 27.61,0 27.61,10 31.61,10 31.61,4.85 34.12,8.54 36.61,4.85 36.61,10 
				39.61,10 39.61,0 			"/>
		</g>
	</g>
</g>
</svg>
