<?xml version="1.0" encoding="utf-8"?>
<!-- Generator: Adobe Illustrator 25.2.1, SVG Export Plug-In . SVG Version: 6.00 Build 0)  -->
<svg version="1.1" id="Layer_1" xmlns="http://www.w3.org/2000/svg" xmlns:xlink="http://www.w3.org/1999/xlink" x="0px" y="0px"
	 viewBox="0 0 50.31 30.21" style="enable-background:new 0 0 50.31 30.21;" xml:space="preserve">
<style type="text/css">
	.st0{fill:#020202;}
</style>
<g id="mono_Next1">
	<g id="Page-1_2_">
		<g id="Black-Next.js_2_" transform="translate(-247.000000, -138.000000)">
			<g id="next-black_2_" transform="translate(247.000000, 138.000000)">
				<g id="EXT-_x2B_-Type-something_2_">
					<g id="EXT_2_">
						<path class="st0" d="M11.87,7.88h9.49v0.75h-8.62v5.65h8.1v0.75h-8.1v6.2h8.72v0.75h-9.59C11.87,21.98,11.87,7.88,11.87,7.88z
							 M22.21,7.88h1.01l4.47,6.2l4.57-6.2L38.47,0l-10.2,14.73l5.26,7.25h-1.05l-4.78-6.6l-4.8,6.6h-1.03l5.3-7.25L22.21,7.88z
							 M33.89,8.63V7.88H44.7v0.75h-4.98v13.35h-0.87V8.63H33.89z"/>
					</g>
					<g id="Type-something_2_">
						<polygon class="st0" points="0,7.88 1.09,7.88 16.08,30.21 9.88,21.98 0.91,8.95 0.87,21.98 0,21.98 						"/>
					</g>
				</g>
				<g id="_x2E_JS_2_">
					<path class="st0" d="M44.61,21c0.18,0,0.31-0.14,0.31-0.31s-0.13-0.31-0.31-0.31s-0.31,0.14-0.31,0.31S44.44,21,44.61,21z
						 M45.47,20.18c0,0.52,0.38,0.86,0.93,0.86c0.59,0,0.94-0.35,0.94-0.96v-2.15h-0.47v2.15c0,0.34-0.17,0.52-0.47,0.52
						c-0.27,0-0.45-0.17-0.46-0.42H45.47z M47.96,20.15c0.03,0.54,0.49,0.89,1.17,0.89c0.72,0,1.18-0.36,1.18-0.95
						c0-0.46-0.26-0.71-0.88-0.86l-0.34-0.08c-0.4-0.09-0.56-0.22-0.56-0.43c0-0.27,0.25-0.45,0.62-0.45c0.36,0,0.6,0.17,0.65,0.46
						h0.46c-0.03-0.51-0.48-0.87-1.1-0.87c-0.67,0-1.11,0.36-1.11,0.9c0,0.45,0.25,0.71,0.8,0.84l0.39,0.09
						c0.4,0.09,0.58,0.23,0.58,0.47c0,0.27-0.28,0.47-0.66,0.47c-0.41,0-0.69-0.18-0.73-0.47h-0.47V20.15z"/>
				</g>
			</g>
		</g>
	</g>
</g>
</svg>
