<?xml version="1.0" encoding="utf-8"?>
<!-- Generator: Adobe Illustrator 25.2.1, SVG Export Plug-In . SVG Version: 6.00 Build 0)  -->
<svg version="1.1" id="Layer_1" xmlns="http://www.w3.org/2000/svg" xmlns:xlink="http://www.w3.org/1999/xlink" x="0px" y="0px"
	 viewBox="0 0 65.7 13.5" style="enable-background:new 0 0 65.7 13.5;" xml:space="preserve">
<style type="text/css">
	.st0{fill:#C64B4F;}
	.st1{fill:#C64A4D;}
	.st2{fill:none;}
</style>
<g id="mono_Parcel1">
	<g>
		<g>
			<path class="st0" d="M41.5,4.8c0-0.1,0-0.1,0-0.2c0-0.5,0-1,0-1.5c0-0.2-0.1-0.3-0.2-0.5c-0.1-0.1-0.2-0.1-0.3-0.1h-0.2H38
				c-0.1,0-0.2,0-0.3,0c-0.1,0-0.2,0.1-0.2,0.2c0,0.1-0.1,0.2-0.1,0.3v7.2c0,0.1,0,0.2,0,0.4c0.1,0.2,0.2,0.3,0.4,0.3H38
				c0.9,0,1.8,0,2.8,0H41c0.2,0,0.4-0.2,0.4-0.4c0-0.1,0-0.3,0-0.5V8.8c0-0.1,0-0.1,0-0.1c0,0,0.1,0,0.1,0H44c0.1,0,0.1,0,0.1,0.1
				c0,0.7,0,1.4,0,2.1c0,0.2,0,0.4-0.1,0.6c0,0.3-0.1,0.5-0.3,0.7c-0.1,0.2-0.3,0.4-0.5,0.6c-0.2,0.1-0.3,0.2-0.5,0.3
				c-0.1,0.1-0.2,0.1-0.3,0.1c-0.1,0-0.2,0.1-0.3,0.1c-0.1,0-0.2,0-0.2,0c-0.7,0.1-1.5,0-2.3,0c-0.8,0-1.5,0-2.3,0
				c-0.2,0-0.3,0-0.5,0c-0.5-0.1-1-0.3-1.3-0.7c-0.2-0.2-0.3-0.4-0.4-0.6c-0.1-0.2-0.2-0.3-0.2-0.5c0-0.1-0.1-0.2-0.1-0.3
				c0-0.4-0.1-0.9,0-1.4c0-2.4,0-4.8,0-7.2c0-0.1,0-0.2,0-0.2c0-0.2,0-0.4,0.1-0.6c0-0.2,0.1-0.3,0.2-0.5c0.2-0.4,0.4-0.6,0.7-0.9
				c0.2-0.1,0.4-0.2,0.6-0.3c0.1-0.1,0.3-0.1,0.4-0.1C36.9,0,37.2,0,37.6,0h3.8c0.2,0,0.4,0,0.6,0.1c0.5,0.1,1.1,0.3,1.4,0.8
				c0.2,0.2,0.3,0.4,0.4,0.7C43.9,1.6,44,1.8,44,2c0.1,0.3,0.1,0.6,0.1,0.9v1.9c0,0,0,0.1-0.1,0.1L41.5,4.8L41.5,4.8z M42.6,9.8
				c0,0,0,0.1,0,0.1c0,0.2,0,0.5,0,0.7c0,0.2,0,0.4-0.1,0.6c-0.2,0.4-0.5,0.6-0.8,0.7c-0.2,0-0.3,0.1-0.5,0.1c-1.1,0-2.2,0-3.4,0
				c-0.2,0-0.5,0-0.7-0.1s-0.5-0.2-0.6-0.5c-0.1-0.2-0.2-0.5-0.2-0.8c0-0.1,0-0.2,0-0.3V3.2c0-0.2,0-0.5,0-0.7
				c0-0.2,0.1-0.3,0.2-0.5c0.1-0.2,0.3-0.4,0.5-0.4c0.2-0.1,0.4-0.1,0.6-0.1h3.4c0.2,0,0.4,0,0.6,0c0.1,0,0.2,0.1,0.4,0.1
				c0.3,0.2,0.6,0.5,0.7,0.9c0,0.2,0,0.4,0,0.6c0,0.2,0,0.3,0,0.5c0,0,0,0.1,0,0.2c0.1,0,0.2,0,0.3,0c0,0,0,0,0,0c0-0.4,0-0.8,0-1.1
				c0-0.2-0.1-0.4-0.2-0.6c-0.1-0.1-0.2-0.3-0.3-0.4c-0.3-0.3-0.8-0.5-1.2-0.5c-1.3,0-2.5,0-3.8,0c0,0-0.1,0-0.1,0
				c-0.2,0-0.5,0.1-0.7,0.2c-0.2,0.1-0.4,0.3-0.5,0.5c-0.1,0.1-0.2,0.3-0.2,0.5c0,0.2-0.1,0.3-0.1,0.5c0,0.1,0,0.2,0,0.3v7.4
				c0,0.2,0,0.4,0,0.6c0,0.2,0.1,0.3,0.1,0.5c0.2,0.4,0.5,0.7,0.9,0.8c0.2,0.1,0.4,0.1,0.6,0.1h3.4c0.2,0,0.5,0,0.7,0
				c0.2,0,0.4-0.1,0.5-0.2c0.4-0.2,0.7-0.6,0.7-1.1c0-0.2,0.1-0.4,0.1-0.6c0-0.2,0-0.4,0-0.5c0,0,0-0.1,0-0.1
				C42.8,9.8,42.7,9.8,42.6,9.8z"/>
		</g>
		<g>
			<path class="st1" d="M46.5,0.1H55c0,0,0.1,0,0.2,0c0,0.1,0,2.4,0,2.5h-6v2.7c0.3,0,0.5,0,0.8,0h4c0,0.1,0,2.3,0,2.5
				c-0.3,0-0.5,0-0.8,0h-4c0,0,0,0.1,0,0.1v2.8c0,0,0,0,0,0.1c0,0,0.1,0,0.2,0h5.8c0,0.2,0,0.4,0,0.5c0,0.7,0,1.3,0,2h-8.6L46.5,0.1
				L46.5,0.1z M47.6,12.3c0.2,0,6.3,0,6.4,0c0-0.1,0-0.1,0-0.2c0-0.2,0-0.2-0.2-0.2h-5.7c0,0-0.1,0-0.1,0V6.8h4.8c0-0.1,0-0.3,0-0.4
				H48c0-0.1,0-4.7,0-4.8c0,0,0.1,0,0.2,0h5.7c0,0,0.1,0,0.2,0c0-0.1,0-0.2,0-0.3c0,0,0-0.1-0.1-0.1l0,0h-6.3c0,0-0.1,0-0.1,0.1l0,0
				c0,0,0,0,0,0.1v10.9C47.6,12.2,47.6,12.3,47.6,12.3z"/>
		</g>
		<g>
			<path class="st0" d="M29.9,13.4l-2.1-4.9h-2.1v4.9c-0.1,0-2.5,0-2.7,0V0.1c0,0,0.1,0,0.1,0h6.7c0.2,0,0.4,0,0.6,0.1
				c0.5,0.1,0.9,0.3,1.2,0.6c0.2,0.2,0.4,0.4,0.5,0.7c0,0.1,0.1,0.2,0.1,0.3c0.1,0.4,0.2,0.8,0.1,1.2c0,0.9,0,1.8,0,2.8
				c0,0.3,0,0.5-0.1,0.8c0,0.2-0.1,0.4-0.2,0.6c-0.1,0.2-0.2,0.3-0.4,0.5c-0.2,0.2-0.4,0.3-0.6,0.4c-0.1,0.1-0.3,0.1-0.5,0.2
				c0,0,0,0-0.1,0.1l2.2,5H29.9z M24.5,7.4h0.2h3.9v0c0,0.1,0,0.1,0,0.1v0c0,0.1,0,0.1,0.1,0.1c0,0,0,0,0,0.1
				c0.2,0.4,0.3,0.7,0.5,1.1c0.1,0.2,0.2,0.4,0.3,0.6c0.1,0.2,0.2,0.5,0.3,0.8c0.1,0.2,0.1,0.4,0.2,0.6c0.1,0.3,0.3,0.6,0.4,0.9
				c0.1,0.2,0.2,0.4,0.2,0.6c0,0.1,0,0.1,0.1,0.1c0.1,0,0.2,0,0.3,0c0-0.1,0-0.1,0-0.1c0,0,0,0,0-0.1c-0.1-0.4-0.3-0.7-0.5-1.1
				c-0.1-0.2-0.2-0.5-0.3-0.7c-0.1-0.2-0.2-0.5-0.3-0.8c-0.1-0.2-0.2-0.4-0.3-0.6c-0.1-0.3-0.2-0.5-0.4-0.8S29,7.6,28.9,7.4
				c0,0,0.1,0,0.1,0c0.1,0,0.3,0,0.4,0c0.2,0,0.4,0,0.5-0.1c0.1,0,0.2-0.1,0.3-0.1c0.2-0.1,0.3-0.2,0.4-0.3c0.2-0.2,0.4-0.6,0.5-0.9
				c0-0.2,0-0.4,0.1-0.6c0-0.7,0-1.5,0-2.3c0-0.2,0-0.5,0-0.7c0,0,0,0,0,0C31.1,2.2,31,2.1,31,1.9c-0.2-0.4-0.5-0.6-0.9-0.7
				c-0.2-0.1-0.5-0.1-0.7-0.1h-5.1c0,0-0.1,0-0.1,0c0,0,0,0.1,0,0.2v10.9c0,0,0,0.1,0,0.1c0.1,0,0.2,0,0.3,0c0-0.1,0-0.1,0-0.1v-3
				C24.5,8.6,24.5,8,24.5,7.4z"/>
		</g>
		<g>
			<path class="st0" d="M12.3,13.4c-0.1,0-2.7,0-2.8,0c0.1-0.2,0.2-0.5,0.2-0.7c0.1-0.1,0.1-0.2,0.1-0.4c0-0.1,0.1-0.3,0.1-0.4
				c0-0.1,0.1-0.3,0.1-0.4c0-0.1,0.1-0.3,0.2-0.5c0.1-0.2,0.1-0.4,0.2-0.6s0.1-0.4,0.2-0.6c0.1-0.1,0.1-0.3,0.1-0.4S10.9,9,11,8.9
				c0.1-0.2,0.1-0.4,0.2-0.6c0.1-0.2,0.1-0.4,0.2-0.6c0-0.1,0.1-0.2,0.1-0.3s0.1-0.3,0.1-0.4c0.1-0.2,0.1-0.4,0.2-0.6
				c0-0.1,0.1-0.2,0.1-0.4s0.1-0.3,0.1-0.5s0.1-0.4,0.2-0.5s0.1-0.4,0.2-0.6s0.1-0.4,0.2-0.6c0.1-0.1,0.1-0.2,0.1-0.4
				c0.1-0.2,0.1-0.4,0.2-0.6c0-0.1,0.1-0.3,0.1-0.4c0.1-0.2,0.1-0.4,0.2-0.6c0.1-0.1,0.1-0.3,0.1-0.4c0.1-0.2,0.1-0.4,0.2-0.6
				c0.1-0.1,0.1-0.2,0.1-0.4s0.1-0.2,0.1-0.4c0,0,0-0.1,0.1-0.1h3C17,0.2,17,0.3,17,0.4c0.1,0.3,0.2,0.6,0.3,0.9
				c0,0.2,0.1,0.3,0.2,0.5c0.1,0.2,0.2,0.5,0.2,0.7s0.1,0.5,0.2,0.7c0.1,0.2,0.1,0.4,0.2,0.6c0,0.1,0.1,0.3,0.1,0.4s0.1,0.2,0.1,0.4
				c0.1,0.2,0.1,0.4,0.2,0.6c0.1,0.2,0.1,0.3,0.1,0.4s0.1,0.3,0.1,0.4L19,6.3c0.1,0.2,0.1,0.4,0.2,0.6l0.1,0.4
				c0,0.1,0.1,0.3,0.1,0.4s0.1,0.3,0.1,0.4c0,0.1,0.1,0.2,0.1,0.4c0.1,0.2,0.1,0.4,0.2,0.6c0,0.1,0,0.1,0.1,0.2
				c0.1,0.3,0.2,0.5,0.2,0.8c0,0.1,0.1,0.3,0.1,0.4c0.1,0.2,0.1,0.4,0.2,0.6c0,0.1,0.1,0.2,0.1,0.4c0,0.1,0.1,0.3,0.1,0.4
				c0,0.1,0.1,0.3,0.1,0.4c0,0.1,0.1,0.2,0.1,0.4c0.1,0.2,0.2,0.4,0.2,0.7c0,0,0,0,0,0c-0.1,0-2.4,0.1-2.9,0c0-0.1-0.1-0.3-0.1-0.4
				c0-0.1-0.1-0.3-0.1-0.4c0-0.1,0-0.1-0.1-0.2c-0.1-0.3-0.1-0.5-0.2-0.8c-0.1-0.2-0.1-0.4-0.1-0.6c-0.1-0.2-0.1-0.4-0.1-0.5
				c0,0,0-0.1-0.1-0.1h-4.2c0,0-0.1,0-0.1,0.1c0,0.1,0,0.1-0.1,0.2c0,0.2-0.1,0.3-0.1,0.5c-0.1,0.2-0.1,0.4-0.2,0.6
				s-0.1,0.4-0.2,0.6c0,0.1-0.1,0.3-0.1,0.4c0,0.1-0.1,0.3-0.1,0.4C12.3,13.3,12.3,13.3,12.3,13.4z M18.4,9.3c0.3,1,0.6,2,0.9,3
				c0.1,0,0.2,0,0.3-0.1c-0.1-0.1,0-0.1-0.1-0.2c0-0.1-0.1-0.2-0.1-0.4c0-0.1-0.1-0.3-0.1-0.4c0-0.1-0.1-0.3-0.1-0.5
				c0-0.1-0.1-0.3-0.1-0.4c-0.1-0.2-0.1-0.4-0.2-0.6c-0.1-0.2-0.1-0.4-0.2-0.6s-0.1-0.3-0.1-0.5s-0.1-0.4-0.2-0.6
				c-0.1-0.2-0.1-0.4-0.2-0.6c-0.1-0.2-0.1-0.3-0.1-0.4C18,7,18,6.8,17.9,6.7s-0.1-0.4-0.2-0.6c0-0.1-0.1-0.3-0.1-0.4
				s-0.1-0.3-0.1-0.4c-0.1-0.2-0.1-0.4-0.2-0.6S17.2,4.2,17.1,4c0-0.1-0.1-0.3-0.1-0.4c-0.1-0.2-0.1-0.4-0.2-0.6
				c-0.1-0.2-0.1-0.3-0.1-0.5c0-0.2-0.1-0.4-0.2-0.6c0-0.1-0.1-0.3-0.1-0.4c0-0.1-0.1-0.2-0.1-0.4c0,0,0,0-0.1-0.1c0,0-0.1,0-0.1,0
				h-1.5c0,0-0.1,0-0.1,0.1c-0.1,0.2-0.1,0.4-0.2,0.6c-0.1,0.2-0.1,0.4-0.2,0.6c0,0.1-0.1,0.3-0.1,0.4c0,0.1-0.1,0.3-0.1,0.4
				c-0.1,0.2-0.1,0.4-0.2,0.6s-0.1,0.4-0.2,0.6s-0.1,0.3-0.1,0.5c0,0.2-0.1,0.2-0.1,0.4c-0.1,0.2-0.1,0.4-0.2,0.6S13,6.2,12.9,6.3
				c-0.1,0.2-0.1,0.4-0.2,0.6c-0.1,0.2-0.1,0.4-0.2,0.6c-0.1,0.2-0.1,0.4-0.2,0.6s-0.1,0.4-0.2,0.7c0,0.1-0.1,0.3-0.1,0.4
				S12,9.4,11.9,9.5s-0.1,0.3-0.1,0.4s-0.1,0.3-0.1,0.4c-0.1,0.2-0.2,0.5-0.2,0.8c-0.1,0.2-0.1,0.4-0.2,0.6
				c-0.1,0.2-0.1,0.4-0.2,0.6c0,0,0,0.1,0,0.1h0.2c0,0,0.1,0,0.1-0.1l0,0c0-0.1,0-0.1,0.1-0.2c0.1-0.2,0.1-0.4,0.2-0.7
				c0-0.1,0.1-0.2,0.1-0.2l0.1-0.4c0-0.1,0.1-0.3,0.1-0.4s0.1-0.3,0.1-0.4c0.1-0.2,0.1-0.4,0.2-0.6L18.4,9.3z"/>
		</g>
		<g>
			<path class="st1" d="M0,0.1h6.8c0.2,0,0.4,0,0.6,0.1c0.1,0,0.3,0.1,0.4,0.1c0.4,0.2,0.7,0.4,1,0.7C8.9,1.1,9,1.2,9.1,1.4
				c0.1,0.2,0.1,0.3,0.2,0.5c0.1,0.3,0.1,0.5,0.1,0.8c0,1.2,0,2.4,0,3.6c0,0.2,0,0.3-0.1,0.5C9.2,7.1,9.1,7.4,8.9,7.7
				C8.7,8,8.4,8.2,8.1,8.4C7.9,8.5,7.7,8.6,7.4,8.6C7.1,8.7,6.8,8.7,6.5,8.7H2.8c-0.1,0-0.1,0-0.1,0.1c0,0,0,0.1,0,0.1
				c0,1.4,0,2.9,0,4.3c0,0.1,0,0.1,0,0.1c0,0,0,0-0.1,0H0c0-0.3,0-0.6,0-1L0,0.1z M1.5,7.6c0,0,0.1,0,0.2,0h4.6c0.3,0,0.6,0,0.8-0.1
				c0.2-0.1,0.5-0.2,0.7-0.4C8,6.9,8.2,6.6,8.2,6.3c0-0.2,0-0.3,0-0.5c0-0.9,0-1.8,0-2.8c0-0.2,0-0.4-0.1-0.6C8.1,2.2,8.1,2.1,8,1.9
				C7.8,1.6,7.5,1.3,7.1,1.2C6.8,1.2,6.6,1.1,6.3,1.2H1.3c-0.2,0-0.2,0-0.2,0.2v10.8c0,0,0,0.1,0,0.1c0,0,0,0.1,0,0.1
				c0.1,0,0.2,0,0.2,0c0.1,0,0.1,0,0.1-0.1c0,0,0-0.1,0-0.1V7.8C1.5,7.8,1.5,7.7,1.5,7.6z"/>
		</g>
		<g>
			<path class="st1" d="M65.7,13.4h-8c-0.1,0-0.1,0-0.2,0V0.1h2.7v10.8h5.5c0,0,0,0.1,0,0.1V13.4C65.7,13.3,65.7,13.4,65.7,13.4z
				 M58.7,12.3c0.1,0,0.1,0,0.2,0h5.6c0.2,0,0.2,0,0.2-0.2s0-0.2-0.2-0.2h-5.3c0,0-0.1,0-0.1-0.1V1.2c0,0,0-0.1,0-0.1
				c-0.1,0-0.2,0-0.3,0L58.7,12.3z"/>
		</g>
		<g>
			<path class="st0" d="M24.5,1.5c0,0,0.1,0,0.1,0h4.8c0.1,0,0.2,0,0.3,0c0.2,0,0.4,0.1,0.5,0.2c0.2,0.1,0.3,0.3,0.4,0.5
				c0.1,0.1,0.1,0.2,0.1,0.3c0,0.2,0,0.4,0.1,0.6c0,0.8,0,1.6,0,2.4c0,0.2,0,0.5-0.1,0.7c-0.1,0.3-0.3,0.6-0.6,0.7
				C29.9,7,29.6,7,29.3,7h-4.7c-0.1,0-0.1,0-0.1-0.1v0c0-1.7,0-3.4,0-5.2C24.5,1.6,24.5,1.6,24.5,1.5z M25.6,5.9c0,0,0.1,0,0.1,0
				c1.1,0,2.2,0,3.2,0c0.1,0,0.1,0,0.2,0c0.1,0,0.2-0.1,0.3-0.2c0.1-0.1,0.2-0.3,0.1-0.5c0-0.7,0-1.4,0-2.1c0-0.1,0-0.2-0.1-0.3
				c0,0,0-0.1-0.1-0.1c-0.1-0.1-0.3-0.2-0.5-0.2h-3.4c0,0-0.1,0-0.1,0L25.6,5.9L25.6,5.9z"/>
		</g>
		<g>
			<path class="st0" d="M14.8,1.5H16c0,0.1,0.1,0.3,0.1,0.4s0.1,0.3,0.1,0.4c0,0.1,0.1,0.3,0.1,0.5s0.1,0.4,0.2,0.5s0.1,0.5,0.2,0.7
				c0.1,0.2,0.1,0.4,0.2,0.6c0,0.2,0.1,0.4,0.2,0.6c0.1,0.2,0.1,0.4,0.2,0.6c0,0.1,0.1,0.3,0.1,0.4c0,0.1,0.1,0.3,0.1,0.4
				s0.1,0.3,0.1,0.5c0,0.2,0.1,0.4,0.2,0.6s0.1,0.4,0.2,0.6c0,0.1,0.1,0.3,0.1,0.4c0,0,0,0.1,0,0.1l0,0l0,0h0h-5.7h0
				c0,0,0-0.1,0-0.1c0.1-0.3,0.2-0.6,0.2-0.8c0.1-0.2,0.1-0.4,0.2-0.6C13,7.2,13,7.1,13,7c0-0.1,0.1-0.3,0.1-0.4s0.1-0.3,0.1-0.4
				l0.1-0.4c0.1-0.2,0.1-0.3,0.1-0.5s0.1-0.4,0.2-0.6c0.1-0.2,0.1-0.4,0.2-0.6c0.1-0.3,0.1-0.5,0.2-0.8c0-0.1,0.1-0.2,0.1-0.4
				c0-0.1,0.1-0.3,0.1-0.4c0-0.1,0.1-0.3,0.1-0.4C14.6,2,14.7,1.8,14.8,1.5z M16.8,7.9c0-0.2-0.1-0.4-0.1-0.6
				c-0.1-0.2-0.1-0.4-0.2-0.6c0-0.2-0.1-0.3-0.1-0.4s-0.1-0.3-0.1-0.4C16.1,5.6,16,5.3,16,5.1c0-0.1-0.1-0.3-0.1-0.4
				c0-0.1-0.1-0.3-0.1-0.4c0-0.2-0.1-0.3-0.1-0.4c0-0.1-0.1-0.3-0.1-0.4c0-0.1,0-0.2-0.1-0.2c0,0-0.1,0-0.1,0s-0.1,0.2-0.1,0.2
				c0,0.1-0.1,0.3-0.1,0.4C15.1,4,15,4.2,15,4.4s-0.1,0.4-0.2,0.7c-0.1,0.3-0.2,0.6-0.3,0.9c-0.1,0.2-0.1,0.3-0.1,0.5
				s-0.1,0.4-0.2,0.6S14,7.5,14,7.8c0,0,0,0.1,0,0.1C13.9,7.9,16.8,7.9,16.8,7.9z"/>
		</g>
		<g>
			<path class="st0" d="M1.5,7.2V1.6c0,0,0.1,0,0.1,0h4.9c0.1,0,0.2,0,0.3,0c0.6,0.1,1.1,0.6,1.1,1.2c0,0.2,0,0.3,0,0.5
				c0,0.8,0,1.5,0,2.3c0,0.2,0,0.4,0,0.6c0,0.4-0.2,0.8-0.6,1C7.1,7.1,6.9,7.2,6.8,7.2C6.4,7.2,6,7.3,5.7,7.2c-1.3,0-2.7,0-4,0
				C1.6,7.2,1.5,7.2,1.5,7.2z M2.7,2.6c0,0,0,0.1,0,0.1V6c0,0,0,0,0,0.1c0,0.1,0,0.1,0.1,0.1c0,0,0,0,0.1,0h3.3c0.1,0,0.2,0,0.2,0
				c0.2,0,0.3-0.1,0.4-0.3c0.1-0.1,0.1-0.2,0.1-0.4c0-0.7,0-1.5,0-2.2c0-0.1,0-0.2,0-0.2c0-0.1-0.1-0.3-0.2-0.3
				C6.4,2.6,6.2,2.6,6.1,2.6H2.7C2.7,2.6,2.7,2.6,2.7,2.6z"/>
		</g>
	</g>
</g>
<rect y="0.1" class="st2" width="65.7" height="13.4"/>
</svg>
