<?xml version="1.0" encoding="utf-8"?>
<!-- Generator: Adobe Illustrator 25.2.1, SVG Export Plug-In . SVG Version: 6.00 Build 0)  -->
<svg version="1.1" id="Layer_1" xmlns="http://www.w3.org/2000/svg" xmlns:xlink="http://www.w3.org/1999/xlink" x="0px" y="0px"
	 viewBox="0 0 96.76 21.96" style="enable-background:new 0 0 96.76 21.96;" xml:space="preserve">
<style type="text/css">
	.st0{fill:#07749D;}
	.st1{fill:#484544;}
</style>
<g id="mono_wordpress1">
	<g id="Layer_2_1_">
		<g>
			<g>
				<path class="st0" d="M56.12,8.64h-3.81v0.4c1.19,0,1.38,0.26,1.38,1.77v2.72c0,1.51-0.19,1.79-1.38,1.79
					c-0.91-0.13-1.53-0.62-2.38-1.55l-0.98-1.06c1.32-0.23,2.02-1.06,2.02-2c0-1.17-1-2.06-2.87-2.06h-3.74v0.4
					c1.19,0,1.38,0.26,1.38,1.77v2.72c0,1.51-0.19,1.79-1.38,1.79v0.4h4.23v-0.4c-1.19,0-1.38-0.28-1.38-1.79v-0.77h0.36l2.36,2.96
					h6.19c3.04,0,4.36-1.62,4.36-3.55C60.48,10.23,59.16,8.64,56.12,8.64z M47.2,12.1V9.27h0.87c0.96,0,1.38,0.66,1.38,1.43
					c0,0.74-0.43,1.4-1.38,1.4H47.2L47.2,12.1z M56.18,15.06h-0.15c-0.77,0-0.87-0.19-0.87-1.17V9.27c0,0,0.94,0,1.02,0
					c2.21,0,2.62,1.62,2.62,2.87C58.8,13.45,58.4,15.06,56.18,15.06z"/>
			</g>
			<g>
				<path class="st0" d="M32.5,12.89l1.47-4.34c0.43-1.26,0.23-1.62-1.13-1.62V6.5h4v0.43c-1.34,0-1.66,0.32-2.19,1.87l-2.43,7.28
					h-0.28l-2.17-6.66l-2.21,6.66h-0.28L24.92,8.8c-0.51-1.55-0.85-1.87-2.09-1.87V6.5h4.72v0.43c-1.26,0-1.6,0.3-1.15,1.62
					l1.43,4.34l2.15-6.38h0.4L32.5,12.89z"/>
			</g>
			<g>
				<path class="st0" d="M39.74,16c-2.34,0-4.26-1.72-4.26-3.83c0-2.09,1.92-3.81,4.26-3.81S44,10.08,44,12.17
					C43.99,14.28,42.08,16,39.74,16z M39.74,9.02c-1.96,0-2.64,1.77-2.64,3.15c0,1.4,0.68,3.15,2.64,3.15
					c1.98,0,2.66-1.74,2.66-3.15C42.4,10.79,41.72,9.02,39.74,9.02z"/>
			</g>
			<g>
				<path class="st1" d="M65.74,15.3v0.43h-4.87V15.3c1.43,0,1.68-0.36,1.68-2.49v-3.4c0-2.13-0.26-2.47-1.68-2.47V6.51h4.4
					c2.19,0,3.4,1.13,3.4,2.64c0,1.47-1.21,2.62-3.4,2.62h-1.21v1.04C64.06,14.94,64.31,15.3,65.74,15.3z M65.27,7.27h-1.21v3.7
					h1.21c1.19,0,1.74-0.83,1.74-1.83C67.01,8.13,66.46,7.27,65.27,7.27z"/>
			</g>
			<g>
				<path class="st1" d="M83.29,13.72l-0.11,0.38c-0.19,0.7-0.43,0.96-1.94,0.96h-0.3c-1.11,0-1.3-0.26-1.3-1.77v-0.98
					c1.66,0,1.79,0.15,1.79,1.26h0.4V10.4h-0.4c0,1.11-0.13,1.26-1.79,1.26V9.28h1.17c1.51,0,1.74,0.26,1.94,0.96l0.11,0.4h0.34
					l-0.15-2h-6.26v0.4c1.19,0,1.38,0.26,1.38,1.77v2.72c0,1.38-0.16,1.73-1.1,1.78c-0.89-0.14-1.51-0.62-2.34-1.55l-0.98-1.06
					c1.32-0.23,2.02-1.06,2.02-2c0-1.17-1-2.06-2.87-2.06h-3.74v0.4c1.19,0,1.38,0.26,1.38,1.77v2.72c0,1.51-0.19,1.79-1.38,1.79
					v0.4h4.23v-0.4c-1.19,0-1.38-0.28-1.38-1.79v-0.77h0.36l2.36,2.96h8.74l0.13-2L83.29,13.72L83.29,13.72z M72.01,12.1V9.27h0.87
					c0.96,0,1.38,0.66,1.38,1.43c0,0.74-0.43,1.4-1.38,1.4H72.01L72.01,12.1z"/>
			</g>
			<g>
				<path class="st1" d="M87.61,16c-0.85,0-1.6-0.45-1.92-0.72c-0.11,0.11-0.3,0.43-0.34,0.72h-0.4v-2.94h0.43
					c0.17,1.4,1.15,2.23,2.4,2.23c0.68,0,1.23-0.38,1.23-1.02c0-0.55-0.49-0.98-1.36-1.38l-1.21-0.57c-0.85-0.4-1.49-1.11-1.49-2.04
					c0-1.02,0.96-1.89,2.28-1.89c0.7,0,1.3,0.26,1.66,0.55C89,8.85,89.1,8.62,89.17,8.37h0.4v2.51h-0.45c-0.15-1-0.7-1.83-1.83-1.83
					c-0.6,0-1.15,0.34-1.15,0.87c0,0.55,0.45,0.85,1.47,1.32l1.17,0.57c1.02,0.49,1.43,1.28,1.43,1.92
					C90.21,15.06,89.04,16,87.61,16z"/>
			</g>
			<g>
				<path class="st1" d="M94.16,16c-0.85,0-1.6-0.45-1.92-0.72c-0.11,0.11-0.3,0.43-0.34,0.72h-0.4v-2.94h0.43
					c0.17,1.4,1.15,2.23,2.4,2.23c0.68,0,1.23-0.38,1.23-1.02c0-0.55-0.49-0.98-1.36-1.38l-1.21-0.57c-0.85-0.4-1.49-1.11-1.49-2.04
					c0-1.02,0.96-1.89,2.28-1.89c0.7,0,1.3,0.26,1.66,0.55c0.11-0.09,0.21-0.32,0.28-0.57h0.4v2.51h-0.45
					c-0.15-1-0.7-1.83-1.83-1.83c-0.6,0-1.15,0.34-1.15,0.87c0,0.55,0.45,0.85,1.47,1.32l1.17,0.57c1.02,0.49,1.43,1.28,1.43,1.92
					C96.76,15.06,95.59,16,94.16,16z"/>
			</g>
			<g>
				<g>
					<path class="st1" d="M1.56,10.97c0,3.73,2.17,6.95,5.31,8.47L2.38,7.13C1.86,8.31,1.56,9.61,1.56,10.97z"/>
				</g>
				<g>
					<path class="st1" d="M17.34,10.5c0-1.16-0.42-1.97-0.78-2.6c-0.48-0.78-0.92-1.43-0.92-2.21c0-0.87,0.66-1.67,1.58-1.67
						c0.04,0,0.08,0.01,0.12,0.01c-1.68-1.53-3.91-2.47-6.36-2.47c-3.29,0-6.18,1.69-7.87,4.24c0.22,0.01,0.43,0.01,0.61,0.01
						c0.98,0,2.51-0.12,2.51-0.12C6.74,5.66,6.8,6.41,6.29,6.47c0,0-0.51,0.06-1.08,0.09l3.43,10.2l2.06-6.18L9.23,6.56
						C8.72,6.53,8.24,6.47,8.24,6.47C7.73,6.44,7.79,5.66,8.3,5.69c0,0,1.56,0.12,2.48,0.12c0.98,0,2.51-0.12,2.51-0.12
						c0.51-0.03,0.57,0.72,0.06,0.78c0,0-0.51,0.06-1.08,0.09l3.4,10.12l0.94-3.14C17.03,12.24,17.34,11.3,17.34,10.5z"/>
				</g>
				<g>
					<path class="st1" d="M11.15,11.8l-2.83,8.21c0.84,0.25,1.74,0.38,2.66,0.38c1.1,0,2.15-0.19,3.13-0.53
						c-0.03-0.04-0.05-0.08-0.07-0.13L11.15,11.8z"/>
				</g>
				<g>
					<path class="st1" d="M19.24,6.45c0.04,0.3,0.06,0.62,0.06,0.97c0,0.96-0.18,2.03-0.72,3.37l-2.88,8.32
						c2.8-1.63,4.68-4.67,4.68-8.14C20.4,9.34,19.98,7.8,19.24,6.45z"/>
				</g>
				<g>
					<path class="st1" d="M10.98,0C4.93,0,0,4.92,0,10.98c0,6.05,4.92,10.98,10.98,10.98c6.05,0,10.98-4.92,10.98-10.98
						S17.03,0,10.98,0z M10.98,21.45c-5.77,0-10.47-4.7-10.47-10.47S5.21,0.51,10.98,0.51s10.47,4.7,10.47,10.47
						C21.45,16.75,16.75,21.45,10.98,21.45z"/>
				</g>
			</g>
		</g>
	</g>
</g>
</svg>
