<?xml version="1.0" encoding="UTF-8"?>
<svg id="Layer_1" data-name="Layer 1" xmlns="http://www.w3.org/2000/svg" viewBox="0 0 401.79 293.34">
  <defs>
    <style>
      .cls-1 {
        fill: #fff;
      }

      .cls-2 {
        fill: #096d94;
      }

      .cls-3 {
        fill: #30afe3;
        font-family: VistolSans-Black, 'Vistol Sans';
        font-size: 76.42px;
        font-weight: 800;
      }

      .cls-4 {
        fill: none;
        isolation: isolate;
        opacity: .12;
      }
    </style>
  </defs>
  <g>
    <g class="cls-4">
      <path class="cls-2" d="m134.52,239.78c-32.78-1.84-58.03-27.86-58.21-60.88l-.61-114.8c-.18-33.81,27.47-61.46,61.64-61.64l201.55-1.07c32.77-.17,60.69,26.57,62.26,59.62l.03,1.37.61,114.8c.18,33.81-27.47,61.46-61.64,61.64"/>
    </g>
    <path class="cls-2" d="m199.74,206.94h0l140.24-.75c16.31-.09,29.28-13.2,29.2-28.86l-.61-114.8c-.74-15.65-13.85-28.63-29.5-28.54l-201.55,1.07c-16.31.09-29.28,13.2-29.2,28.86l.61,114.8c.09,16.31,13.2,28.63,29.5,28.54h1.96c.65-.01,1.3-.02,1.96-.02"/>
  </g>
  <path class="cls-2" d="m197.27,206.19h140.24c16.31,0,29.35-13.05,29.35-28.7V62.69c-.65-15.65-13.7-28.7-29.35-28.7h-201.55c-16.31,0-29.35,13.05-29.35,28.7v114.8c0,16.31,13.05,28.7,29.35,28.7h3.91"/>
  <path class="cls-2" d="m267.53,136.17h110.9c12.9,0,23.21-10.32,23.21-22.7V22.7c-.52-12.38-10.83-22.7-23.21-22.7h-159.38c-12.9,0-23.21,10.32-23.21,22.7v90.78c0,12.9,10.32,22.7,23.21,22.7h3.09"/>
  <g>
    <g class="cls-4">
      <path d="m57.89,293.23C25.12,291.21,0,265.07,0,232.04v-114.8C0,83.43,27.79,55.93,61.96,55.93h201.55c32.77-.01,60.55,26.88,61.94,59.93l.03,1.37v114.8c0,33.81-27.79,61.31-61.96,61.32"/>
    </g>
    <path class="cls-1" d="m123.29,260.74h140.24c16.31,0,29.35-13.05,29.35-28.71v-114.8c-.66-15.65-13.7-28.7-29.36-28.7H61.96c-16.31.01-29.35,13.06-29.35,28.71v114.8c0,16.31,13.05,28.7,29.36,28.7h1.96c.65,0,1.3,0,1.96,0"/>
  </g>
  <text class="cls-3" transform="translate(99.44 192.14)"><tspan x="0" y="0">&lt;p&gt;</tspan></text>
</svg>