 <!-- Generator: Adobe Illustrator 25.0.1, SVG Export Plug-In  -->
<svg version="1.1" xmlns="http://www.w3.org/2000/svg" xmlns:xlink="http://www.w3.org/1999/xlink" x="0px" y="0px" width="146.16px" height="61.09px" viewBox="0 0 146.16 61.09" style="overflow:visible;enable-background:new 0 0 146.16 61.09;" xml:space="preserve">
<style type="text/css">
	.st0log{fill:#006C93;}
	.st1log{fill:#0095AF;}
</style>
<defs>
</defs>
<g>
	
		<rect x="125.53" y="1.3" transform="matrix(0.9968 -0.0797 0.0797 0.9968 -1.6073 10.196)" class="st0log" width="2.94" height="47.88"></rect>
	
		<rect x="117.24" y="1.97" transform="matrix(-0.9968 0.0797 -0.0797 -0.9968 239.1078 42.2747)" class="st1log" width="2.94" height="47.88"></rect>
	
		<rect x="141.33" y="0.04" transform="matrix(0.9968 -0.0797 0.0797 0.9968 -1.4566 11.4505)" class="st0log" width="2.94" height="47.88"></rect>
	
		<rect x="133.04" y="0.7" transform="matrix(-0.9968 0.0797 -0.0797 -0.9968 270.5576 38.495)" class="st1log" width="2.94" height="47.88"></rect>
	<g>
		<path d="M33.75,28.12c-0.31,0.12-0.69,0.36-1.08,0.4c-3.78,0.33-7.56,0.61-11.34,0.93c-6.04,0.55-12.07,1.06-18.11,1.58
			c1.13,6.43,7.29,11.04,13.6,11.07c0.82,0.8,0.44,1.68,0.64,2.53c-1.26,0.64-2.5,0.27-3.65,0.08C7.46,43.83-0.37,37.4,0.01,28.35
			c5.2-0.58,10.29-0.9,15.38-1.33c5.09-0.42,10.17-0.88,15.34-1.33c-0.86-6.82-6.79-11.66-13.51-11.87
			c-0.11-0.93-0.21-1.81-0.32-2.7C24,10.31,34.41,17.15,33.75,28.12z"></path>
		<path d="M37.12,59.58c-1.35,0.51-1.35,0.51-2.5,0.22C34,53.42,30.18,48.49,23.38,47.9c-0.33,2.88,0.57,5.73,0.5,8.61
			c0,1.44,0.65,2.88,0.06,4.45c-0.83,0.04-1.58,0.08-2.42,0.13c-1.13-8.7-2.01-20.02-2.46-28.82c1.01-0.16,1.83-0.74,2.79,0.17
			c0.32,3.63,0.64,7.38,0.99,11.28c5.99-0.96,9.81-6.71,9.4-12.62c0.88-0.08,1.62-0.15,2.33-0.22c1.3,3.44-0.7,10.81-7.81,14.68
			c4.19,1.51,7.4,4.09,9.23,8.14C36.83,55.56,37.39,57.53,37.12,59.58z"></path>
		<path d="M70.02,51.01c-0.78,0.55-0.78,0.55-1.96,0.43c-0.88-3.43-2.33-6.77-5.63-8.49c-1.34-0.74-2.75-1.3-4.55-1.07
			c0.26,3.44,0.52,6.83,0.78,10.38c-0.65,0.08-1.16,0.15-1.63,0.21c-0.49-1.23-2.19-19.26-2.21-23.27
			c5.91-1.49,12.12,2.99,13.47,8.88c0.28,0.95,0.41,2.07-0.02,2.93c-1.57,0.11-2.92,0.2-4.6,0.31C67.19,43.8,69.2,46.99,70.02,51.01
			z M66.42,39.11c-0.51-4.56-5.48-8.8-9.47-8c0.24,2.85,0.48,5.71,0.73,8.73C60.68,39.58,63.55,39.34,66.42,39.11z"></path>
		<path d="M50.49,29.54c0.66,7.84,1.3,15.51,1.96,23.32c-0.68,0.08-1.19,0.13-1.9,0.21c-0.5-3.46-0.58-6.88-1-10.4
			c-2.95-0.01-5.8,0.39-8.86,0.66c0.27,3.49,0.53,6.89,0.8,10.47c-0.65,0.04-1.15,0.08-1.75,0.12c-0.59-3.94-0.6-7.75-1.04-11.68
			c-0.64-6.06,3.83-11.79,10.02-12.7C49.24,29.48,49.78,29.54,50.49,29.54z M40.62,41.31c2.97-0.26,5.84-0.51,8.79-0.76
			c-0.26-3.08-0.51-6-0.75-8.91C45.03,31.76,40.35,36.15,40.62,41.31z"></path>
		<path d="M81.54,26.77c0.04,0.69,0.07,1.21,0.11,1.83c-5.32,1.05-8.39,4.09-8.8,9.72c5.58-0.08,10.97-0.9,16.49-1.21
			c0.98,1.72,0.54,5.19-1.02,7.75c-1.89,3.08-4.51,5.11-8.41,5.62c-0.09-0.69-0.17-1.27-0.24-1.8c5.75-2.35,7.64-4.5,8.04-9.25
			c-5.51,0.26-10.96,0.97-16.55,1.26c-0.93-3.76-0.07-7,2.28-9.85C75.49,28.36,78.07,26.82,81.54,26.77z"></path>
		<path d="M95.65,49.21c-0.59,0.08-1.09,0.16-1.79,0.26c-0.67-7.91-1.32-15.62-1.98-23.48c0.67-0.07,1.17-0.12,1.86-0.18
			c0.31,3.33,0.6,6.54,0.89,9.74c4.81-0.69,7.65-4.25,8.39-10.51c0.47-0.03,0.97-0.06,1.62-0.09c0.13,5.55-2.4,9.28-7.21,11.86
			c5.52,1.92,8.7,5.51,9.1,11.46c-0.59,0.07-1.06,0.12-1.7,0.2c-0.26-3.25-1.42-5.97-4-7.95c-1.75-1.34-3.21-1.86-5.86-2.05
			C94.94,41.99,95.61,45.47,95.65,49.21z"></path>
		<path d="M65.11,20.27c-1.31,0.1-2.52,0.2-3.87,0.3c-0.12-0.55-0.22-0.99-0.31-1.4c0.96-0.59,4.18-0.99,6.02-0.79
			c0.54,0.7,0.31,1.53,0.1,2.24c-2.34,8.71-15.17,7.92-16.12-1.43C50.54,8.86,64.67,7.5,66.99,16.37c0.08,0.31,0.05,0.65,0.09,1.11
			c-0.55,0.09-1,0.16-1.58,0.25c-1.66-7.98-13.19-6.83-12.63,1.53C53.62,26.27,63.45,26.65,65.11,20.27z"></path>
		<path d="M95.47,23.62c-0.49,0.05-0.94,0.1-1.37,0.15c-0.51-1.55-1.6-14.36-1.37-16.06c0.43-0.04,0.89-0.08,1.55-0.14
			c0.29,3.2,0.57,6.3,0.88,9.7c3.25-4.04,8.64-4.46,12.49-1.04c-0.27-3.33-0.51-6.45-0.77-9.7c0.62-0.05,1.08-0.09,1.7-0.14
			c0.52,2.66,0.5,5.31,0.8,7.91c0.3,2.62,0.42,5.26,0.64,8.05c-0.53,0.1-0.98,0.19-1.6,0.32c-0.14-0.61-0.31-1.1-0.36-1.6
			c-0.3-3.16-3.45-5.66-6.63-5.34C97.14,16.05,95.17,19.6,95.47,23.62z"></path>
		<path d="M36.5,12.52c4.12-1.2,9.55,2.75,9.19,7.97c-0.98,0.3-1.61,0.37-2.79,0.42c2.14,1.76,3.37,3.84,3.89,6.33
			c-1.1,0.6-6.08,1.13-9,0.97C37.28,26.7,36.22,13.78,36.5,12.52z M38.48,19.58c1.93-0.17,3.72-0.33,5.54-0.49
			c-0.93-3.25-3.3-5.21-5.97-4.89C38.19,15.93,38.33,17.67,38.48,19.58z M38.63,21.12c0.16,1.9,0.3,3.62,0.46,5.47
			c1.91-0.16,3.69-0.31,5.57-0.47C43.69,23.23,41.81,21.65,38.63,21.12z"></path>
		<path d="M69.94,11.46c0.39,4.85,0.77,9.49,1.16,14.31c-0.67,0.03-1.16,0.06-1.77,0.09C68.79,20.46,68.36,15.2,67.99,10
			c2.35-0.72,3.57-0.4,7.3,1.81c-0.04-0.78-0.07-1.55-0.11-2.46c0.53-0.1,0.98-0.19,1.6-0.31c0.64,1.84,0.4,3.69,0.66,5.46
			c0.28,3.59,0.73,7.06,0.75,10.71c-0.59,0-1.01,0-1.51,0c-0.1-0.27-0.26-0.52-0.28-0.8C75.63,19.11,77.07,12.36,69.94,11.46z"></path>
		<path d="M90.95,7.99c0,0.51,0,0.96,0,1.5c-3.44,0.13-6.33,2.46-6.54,6.04c2.29-0.18,4.56-0.37,7-0.56c0.1,0.55,0.18,1.03,0.3,1.69
			c-2.47,0.25-4.75,0.47-7.04,0.7c0.53,3.14,2.96,4.78,7.38,4.94c0.09,0.39,0.18,0.83,0.27,1.23c-5.77,2.35-11.91-5.14-9.08-10.83
			C84.63,9.6,87.59,7.72,90.95,7.99z"></path>
		<path d="M108.34,24.39c0.75-0.41,1.31-0.68,1.95,0.09c0.65,7.69,1.3,15.5,1.97,23.51c-0.67,0.08-1.18,0.15-1.9,0.24
			C109.67,40.14,109,32.25,108.34,24.39z"></path>
		<path d="M81.83,24.82c-0.52,0.03-0.97,0.06-1.63,0.09c-0.45-5.4-0.9-10.64-1.34-15.93c0.69-0.2,0.97-0.25,1.57-0.17
			C80.86,9.95,82.01,22.77,81.83,24.82z"></path>
		<path d="M47.43,11.47c0.54,0,1,0,1.62,0c0.45,5.34,0.89,10.58,1.34,15.96c-0.64,0.09-1.1,0.15-1.51,0.2
			C48.35,26.35,47.21,13.44,47.43,11.47z"></path>
	</g>
</g>
</svg>