<?xml version="1.0" encoding="utf-8"?>
<!-- Generator: Adobe Illustrator 25.2.1, SVG Export Plug-In . SVG Version: 6.00 Build 0)  -->
<svg version="1.1" id="Layer_1" xmlns="http://www.w3.org/2000/svg" xmlns:xlink="http://www.w3.org/1999/xlink" x="0px" y="0px"
	 viewBox="0 0 146.2 61.1" style="enable-background:new 0 0 146.2 61.1;" xml:space="preserve">
<style type="text/css">
	.st0{fill:#006C93;}
	.st1{fill:#0095AF;}
</style>
<g>
	
		<rect x="125.5" y="1.3" transform="matrix(0.9968 -7.970150e-02 7.970150e-02 0.9968 -1.6071 10.2022)" class="st0" width="2.9" height="47.9"/>
	
		<rect x="117.2" y="2" transform="matrix(0.9968 -7.970150e-02 7.970150e-02 0.9968 -1.6873 9.544)" class="st1" width="2.9" height="47.9"/>
	
		<rect x="141.3" y="0" transform="matrix(0.9968 -7.970150e-02 7.970150e-02 0.9968 -1.4564 11.4574)" class="st0" width="2.9" height="47.9"/>
	
		<rect x="133" y="0.7" transform="matrix(0.9968 -7.970150e-02 7.970150e-02 0.9968 -1.5371 10.7994)" class="st1" width="2.9" height="47.9"/>
	<g>
		<path d="M33.8,28.1c-0.3,0.1-0.7,0.4-1.1,0.4c-3.8,0.3-7.6,0.6-11.3,0.9C15.3,30,9.3,30.5,3.2,31c1.1,6.4,7.3,11,13.6,11.1
			c0.8,0.8,0.4,1.7,0.6,2.5c-1.3,0.6-2.5,0.3-3.6,0.1C7.5,43.8-0.4,37.4,0,28.4c5.2-0.6,10.3-0.9,15.4-1.3
			c5.1-0.4,10.2-0.9,15.3-1.3c-0.9-6.8-6.8-11.7-13.5-11.9c-0.1-0.9-0.2-1.8-0.3-2.7C24,10.3,34.4,17.1,33.8,28.1z"/>
		<path d="M37.1,59.6c-1.3,0.5-1.3,0.5-2.5,0.2c-0.6-6.4-4.4-11.3-11.2-11.9c-0.3,2.9,0.6,5.7,0.5,8.6c0,1.4,0.6,2.9,0.1,4.5
			c-0.8,0-1.6,0.1-2.4,0.1c-1.1-8.7-2-20-2.5-28.8c1-0.2,1.8-0.7,2.8,0.2c0.3,3.6,0.6,7.4,1,11.3c6-1,9.8-6.7,9.4-12.6
			c0.9-0.1,1.6-0.1,2.3-0.2c1.3,3.4-0.7,10.8-7.8,14.7c4.2,1.5,7.4,4.1,9.2,8.1C36.8,55.6,37.4,57.5,37.1,59.6z"/>
		<path d="M70,51c-0.8,0.5-0.8,0.5-2,0.4c-0.9-3.4-2.3-6.8-5.6-8.5c-1.3-0.7-2.8-1.3-4.5-1.1c0.3,3.4,0.5,6.8,0.8,10.4
			c-0.7,0.1-1.2,0.2-1.6,0.2c-0.5-1.2-2.2-19.3-2.2-23.3c5.9-1.5,12.1,3,13.5,8.9c0.3,1,0.4,2.1,0,2.9c-1.6,0.1-2.9,0.2-4.6,0.3
			C67.2,43.8,69.2,47,70,51z M66.4,39.1c-0.5-4.6-5.5-8.8-9.5-8c0.2,2.8,0.5,5.7,0.7,8.7C60.7,39.6,63.5,39.3,66.4,39.1z"/>
		<path d="M50.5,29.5c0.7,7.8,1.3,15.5,2,23.3c-0.7,0.1-1.2,0.1-1.9,0.2c-0.5-3.5-0.6-6.9-1-10.4c-3,0-5.8,0.4-8.9,0.7
			c0.3,3.5,0.5,6.9,0.8,10.5c-0.7,0-1.2,0.1-1.8,0.1c-0.6-3.9-0.6-7.8-1-11.7c-0.6-6.1,3.8-11.8,10-12.7
			C49.2,29.5,49.8,29.5,50.5,29.5z M40.6,41.3c3-0.3,5.8-0.5,8.8-0.8c-0.3-3.1-0.5-6-0.8-8.9C45,31.8,40.3,36.2,40.6,41.3z"/>
		<path d="M81.5,26.8c0,0.7,0.1,1.2,0.1,1.8c-5.3,1-8.4,4.1-8.8,9.7c5.6-0.1,11-0.9,16.5-1.2c1,1.7,0.5,5.2-1,7.8
			c-1.9,3.1-4.5,5.1-8.4,5.6c-0.1-0.7-0.2-1.3-0.2-1.8c5.8-2.3,7.6-4.5,8-9.2c-5.5,0.3-11,1-16.6,1.3c-0.9-3.8-0.1-7,2.3-9.9
			C75.5,28.4,78.1,26.8,81.5,26.8z"/>
		<path d="M95.7,49.2c-0.6,0.1-1.1,0.2-1.8,0.3c-0.7-7.9-1.3-15.6-2-23.5c0.7-0.1,1.2-0.1,1.9-0.2c0.3,3.3,0.6,6.5,0.9,9.7
			c4.8-0.7,7.7-4.2,8.4-10.5c0.5,0,1-0.1,1.6-0.1c0.1,5.6-2.4,9.3-7.2,11.9c5.5,1.9,8.7,5.5,9.1,11.5c-0.6,0.1-1.1,0.1-1.7,0.2
			c-0.3-3.2-1.4-6-4-8c-1.8-1.3-3.2-1.9-5.9-2C94.9,42,95.6,45.5,95.7,49.2z"/>
		<path d="M65.1,20.3c-1.3,0.1-2.5,0.2-3.9,0.3c-0.1-0.5-0.2-1-0.3-1.4c1-0.6,4.2-1,6-0.8c0.5,0.7,0.3,1.5,0.1,2.2
			c-2.3,8.7-15.2,7.9-16.1-1.4C50.5,8.9,64.7,7.5,67,16.4c0.1,0.3,0.1,0.6,0.1,1.1c-0.6,0.1-1,0.2-1.6,0.2c-1.7-8-13.2-6.8-12.6,1.5
			C53.6,26.3,63.5,26.6,65.1,20.3z"/>
		<path d="M95.5,23.6c-0.5,0-0.9,0.1-1.4,0.1c-0.5-1.5-1.6-14.4-1.4-16.1c0.4,0,0.9-0.1,1.6-0.1c0.3,3.2,0.6,6.3,0.9,9.7
			c3.2-4,8.6-4.5,12.5-1c-0.3-3.3-0.5-6.4-0.8-9.7c0.6-0.1,1.1-0.1,1.7-0.1c0.5,2.7,0.5,5.3,0.8,7.9c0.3,2.6,0.4,5.3,0.6,8
			c-0.5,0.1-1,0.2-1.6,0.3c-0.1-0.6-0.3-1.1-0.4-1.6c-0.3-3.2-3.4-5.7-6.6-5.3C97.1,16,95.2,19.6,95.5,23.6z"/>
		<path d="M36.5,12.5c4.1-1.2,9.5,2.8,9.2,8c-1,0.3-1.6,0.4-2.8,0.4c2.1,1.8,3.4,3.8,3.9,6.3c-1.1,0.6-6.1,1.1-9,1
			C37.3,26.7,36.2,13.8,36.5,12.5z M38.5,19.6c1.9-0.2,3.7-0.3,5.5-0.5c-0.9-3.2-3.3-5.2-6-4.9C38.2,15.9,38.3,17.7,38.5,19.6z
			 M38.6,21.1c0.2,1.9,0.3,3.6,0.5,5.5c1.9-0.2,3.7-0.3,5.6-0.5C43.7,23.2,41.8,21.6,38.6,21.1z"/>
		<path d="M69.9,11.5c0.4,4.8,0.8,9.5,1.2,14.3c-0.7,0-1.2,0.1-1.8,0.1c-0.5-5.4-1-10.7-1.3-15.9c2.3-0.7,3.6-0.4,7.3,1.8
			c0-0.8-0.1-1.6-0.1-2.5c0.5-0.1,1-0.2,1.6-0.3c0.6,1.8,0.4,3.7,0.7,5.5c0.3,3.6,0.7,7.1,0.8,10.7c-0.6,0-1,0-1.5,0
			c-0.1-0.3-0.3-0.5-0.3-0.8C75.6,19.1,77.1,12.4,69.9,11.5z"/>
		<path d="M90.9,8c0,0.5,0,1,0,1.5c-3.4,0.1-6.3,2.5-6.5,6c2.3-0.2,4.6-0.4,7-0.6c0.1,0.6,0.2,1,0.3,1.7c-2.5,0.2-4.8,0.5-7,0.7
			c0.5,3.1,3,4.8,7.4,4.9c0.1,0.4,0.2,0.8,0.3,1.2c-5.8,2.4-11.9-5.1-9.1-10.8C84.6,9.6,87.6,7.7,90.9,8z"/>
		<path d="M108.3,24.4c0.8-0.4,1.3-0.7,1.9,0.1c0.7,7.7,1.3,15.5,2,23.5c-0.7,0.1-1.2,0.2-1.9,0.2C109.7,40.1,109,32.2,108.3,24.4z"
			/>
		<path d="M81.8,24.8c-0.5,0-1,0.1-1.6,0.1c-0.4-5.4-0.9-10.6-1.3-15.9c0.7-0.2,1-0.2,1.6-0.2C80.9,9.9,82,22.8,81.8,24.8z"/>
		<path d="M47.4,11.5c0.5,0,1,0,1.6,0c0.5,5.3,0.9,10.6,1.3,16c-0.6,0.1-1.1,0.1-1.5,0.2C48.3,26.4,47.2,13.4,47.4,11.5z"/>
	</g>
</g>
</svg>
