<?xml version="1.0" encoding="utf-8"?>
<!-- Generator: Adobe Illustrator 25.2.1, SVG Export Plug-In . SVG Version: 6.00 Build 0)  -->
<svg version="1.1" id="Layer_1" xmlns="http://www.w3.org/2000/svg" xmlns:xlink="http://www.w3.org/1999/xlink" x="0px" y="0px"
	 viewBox="0 0 832 249" style="enable-background:new 0 0 832 249;" xml:space="preserve">
<style type="text/css">
	.st0{fill:#010101;}
	.st1{fill:#FFFFFF;}
	.st2{fill:#E83C3A;}
	.st3{fill:#BB3535;}
	.st4{fill:#BC3937;}
	.st5{fill:#BC3936;}
	.st6{fill:#BC3A37;}
	.st7{fill:#BC3836;}
	.st8{fill:#BB3635;}
	.st9{fill:#BC3636;}
	.st10{fill:#E83D3B;}
	.st11{fill:#00739C;}
	.st12{fill:#474443;}
	.st13{fill:#649F60;}
	.st14{fill-rule:evenodd;clip-rule:evenodd;fill:#333333;}
	.st15{fill-rule:evenodd;clip-rule:evenodd;fill:#649F60;}
	.st16{fill:#3A8644;}
	.st17{fill:#70AB60;}
	.st18{fill:#50954A;}
	.st19{fill:#54AB4E;}
	.st20{fill:#9FC49F;}
	.st21{fill:#A8CEA3;}
	.st22{fill:#DCEAD8;}
	.st23{fill:#74B45B;}
	.st24{fill:#71B853;}
	.st25{fill:#66C050;}
	.st26{fill:#6DBB4E;}
	.st27{fill:#69BD4F;}
	.st28{fill:#519A49;}
	.st29{fill:#52A44C;}
	.st30{fill:#539E4B;}
	.st31{fill:#6BA65C;}
	.st32{fill:#619B55;}
	.st33{fill:#67A359;}
	.st34{fill:#64A058;}
	.st35{fill:#619E55;}
	.st36{fill:#398744;}
	.st37{fill:#5B9950;}
	.st38{fill:#478F46;}
	.st39{fill:#55954B;}
	.st40{fill:#4C9347;}
	.st41{fill:#418B45;}
	.st42{fill:#50934A;}
	.st43{fill:#488F46;}
	.st44{fill:#5D9752;}
	.st45{fill:#E95531;}
	.st46{fill:#F76C33;}
	.st47{fill:#C54A4E;}
	.st48{fill:#C5494C;}
	.st49{fill:#1F62AB;}
	.st50{fill:#8E9ECE;}
	.st51{fill:#389AD1;}
	.st52{fill:#D4D3D2;}
	.st53{fill:#D3D5D6;}
	.st54{fill:#389AD2;}
	.st55{fill:#DEDFDF;}
	.st56{fill:#E8E8E8;}
	.st57{fill:#5CA4D4;}
</style>
<g id="mono_nextt">
	<g id="Page-1_3_">
		<g id="Black-Next.js_3_" transform="translate(-247.000000, -138.000000)">
			<g id="next-black_3_" transform="translate(247.000000, 138.000000)">
				<g id="EXT-_x2B_-Type-something_3_">
					<g id="EXT_3_">
						<path class="st0" d="M474.5,154.7h9.5v0.8h-8.6v5.6h8.1v0.8h-8.1v6.2h8.7v0.8h-9.6V154.7z M484.9,154.7h1l4.5,6.2l4.6-6.2
							l6.2-7.9l-10.2,14.7l5.3,7.2h-1l-4.8-6.6l-4.8,6.6h-1l5.3-7.2L484.9,154.7z M496.5,155.5v-0.8h10.8v0.8h-5v13.4h-0.9v-13.4
							H496.5z"/>
					</g>
					<g id="Type-something_3_">
						<polygon class="st0" points="462.7,154.7 463.7,154.7 478.7,177.1 472.5,168.9 463.6,155.8 463.5,168.9 462.7,168.9 						"/>
					</g>
				</g>
				<g id="_x2E_JS_3_">
					<path class="st0" d="M507.3,167.9c0.2,0,0.3-0.1,0.3-0.3c0-0.2-0.1-0.3-0.3-0.3s-0.3,0.1-0.3,0.3S507.1,167.9,507.3,167.9z
						 M508.1,167c0,0.5,0.4,0.9,0.9,0.9c0.6,0,0.9-0.4,0.9-1v-2.1h-0.5v2.1c0,0.3-0.2,0.5-0.5,0.5c-0.3,0-0.5-0.2-0.5-0.4H508.1z
						 M510.6,167c0,0.5,0.5,0.9,1.2,0.9c0.7,0,1.2-0.4,1.2-0.9c0-0.5-0.3-0.7-0.9-0.9l-0.3-0.1c-0.4-0.1-0.6-0.2-0.6-0.4
						c0-0.3,0.2-0.4,0.6-0.4c0.4,0,0.6,0.2,0.6,0.5h0.5c0-0.5-0.5-0.9-1.1-0.9c-0.7,0-1.1,0.4-1.1,0.9c0,0.4,0.2,0.7,0.8,0.8
						l0.4,0.1c0.4,0.1,0.6,0.2,0.6,0.5c0,0.3-0.3,0.5-0.7,0.5c-0.4,0-0.7-0.2-0.7-0.5L510.6,167L510.6,167z"/>
				</g>
			</g>
		</g>
	</g>
</g>
<g id="mono_angulart">
	<g>
		<g>
			<path class="st1" d="M723.6,56.4c0.7-0.2,8.8-7.1,8.8-7.1l2.5,2.8l6.8,14.8l-0.8,2l-2.5,0.6l-13.8-0.1l-1.5-0.4"/>
		</g>
		<g>
			<g>
				<g>
					<path class="st2" d="M732.2,74.7c-0.9-0.5-1.8-0.9-2.7-1.4c-2.5-1.4-5.1-2.8-7.6-4.2c-0.2-0.1-0.3-0.3-0.3-0.5
						c-0.6-5-1.2-10-1.7-15c0-0.2-0.1-0.3-0.1-0.5c0-0.2,0-0.5,0-0.7c0.2,0,0.3-0.1,0.4-0.1c4-1.4,8-2.8,11.9-4.2c0,0,0.1,0,0.1,0
						c0,1,0,2.1,0,3.2c-2.6,5.7-5.2,11.5-7.7,17.2c0.9,0,1.7,0,2.5,0c0.3,0,0.5-0.1,0.6-0.4c0.4-1.1,0.9-2.2,1.3-3.3
						c0-0.1,0.2-0.3,0.3-0.3c1,0,2,0,3.1,0C732.2,67.8,732.2,71.3,732.2,74.7z"/>
				</g>
				<g>
					<path class="st3" d="M732.2,74.7c0-3.4,0-6.9,0-10.3c1.1,0,2.2,0,3.3,0c0.3,0,0.4,0.1,0.5,0.3c0.5,1.1,1,2.2,1.5,3.4
						c0,0.1,0.2,0.3,0.2,0.3c0.9,0,1.7,0,2.6,0c0-0.1-0.1-0.2-0.1-0.2c-2.6-5.6-5.2-11.1-7.8-16.7c0-0.1-0.1-0.2-0.2-0.3
						c0-1,0-2.1,0-3.2c0.4,0.1,0.8,0.2,1.1,0.3c3.8,1.3,7.6,2.6,11.4,3.9c0.1,0,0.2,0.1,0.3,0.1c-0.1,0.9-0.2,1.8-0.3,2.7
						c-0.4,3.2-0.8,6.4-1.2,9.6c-0.2,1.3-0.3,2.6-0.5,3.9c0,0.2-0.2,0.4-0.3,0.5c-3.4,1.9-6.8,3.8-10.2,5.6
						C732.4,74.6,732.3,74.7,732.2,74.7z"/>
				</g>
				<g>
					<path class="st4" d="M750.4,58.1c0,3.2,0,6.5,0,9.7c-0.5,0-1,0-1.5,0c0-4,0-8.1,0-12.2c0.5,0,1,0,1.4,0c0.1,0,0.2,0.2,0.3,0.3
						c2.3,3,4.6,6,6.9,9.1c0.1,0.1,0.2,0.2,0.3,0.4c0-3.3,0-6.5,0-9.7c0.5,0,1,0,1.5,0c0,4,0,8.1,0,12.2c-0.5,0-1,0-1.5,0
						c-0.1,0-0.2-0.2-0.3-0.3c-2.3-3.1-4.6-6.1-6.9-9.2C750.7,58.2,750.6,58.2,750.4,58.1C750.4,58,750.4,58.1,750.4,58.1z"/>
				</g>
				<g>
					<path class="st5" d="M811,57c0,3.6,0,7.2,0,10.8c-0.5,0-1,0-1.6,0c0-4,0-8.1,0-12.1c0.1,0,0.1,0,0.2,0c1.8,0,3.5,0,5.3,0
						c0.3,0,0.5,0,0.8,0.1c2.2,0.4,3.2,2.8,1.8,4.6c-0.5,0.7-1.2,1.1-2,1.4c-0.2,0.1-0.5,0.2-0.8,0.3c1.4,1.9,2.8,3.8,4.2,5.7
						c-0.7,0-1.3,0-2,0c-0.1,0-0.2-0.1-0.3-0.2c-1.2-1.7-2.4-3.4-3.6-5.1c-0.2-0.3-0.2-0.8-0.2-1.2c0.6-0.2,1.1-0.3,1.6-0.5
						c0.5-0.2,0.9-0.5,1.3-0.8c0.6-0.5,0.8-1.3,0.6-2.1c-0.2-0.6-0.7-1-1.4-1.1C813.7,56.9,812.4,57,811,57z"/>
				</g>
				<g>
					<path class="st6" d="M782.6,55.6c0.5,0,1,0,1.6,0c0,0.1,0,0.3,0,0.4c0,2.3,0,4.6,0,7c0,0.5,0,1-0.1,1.5c-0.3,1.7-1.3,2.8-3,3.2
						c-1.3,0.3-2.6,0.3-3.9,0c-1.8-0.5-2.9-1.8-3.1-3.7c0-0.4,0-0.8,0-1.1c0-2.2,0-4.5,0-6.8c0-0.1,0-0.3,0-0.4c0.5,0,1,0,1.6,0
						c0,0.1,0,0.3,0,0.4c0,2.3,0,4.6,0,6.9c0,0.4,0,0.8,0.1,1.2c0.2,1.3,1,2.1,2.3,2.4c0.6,0.1,1.2,0.1,1.7,0.1
						c1.8-0.2,2.8-1.2,2.9-3.1c0-0.9,0-1.8,0-2.7c0-1.6,0-3.1,0-4.7C782.6,55.9,782.6,55.8,782.6,55.6z"/>
				</g>
				<g>
					<path class="st4" d="M801.7,54c2,4.6,4,9.2,6.1,13.8c-0.6,0-1.1,0-1.6,0c-0.1,0-0.2-0.2-0.2-0.3c-0.5-1.1-0.9-2.1-1.3-3.2
						c-0.1-0.2-0.2-0.3-0.5-0.3c-1.2,0-2.4,0-3.7,0c0.1-0.4,0.2-0.8,0.4-1.2c0-0.1,0.2-0.1,0.3-0.1c0.9,0,1.8,0,2.8,0
						c-0.8-1.8-1.5-3.6-2.3-5.5c-0.1,0.2-0.1,0.3-0.2,0.4c-1.3,3.3-2.7,6.5-4,9.8c-0.1,0.3-0.3,0.4-0.6,0.4c-0.4,0-0.8,0-1.2,0
						C797.6,63.2,799.6,58.7,801.7,54z"/>
				</g>
				<g>
					<path class="st7" d="M771.5,57.3c-0.8-0.2-1.5-0.4-2.2-0.4c-0.9,0-1.9,0-2.8,0.1c-1.8,0.3-2.9,1.6-3.1,3.4
						c-0.1,0.8-0.1,1.7,0,2.6c0.3,2.2,1.7,3.4,4,3.6c0.7,0.1,1.5-0.1,2.2-0.1c0.3,0,0.3-0.1,0.3-0.4c0-1.2,0-2.5,0-3.7
						c0.5,0,1,0,1.5,0c0,0.1,0,0.2,0,0.2c0,1.5,0,3,0,4.5c0,0.2-0.1,0.3-0.3,0.4c-1.9,0.6-3.8,0.6-5.7,0.1c-1.9-0.6-3-1.8-3.5-3.7
						c-0.3-1.4-0.4-2.8,0-4.2c0.5-2.2,2-3.5,4.3-3.9c1.6-0.3,3.3-0.2,4.9,0.2c0.3,0.1,0.4,0.2,0.4,0.5
						C771.5,56.7,771.5,57,771.5,57.3z"/>
				</g>
				<g>
					<path class="st8" d="M788.6,66.5c2.1,0,4.2,0,6.4,0c0,0.4,0,0.8,0,1.3c-2.6,0-5.3,0-7.9,0c0-4,0-8.1,0-12.1c0.5,0,1,0,1.5,0
						C788.6,59.3,788.6,62.9,788.6,66.5z"/>
				</g>
				<g>
					<path class="st9" d="M732.2,56.8c0,0,0-0.1,0.1-0.2c0.9,1.9,1.8,3.7,2.6,5.5c-0.9,0-1.8,0-2.7,0
						C732.2,60.3,732.2,58.6,732.2,56.8z"/>
				</g>
				<g>
					<path class="st10" d="M732.2,56.8c0,1.7,0,3.5,0,5.2c-0.7,0-1.4,0-2.2,0c0-0.1,0-0.2,0-0.2c0.7-1.6,1.4-3.2,2-4.9
						C732.1,56.9,732.2,56.9,732.2,56.8z"/>
				</g>
			</g>
		</g>
	</g>
</g>
<g id="mono_next5">
	<g id="Page-1">
		<g id="Black-Next.js" transform="translate(-247.000000, -138.000000)">
			<g id="next-black" transform="translate(247.000000, 138.000000)">
				<g id="EXT-_x2B_-Type-something">
					<g id="EXT">
						<path class="st0" d="M656,39h9.5v0.8h-8.6v5.7h8.1v0.8h-8.1v6.2h8.7v0.8H656L656,39L656,39z M666.4,39h1l4.5,6.2l4.6-6.2
							l6.2-7.9l-10.2,14.7l5.3,7.2h-1l-4.8-6.6l-4.8,6.6h-1l5.3-7.2L666.4,39z M678.1,39.7V39h10.8v0.8h-5v13.4H683V39.7H678.1z"/>
					</g>
					<g id="Type-something">
						<polygon class="st0" points="644.2,39 645.3,39 660.2,61.3 654.1,53.1 645.1,40.1 645,53.1 644.2,53.1 						"/>
					</g>
				</g>
				<g id="_x2E_JS">
					<path class="st0" d="M688.8,52.1c0.2,0,0.3-0.1,0.3-0.3s-0.1-0.3-0.3-0.3s-0.3,0.1-0.3,0.3S688.6,52.1,688.8,52.1z M689.6,51.3
						c0,0.5,0.4,0.9,0.9,0.9c0.6,0,0.9-0.3,0.9-1V49H691v2.2c0,0.3-0.2,0.5-0.5,0.5c-0.3,0-0.5-0.2-0.5-0.4
						C690.1,51.3,689.6,51.3,689.6,51.3z M692.1,51.3c0,0.5,0.5,0.9,1.2,0.9c0.7,0,1.2-0.4,1.2-1c0-0.5-0.3-0.7-0.9-0.9l-0.3-0.1
						c-0.4-0.1-0.6-0.2-0.6-0.4c0-0.3,0.2-0.5,0.6-0.5c0.4,0,0.6,0.2,0.7,0.5h0.5c0-0.5-0.5-0.9-1.1-0.9c-0.7,0-1.1,0.4-1.1,0.9
						c0,0.5,0.2,0.7,0.8,0.8l0.4,0.1c0.4,0.1,0.6,0.2,0.6,0.5c0,0.3-0.3,0.5-0.7,0.5c-0.4,0-0.7-0.2-0.7-0.5L692.1,51.3L692.1,51.3z
						"/>
				</g>
			</g>
		</g>
	</g>
</g>
<g id="mono_angular7">
	<g>
		<g>
			<path class="st1" d="M542.1,172.1c0.7-0.2,8.8-7.1,8.8-7.1l2.5,2.8l6.8,14.8l-0.8,2l-2.5,0.6l-13.8-0.1l-1.5-0.4"/>
		</g>
		<g>
			<g>
				<g>
					<path class="st2" d="M550.7,190.4c-0.9-0.5-1.8-0.9-2.7-1.4c-2.5-1.4-5.1-2.8-7.6-4.2c-0.2-0.1-0.3-0.3-0.3-0.5
						c-0.6-5-1.2-10-1.7-15c0-0.2-0.1-0.3-0.1-0.5c0-0.2,0-0.5,0-0.7c0.2,0,0.3-0.1,0.4-0.1c4-1.4,8-2.8,11.9-4.2c0,0,0.1,0,0.1,0
						c0,1.1,0,2.1,0,3.2c-2.6,5.7-5.2,11.5-7.7,17.2c0.9,0,1.7,0,2.5,0c0.3,0,0.5-0.1,0.6-0.4c0.4-1.1,0.9-2.2,1.3-3.3
						c0-0.1,0.2-0.3,0.3-0.3c1,0,2,0,3.1,0C550.7,183.6,550.7,187,550.7,190.4z"/>
				</g>
				<g>
					<path class="st3" d="M550.7,190.4c0-3.4,0-6.9,0-10.3c1.1,0,2.2,0,3.3,0c0.3,0,0.4,0.1,0.5,0.3c0.5,1.1,1,2.2,1.5,3.4
						c0,0.1,0.2,0.3,0.2,0.3c0.9,0,1.7,0,2.6,0c0-0.1-0.1-0.2-0.1-0.2c-2.6-5.6-5.2-11.1-7.8-16.7c0-0.1-0.1-0.2-0.2-0.3
						c0-1.1,0-2.1,0-3.2c0.4,0.1,0.8,0.2,1.1,0.4c3.8,1.3,7.6,2.6,11.4,3.9c0.1,0,0.2,0.1,0.3,0.1c-0.1,0.9-0.2,1.8-0.3,2.7
						c-0.4,3.2-0.8,6.4-1.2,9.6c-0.2,1.3-0.3,2.6-0.5,3.9c0,0.2-0.2,0.4-0.3,0.5c-3.4,1.9-6.8,3.8-10.2,5.6
						C550.9,190.4,550.8,190.4,550.7,190.4z"/>
				</g>
				<g>
					<path class="st4" d="M568.9,173.8c0,3.2,0,6.5,0,9.7c-0.5,0-1,0-1.5,0c0-4,0-8.1,0-12.2c0.5,0,1,0,1.4,0c0.1,0,0.2,0.2,0.3,0.3
						c2.3,3,4.6,6.1,6.9,9.1c0.1,0.1,0.2,0.2,0.3,0.4c0-3.3,0-6.5,0-9.7c0.5,0,1,0,1.5,0c0,4,0,8.1,0,12.2c-0.5,0-1,0-1.5,0
						c-0.1,0-0.2-0.2-0.3-0.3c-2.3-3.1-4.6-6.1-6.9-9.2C569.1,174,569,173.9,568.9,173.8C568.9,173.8,568.9,173.8,568.9,173.8z"/>
				</g>
				<g>
					<path class="st5" d="M629.5,172.7c0,3.6,0,7.2,0,10.8c-0.5,0-1,0-1.6,0c0-4,0-8.1,0-12.1c0.1,0,0.1,0,0.2,0c1.8,0,3.5,0,5.3,0
						c0.3,0,0.5,0,0.8,0.1c2.2,0.4,3.2,2.8,1.8,4.6c-0.5,0.7-1.2,1.1-2,1.4c-0.2,0.1-0.5,0.2-0.8,0.3c1.4,1.9,2.8,3.8,4.2,5.7
						c-0.7,0-1.3,0-2,0c-0.1,0-0.2-0.1-0.3-0.2c-1.2-1.7-2.4-3.4-3.6-5.1c-0.2-0.3-0.2-0.8-0.2-1.1c0.6-0.2,1.1-0.3,1.6-0.5
						c0.5-0.2,0.9-0.4,1.3-0.8c0.6-0.6,0.8-1.3,0.6-2.1c-0.2-0.6-0.7-1-1.4-1.1C632.1,172.7,630.8,172.7,629.5,172.7z"/>
				</g>
				<g>
					<path class="st6" d="M601.1,171.4c0.5,0,1,0,1.6,0c0,0.1,0,0.3,0,0.4c0,2.3,0,4.6,0,7c0,0.5,0,1-0.1,1.5
						c-0.3,1.7-1.3,2.8-3,3.2c-1.3,0.3-2.6,0.3-3.9,0c-1.8-0.5-2.9-1.8-3.1-3.7c0-0.4,0-0.8,0-1.1c0-2.2,0-4.5,0-6.8
						c0-0.1,0-0.3,0-0.4c0.5,0,1,0,1.6,0c0,0.1,0,0.3,0,0.4c0,2.3,0,4.6,0,6.9c0,0.4,0,0.8,0.1,1.1c0.2,1.3,1,2.1,2.3,2.4
						c0.6,0.1,1.2,0.1,1.7,0.1c1.8-0.2,2.8-1.2,2.9-3.1c0-0.9,0-1.8,0-2.7c0-1.6,0-3.1,0-4.7C601.1,171.7,601.1,171.6,601.1,171.4z"
						/>
				</g>
				<g>
					<path class="st4" d="M620.2,169.8c2,4.6,4,9.2,6.1,13.8c-0.6,0-1.1,0-1.6,0c-0.1,0-0.2-0.1-0.2-0.3c-0.5-1.1-0.9-2.1-1.3-3.2
						c-0.1-0.2-0.2-0.4-0.5-0.4c-1.2,0-2.4,0-3.7,0c0.1-0.4,0.2-0.8,0.4-1.2c0-0.1,0.2-0.1,0.3-0.1c0.9,0,1.8,0,2.8,0
						c-0.8-1.8-1.5-3.6-2.3-5.5c-0.1,0.2-0.1,0.3-0.2,0.4c-1.3,3.3-2.7,6.5-4,9.8c-0.1,0.3-0.3,0.4-0.6,0.4c-0.4,0-0.8,0-1.2,0
						C616.1,178.9,618.1,174.4,620.2,169.8z"/>
				</g>
				<g>
					<path class="st7" d="M590,173.1c-0.8-0.2-1.5-0.4-2.2-0.4c-0.9-0.1-1.9-0.1-2.8,0.1c-1.8,0.3-2.9,1.6-3.1,3.4
						c-0.1,0.9-0.1,1.7,0,2.6c0.3,2.2,1.7,3.4,4,3.6c0.7,0.1,1.5-0.1,2.2-0.1c0.3,0,0.3-0.1,0.3-0.4c0-1.2,0-2.5,0-3.7
						c0.5,0,1,0,1.5,0c0,0.1,0,0.2,0,0.2c0,1.5,0,3,0,4.5c0,0.2-0.1,0.3-0.3,0.4c-1.9,0.6-3.8,0.6-5.7,0.1c-1.9-0.6-3-1.8-3.5-3.7
						c-0.3-1.4-0.4-2.8,0-4.2c0.5-2.2,2-3.5,4.3-3.9c1.6-0.3,3.3-0.2,4.9,0.2c0.3,0.1,0.4,0.2,0.4,0.5
						C590,172.5,590,172.8,590,173.1z"/>
				</g>
				<g>
					<path class="st8" d="M607.1,182.3c2.1,0,4.2,0,6.4,0c0,0.4,0,0.8,0,1.3c-2.6,0-5.3,0-7.9,0c0-4.1,0-8.1,0-12.1c0.5,0,1,0,1.5,0
						C607.1,175,607.1,178.6,607.1,182.3z"/>
				</g>
				<g>
					<path class="st9" d="M550.7,172.6c0-0.1,0-0.1,0.1-0.2c0.9,1.9,1.8,3.6,2.6,5.5c-0.9,0-1.8,0-2.7,0
						C550.7,176.1,550.7,174.3,550.7,172.6z"/>
				</g>
				<g>
					<path class="st10" d="M550.7,172.6c0,1.7,0,3.5,0,5.2c-0.7,0-1.4,0-2.2,0c0-0.1,0-0.2,0-0.2c0.7-1.6,1.4-3.2,2-4.9
						C550.6,172.7,550.7,172.6,550.7,172.6z"/>
				</g>
			</g>
		</g>
	</g>
</g>
<g id="mono_wordpress4">
	<g id="Layer_2_4_">
		<g>
			<g>
				<path class="st11" d="M613.3,132.8h-3.8v0.4c1.2,0,1.4,0.3,1.4,1.8v2.7c0,1.5-0.2,1.8-1.4,1.8c-0.9-0.1-1.5-0.6-2.4-1.6l-1-1.1
					c1.3-0.2,2-1.1,2-2c0-1.2-1-2.1-2.9-2.1h-3.7v0.4c1.2,0,1.4,0.3,1.4,1.8v2.7c0,1.5-0.2,1.8-1.4,1.8v0.4h4.2v-0.4
					c-1.2,0-1.4-0.3-1.4-1.8v-0.8h0.4l2.4,3h6.2c3,0,4.4-1.6,4.4-3.6C617.6,134.4,616.3,132.8,613.3,132.8z M604.3,136.2v-2.8h0.9
					c1,0,1.4,0.7,1.4,1.4c0,0.7-0.4,1.4-1.4,1.4L604.3,136.2L604.3,136.2z M613.3,139.2h-0.2c-0.8,0-0.9-0.2-0.9-1.2v-4.6
					c0,0,0.9,0,1,0c2.2,0,2.6,1.6,2.6,2.9C616,137.6,615.5,139.2,613.3,139.2z"/>
			</g>
			<g>
				<path class="st11" d="M589.7,137l1.5-4.3c0.4-1.3,0.2-1.6-1.1-1.6v-0.4h4v0.4c-1.3,0-1.7,0.3-2.2,1.9l-2.4,7.3h-0.3l-2.2-6.7
					l-2.2,6.7h-0.3l-2.4-7.3c-0.5-1.6-0.8-1.9-2.1-1.9v-0.4h4.7v0.4c-1.3,0-1.6,0.3-1.2,1.6l1.4,4.3l2.2-6.4h0.4L589.7,137z"/>
			</g>
			<g>
				<path class="st11" d="M596.9,140.1c-2.3,0-4.3-1.7-4.3-3.8c0-2.1,1.9-3.8,4.3-3.8s4.3,1.7,4.3,3.8
					C601.1,138.4,599.2,140.1,596.9,140.1z M596.9,133.1c-2,0-2.6,1.8-2.6,3.1c0,1.4,0.7,3.1,2.6,3.1c2,0,2.7-1.7,2.7-3.1
					C599.5,134.9,598.9,133.1,596.9,133.1z"/>
			</g>
			<g>
				<path class="st12" d="M622.9,139.4v0.4H618v-0.4c1.4,0,1.7-0.4,1.7-2.5v-3.4c0-2.1-0.3-2.5-1.7-2.5v-0.4h4.4
					c2.2,0,3.4,1.1,3.4,2.6c0,1.5-1.2,2.6-3.4,2.6h-1.2v1C621.2,139.1,621.5,139.4,622.9,139.4z M622.4,131.4h-1.2v3.7h1.2
					c1.2,0,1.7-0.8,1.7-1.8C624.2,132.3,623.6,131.4,622.4,131.4z"/>
			</g>
			<g>
				<path class="st12" d="M640.4,137.9l-0.1,0.4c-0.2,0.7-0.4,1-1.9,1h-0.3c-1.1,0-1.3-0.3-1.3-1.8v-1c1.7,0,1.8,0.1,1.8,1.3h0.4
					v-3.2h-0.4c0,1.1-0.1,1.3-1.8,1.3v-2.4h1.2c1.5,0,1.7,0.3,1.9,1l0.1,0.4h0.3l-0.2-2h-6.3v0.4c1.2,0,1.4,0.3,1.4,1.8v2.7
					c0,1.4-0.2,1.7-1.1,1.8c-0.9-0.1-1.5-0.6-2.3-1.6l-1-1.1c1.3-0.2,2-1.1,2-2c0-1.2-1-2.1-2.9-2.1h-3.7v0.4c1.2,0,1.4,0.3,1.4,1.8
					v2.7c0,1.5-0.2,1.8-1.4,1.8v0.4h4.2v-0.4c-1.2,0-1.4-0.3-1.4-1.8v-0.8h0.4l2.4,3h8.7l0.1-2H640.4L640.4,137.9z M629.2,136.2
					v-2.8h0.9c1,0,1.4,0.7,1.4,1.4c0,0.7-0.4,1.4-1.4,1.4L629.2,136.2L629.2,136.2z"/>
			</g>
			<g>
				<path class="st12" d="M644.8,140.1c-0.8,0-1.6-0.4-1.9-0.7c-0.1,0.1-0.3,0.4-0.3,0.7h-0.4v-2.9h0.4c0.2,1.4,1.2,2.2,2.4,2.2
					c0.7,0,1.2-0.4,1.2-1c0-0.6-0.5-1-1.4-1.4l-1.2-0.6c-0.8-0.4-1.5-1.1-1.5-2c0-1,1-1.9,2.3-1.9c0.7,0,1.3,0.3,1.7,0.6
					c0.1-0.1,0.2-0.3,0.3-0.6h0.4v2.5h-0.5c-0.2-1-0.7-1.8-1.8-1.8c-0.6,0-1.2,0.3-1.2,0.9c0,0.6,0.5,0.9,1.5,1.3l1.2,0.6
					c1,0.5,1.4,1.3,1.4,1.9C647.3,139.2,646.2,140.1,644.8,140.1z"/>
			</g>
			<g>
				<path class="st12" d="M651.3,140.1c-0.8,0-1.6-0.4-1.9-0.7c-0.1,0.1-0.3,0.4-0.3,0.7h-0.4v-2.9h0.4c0.2,1.4,1.2,2.2,2.4,2.2
					c0.7,0,1.2-0.4,1.2-1c0-0.6-0.5-1-1.4-1.4l-1.2-0.6c-0.8-0.4-1.5-1.1-1.5-2c0-1,1-1.9,2.3-1.9c0.7,0,1.3,0.3,1.7,0.6
					c0.1-0.1,0.2-0.3,0.3-0.6h0.4v2.5h-0.5c-0.2-1-0.7-1.8-1.8-1.8c-0.6,0-1.2,0.3-1.2,0.9c0,0.6,0.5,0.9,1.5,1.3l1.2,0.6
					c1,0.5,1.4,1.3,1.4,1.9C653.9,139.2,652.7,140.1,651.3,140.1z"/>
			</g>
			<g>
				<g>
					<path class="st12" d="M558.7,135.1c0,3.7,2.2,6.9,5.3,8.5l-4.5-12.3C559,132.4,558.7,133.7,558.7,135.1z"/>
				</g>
				<g>
					<path class="st12" d="M574.5,134.6c0-1.2-0.4-2-0.8-2.6c-0.5-0.8-0.9-1.4-0.9-2.2c0-0.9,0.7-1.7,1.6-1.7c0,0,0.1,0,0.1,0
						c-1.7-1.5-3.9-2.5-6.4-2.5c-3.3,0-6.2,1.7-7.9,4.2c0.2,0,0.4,0,0.6,0c1,0,2.5-0.1,2.5-0.1c0.5,0,0.6,0.7,0.1,0.8
						c0,0-0.5,0.1-1.1,0.1l3.4,10.2l2.1-6.2l-1.5-4c-0.5,0-1-0.1-1-0.1c-0.5,0-0.5-0.8,0.1-0.8c0,0,1.6,0.1,2.5,0.1
						c1,0,2.5-0.1,2.5-0.1c0.5,0,0.6,0.7,0.1,0.8c0,0-0.5,0.1-1.1,0.1l3.4,10.1l0.9-3.1C574.2,136.4,574.5,135.4,574.5,134.6z"/>
				</g>
				<g>
					<path class="st12" d="M568.3,135.9l-2.8,8.2c0.8,0.2,1.7,0.4,2.7,0.4c1.1,0,2.2-0.2,3.1-0.5c0,0,0-0.1-0.1-0.1L568.3,135.9z"/>
				</g>
				<g>
					<path class="st12" d="M576.4,130.6c0,0.3,0.1,0.6,0.1,1c0,1-0.2,2-0.7,3.4l-2.9,8.3c2.8-1.6,4.7-4.7,4.7-8.1
						C577.5,133.5,577.1,131.9,576.4,130.6z"/>
				</g>
				<g>
					<path class="st12" d="M568.1,124.1c-6,0-11,4.9-11,11c0,6.1,4.9,11,11,11c6,0,11-4.9,11-11S574.2,124.1,568.1,124.1z
						 M568.1,145.6c-5.8,0-10.5-4.7-10.5-10.5s4.7-10.5,10.5-10.5c5.8,0,10.5,4.7,10.5,10.5S573.9,145.6,568.1,145.6z"/>
				</g>
			</g>
		</g>
	</g>
</g>
<g id="mono_angular6">
	<g>
		<g>
			<path class="st1" d="M450.6,70.9c0.7-0.2,8.8-7.1,8.8-7.1l2.5,2.8l6.8,14.8l-0.9,2l-2.5,0.6l-13.8-0.1l-1.5-0.4"/>
		</g>
		<g>
			<g>
				<g>
					<path class="st2" d="M459.2,89.2c-0.9-0.5-1.8-0.9-2.6-1.4c-2.5-1.4-5.1-2.8-7.6-4.2c-0.2-0.1-0.3-0.3-0.4-0.5
						c-0.6-5-1.1-10-1.7-15c0-0.2-0.1-0.3-0.1-0.5c0-0.2,0-0.5,0-0.7c0.1,0,0.3-0.1,0.4-0.1c4-1.4,8-2.8,11.9-4.2c0,0,0.1,0,0.1,0
						c0,1,0,2.1,0,3.2c-2.6,5.7-5.2,11.5-7.7,17.2c0.9,0,1.7,0,2.5,0c0.3,0,0.5-0.1,0.6-0.4c0.4-1.1,0.9-2.2,1.3-3.3
						c0-0.1,0.2-0.3,0.3-0.3c1,0,2,0,3.1,0C459.2,82.4,459.2,85.8,459.2,89.2z"/>
				</g>
				<g>
					<path class="st3" d="M459.2,89.2c0-3.4,0-6.9,0-10.3c1.1,0,2.2,0,3.3,0c0.3,0,0.4,0.1,0.5,0.3c0.5,1.1,1,2.2,1.5,3.4
						c0,0.1,0.1,0.3,0.2,0.3c0.9,0,1.7,0,2.6,0c0-0.1-0.1-0.2-0.1-0.2c-2.6-5.6-5.2-11.1-7.8-16.7c0-0.1-0.1-0.2-0.2-0.3
						c0-1.1,0-2.1,0-3.2c0.4,0.1,0.8,0.2,1.1,0.3c3.8,1.3,7.6,2.6,11.4,3.9c0.1,0,0.2,0.1,0.3,0.1c-0.1,0.9-0.2,1.8-0.3,2.7
						c-0.4,3.2-0.8,6.4-1.2,9.6c-0.2,1.3-0.3,2.6-0.5,3.9c0,0.2-0.2,0.4-0.3,0.5c-3.4,1.9-6.8,3.8-10.2,5.6
						C459.4,89.2,459.3,89.2,459.2,89.2z"/>
				</g>
				<g>
					<path class="st4" d="M477.4,72.6c0,3.2,0,6.5,0,9.7c-0.5,0-1,0-1.5,0c0-4,0-8.1,0-12.2c0.5,0,1,0,1.4,0c0.1,0,0.2,0.2,0.3,0.3
						c2.3,3,4.6,6.1,6.9,9.1c0.1,0.1,0.2,0.2,0.3,0.4c0-3.3,0-6.5,0-9.7c0.5,0,1,0,1.5,0c0,4,0,8.1,0,12.2c-0.5,0-1,0-1.5,0
						c-0.1,0-0.2-0.2-0.3-0.3c-2.3-3.1-4.6-6.1-6.9-9.2C477.6,72.8,477.5,72.7,477.4,72.6C477.4,72.6,477.4,72.6,477.4,72.6z"/>
				</g>
				<g>
					<path class="st5" d="M538,71.5c0,3.6,0,7.2,0,10.8c-0.5,0-1,0-1.6,0c0-4,0-8.1,0-12.1c0.1,0,0.1,0,0.2,0c1.8,0,3.5,0,5.3,0
						c0.3,0,0.5,0,0.8,0.1c2.2,0.4,3.2,2.8,1.8,4.6c-0.5,0.7-1.2,1.1-2,1.4c-0.2,0.1-0.5,0.2-0.8,0.3c1.4,1.9,2.8,3.8,4.2,5.7
						c-0.7,0-1.3,0-2,0c-0.1,0-0.2-0.1-0.3-0.2c-1.2-1.7-2.4-3.4-3.6-5.1c-0.2-0.3-0.2-0.8-0.2-1.2c0.6-0.2,1.1-0.3,1.6-0.5
						c0.5-0.2,0.9-0.4,1.3-0.8c0.6-0.6,0.8-1.3,0.6-2.1c-0.2-0.6-0.7-1-1.4-1.1C540.6,71.5,539.3,71.5,538,71.5z"/>
				</g>
				<g>
					<path class="st6" d="M509.6,70.2c0.5,0,1,0,1.6,0c0,0.1,0,0.3,0,0.4c0,2.3,0,4.6,0,7c0,0.5,0,1-0.1,1.5c-0.3,1.7-1.3,2.8-3,3.2
						c-1.3,0.3-2.6,0.3-3.9,0c-1.8-0.5-2.9-1.8-3.1-3.7c0-0.4,0-0.8,0-1.1c0-2.2,0-4.5,0-6.8c0-0.1,0-0.3,0-0.4c0.5,0,1,0,1.6,0
						c0,0.1,0,0.3,0,0.4c0,2.3,0,4.6,0,6.9c0,0.4,0,0.8,0.1,1.2c0.2,1.3,1,2.1,2.3,2.4c0.6,0.1,1.2,0.1,1.7,0.1
						c1.8-0.2,2.8-1.2,2.9-3.1c0-0.9,0-1.8,0-2.7c0-1.6,0-3.1,0-4.7C509.6,70.5,509.6,70.3,509.6,70.2z"/>
				</g>
				<g>
					<path class="st4" d="M528.6,68.5c2,4.6,4,9.2,6.1,13.8c-0.6,0-1.1,0-1.6,0c-0.1,0-0.2-0.2-0.2-0.3c-0.5-1.1-0.9-2.1-1.3-3.2
						c-0.1-0.2-0.2-0.3-0.5-0.3c-1.2,0-2.4,0-3.7,0c0.1-0.4,0.2-0.8,0.4-1.2c0-0.1,0.2-0.1,0.3-0.1c0.9,0,1.8,0,2.8,0
						c-0.8-1.8-1.5-3.6-2.3-5.5c-0.1,0.2-0.1,0.3-0.2,0.4c-1.3,3.3-2.7,6.5-4,9.8c-0.1,0.3-0.3,0.4-0.6,0.4c-0.4,0-0.8,0-1.2,0
						C524.6,77.7,526.6,73.2,528.6,68.5z"/>
				</g>
				<g>
					<path class="st7" d="M498.5,71.8c-0.8-0.2-1.5-0.4-2.2-0.4c-0.9-0.1-1.9-0.1-2.8,0.1c-1.8,0.3-2.9,1.6-3.1,3.4
						c-0.1,0.8-0.1,1.7,0,2.6c0.4,2.2,1.7,3.4,4,3.6c0.7,0.1,1.5-0.1,2.2-0.1c0.3,0,0.3-0.1,0.3-0.4c0-1.2,0-2.5,0-3.7
						c0.5,0,1,0,1.5,0c0,0.1,0,0.2,0,0.2c0,1.5,0,3,0,4.5c0,0.2-0.1,0.3-0.3,0.4c-1.9,0.6-3.8,0.6-5.7,0.1c-1.9-0.6-3-1.8-3.5-3.7
						c-0.4-1.4-0.4-2.8,0-4.2c0.5-2.2,2-3.5,4.4-3.9c1.6-0.3,3.3-0.2,4.9,0.2c0.3,0.1,0.4,0.2,0.4,0.5
						C498.5,71.2,498.5,71.6,498.5,71.8z"/>
				</g>
				<g>
					<path class="st8" d="M515.6,81.1c2.1,0,4.2,0,6.4,0c0,0.4,0,0.8,0,1.3c-2.6,0-5.3,0-7.9,0c0-4.1,0-8.1,0-12.1c0.5,0,1,0,1.5,0
						C515.6,73.8,515.6,77.4,515.6,81.1z"/>
				</g>
				<g>
					<path class="st9" d="M459.2,71.4c0-0.1,0-0.1,0.1-0.2c0.9,1.9,1.8,3.7,2.6,5.5c-0.9,0-1.8,0-2.7,0
						C459.2,74.9,459.2,73.1,459.2,71.4z"/>
				</g>
				<g>
					<path class="st10" d="M459.2,71.4c0,1.7,0,3.5,0,5.2c-0.7,0-1.4,0-2.2,0c0-0.1,0-0.2,0-0.2c0.7-1.6,1.4-3.2,2-4.9
						C459.1,71.5,459.1,71.4,459.2,71.4z"/>
				</g>
			</g>
		</g>
	</g>
</g>
<g id="mono_node5">
	<g>
		<g>
			<path class="st13" d="M514.8,51.6c-0.2,0-0.3,0-0.4-0.1l-1.4-0.8c-0.2-0.1-0.1-0.2,0-0.2c0.3-0.1,0.3-0.1,0.6-0.3
				c0,0,0.1,0,0.1,0l1,0.6c0,0,0.1,0,0.1,0l4.1-2.4c0,0,0.1-0.1,0.1-0.1v-4.7c0,0,0-0.1-0.1-0.1l-4.1-2.4c0,0-0.1,0-0.1,0l-4.1,2.4
				c0,0-0.1,0.1-0.1,0.1v4.7c0,0,0,0.1,0.1,0.1l1.1,0.6c0.6,0.3,1,0,1-0.4v-4.7c0-0.1,0-0.1,0.1-0.1h0.5c0.1,0,0.1,0,0.1,0.1v4.7
				c0,0.8-0.5,1.3-1.2,1.3c-0.2,0-0.4,0-0.9-0.2l-1.1-0.6c-0.3-0.2-0.4-0.4-0.4-0.7v-4.7c0-0.3,0.2-0.6,0.4-0.7l4.1-2.4
				c0.3-0.2,0.6-0.2,0.9,0l4.1,2.4c0.3,0.2,0.4,0.4,0.4,0.7v4.7c0,0.3-0.2,0.6-0.4,0.7l-4.1,2.4C515.1,51.6,514.9,51.6,514.8,51.6"
				/>
		</g>
		<g>
			<path class="st13" d="M516,48.4c-1.8,0-2.2-0.8-2.2-1.5c0-0.1,0-0.1,0.1-0.1h0.5c0.1,0,0.1,0,0.1,0.1c0.1,0.5,0.3,0.8,1.4,0.8
				c0.9,0,1.2-0.2,1.2-0.7c0-0.3-0.1-0.5-1.4-0.6c-1.1-0.1-1.8-0.4-1.8-1.2c0-0.8,0.7-1.3,1.9-1.3c1.3,0,2,0.5,2,1.4
				c0,0,0,0.1,0,0.1s0,0-0.1,0h-0.5c0,0-0.1,0-0.1-0.1c-0.1-0.6-0.4-0.7-1.3-0.7c-0.9,0-1,0.3-1,0.6c0,0.3,0.1,0.4,1.4,0.5
				c1.3,0.2,1.8,0.4,1.8,1.3C518.1,47.9,517.3,48.4,516,48.4 M521,43.4h0.1c0.1,0,0.1-0.1,0.1-0.1c0-0.1-0.1-0.1-0.1-0.1H521V43.4z
				 M520.8,43h0.3c0.1,0,0.3,0,0.3,0.2c0,0.2-0.1,0.2-0.2,0.2c0.1,0,0.1,0.1,0.2,0.2c0,0.1,0,0.2,0,0.2h-0.2c0,0,0-0.3,0-0.3
				c0,0,0-0.1-0.1-0.1H521v0.3h-0.2L520.8,43L520.8,43z M520.5,43.4c0,0.4,0.3,0.7,0.7,0.7c0.4,0,0.7-0.3,0.7-0.7
				c0-0.4-0.3-0.7-0.7-0.7S520.5,43,520.5,43.4 M521.9,43.4c0,0.4-0.3,0.8-0.8,0.8c-0.4,0-0.8-0.3-0.8-0.8c0-0.5,0.4-0.8,0.8-0.8
				C521.5,42.6,521.9,43,521.9,43.4"/>
		</g>
		<g>
			<path class="st14" d="M502.1,33.2c0-0.2-0.1-0.4-0.3-0.5l-4.3-2.5c-0.1,0-0.1-0.1-0.2-0.1h0c-0.1,0-0.2,0-0.2,0.1l-4.3,2.5
				c-0.2,0.1-0.3,0.3-0.3,0.5l0,6.7c0,0.1,0,0.2,0.1,0.2c0.1,0,0.2,0,0.3,0l2.6-1.5c0.2-0.1,0.3-0.3,0.3-0.5V35
				c0-0.2,0.1-0.4,0.3-0.5L497,34c0.1,0,0.2-0.1,0.3-0.1s0.2,0,0.3,0.1l1.1,0.6c0.2,0.1,0.3,0.3,0.3,0.5v3.1c0,0.2,0.1,0.4,0.3,0.5
				l2.6,1.5c0.1,0,0.2,0,0.3,0c0.1,0,0.1-0.1,0.1-0.2L502.1,33.2z M522.6,36.7c0,0,0,0.1-0.1,0.1l-1.5,0.8c0,0-0.1,0-0.1,0l-1.5-0.9
				c0,0-0.1-0.1-0.1-0.1v-1.7c0,0,0-0.1,0.1-0.1l1.5-0.9c0,0,0.1,0,0.1,0l1.5,0.9c0,0,0.1,0.1,0.1,0.1L522.6,36.7z M523,23.9
				c-0.1,0-0.2,0-0.3,0s-0.1,0.1-0.1,0.2v6.7c0,0.1,0,0.1-0.1,0.2c0,0-0.1,0-0.2,0l-1.1-0.6c-0.2-0.1-0.4-0.1-0.5,0l-4.3,2.5
				c-0.2,0.1-0.3,0.3-0.3,0.5v5c0,0.2,0.1,0.4,0.3,0.5l4.3,2.5c0.2,0.1,0.4,0.1,0.5,0l4.3-2.5c0.2-0.1,0.3-0.3,0.3-0.5V25.8
				c0-0.2-0.1-0.4-0.3-0.5L523,23.9z M537.4,34.9c0.2-0.1,0.3-0.3,0.3-0.5v-1.2c0-0.2-0.1-0.4-0.3-0.5l-4.3-2.5
				c-0.2-0.1-0.4-0.1-0.5,0l-4.3,2.5c-0.2,0.1-0.3,0.3-0.3,0.5v5c0,0.2,0.1,0.4,0.3,0.5l4.3,2.5c0.2,0.1,0.3,0.1,0.5,0l2.6-1.5
				c0.1,0,0.1-0.1,0.1-0.2c0-0.1,0-0.2-0.1-0.2l-4.3-2.5c-0.1,0-0.1-0.1-0.1-0.2V35c0-0.1,0-0.2,0.1-0.2l1.4-0.8c0.1,0,0.2,0,0.3,0
				l1.4,0.8c0.1,0,0.1,0.1,0.1,0.2v1.2c0,0.1,0,0.2,0.1,0.2s0.2,0,0.3,0L537.4,34.9z"/>
		</g>
		<g>
			<path class="st15" d="M532.8,34.7C532.8,34.6,532.8,34.6,532.8,34.7l0.9,0.5c0,0,0,0,0,0.1v1c0,0,0,0.1,0,0.1l-0.8,0.5
				c0,0-0.1,0-0.1,0l-0.8-0.5c0,0,0,0,0-0.1v-1c0,0,0-0.1,0-0.1L532.8,34.7z"/>
		</g>
		<g>
			<g>
				<path class="st16" d="M509.2,41.2c-0.1,0-0.1,0-0.2,0c-0.2,0-0.5-0.2-0.7-0.3c-0.5-0.3-1-0.6-1.5-0.9c-0.4-0.2-0.9-0.5-1.3-0.8
					c-0.3-0.2-0.6-0.3-0.9-0.5c-0.1,0-0.1-0.1-0.2-0.2c0-0.1,0-0.2,0.1-0.2c0.2-0.3,0.4-0.7,0.6-1c0,0,0,0,0,0
					c0.1-0.3,0.3-0.5,0.4-0.8c0,0,0,0,0-0.1c0.1-0.2,0.2-0.4,0.4-0.6c0,0,0-0.1,0.1-0.1c0,0,0-0.1,0.1-0.1c0.1,0,0.1,0.1,0.1,0.1
					c0,0,0,0.1,0.1,0.1c0.1,0.2,0.2,0.4,0.4,0.6c0,0,0,0.1,0.1,0.1c0.1,0.2,0.2,0.5,0.4,0.7c0,0.1,0,0.2,0.1,0.2
					c0.2,0.3,0.4,0.6,0.5,0.9c0,0,0,0.1,0.1,0.1c0.2,0.4,0.4,0.8,0.6,1.2c0,0,0.1,0.1,0.1,0.2c0.1,0.2,0.2,0.4,0.3,0.6
					c0.1,0.2,0.2,0.3,0.3,0.5C509.1,41.1,509.2,41.2,509.2,41.2z"/>
			</g>
			<g>
				<path class="st17" d="M509.2,41.2c-0.2-0.4-0.4-0.8-0.6-1.2c0,0,0-0.1,0-0.1c0,0,0,0,0-0.1c0-3.1,0-6.2,0-9.3c0,0,0-0.1,0-0.1
					c0,0,0-0.1,0-0.1c0.1-0.1,0.3-0.2,0.5-0.2c0,0,0.1,0,0.1,0c0,0,0,0,0.1,0c0.1,0.1,0.1,0.2,0.2,0.3c0,0,0.1,0.1,0.1,0.2
					c0.1,0.5,0,1.1,0,1.6c0,2.8,0,5.7,0,8.5c0,0.1,0,0.2,0,0.2c0,0.1,0,0.1-0.1,0.1S509.2,41.2,509.2,41.2
					C509.2,41.2,509.2,41.2,509.2,41.2z"/>
			</g>
			<g>
				<path class="st18" d="M504.2,33.2c0,0,0-0.1,0.1-0.2c0-0.1,0.1-0.2,0.2-0.2c0,0,0.1,0,0.1,0c0.2,0.3,0.4,0.6,0.5,0.9
					c0.1,0.3,0.3,0.5,0.5,0.8c0,0,0,0.1,0,0.1c0,0-0.1,0-0.1,0c0,0-0.1,0-0.1,0c-0.3-0.2-0.7-0.3-1-0.5c0,0-0.1,0-0.1-0.1
					c0-0.3,0-0.5,0-0.8C504.3,33.2,504.3,33.2,504.2,33.2C504.2,33.2,504.2,33.2,504.2,33.2z"/>
			</g>
			<g>
				<path class="st19" d="M504.4,38.5c-0.1-0.1-0.1-0.2-0.1-0.2c0,0,0,0,0,0c0,0,0-0.1,0-0.1c0-0.4,0-0.8,0-1.3c0-0.1,0.1-0.1,0.1,0
					c0.1,0.1,0.3,0.1,0.4,0.2c0.1,0,0.2,0.1,0.3,0.1c0,0,0.1,0,0.1,0.1c-0.1,0.3-0.3,0.5-0.5,0.8C504.5,38.2,504.4,38.4,504.4,38.5z
					"/>
			</g>
			<g>
				<path class="st20" d="M513.9,38.2L513.9,38.2L513.9,38.2c-0.1,0-0.1-0.1-0.1-0.2c0-0.2,0-0.5,0-0.7c0-0.2,0-0.3,0-0.5
					c0-0.1,0-0.1,0-0.2c0-0.1,0-0.2,0-0.3c0-0.2,0-0.4,0-0.7c0-0.1,0-0.1,0-0.2c0-0.4,0-0.8,0-1.3c0-0.3,0-0.7,0-1c0,0,0-0.1,0-0.2
					c0,0,0,0,0,0C513.9,34.8,513.9,36.5,513.9,38.2z"/>
			</g>
			<g>
				<path class="st21" d="M504.3,36.8c0,0.4,0,0.9,0,1.3c0,0,0,0.1,0,0.1c0-1.7,0-3.4,0-5.1c0,0,0,0.1,0,0.1c0,0.3,0,0.5,0,0.8
					c0,0,0,0.1,0,0.1c0,0.3,0,0.5,0,0.8c0,0.2,0,0.5,0,0.8c0,0.3,0,0.6,0,1C504.3,36.8,504.3,36.8,504.3,36.8z"/>
			</g>
			<g>
				<path class="st22" d="M509.2,30.2C509.2,30.2,509.2,30.2,509.2,30.2c0,0-0.1,0-0.1,0c0,0,0,0,0,0
					C509.1,30.2,509.1,30.2,509.2,30.2z"/>
			</g>
			<g>
				<path class="st23" d="M507.7,30.9c0.3-0.1,0.5-0.3,0.8-0.5c0,0,0,0.1,0,0.1c0,3.1,0,6.2,0,9.2c0,0,0,0.1,0,0.1
					c-0.1-0.2-0.2-0.4-0.3-0.6c-0.1-0.2-0.3-0.5-0.4-0.7c0-0.1,0-0.1,0-0.2c0-2.5,0-4.9,0-7.4C507.7,31,507.7,31,507.7,30.9z"/>
			</g>
			<g>
				<path class="st24" d="M507.7,30.9c0,0,0,0.1,0,0.2c0,2.4,0,4.9,0,7.4c0,0.1,0,0.1,0,0.2c-0.2-0.3-0.4-0.7-0.6-1.1
					c0-0.1,0-0.2,0-0.4c0-1.9,0-3.9,0-5.8c0,0,0-0.1,0-0.1C507.3,31.1,507.5,31,507.7,30.9z"/>
			</g>
			<g>
				<path class="st25" d="M505.6,34.7c-0.3-0.6-0.7-1.2-1-1.9c0,0,0,0,0,0c0.5-0.3,0.9-0.5,1.3-0.8c0.1-0.1,0.2-0.1,0.4-0.2
					c0,0,0.1,0,0.1,0.1c0,0,0,0.1,0,0.2c0,1.1,0,2.3,0,3.4c0,0.1,0,0.2,0,0.3c0,0,0,0.1,0,0.1c-0.1-0.1-0.1-0.2-0.1-0.3
					c0,0-0.1,0-0.1-0.1c-0.1-0.2-0.3-0.5-0.4-0.7C505.6,34.8,505.6,34.8,505.6,34.7z"/>
			</g>
			<g>
				<path class="st26" d="M507.1,31.3c0,0,0,0.1,0,0.1c0,1,0,1.9,0,2.9c0,1,0,2,0,3.1c0,0,0,0.1,0,0.2c-0.2-0.3-0.3-0.6-0.5-0.9
					c0-0.1,0-0.2,0-0.3c0-1.6,0-3.1,0-4.7c0,0,0-0.1,0-0.1C506.8,31.4,507,31.4,507.1,31.3z"/>
			</g>
			<g>
				<path class="st27" d="M506.7,31.5c0,0,0,0.1,0,0.2c0,1.6,0,3.2,0,4.8c0,0,0,0.1,0,0.2c-0.1-0.2-0.3-0.5-0.4-0.8
					c0-0.1,0-0.2,0-0.2c0-1.2,0-2.4,0-3.7c0,0,0-0.1,0-0.1C506.4,31.7,506.5,31.6,506.7,31.5z"/>
			</g>
			<g>
				<path class="st28" d="M505.6,34.7c0.1,0.2,0.2,0.4,0.3,0.6c0,0.1,0.1,0.2,0.2,0.3c-0.1,0-0.1,0.2-0.1,0.2c0,0-0.1,0-0.1,0
					c-0.5-0.2-1-0.5-1.5-0.7c0,0-0.1,0-0.1-0.1c0-0.3,0-0.6,0-0.9c0.1,0,0.3,0.1,0.4,0.2C505,34.4,505.2,34.6,505.6,34.7
					C505.5,34.7,505.6,34.7,505.6,34.7z"/>
			</g>
			<g>
				<path class="st29" d="M504.3,36.8c0-0.4,0-0.7,0-1.1c0,0,0.1,0,0.1,0c0.3,0.2,0.7,0.3,1,0.5c0,0,0.1,0,0.1,0.1
					c0,0,0.1,0,0.1,0.1c-0.2,0.3-0.3,0.6-0.5,0.8c0,0,0,0,0,0C504.8,37.1,504.5,37,504.3,36.8z"/>
			</g>
			<g>
				<path class="st30" d="M505.6,36.4C505.6,36.4,505.6,36.4,505.6,36.4c-0.5-0.2-0.9-0.5-1.3-0.6c0,0,0,0,0,0c0-0.2,0-0.5,0-0.8
					c0,0,0.1,0,0.1,0c0.5,0.2,1,0.5,1.5,0.7c0,0,0.1,0,0.1,0.1C505.8,36,505.7,36.2,505.6,36.4z"/>
			</g>
			<g>
				<path class="st31" d="M510.3,40.6c-0.3,0.2-0.5,0.3-0.8,0.5c0,0,0-0.1,0-0.2c0-3.3,0-6.6,0-9.9c0-0.1,0-0.2,0-0.3
					c0,0,0.1,0,0.1,0.1c0.1,0.2,0.2,0.4,0.4,0.6c0.1,0.1,0.1,0.2,0.2,0.4c0,0.1,0.1,0.2,0.1,0.2c0,0,0,0.1,0,0.2
					c0.1,0.6,0,1.2,0,1.9c0,2.2,0,4.3,0,6.4C510.3,40.5,510.3,40.5,510.3,40.6z"/>
			</g>
			<g>
				<path class="st32" d="M510.1,31.7c-0.2-0.3-0.3-0.5-0.5-0.8c0-0.1-0.1-0.2-0.1-0.2c-0.1-0.1-0.1-0.2-0.2-0.4c0,0,0,0,0-0.1
					c0,0,0.1,0,0.1,0c0.7,0.4,1.4,0.8,2.1,1.2c0,0,0,0,0,0c0.3,0.4,0.6,0.8,0.9,1.2c0.3,0.4,0.6,0.8,0.9,1.2c0,0.1-0.1,0.2-0.1,0.2
					c-0.1,0.2-0.3,0.5-0.4,0.7c0,0,0,0.1-0.1,0.1c-0.1,0-0.2,0-0.2-0.1c-0.4-0.6-0.9-1.2-1.3-1.8c-0.3-0.4-0.6-0.9-1-1.3
					c0-0.1-0.1-0.1-0.1-0.2C510,31.6,510.1,31.6,510.1,31.7z"/>
			</g>
			<g>
				<path class="st16" d="M512.7,34.9c0.1-0.2,0.2-0.4,0.3-0.6c0.1-0.1,0.2-0.3,0.2-0.4c0,0,0-0.1,0-0.1c0.2-0.3,0.3-0.5,0.5-0.8
					c0,0,0-0.1,0.1-0.1c0.1,0.1,0.1,0.2,0.1,0.2c0,0.8,0,1.5,0,2.3c0,0,0,0.1,0,0.2c0,0-0.1,0-0.1,0c-0.1-0.1-0.2-0.1-0.4-0.2
					c-0.2-0.1-0.5-0.2-0.7-0.3C512.7,35,512.6,35,512.7,34.9C512.6,35,512.6,34.9,512.7,34.9z"/>
			</g>
			<g>
				<path class="st33" d="M513.8,32.9C513.8,32.9,513.8,32.9,513.8,32.9c-0.2,0.4-0.4,0.7-0.6,1c-0.1,0-0.2-0.2-0.2-0.2
					c-0.4-0.5-0.8-1.1-1.2-1.6c-0.1-0.2-0.2-0.3-0.4-0.5c0,0,0,0,0-0.1c0.5,0.3,1,0.6,1.5,0.9c0.2,0.1,0.5,0.3,0.7,0.4
					C513.7,32.8,513.8,32.8,513.8,32.9z"/>
			</g>
			<g>
				<path class="st34" d="M510.3,40.6c0,0,0-0.1,0-0.2c0-2.4,0-4.9,0-7.3c0-0.4,0-0.7,0-1.1c0.1,0,0.1,0,0.1,0.1
					c0.1,0.2,0.3,0.5,0.4,0.7c0,0.1,0.1,0.1,0.1,0.2c0,0,0,0.1,0,0.1c0,0,0,0.1,0,0.1c0.1,0.1,0.1,0.3,0.1,0.4c0,2.1,0,4.2,0,6.3
					c0,0.1,0,0.2,0,0.2C510.7,40.4,510.5,40.5,510.3,40.6z"/>
			</g>
			<g>
				<path class="st35" d="M511,40.2c0-0.2,0-0.3,0-0.5c0-2,0-4,0-6.1c0-0.2,0-0.3-0.1-0.5c0,0,0,0,0-0.1c0,0,0.1,0,0.1,0
					c0.1,0.2,0.2,0.3,0.3,0.5c0,0.3,0,0.7,0,1c0,1.7,0,3.4,0,5.1c0,0.1,0,0.1,0,0.2C511.2,40.1,511.1,40.2,511,40.2z"/>
			</g>
			<g>
				<path class="st36" d="M513.9,38.3c0,0.2-0.1,0.3-0.2,0.4c-0.3,0.2-0.6,0.3-0.9,0.5c0,0,0,0-0.1-0.1c0,0,0-0.1,0-0.1
					c0-0.8,0-1.6,0-2.4c0-0.1,0-0.1,0-0.2c0.1,0,0.1,0,0.1,0.1c0.1,0.2,0.2,0.4,0.3,0.6c0.1,0.1,0.2,0.3,0.2,0.4
					c0.1,0.2,0.2,0.4,0.4,0.6C513.9,38.2,513.9,38.2,513.9,38.3z"/>
			</g>
			<g>
				<path class="st37" d="M511.6,39.8c-0.1,0.1-0.2,0.1-0.3,0.2c0,0,0,0,0-0.1c0,0,0,0,0,0c0-2,0-3.9,0-5.9c0,0,0,0,0,0
					c0-0.1,0.1-0.1,0.1,0c0.1,0.1,0.1,0.2,0.2,0.2c0.3,0.4,0.5,0.8,0.8,1.2c0,0,0,0,0,0c0,0,0,0.1,0,0.1c-0.1,0-0.1,0-0.1-0.1
					c-0.1-0.2-0.2-0.3-0.3-0.4c-0.1-0.1-0.2-0.3-0.3-0.4c0,0,0,0,0,0s0,0,0,0c0,0,0,0.1,0,0.1C511.6,36.4,511.6,38.1,511.6,39.8
					C511.6,39.8,511.6,39.8,511.6,39.8z"/>
			</g>
			<g>
				<path class="st38" d="M513.9,36.4c0,0.1,0,0.2,0,0.3c0,0-0.1,0-0.1,0c-0.2-0.1-0.4-0.2-0.6-0.3c0,0-0.1,0-0.1,0
					c-0.1,0-0.2-0.1-0.3-0.1c-0.1,0-0.1-0.1-0.1-0.2c0,0,0-0.1-0.1-0.2c0,0,0,0.1,0,0.1c0,1,0,2,0,3c0,0.1,0,0.1,0,0.2
					c-0.1,0.1-0.2,0.1-0.3,0.2c0,0,0,0-0.1-0.1c0,0,0-0.1,0-0.1c0-1.2,0-2.5,0-3.7c0,0,0-0.1,0-0.1c0,0,0-0.1,0-0.1c0,0,0.1,0,0.1,0
					c0,0,0,0.1,0.1,0.1c0.1,0.2,0.2,0.2,0.4,0.3c0.3,0.1,0.6,0.3,0.9,0.4c0,0,0.1,0,0.2,0.1C513.8,36.3,513.9,36.4,513.9,36.4z"/>
			</g>
			<g>
				<path class="st39" d="M512.3,35.5c-0.1,0-0.1-0.1-0.1-0.2c0,0-0.1,0-0.1-0.1c0-0.1-0.1-0.2-0.1-0.2c0,0,0,0,0,0c0,0,0,0,0,0
					c0,0,0,0.1,0,0.1c0,1.4,0,2.8,0,4.2c0,0.1,0,0.2,0,0.3c-0.1,0.1-0.2,0.1-0.3,0.2c0,0,0-0.1,0-0.1c0-1.7,0-3.5,0-5.2c0,0,0,0,0,0
					c0,0,0-0.1,0-0.1c0,0,0,0,0.1,0.1c0.1,0.2,0.2,0.3,0.3,0.5c0.1,0.1,0.2,0.2,0.3,0.4c0,0,0,0.1,0.1,0.1
					C512.4,35.5,512.4,35.5,512.3,35.5z"/>
			</g>
			<g>
				<path class="st40" d="M511.9,39.7c0,0,0-0.1,0-0.1c0-1.5,0-3,0-4.5c0,0,0-0.1,0-0.1c0,0,0.1,0,0.1,0.1c0.1,0.1,0.2,0.3,0.2,0.4
					c0,0,0,0.1,0,0.1c0,1.3,0,2.6,0,3.9c0,0,0,0.1,0,0.1C512.1,39.6,512,39.6,511.9,39.7z"/>
			</g>
			<g>
				<path class="st41" d="M512.5,39.3c0,0,0-0.1,0-0.1c0-1.1,0-2.2,0-3.2c0,0,0,0,0,0s0,0,0,0c0,0,0,0,0,0c0.1,0.1,0.1,0.2,0.2,0.3
					c0,0,0,0,0,0.1c0,0,0.1,0,0,0.1c-0.1,0,0,0.1,0,0.1c0,0.8,0,1.6,0,2.4c0,0.1,0,0.1,0,0.2C512.7,39.2,512.6,39.3,512.5,39.3z"/>
			</g>
			<g>
				<path class="st32" d="M511.3,33.9c0,2,0,3.9,0,5.9c0,0.1,0,0.2,0,0.2c0,0,0,0,0,0c0,0,0-0.1,0-0.2c0-1.9,0-3.8,0-5.7
					c0-0.2,0-0.3,0-0.5C511.3,33.7,511.3,33.8,511.3,33.9z"/>
			</g>
			<g>
				<path class="st42" d="M513.9,38.3c-0.2-0.4-0.5-0.8-0.7-1.2c0,0,0.1,0,0.1,0c0.2,0.1,0.3,0.2,0.5,0.2c0,0,0,0,0.1,0.1
					C513.9,37.7,513.9,38,513.9,38.3C513.9,38.3,513.9,38.3,513.9,38.3z"/>
			</g>
			<g>
				<path class="st41" d="M512.3,35.5c0,0,0-0.1,0-0.1c0,0,0,0,0,0c0-0.1,0.1-0.4,0.2-0.4c0.4,0.2,0.8,0.4,1.2,0.6c0,0,0.1,0,0.1,0
					c0,0.3,0,0.6,0,0.8c-0.2-0.1-0.4-0.2-0.5-0.2c-0.3-0.1-0.6-0.3-0.8-0.4C512.4,35.7,512.4,35.7,512.3,35.5z"/>
			</g>
			<g>
				<path class="st43" d="M513.9,37.4c-0.2-0.1-0.4-0.2-0.6-0.3c0,0-0.1,0-0.1,0c-0.1-0.2-0.3-0.4-0.4-0.6c0,0,0-0.1,0-0.1
					c0-0.1,0-0.1,0.1,0c0.3,0.1,0.6,0.3,0.9,0.5c0,0,0.1,0,0.1,0C513.9,37,513.9,37.2,513.9,37.4z"/>
			</g>
			<g>
				<path class="st44" d="M512.7,35c-0.1,0.1-0.2,0.3-0.2,0.4c0,0-0.1,0-0.1-0.1c-0.2-0.3-0.5-0.7-0.7-1c-0.1-0.1-0.2-0.2-0.2-0.3
					c0,0,0-0.1-0.1-0.1c0-0.1,0-0.2-0.1-0.2c-0.1-0.2-0.2-0.3-0.3-0.5c0,0,0,0,0,0c-0.2-0.4-0.4-0.7-0.6-1.1
					c-0.1-0.1-0.1-0.2-0.2-0.3c0-0.1-0.1-0.2-0.1-0.3c0.1,0,0.1,0.1,0.1,0.1c0.6,0.8,1.2,1.6,1.8,2.5c0.2,0.3,0.4,0.5,0.6,0.8
					C512.6,34.8,512.6,34.9,512.7,35C512.7,34.9,512.7,35,512.7,35z"/>
			</g>
		</g>
	</g>
</g>
<g id="mono_html4">
	<g>
		<g>
			<path class="st45" d="M345.7,19.2l-2.1,24.5c-3.1,2.4-7,3.9-11.3,3.9c-4.2,0-8.1-1.4-11.2-3.8l-2.1-24.5L345.7,19.2L345.7,19.2z"
				/>
		</g>
		<g>
			<polygon class="st46" points="332.3,21.5 332.3,47 341.1,44.5 343.1,21.5 			"/>
		</g>
		<g>
			<polygon class="st1" points="324,24.7 324.8,34.9 336.3,34.9 335.9,39.2 332.3,40.1 328.6,39.1 328.5,36.4 325,36.4 325.4,41.6 
				332.3,43.6 339.2,41.6 340.1,31.5 328,31.5 327.7,28.2 327.7,28.2 340.4,28.1 340.7,24.7 			"/>
		</g>
		<g>
			<polygon class="st0" points="324.7,11.8 324.7,13.6 323,13.6 323,11.8 321.5,11.8 321.5,16.8 323,16.8 323,15.2 324.7,15.2 
				324.7,16.8 326.3,16.8 326.3,11.8 			"/>
		</g>
		<g>
			<polygon class="st0" points="331.8,11.8 327,11.8 327,13.6 328.6,13.6 328.6,16.9 330.2,16.9 330.2,13.6 331.8,13.6 			"/>
		</g>
		<g>
			<polygon class="st0" points="340.7,15.3 340.7,11.9 339.1,11.9 339.1,15.3 339.1,16.9 340.7,16.9 343.2,16.9 343.2,15.3 			"/>
		</g>
		<g>
			<polygon class="st0" points="336.5,11.9 335.4,13.6 334.2,11.9 332.5,11.9 332.5,16.9 334.2,16.9 334.2,14.4 335.4,16.2 
				336.5,14.4 336.5,16.9 338.2,16.9 338.2,11.9 			"/>
		</g>
	</g>
</g>
<g id="mono_next3">
	<g id="Page-1_1_">
		<g id="Black-Next.js_1_" transform="translate(-247.000000, -138.000000)">
			<g id="next-black_1_" transform="translate(247.000000, 138.000000)">
				<g id="EXT-_x2B_-Type-something_1_">
					<g id="EXT_1_">
						<path class="st0" d="M347.2,63.3h9.5v0.8h-8.6v5.7h8.1v0.8h-8.1v6.2h8.7v0.8h-9.6V63.3z M357.6,63.3h1l4.5,6.2l4.6-6.2
							l6.2-7.9l-10.2,14.7l5.3,7.2h-1l-4.8-6.6l-4.8,6.6h-1l5.3-7.2L357.6,63.3z M369.2,64.1v-0.8h10.8v0.8h-5v13.3h-0.9V64.1H369.2
							z"/>
					</g>
					<g id="Type-something_1_">
						<polygon class="st0" points="335.4,63.3 336.5,63.3 351.4,85.7 345.2,77.4 336.3,64.4 336.2,77.4 335.4,77.4 						"/>
					</g>
				</g>
				<g id="_x2E_JS_1_">
					<path class="st0" d="M380,76.5c0.2,0,0.3-0.1,0.3-0.3c0-0.2-0.1-0.3-0.3-0.3s-0.3,0.1-0.3,0.3C379.7,76.3,379.8,76.5,380,76.5z
						 M380.8,75.7c0,0.5,0.4,0.9,0.9,0.9c0.6,0,0.9-0.3,0.9-1v-2.2h-0.5v2.2c0,0.3-0.2,0.5-0.5,0.5c-0.3,0-0.5-0.2-0.5-0.4H380.8z
						 M383.3,75.6c0,0.5,0.5,0.9,1.2,0.9c0.7,0,1.2-0.4,1.2-0.9c0-0.5-0.3-0.7-0.9-0.9l-0.3-0.1c-0.4-0.1-0.6-0.2-0.6-0.4
						c0-0.3,0.2-0.4,0.6-0.4c0.4,0,0.6,0.2,0.6,0.5h0.5c0-0.5-0.5-0.9-1.1-0.9c-0.7,0-1.1,0.4-1.1,0.9c0,0.4,0.2,0.7,0.8,0.8
						l0.4,0.1c0.4,0.1,0.6,0.2,0.6,0.5c0,0.3-0.3,0.5-0.7,0.5c-0.4,0-0.7-0.2-0.7-0.5L383.3,75.6L383.3,75.6z"/>
				</g>
			</g>
		</g>
	</g>
</g>
<g id="mono_parcel3">
	<g>
		<g>
			<path class="st47" d="M462.5,122c0-0.1,0-0.1,0-0.2c0-0.6,0-1.1,0-1.6c0-0.2-0.1-0.4-0.2-0.5c-0.1-0.1-0.2-0.1-0.3-0.2h-0.2h-3.2
				c-0.1,0-0.2,0-0.4,0.1c-0.1,0.1-0.2,0.1-0.3,0.3c0,0.1-0.1,0.2-0.1,0.3v8c0,0.1,0,0.3,0,0.4c0.1,0.2,0.3,0.3,0.5,0.4h0.2
				c1,0,2,0,3.1,0h0.2c0.2,0,0.4-0.2,0.5-0.4c0-0.2,0-0.3,0-0.5v-1.4c0-0.1,0-0.1,0-0.2c0,0,0.1,0,0.1,0h2.7c0.1,0,0.1,0,0.1,0.1
				c0,0.8,0,1.5,0,2.3c0,0.2,0,0.4-0.1,0.7c-0.1,0.3-0.2,0.6-0.3,0.8c-0.1,0.3-0.4,0.5-0.6,0.7c-0.2,0.1-0.4,0.3-0.6,0.4
				c-0.1,0.1-0.2,0.1-0.4,0.1c-0.1,0.1-0.2,0.1-0.4,0.1c-0.1,0-0.2,0-0.3,0c-0.8,0.1-1.7,0-2.5,0c-0.8,0-1.7,0-2.5,0
				c-0.2,0-0.4,0-0.6-0.1c-0.6-0.1-1.1-0.4-1.5-0.8c-0.2-0.2-0.3-0.4-0.5-0.6c-0.1-0.2-0.2-0.4-0.3-0.6c0-0.1-0.1-0.2-0.1-0.4
				c0-0.5-0.1-1,0-1.5c0-2.7,0-5.3,0-8c0-0.1,0-0.2,0-0.3c0-0.2,0-0.4,0.1-0.7c0-0.2,0.1-0.4,0.2-0.6c0.2-0.4,0.5-0.7,0.8-1
				c0.2-0.2,0.4-0.3,0.6-0.4c0.1-0.1,0.3-0.1,0.5-0.1c0.4-0.1,0.7-0.1,1.1-0.1h4.2c0.2,0,0.5,0,0.7,0.1c0.6,0.1,1.2,0.4,1.6,0.8
				c0.2,0.2,0.4,0.5,0.5,0.7c0.1,0.2,0.1,0.3,0.2,0.5c0.1,0.3,0.1,0.6,0.1,0.9v2.1c0,0,0,0.1-0.1,0.1L462.5,122L462.5,122z
				 M463.8,127.5c0,0.1,0,0.1,0,0.2c0,0.3,0,0.5,0,0.8c0,0.2,0,0.5-0.1,0.7c-0.2,0.4-0.5,0.7-0.9,0.8c-0.2,0.1-0.4,0.1-0.6,0.1
				c-1.3,0-2.5,0-3.8,0c-0.3,0-0.6,0-0.8-0.1c-0.3-0.1-0.5-0.3-0.7-0.5c-0.1-0.3-0.2-0.6-0.2-0.9c0-0.1,0-0.2,0-0.3v-8
				c0-0.3,0-0.5,0-0.8c0-0.2,0.1-0.4,0.2-0.6c0.1-0.2,0.4-0.4,0.6-0.5c0.2-0.1,0.4-0.1,0.7-0.1h3.8c0.2,0,0.4,0,0.7,0
				c0.1,0,0.3,0.1,0.4,0.1c0.4,0.2,0.7,0.6,0.7,1c0,0.2,0.1,0.4,0,0.6c0,0.2,0,0.4,0,0.6c0,0.1,0,0.1,0,0.2c0.1,0,0.2,0,0.4,0
				c0,0,0,0,0-0.1c0-0.4,0-0.8,0-1.3c0-0.2-0.1-0.4-0.2-0.7c-0.1-0.2-0.2-0.3-0.3-0.4c-0.4-0.3-0.9-0.5-1.4-0.5c-1.4,0-2.8,0-4.2,0
				c0,0-0.1,0-0.1,0c-0.3,0-0.5,0.1-0.8,0.2c-0.2,0.1-0.4,0.3-0.6,0.5c-0.1,0.2-0.2,0.3-0.2,0.5c0,0.2-0.1,0.4-0.1,0.6
				c0,0.1,0,0.2,0,0.3v8.2c0,0.2,0,0.5,0,0.7c0,0.2,0.1,0.4,0.2,0.5c0.2,0.4,0.6,0.7,1,0.9c0.2,0.1,0.5,0.1,0.7,0.1h3.8
				c0.3,0,0.5,0,0.8-0.1c0.2,0,0.4-0.1,0.6-0.2c0.5-0.2,0.8-0.7,0.8-1.2c0-0.2,0.1-0.5,0.1-0.7c0-0.2,0-0.4,0-0.6c0-0.1,0-0.1,0-0.2
				C464.1,127.5,464,127.5,463.8,127.5z"/>
		</g>
		<g>
			<path class="st48" d="M468.1,116.7h9.5c0.1,0,0.1,0,0.2,0c0,0.1,0,2.7,0,2.8h-6.7v3c0.3,0,0.6,0,0.9,0h4.5c0,0.1,0,2.5,0,2.8
				c-0.3,0-0.6,0-0.9,0h-4.5c0,0,0,0.1,0,0.2v3.1c0,0,0,0,0,0.1c0,0.1,0.1,0,0.2,0h6.5c0,0.2,0,0.4,0,0.6c0,0.7,0,1.5,0,2.2h-9.6
				L468.1,116.7L468.1,116.7z M469.4,130.4c0.2,0,7,0,7.1,0c0-0.1,0-0.1,0-0.2c0-0.2,0-0.2-0.2-0.2H470c0,0-0.1,0-0.2,0v-5.7h5.4
				c0-0.2,0-0.3,0-0.5h-5.4c0-0.1,0-5.2,0-5.4c0,0,0.1,0,0.2,0h6.3c0.1,0,0.1,0,0.2,0c0-0.1,0-0.2,0-0.3c0-0.1,0-0.1-0.1-0.1l0,0h-7
				c0,0-0.1,0.1-0.1,0.1l0,0c0,0,0,0.1,0,0.1v12.1C469.4,130.3,469.4,130.3,469.4,130.4z"/>
		</g>
		<g>
			<path class="st47" d="M449.7,131.5l-2.4-5.5h-2.4v5.5c-0.1,0-2.8,0-3,0v-14.8c0,0,0.1,0,0.1,0h7.4c0.2,0,0.5,0,0.7,0.1
				c0.5,0.1,1,0.3,1.3,0.7c0.2,0.2,0.4,0.5,0.6,0.8c0.1,0.1,0.1,0.2,0.1,0.4c0.1,0.4,0.2,0.9,0.1,1.3c0,1,0,2.1,0,3.1
				c0,0.3,0,0.6-0.1,0.9c-0.1,0.2-0.1,0.5-0.3,0.7c-0.1,0.2-0.2,0.4-0.4,0.6c-0.2,0.2-0.4,0.4-0.6,0.5c-0.2,0.1-0.3,0.2-0.5,0.2
				c0,0,0,0.1-0.1,0.1l2.5,5.6L449.7,131.5z M443.6,124.9h0.2h4.4v0c0,0.1,0,0.1,0,0.1v0.1c0,0.1,0,0.1,0.1,0.1c0,0,0,0,0,0.1
				c0.2,0.4,0.4,0.8,0.5,1.2c0.1,0.2,0.2,0.4,0.3,0.7s0.2,0.6,0.4,0.9c0.1,0.2,0.2,0.4,0.3,0.6c0.2,0.3,0.3,0.7,0.5,1
				c0.1,0.2,0.2,0.4,0.3,0.6c0,0.1,0.1,0.1,0.1,0.1c0.1,0,0.2,0,0.3,0c0-0.1,0-0.1,0-0.2c0,0,0-0.1,0-0.1c-0.2-0.4-0.3-0.8-0.5-1.2
				c-0.1-0.3-0.2-0.5-0.4-0.8c-0.1-0.3-0.2-0.6-0.4-0.8s-0.2-0.5-0.3-0.7c-0.1-0.3-0.3-0.6-0.4-0.9s-0.2-0.5-0.3-0.8
				c0,0,0.1,0,0.1,0c0.2,0,0.3,0,0.5,0c0.2,0,0.4,0,0.6-0.1c0.1,0,0.2-0.1,0.3-0.1c0.2-0.1,0.3-0.2,0.5-0.3c0.3-0.3,0.4-0.6,0.5-1
				c0-0.2,0.1-0.4,0.1-0.6c0-0.8,0-1.7,0-2.5c0-0.3,0-0.5,0-0.8c0,0,0,0,0-0.1c-0.1-0.2-0.1-0.4-0.2-0.6c-0.2-0.4-0.6-0.7-1-0.8
				c-0.2-0.1-0.5-0.1-0.8-0.1h-5.6c0,0-0.1,0-0.1,0c0,0.1,0,0.1,0,0.2v12.2c0,0,0,0.1,0,0.1c0.1,0,0.2,0,0.4,0c0-0.1,0-0.1,0-0.2
				v-3.3C443.6,126.2,443.6,125.6,443.6,124.9z"/>
		</g>
		<g>
			<path class="st47" d="M430.1,131.5c-0.2,0-3,0-3.1,0c0.1-0.3,0.2-0.6,0.3-0.8c0-0.1,0.1-0.3,0.1-0.4c0-0.2,0.1-0.3,0.1-0.5
				c0-0.2,0.1-0.3,0.2-0.5c0-0.2,0.1-0.4,0.2-0.6c0.1-0.2,0.1-0.5,0.2-0.7c0.1-0.2,0.1-0.4,0.2-0.6c0-0.1,0.1-0.3,0.1-0.4
				s0.1-0.3,0.1-0.4c0.1-0.2,0.1-0.4,0.2-0.7s0.1-0.4,0.2-0.6c0-0.1,0.1-0.2,0.1-0.4s0.1-0.3,0.1-0.5c0.1-0.2,0.1-0.4,0.2-0.7
				c0-0.1,0.1-0.3,0.1-0.4c0-0.2,0.1-0.3,0.2-0.5s0.1-0.4,0.2-0.6c0.1-0.2,0.1-0.4,0.2-0.7s0.1-0.4,0.2-0.6c0-0.1,0.1-0.3,0.1-0.4
				c0.1-0.2,0.1-0.4,0.2-0.7c0-0.1,0.1-0.3,0.1-0.4c0.1-0.2,0.1-0.4,0.2-0.7c0.1-0.1,0.1-0.3,0.1-0.4c0.1-0.2,0.1-0.5,0.2-0.7
				c0-0.1,0.1-0.3,0.1-0.4c0-0.1,0.1-0.3,0.1-0.4c0,0,0-0.1,0.1-0.1h3.4c0.1,0.1,0.1,0.2,0.1,0.3c0.1,0.3,0.2,0.7,0.3,1
				c0.1,0.2,0.1,0.4,0.2,0.6c0.1,0.3,0.2,0.5,0.3,0.8c0.1,0.3,0.2,0.5,0.3,0.8s0.1,0.4,0.2,0.7c0,0.1,0.1,0.3,0.1,0.4
				c0,0.2,0.1,0.3,0.1,0.4c0.1,0.2,0.1,0.4,0.2,0.7s0.1,0.3,0.1,0.5s0.1,0.3,0.1,0.4l0.1,0.4c0.1,0.2,0.1,0.4,0.2,0.7l0.1,0.4
				c0,0.2,0.1,0.3,0.1,0.4c0,0.2,0.1,0.3,0.1,0.5s0.1,0.3,0.1,0.4c0.1,0.2,0.1,0.4,0.2,0.7c0,0.1,0,0.2,0.1,0.2
				c0.1,0.3,0.2,0.6,0.3,0.9c0,0.1,0.1,0.3,0.1,0.4c0.1,0.2,0.1,0.4,0.2,0.7c0,0.1,0.1,0.3,0.1,0.4c0,0.1,0.1,0.3,0.1,0.4
				s0.1,0.3,0.2,0.5s0.1,0.3,0.1,0.4c0.1,0.2,0.2,0.5,0.2,0.7c0,0,0,0,0,0.1c-0.1,0-2.6,0.1-3.2,0c0-0.1-0.1-0.3-0.1-0.4
				c0-0.2-0.1-0.3-0.1-0.5c0-0.1,0-0.1-0.1-0.2c-0.1-0.3-0.2-0.6-0.3-0.9c-0.1-0.2-0.1-0.4-0.2-0.6c-0.1-0.2-0.1-0.4-0.2-0.6
				c0,0,0-0.1-0.1-0.1h-4.7c0,0-0.1,0-0.1,0.1c0,0.1,0,0.1-0.1,0.2c0,0.2-0.1,0.4-0.2,0.6c-0.1,0.2-0.1,0.5-0.2,0.7
				c-0.1,0.2-0.1,0.5-0.2,0.7c0,0.1-0.1,0.3-0.1,0.5c0,0.2-0.1,0.3-0.1,0.5C430.1,131.4,430.1,131.5,430.1,131.5z M436.8,127
				c0.4,1.1,0.7,2.2,1,3.3c0.1,0,0.3,0.1,0.4-0.1c-0.1-0.1,0-0.1-0.1-0.2c-0.1-0.1-0.1-0.3-0.1-0.4c0-0.2-0.1-0.3-0.1-0.5
				s-0.1-0.3-0.2-0.5c0-0.2-0.1-0.3-0.1-0.5c-0.1-0.2-0.1-0.4-0.2-0.7s-0.1-0.4-0.2-0.7s-0.1-0.3-0.2-0.5s-0.1-0.4-0.2-0.7
				c-0.1-0.2-0.1-0.4-0.2-0.6s-0.1-0.3-0.1-0.5s-0.1-0.4-0.2-0.5s-0.1-0.4-0.2-0.7c0-0.2-0.1-0.3-0.1-0.4s-0.1-0.3-0.1-0.5
				c-0.1-0.2-0.1-0.5-0.2-0.7s-0.1-0.4-0.2-0.7c0-0.2-0.1-0.3-0.1-0.4c-0.1-0.2-0.1-0.4-0.2-0.7s-0.1-0.3-0.2-0.5
				c0-0.2-0.1-0.4-0.2-0.7c0-0.2-0.1-0.3-0.1-0.5c0-0.1-0.1-0.3-0.1-0.4c0,0,0-0.1-0.1-0.1c0,0-0.1,0-0.1,0h-1.6c0,0-0.1,0-0.1,0.1
				c-0.1,0.2-0.1,0.5-0.2,0.7s-0.1,0.5-0.2,0.7c0,0.2-0.1,0.3-0.1,0.4c0,0.2-0.1,0.3-0.1,0.5c-0.1,0.2-0.1,0.4-0.2,0.6
				s-0.2,0.5-0.2,0.7c-0.1,0.2-0.1,0.3-0.2,0.5c0,0.2-0.1,0.3-0.1,0.4c-0.1,0.2-0.1,0.4-0.2,0.7s-0.1,0.3-0.1,0.5
				c-0.1,0.2-0.1,0.4-0.2,0.7c-0.1,0.2-0.1,0.4-0.2,0.7s-0.1,0.4-0.2,0.6s-0.2,0.5-0.2,0.7c0,0.2-0.1,0.3-0.1,0.4s-0.1,0.3-0.1,0.5
				c0,0.2-0.1,0.3-0.1,0.5c0,0.2-0.1,0.3-0.1,0.5c-0.1,0.3-0.2,0.6-0.3,0.9c-0.1,0.2-0.1,0.4-0.2,0.7s-0.1,0.4-0.2,0.6
				c0,0,0,0.1,0,0.1h0.3c0,0,0.1,0,0.1-0.1c0,0,0,0,0,0c0-0.1,0-0.1,0.1-0.2c0.1-0.2,0.1-0.5,0.2-0.8c0-0.1,0-0.2,0.1-0.3l0.1-0.4
				c0-0.2,0.1-0.3,0.1-0.5c0-0.2,0.1-0.3,0.1-0.5c0.1-0.2,0.1-0.4,0.2-0.6L436.8,127z"/>
		</g>
		<g>
			<path class="st48" d="M416.4,116.7h7.6c0.2,0,0.5,0,0.7,0.1c0.1,0,0.3,0.1,0.5,0.1c0.4,0.2,0.8,0.4,1.1,0.8
				c0.1,0.1,0.2,0.3,0.3,0.4c0.1,0.2,0.2,0.4,0.2,0.6c0.1,0.3,0.1,0.6,0.1,0.9c0,1.3,0,2.7,0,4c0,0.2,0,0.3-0.1,0.5
				c-0.1,0.4-0.2,0.7-0.5,1s-0.5,0.6-0.9,0.8c-0.2,0.1-0.5,0.2-0.8,0.3c-0.3,0.1-0.7,0.1-1,0.1h-4.2c-0.1,0-0.1,0-0.1,0.1
				c0,0,0,0.1,0,0.1c0,1.6,0,3.2,0,4.8c0,0.1,0,0.1,0,0.2c0,0,0,0-0.1,0h-2.9c0-0.4,0-0.7,0-1.1L416.4,116.7z M418,125.1
				c0.1,0,0.1,0,0.2,0h5.1c0.3,0,0.6,0,1-0.1c0.3-0.1,0.5-0.2,0.7-0.4c0.2-0.3,0.4-0.6,0.5-0.9c0-0.2,0-0.4,0-0.6c0-1,0-2.1,0-3.1
				c0-0.2,0-0.5-0.1-0.7c0-0.2-0.1-0.4-0.2-0.6c-0.2-0.4-0.6-0.6-1-0.8c-0.3-0.1-0.5-0.1-0.8-0.1h-5.6c-0.2,0-0.2,0-0.2,0.2v12
				c0,0,0,0.1,0,0.1c0,0,0,0.1,0,0.1c0.1,0,0.2,0,0.3,0c0.1,0,0.1,0,0.1-0.1c0,0,0-0.1,0-0.1v-4.8C418,125.3,418,125.2,418,125.1z"
				/>
		</g>
		<g>
			<path class="st48" d="M489.5,131.5h-8.9c-0.1,0-0.1,0-0.2,0v-14.8h3v12h6.2c0,0,0,0.1,0,0.1v2.6
				C489.5,131.5,489.5,131.5,489.5,131.5z M481.7,130.3c0.1,0,0.1,0,0.2,0h6.2c0.2,0,0.2,0,0.2-0.2s0-0.2-0.2-0.2h-5.9
				c0,0-0.1,0-0.1-0.1V118c0,0,0-0.1,0-0.1c-0.1,0-0.2,0-0.4,0L481.7,130.3z"/>
		</g>
		<g>
			<path class="st47" d="M443.6,118.4c0,0,0.1,0,0.1,0h5.3c0.1,0,0.2,0,0.4,0c0.2,0,0.4,0.1,0.6,0.2c0.2,0.1,0.4,0.3,0.5,0.5
				c0.1,0.1,0.1,0.2,0.1,0.4c0,0.2,0,0.4,0.1,0.6c0,0.9,0,1.8,0,2.7c0,0.3,0,0.5-0.1,0.8c-0.1,0.3-0.4,0.6-0.7,0.8
				c-0.3,0.1-0.6,0.2-0.9,0.2h-5.2c-0.2,0-0.2,0-0.2-0.2v-0.1c0-1.9,0-3.8,0-5.8C443.6,118.5,443.6,118.4,443.6,118.4z M444.9,123.2
				c0,0,0.1,0,0.1,0c1.2,0,2.4,0,3.6,0c0.1,0,0.2,0,0.2,0c0.1,0,0.3-0.1,0.3-0.2c0.1-0.2,0.2-0.3,0.2-0.5c0-0.8,0-1.5,0-2.3
				c0-0.1,0-0.2-0.1-0.4c0-0.1,0-0.1-0.1-0.2c-0.1-0.1-0.3-0.2-0.5-0.2H445c0,0-0.1,0-0.1,0L444.9,123.2L444.9,123.2z"/>
		</g>
		<g>
			<path class="st47" d="M432.8,118.3h1.4c0,0.2,0.1,0.3,0.1,0.5c0,0.2,0.1,0.3,0.1,0.5s0.1,0.3,0.2,0.5c0,0.2,0.1,0.4,0.2,0.6
				s0.1,0.5,0.2,0.8c0.1,0.2,0.1,0.4,0.2,0.7s0.1,0.4,0.2,0.7s0.1,0.5,0.2,0.7c0.1,0.1,0.1,0.3,0.1,0.4c0,0.2,0.1,0.3,0.1,0.5
				c0,0.2,0.1,0.3,0.2,0.5c0,0.2,0.1,0.4,0.2,0.6c0.1,0.2,0.1,0.5,0.2,0.7c0,0.2,0.1,0.3,0.1,0.5c0,0.1,0,0.1,0,0.1l0,0l0,0h0h-6.3
				h0c0-0.1,0-0.1,0-0.2c0.1-0.3,0.2-0.6,0.3-0.9c0.1-0.2,0.1-0.4,0.2-0.7c0-0.1,0.1-0.3,0.1-0.4c0-0.2,0.1-0.3,0.1-0.5
				c0-0.2,0.1-0.3,0.1-0.4l0.1-0.5c0-0.2,0.1-0.4,0.2-0.5c0.1-0.2,0.1-0.4,0.2-0.6c0.1-0.2,0.1-0.4,0.2-0.6c0.1-0.3,0.2-0.6,0.3-0.9
				c0-0.1,0.1-0.3,0.1-0.4c0-0.2,0.1-0.3,0.1-0.5c0-0.2,0.1-0.3,0.1-0.4C432.6,118.8,432.7,118.6,432.8,118.3z M435,125.4
				c0-0.2-0.1-0.4-0.2-0.7c-0.1-0.2-0.1-0.5-0.2-0.7c0-0.2-0.1-0.3-0.1-0.5c0-0.2-0.1-0.3-0.1-0.5c-0.1-0.3-0.1-0.5-0.2-0.8
				c0-0.2-0.1-0.3-0.1-0.5s-0.1-0.3-0.1-0.5c0-0.2-0.1-0.3-0.1-0.5s-0.1-0.3-0.1-0.5c0-0.1,0-0.2-0.1-0.2c0,0-0.1,0-0.1,0
				c0,0-0.1,0.2-0.1,0.2c0,0.2-0.1,0.3-0.1,0.5c-0.1,0.2-0.1,0.5-0.2,0.7c-0.1,0.2-0.1,0.5-0.2,0.7c-0.1,0.3-0.2,0.7-0.3,1
				c-0.1,0.2-0.1,0.4-0.2,0.6s-0.1,0.4-0.2,0.6c-0.1,0.2-0.1,0.5-0.2,0.8c0,0,0,0.1,0,0.1L435,125.4z"/>
		</g>
		<g>
			<path class="st47" d="M418,124.7v-6.3c0,0,0.1,0,0.1,0h5.4c0.1,0,0.2,0,0.3,0c0.7,0.1,1.2,0.6,1.2,1.3c0,0.2,0,0.3,0,0.5
				c0,0.8,0,1.7,0,2.6c0,0.2,0,0.4,0,0.7c0,0.4-0.3,0.8-0.7,1.1c-0.2,0.1-0.3,0.1-0.5,0.2c-0.4,0.1-0.8,0.1-1.2,0.1
				c-1.5,0-3,0-4.5,0C418.1,124.7,418.1,124.7,418,124.7z M419.3,119.5c0,0.1,0,0.1,0,0.1v3.6c0,0,0,0.1,0,0.1c0,0.1,0,0.1,0.1,0.1
				c0,0,0,0,0.1,0h3.7c0.1,0,0.2,0,0.2,0c0.2,0,0.3-0.2,0.4-0.3c0-0.1,0.1-0.3,0.1-0.4c0-0.8,0-1.6,0-2.5c0-0.1,0-0.2,0-0.3
				c0-0.2-0.1-0.3-0.2-0.4c-0.1-0.1-0.3-0.1-0.5-0.1h-3.7C419.4,119.5,419.4,119.5,419.3,119.5z"/>
		</g>
	</g>
</g>
<g id="mono_css1">
	<g>
		<rect x="347.5" y="150.5" class="st1" width="12.2" height="24.9"/>
		<g>
			<path class="st49" d="M349.5,181.5c0,0-0.1,0-0.1,0c-0.1,0-0.2-0.1-0.2-0.1c-4.2-1.1-8.4-2.3-12.5-3.4c-0.2-0.1-0.3-0.1-0.3-0.3
				c-0.1-1.6-0.3-3.1-0.4-4.7c-0.2-1.7-0.3-3.5-0.5-5.2c-0.1-1.5-0.3-3.1-0.4-4.6c-0.2-1.7-0.3-3.5-0.5-5.2
				c-0.2-1.7-0.3-3.5-0.5-5.2c-0.2-1.9-0.4-3.9-0.5-5.9c0-0.4-0.1-0.8-0.1-1.1c0-0.2,0-0.3,0-0.5c10.6,0,21.2,0,31.9,0
				c0.1,0,0.2,0,0.2,0c0,0,0.1,0.1,0.1,0.1c-0.1,1.3-0.2,2.7-0.4,4c-0.2,1.7-0.3,3.5-0.5,5.2c-0.2,1.9-0.4,3.8-0.5,5.8
				c-0.2,1.9-0.4,3.8-0.5,5.8c-0.2,2.1-0.4,4.2-0.6,6.3c-0.2,1.8-0.3,3.6-0.5,5.4c0,0.2-0.1,0.2-0.2,0.3c-3.6,0.9-7.1,1.9-10.7,2.9
				C351,181.1,350.2,181.3,349.5,181.5z M347.1,157c-0.5,0.2-1,0.4-1.6,0.7c-0.6,0.2-1.2,0.5-1.8,0.7c-0.4,0.2-0.8,0.3-1.2,0.5
				c-0.7,0.3-1.5,0.6-2.2,0.9c-0.2,0.1-0.3,0.1-0.3,0.3c0.1,1.1,0.2,2.3,0.3,3.4c0,0.2,0.1,0.3,0.3,0.3c2.8,0,5.6,0,8.5,0
				c0.1,0,0.2,0,0.4,0c0,2.1,0,4.3,0,6.4c-0.1,0-0.2,0-0.3,0c-1.3-0.3-2.6-0.7-3.9-1c-0.2-0.1-0.3-0.1-0.3-0.4
				c-0.1-0.9-0.1-1.8-0.2-2.7c0-0.1,0-0.2-0.2-0.2c-1.2,0-2.5,0-3.7,0c-0.1,0-0.2,0-0.2,0.2c0,0.4,0.1,0.9,0.1,1.3
				c0.1,1.5,0.3,3,0.4,4.5c0,0.2,0.1,0.2,0.2,0.3c0.3,0.1,0.7,0.2,1,0.3c2.4,0.7,4.7,1.4,7.1,2.1c0,1.2,0,2.5,0,3.7
				c0,0.4,0,0.4,0.3,0.3c3.3-0.9,6.7-1.8,10-2.7c0.2-0.1,0.3-0.2,0.3-0.4c0.1-1.4,0.2-2.8,0.4-4.3c0.1-1.2,0.2-2.5,0.3-3.7
				c0.1-1.5,0.3-2.9,0.4-4.4c0.1-1.2,0.2-2.5,0.3-3.7c0.1-1.4,0.3-2.9,0.4-4.4c0.1-1.1,0.2-2.1,0.3-3.1c0.1-1.2,0.2-2.5,0.3-3.8
				c0-0.2-0.1-0.3-0.3-0.3c-4.2,0-8.3,0-12.5,0c-0.2,0-0.3,0.1-0.3,0.3c0,1.2,0,2.5,0,3.7c-0.1,0-0.2,0-0.4,0c-3.2,0-6.4,0-9.6,0
				c-0.2,0-0.2,0-0.2,0.2c0.1,1.1,0.3,2.3,0.4,3.5c0,0.2,0.1,0.3,0.3,0.3c2.5,0,5.1,0,7.6,0c0.6,0,1.2,0,1.9,0c0,0.1,0,0.1,0,0.2
				c0,0,0,0,0,0C348.7,156.4,347.9,156.7,347.1,157z"/>
			<path class="st50" d="M365.6,145.3L365.6,145.3L365.6,145.3c-0.1,0-0.1-0.1-0.2-0.1c-0.1,0-0.1,0-0.2,0c-10.6,0-21.2,0-31.9,0
				c0,0,0-0.1,0-0.1c0.1,0,0.1,0,0.2,0c10.6,0,21.3,0,31.9,0C365.5,145.1,365.7,145.1,365.6,145.3z"/>
			<path class="st51" d="M349.5,151.8c0-1.2,0-2.5,0-3.7c0-0.2,0.1-0.3,0.3-0.3c4.2,0,8.3,0,12.5,0c0.2,0,0.3,0.1,0.3,0.3
				c-0.1,1.2-0.2,2.5-0.3,3.8c-0.1,1.1-0.2,2.1-0.3,3.1c-0.1,1.4-0.3,2.9-0.4,4.4c-0.1,1.2-0.2,2.5-0.3,3.7
				c-0.1,1.5-0.3,2.9-0.4,4.4c-0.1,1.2-0.2,2.5-0.3,3.7c-0.1,1.4-0.2,2.8-0.4,4.3c0,0.2-0.1,0.3-0.3,0.4c-3.3,0.9-6.7,1.8-10,2.7
				c-0.3,0.1-0.3,0.1-0.3-0.3c0-1.2,0-2.5,0-3.7v0c0,0,0.1,0,0.1,0c2.6-0.8,5.3-1.6,7.9-2.3c0.1,0,0.2-0.1,0.2-0.3
				c0.1-1.6,0.3-3.2,0.4-4.8c0.2-2.3,0.4-4.7,0.6-7c0-0.2,0-0.2-0.2-0.2c-3,0-6,0-8.9,0c0.1-0.1,0.1-0.1,0.2-0.2
				c1.8-0.8,3.5-1.5,5.2-2.2c1.3-0.6,2.6-1.1,4-1.7c0-0.1,0.1-0.1,0.1-0.2c0.1-1.1,0.2-2.3,0.4-3.4c0-0.3,0-0.3-0.3-0.3
				c-3.1,0-6.3,0-9.5,0C349.6,151.8,349.5,151.8,349.5,151.8L349.5,151.8z"/>
			<path class="st52" d="M349.5,174.6c-2.4-0.7-4.7-1.4-7.1-2.1c-0.3-0.1-0.7-0.2-1-0.3c-0.1,0-0.2-0.1-0.2-0.3
				c-0.1-1.5-0.3-3-0.4-4.5c0-0.4-0.1-0.9-0.1-1.3c0-0.1,0-0.2,0.2-0.2c1.2,0,2.5,0,3.7,0c0.2,0,0.2,0.1,0.2,0.2
				c0.1,0.9,0.1,1.8,0.2,2.7c0,0.2,0.1,0.3,0.3,0.4c1.3,0.3,2.6,0.6,3.9,1c0.1,0,0.2,0,0.3,0c0,0,0,0,0,0
				C349.5,171.7,349.5,173.1,349.5,174.6C349.5,174.6,349.5,174.6,349.5,174.6z"/>
			<path class="st52" d="M349.5,155.8c-0.6,0-1.2,0-1.9,0c-2.5,0-5.1,0-7.6,0c-0.2,0-0.3-0.1-0.3-0.3c-0.1-1.2-0.3-2.3-0.4-3.5
				c0-0.2,0-0.2,0.2-0.2c3.2,0,6.4,0,9.6,0c0.1,0,0.2,0,0.4,0v0C349.5,153.1,349.5,154.4,349.5,155.8
				C349.5,155.8,349.5,155.8,349.5,155.8z"/>
			<path class="st52" d="M349.5,163.9c-0.1,0-0.2,0-0.4,0c-2.8,0-5.6,0-8.5,0c-0.2,0-0.3-0.1-0.3-0.3c-0.1-1.1-0.2-2.3-0.3-3.4
				c0-0.3,0.1-0.3,0.3-0.3c0.1,0,0.2,0.1,0.4,0.1c2.8,0,5.5,0,8.3,0c0.1,0,0.3,0,0.4,0.1C349.5,161.2,349.5,162.5,349.5,163.9
				C349.5,163.8,349.5,163.8,349.5,163.9z"/>
			<path class="st53" d="M349.5,159.9c-0.1,0-0.3-0.1-0.4-0.1c-2.8,0-5.5,0-8.3,0c-0.1,0-0.2-0.1-0.4-0.1c0.7-0.3,1.5-0.6,2.2-0.9
				c0.4-0.2,0.8-0.3,1.2-0.5c0.1,0,0.2,0.1,0.3,0.1c1.5,0,3.1,0,4.7,0c0.8,0,0.7,0.1,0.7-0.7c0-0.2,0-0.5,0-0.7c0-0.3,0-0.7,0-1
				c0,0,0,0,0,0c0.1-0.1,0.3-0.1,0.5-0.2c0.1,0,0.1,0,0.2,0c2.9,0,5.8,0,8.7,0c0.1,0,0.2,0,0.2,0c-1.3,0.6-2.6,1.1-4,1.7
				c-1.8,0.8-3.5,1.5-5.2,2.2c-0.1,0-0.1,0.1-0.2,0.2C349.6,159.9,349.5,159.9,349.5,159.9z"/>
			<path class="st54" d="M349.5,170.3c0-2.1,0-4.3,0-6.4c0,0,0,0,0,0c0.1,0,0.2,0,0.3,0c1.4,0,2.9,0,4.3,0c0.2,0,0.2,0,0.2,0.2
				c-0.1,1.6-0.2,3.1-0.3,4.7c0,0.2-0.1,0.2-0.2,0.3c-0.6,0.1-1.1,0.3-1.7,0.5C351.2,169.8,350.3,170,349.5,170.3
				C349.5,170.3,349.5,170.3,349.5,170.3z"/>
			<path class="st55" d="M349.5,157.8c0,0.8,0.1,0.7-0.7,0.7c-1.5,0-3.1,0-4.7,0c-0.1,0-0.2-0.1-0.3-0.1c0.6-0.2,1.2-0.5,1.8-0.7
				c0.2,0,0.4,0.1,0.6,0.1C347.2,157.8,348.4,157.8,349.5,157.8z"/>
			<path class="st56" d="M349.5,157.8c-1.1,0-2.2,0-3.3,0c-0.2,0-0.4-0.1-0.6-0.1c0.5-0.2,1-0.4,1.6-0.7c0.1,0,0.2,0.1,0.4,0.1
				c0.7,0,1.3,0,2,0C349.5,157.3,349.5,157.5,349.5,157.8z"/>
			<path class="st57" d="M349.9,155.8c-0.1,0.1-0.3,0.1-0.5,0.2c0-0.1,0-0.1,0-0.2c0,0,0,0,0,0C349.6,155.8,349.8,155.8,349.9,155.8
				z"/>
		</g>
	</g>
</g>
<g id="mono_html2">
	<g>
		<g>
			<path class="st45" d="M325,256.2l-9.9,114.7c-14.7,11.4-33,18.1-53.1,18.1c-19.8,0-38.1-6.7-52.6-17.8l-9.9-115L325,256.2
				L325,256.2z"/>
		</g>
		<g>
			<polygon class="st46" points="262.2,267 262.2,386.4 303.4,374.7 312.7,267 			"/>
		</g>
		<g>
			<polygon class="st1" points="223,282 227.1,329.9 280.9,329.9 279.1,349.7 262.2,354.2 244.6,349.3 244.1,337 227.7,337 
				229.7,361.3 262.2,370.5 294.6,361.3 298.7,313.7 242,313.7 240.6,298.2 240.6,298.2 300,297.9 301.3,282 			"/>
		</g>
		<g>
			<polygon class="st0" points="226.5,221.4 226.5,229.7 218.7,229.7 218.7,221.4 211.4,221.4 211.4,245.1 218.7,245.1 218.7,237.4 
				226.5,237.4 226.5,245.1 233.8,245.1 233.8,221.4 			"/>
		</g>
		<g>
			<polygon class="st0" points="259.8,221.4 237.3,221.4 237.3,229.7 244.6,229.7 244.6,245.3 252.5,245.3 252.5,229.7 259.8,229.7 
							"/>
		</g>
		<g>
			<polygon class="st0" points="301.7,237.8 301.7,221.6 293.8,221.6 293.8,237.8 293.8,245.3 301.7,245.3 313,245.3 313,237.8 			
				"/>
		</g>
		<g>
			<polygon class="st0" points="282,221.6 276.5,230.1 270.9,221.6 263.1,221.6 263.1,245.3 270.9,245.3 270.9,233.5 276.5,241.9 
				282,233.5 282,245.3 289.8,245.3 289.8,221.6 			"/>
		</g>
	</g>
</g>
<g id="mono_node1">
	<g>
		<g>
			<path class="st13" d="M225.1,164c-0.1,0-0.3,0-0.4-0.1l-1.4-0.8c-0.2-0.1-0.1-0.1,0-0.2c0.3-0.1,0.3-0.1,0.6-0.3c0,0,0.1,0,0.1,0
				l1.1,0.6c0,0,0.1,0,0.1,0l4.1-2.4c0,0,0.1-0.1,0.1-0.1v-4.7c0-0.1,0-0.1-0.1-0.1l-4.1-2.4c0,0-0.1,0-0.1,0L221,156
				c0,0-0.1,0.1-0.1,0.1v4.7c0,0.1,0,0.1,0.1,0.1l1.1,0.6c0.6,0.3,1-0.1,1-0.4v-4.7c0-0.1,0.1-0.1,0.1-0.1h0.5
				c0.1,0,0.1,0.1,0.1,0.1v4.7c0,0.8-0.4,1.3-1.2,1.3c-0.2,0-0.4,0-0.9-0.2l-1.1-0.6c-0.3-0.1-0.4-0.4-0.4-0.7v-4.7
				c0-0.3,0.2-0.6,0.4-0.7l4.1-2.4c0.3-0.1,0.6-0.1,0.9,0l4.1,2.4c0.3,0.1,0.4,0.4,0.4,0.7v4.7c0,0.3-0.2,0.6-0.4,0.7l-4.1,2.4
				C225.4,164,225.3,164,225.1,164"/>
		</g>
		<g>
			<path class="st13" d="M226.4,160.8c-1.8,0-2.2-0.8-2.2-1.5c0-0.1,0.1-0.1,0.1-0.1h0.5c0.1,0,0.1,0.1,0.1,0.1
				c0.1,0.5,0.3,0.8,1.4,0.8c0.9,0,1.2-0.2,1.2-0.6c0-0.3-0.1-0.5-1.4-0.6c-1.1-0.1-1.8-0.4-1.8-1.2c0-0.8,0.7-1.3,1.9-1.3
				c1.3,0,2,0.4,2,1.4c0,0,0,0.1,0,0.1c0,0-0.1,0-0.1,0h-0.5c-0.1,0-0.1,0-0.1-0.1c-0.1-0.6-0.4-0.7-1.3-0.7c-0.9,0-1.1,0.3-1.1,0.6
				c0,0.3,0.1,0.4,1.4,0.6c1.3,0.2,1.9,0.4,1.9,1.3C228.4,160.3,227.7,160.8,226.4,160.8 M231.4,155.8h0.1c0.1,0,0.1-0.1,0.1-0.1
				c0-0.1-0.1-0.1-0.1-0.1h-0.1V155.8z M231.2,155.4h0.3c0.1,0,0.3,0,0.3,0.2c0,0.2-0.1,0.2-0.2,0.2c0.1,0,0.1,0.1,0.1,0.2
				c0,0.1,0,0.2,0.1,0.2h-0.2c0,0,0-0.3,0-0.3c0-0.1,0-0.1-0.1-0.1h-0.1v0.4h-0.2L231.2,155.4L231.2,155.4z M230.9,155.9
				c0,0.4,0.3,0.7,0.7,0.7c0.4,0,0.7-0.3,0.7-0.7c0-0.4-0.3-0.7-0.7-0.7S230.9,155.5,230.9,155.9 M232.3,155.9
				c0,0.4-0.4,0.8-0.8,0.8c-0.4,0-0.8-0.4-0.8-0.8c0-0.4,0.4-0.8,0.8-0.8C231.9,155.1,232.3,155.4,232.3,155.9"/>
		</g>
		<g>
			<path class="st14" d="M212.5,145.6c0-0.2-0.1-0.4-0.3-0.4l-4.3-2.5c-0.1-0.1-0.1-0.1-0.2-0.1h-0.1c-0.1,0-0.2,0-0.2,0.1l-4.3,2.5
				c-0.2,0.1-0.3,0.3-0.3,0.4l0,6.7c0,0.1,0.1,0.2,0.1,0.2c0.1,0.1,0.2,0.1,0.3,0l2.6-1.5c0.2-0.1,0.3-0.3,0.3-0.4v-3.1
				c0-0.2,0.1-0.4,0.3-0.4l1.1-0.6c0.1-0.1,0.2-0.1,0.3-0.1s0.2,0,0.3,0.1l1.1,0.6c0.2,0.1,0.3,0.3,0.3,0.4v3.1
				c0,0.2,0.1,0.4,0.3,0.4l2.6,1.5c0.1,0.1,0.2,0.1,0.3,0s0.1-0.1,0.1-0.2L212.5,145.6z M232.9,149.1c0,0.1,0,0.1-0.1,0.1l-1.5,0.9
				c0,0-0.1,0-0.1,0l-1.5-0.9c0,0-0.1-0.1-0.1-0.1v-1.7c0-0.1,0-0.1,0.1-0.1l1.5-0.9c0,0,0.1,0,0.1,0l1.5,0.9c0,0,0.1,0.1,0.1,0.1
				L232.9,149.1z M233.3,136.3c-0.1-0.1-0.2-0.1-0.3,0s-0.1,0.1-0.1,0.2v6.7c0,0.1,0,0.1-0.1,0.2c-0.1,0-0.1,0-0.2,0l-1.1-0.6
				c-0.2-0.1-0.4-0.1-0.5,0l-4.3,2.5c-0.2,0.1-0.3,0.3-0.3,0.4v5c0,0.2,0.1,0.4,0.3,0.4l4.3,2.5c0.2,0.1,0.4,0.1,0.5,0l4.3-2.5
				c0.2-0.1,0.3-0.3,0.3-0.4v-12.5c0-0.2-0.1-0.4-0.3-0.5L233.3,136.3z M247.8,147.3c0.2-0.1,0.3-0.3,0.3-0.4v-1.2
				c0-0.2-0.1-0.4-0.3-0.4l-4.3-2.5c-0.2-0.1-0.4-0.1-0.5,0l-4.3,2.5c-0.2,0.1-0.3,0.3-0.3,0.4v5c0,0.2,0.1,0.4,0.3,0.4l4.3,2.5
				c0.2,0.1,0.4,0.1,0.5,0l2.6-1.4c0.1-0.1,0.1-0.1,0.1-0.2c0-0.1-0.1-0.2-0.1-0.2l-4.4-2.5c-0.1-0.1-0.1-0.1-0.1-0.2v-1.6
				c0-0.1,0.1-0.2,0.1-0.2l1.4-0.8c0.1-0.1,0.2-0.1,0.3,0l1.4,0.8c0.1,0.1,0.1,0.1,0.1,0.2v1.2c0,0.1,0.1,0.2,0.1,0.2s0.2,0.1,0.3,0
				L247.8,147.3z"/>
		</g>
		<g>
			<path class="st15" d="M243.2,147.1c0,0,0.1,0,0.1,0l0.8,0.5c0,0,0.1,0.1,0.1,0.1v1c0,0,0,0.1-0.1,0.1l-0.8,0.5c0,0-0.1,0-0.1,0
				l-0.8-0.5c0,0-0.1-0.1-0.1-0.1v-1c0,0,0-0.1,0.1-0.1L243.2,147.1z"/>
		</g>
		<g>
			<g>
				<path class="st16" d="M219.6,153.6c-0.1,0-0.1,0-0.2,0c-0.2,0-0.4-0.2-0.7-0.3c-0.5-0.3-1-0.6-1.5-0.9c-0.4-0.2-0.9-0.5-1.3-0.8
					c-0.3-0.2-0.6-0.4-0.9-0.5c-0.1-0.1-0.1-0.1-0.2-0.2c0-0.1,0.1-0.1,0.1-0.2c0.2-0.4,0.4-0.7,0.6-1c0,0,0,0,0-0.1
					c0.1-0.3,0.3-0.5,0.4-0.8c0,0,0-0.1,0.1-0.1c0.1-0.2,0.2-0.4,0.4-0.6c0-0.1,0-0.1,0.1-0.1c0,0,0.1-0.1,0.1-0.1
					c0.1,0,0.1,0.1,0.1,0.1s0.1,0.1,0.1,0.1c0.1,0.2,0.2,0.4,0.4,0.6c0,0.1,0,0.1,0.1,0.1c0.1,0.2,0.2,0.5,0.4,0.7
					c0,0.1,0.1,0.1,0.1,0.2c0.2,0.3,0.4,0.6,0.5,0.9c0,0.1,0,0.1,0.1,0.1c0.2,0.4,0.4,0.8,0.6,1.2c0,0.1,0.1,0.1,0.1,0.2
					c0.1,0.2,0.2,0.4,0.3,0.6c0.1,0.2,0.2,0.3,0.3,0.5C219.5,153.5,219.6,153.6,219.6,153.6z"/>
			</g>
			<g>
				<path class="st17" d="M219.6,153.6c-0.2-0.4-0.4-0.8-0.6-1.2c0,0,0-0.1-0.1-0.1c0,0,0-0.1,0-0.1c0-3.1,0-6.2,0-9.3
					c0-0.1,0-0.1,0-0.1c0,0,0-0.1,0-0.1c0.1-0.1,0.3-0.2,0.5-0.2c0.1,0,0.1,0,0.1,0c0,0,0.1,0,0.1,0c0.1,0.1,0.1,0.2,0.2,0.3
					c0,0.1,0.1,0.1,0.1,0.2c0.1,0.5,0,1.1,0,1.6c0,2.8,0,5.7,0,8.5c0,0.1,0,0.1,0,0.2c0,0.1-0.1,0.1-0.1,0.1
					S219.6,153.6,219.6,153.6C219.6,153.6,219.6,153.6,219.6,153.6z"/>
			</g>
			<g>
				<path class="st18" d="M214.6,145.6c0-0.1,0-0.1,0.1-0.2c0.1-0.1,0.1-0.2,0.2-0.2c0.1,0,0.1,0,0.1,0.1c0.2,0.3,0.4,0.6,0.5,0.9
					c0.1,0.3,0.3,0.6,0.4,0.8c0,0,0.1,0.1,0,0.1c0,0-0.1,0-0.1,0c0,0-0.1,0-0.1-0.1c-0.3-0.2-0.7-0.3-1-0.5c-0.1,0-0.1-0.1-0.1-0.1
					c0-0.3,0-0.5,0-0.8C214.6,145.7,214.7,145.6,214.6,145.6C214.6,145.6,214.6,145.6,214.6,145.6z"/>
			</g>
			<g>
				<path class="st19" d="M214.8,151c-0.1-0.1-0.1-0.2-0.1-0.2c0,0,0,0,0,0c0,0,0-0.1,0-0.1c0-0.4,0-0.9,0-1.3c0-0.1,0.1-0.1,0.1,0
					c0.1,0.1,0.3,0.1,0.4,0.2c0.1,0.1,0.2,0.1,0.3,0.1c0,0,0.1,0.1,0.1,0.1c-0.1,0.3-0.3,0.5-0.5,0.8
					C214.9,150.6,214.8,150.8,214.8,151z"/>
			</g>
			<g>
				<path class="st20" d="M224.3,150.7L224.3,150.7L224.3,150.7c-0.1-0.1-0.1-0.1-0.1-0.2c0-0.2,0-0.5,0-0.7c0-0.1,0-0.3,0-0.4
					c0-0.1,0-0.1,0-0.2c0-0.1,0-0.2,0-0.3c0-0.2,0-0.4,0-0.6c0-0.1,0-0.1,0-0.2c0-0.4,0-0.9,0-1.3c0-0.3,0-0.7,0-1
					c0-0.1,0-0.1,0.1-0.1c0,0,0,0,0,0C224.3,147.3,224.3,149,224.3,150.7z"/>
			</g>
			<g>
				<path class="st21" d="M214.6,149.3c0,0.4,0,0.9,0,1.3c0,0,0,0.1,0,0.1c0-1.7,0-3.4,0-5.1c0,0,0,0.1,0,0.1c0,0.3,0,0.6,0,0.8
					c0,0,0,0.1,0,0.1c0,0.3,0,0.5,0,0.8c0,0.2,0,0.5,0,0.8c0,0.3,0,0.6,0,0.9C214.7,149.2,214.7,149.2,214.6,149.3z"/>
			</g>
			<g>
				<path class="st22" d="M219.6,142.6C219.6,142.6,219.6,142.6,219.6,142.6c-0.1,0-0.1,0-0.1,0c0,0,0,0,0,0
					C219.4,142.6,219.5,142.6,219.6,142.6z"/>
			</g>
			<g>
				<path class="st23" d="M218.1,143.4c0.3-0.1,0.5-0.3,0.8-0.4c0,0.1,0,0.1,0,0.1c0,3.1,0,6.2,0,9.2c0,0.1,0,0.1-0.1,0.1
					c-0.1-0.2-0.2-0.4-0.3-0.6c-0.1-0.2-0.3-0.5-0.4-0.7c0-0.1,0-0.1,0-0.2c0-2.5,0-4.9,0-7.4C218.1,143.4,218.1,143.4,218.1,143.4z
					"/>
			</g>
			<g>
				<path class="st24" d="M218.1,143.4c0,0.1,0,0.1,0,0.2c0,2.4,0,4.9,0,7.4c0,0.1,0,0.1,0,0.2c-0.2-0.4-0.4-0.7-0.6-1.1
					c0-0.1,0-0.2,0-0.4c0-1.9,0-3.9,0-5.8c0,0,0-0.1,0-0.1C217.7,143.6,217.9,143.5,218.1,143.4z"/>
			</g>
			<g>
				<path class="st25" d="M216,147.1c-0.3-0.6-0.7-1.2-1-1.9c0,0,0,0-0.1-0.1c0.4-0.3,0.9-0.5,1.3-0.8c0.1-0.1,0.2-0.1,0.4-0.2
					c0.1,0,0.1,0,0.1,0.1c0,0.1,0,0.1,0,0.2c0,1.1,0,2.3,0,3.4c0,0.1,0,0.2,0,0.3c0,0.1,0,0.1-0.1,0.1c-0.1-0.1-0.1-0.2-0.1-0.3
					c0,0-0.1,0-0.1-0.1c-0.1-0.2-0.3-0.5-0.4-0.7C216,147.2,216,147.2,216,147.1z"/>
			</g>
			<g>
				<path class="st26" d="M217.5,143.7c0.1,0,0,0.1,0,0.1c0,1,0,1.9,0,2.9c0,1,0,2,0,3.1c0,0.1,0,0.1,0,0.1
					c-0.2-0.3-0.3-0.6-0.5-0.9c0-0.1,0-0.2,0-0.3c0-1.6,0-3.1,0-4.7c0-0.1,0-0.1,0-0.1C217.2,143.9,217.4,143.8,217.5,143.7z"/>
			</g>
			<g>
				<path class="st27" d="M217,144c0,0.1,0,0.1,0,0.2c0,1.6,0,3.2,0,4.8c0,0.1,0,0.1,0,0.2c-0.1-0.2-0.3-0.5-0.4-0.8
					c0-0.1,0-0.2,0-0.2c0-1.2,0-2.4,0-3.7c0-0.1,0-0.1,0-0.1C216.7,144.1,216.9,144.1,217,144z"/>
			</g>
			<g>
				<path class="st28" d="M216,147.1c0.1,0.2,0.2,0.4,0.3,0.6c0.1,0.1,0.1,0.2,0.2,0.3c-0.1,0.1-0.1,0.1-0.1,0.2c0,0-0.1,0-0.1,0
					c-0.5-0.2-1-0.5-1.5-0.7c0,0-0.1-0.1-0.1-0.1c0-0.3,0-0.6,0-0.9c0.1,0,0.3,0.1,0.4,0.2C215.4,146.8,215.6,147,216,147.1
					C215.9,147.1,215.9,147.1,216,147.1z"/>
			</g>
			<g>
				<path class="st29" d="M214.6,149.3c0-0.4,0-0.7,0-1.1c0.1-0.1,0.1,0,0.1,0c0.3,0.1,0.7,0.3,1,0.5c0.1,0,0.1,0,0.1,0.1
					c0.1,0,0.1,0.1,0.1,0.1c-0.2,0.3-0.3,0.6-0.5,0.8c0,0,0,0,0,0C215.2,149.5,214.9,149.4,214.6,149.3z"/>
			</g>
			<g>
				<path class="st30" d="M216,148.8C215.9,148.8,215.9,148.8,216,148.8c-0.5-0.2-0.9-0.4-1.3-0.7c0,0,0,0,0,0c0-0.2,0-0.5,0-0.8
					c0,0,0.1,0,0.1,0c0.5,0.2,1,0.5,1.5,0.7c0,0,0.1,0.1,0.1,0.1C216.2,148.4,216.1,148.6,216,148.8z"/>
			</g>
			<g>
				<path class="st31" d="M220.7,153.1c-0.3,0.2-0.5,0.3-0.8,0.4c0-0.1,0-0.1,0-0.1c0-3.3,0-6.6,0-9.9c0-0.1,0-0.2,0-0.3
					c0.1,0,0.1,0,0.1,0.1c0.1,0.2,0.2,0.4,0.4,0.6c0.1,0.1,0.1,0.2,0.2,0.4c0.1,0.1,0.1,0.2,0.1,0.2c0,0.1,0.1,0.1,0.1,0.1
					c0.1,0.6,0,1.2,0,1.9c0,2.1,0,4.3,0,6.4C220.7,152.9,220.7,153,220.7,153.1z"/>
			</g>
			<g>
				<path class="st32" d="M220.4,144.1c-0.2-0.3-0.3-0.6-0.5-0.8c-0.1-0.1-0.1-0.2-0.1-0.2c-0.1-0.1-0.1-0.2-0.2-0.4
					c0,0,0-0.1,0-0.1c0.1,0,0.1,0,0.1,0.1c0.7,0.4,1.4,0.8,2.1,1.2c0,0,0,0,0,0c0.3,0.4,0.6,0.8,0.9,1.2c0.3,0.4,0.6,0.8,0.9,1.2
					c0,0.1-0.1,0.2-0.1,0.2c-0.1,0.2-0.3,0.5-0.4,0.7c0,0,0,0.1-0.1,0.1c-0.1,0-0.2-0.1-0.2-0.1c-0.4-0.6-0.9-1.2-1.3-1.8
					c-0.3-0.4-0.6-0.9-1-1.3c-0.1-0.1-0.1-0.1-0.1-0.2C220.4,144,220.5,144.1,220.4,144.1z"/>
			</g>
			<g>
				<path class="st16" d="M223.1,147.4c0.1-0.2,0.2-0.4,0.4-0.6c0.1-0.1,0.1-0.3,0.2-0.4c0,0,0-0.1,0-0.1c0.1-0.3,0.3-0.6,0.5-0.8
					c0,0,0.1-0.1,0.1-0.1c0.1,0.1,0.1,0.2,0.1,0.2c0,0.8,0,1.5,0,2.3c0,0.1,0,0.1,0,0.1c0,0.1-0.1,0-0.1,0c-0.1-0.1-0.2-0.1-0.4-0.2
					c-0.2-0.1-0.4-0.2-0.7-0.3C223.1,147.5,223,147.4,223.1,147.4C223,147.4,223,147.4,223.1,147.4z"/>
			</g>
			<g>
				<path class="st33" d="M224.2,145.3C224.2,145.3,224.2,145.3,224.2,145.3c-0.2,0.3-0.4,0.7-0.6,1c-0.1-0.1-0.2-0.2-0.2-0.2
					c-0.4-0.5-0.8-1.1-1.2-1.6c-0.1-0.2-0.2-0.3-0.4-0.5c0,0,0-0.1,0-0.1c0.5,0.3,1,0.6,1.5,0.9c0.2,0.1,0.5,0.3,0.7,0.4
					C224.1,145.2,224.1,145.3,224.2,145.3z"/>
			</g>
			<g>
				<path class="st34" d="M220.7,153.1c0-0.1,0-0.1,0-0.1c0-2.4,0-4.9,0-7.3c0-0.4,0-0.7,0-1.1c0.1,0,0.1,0.1,0.1,0.1
					c0.1,0.2,0.3,0.5,0.4,0.7c0,0.1,0.1,0.1,0.1,0.2c0,0,0.1,0.1,0.1,0.1c0,0,0,0.1,0,0.1c0.1,0.1,0.1,0.3,0.1,0.4
					c0,2.1,0,4.2,0,6.3c0,0.1,0,0.2,0,0.2C221.1,152.8,220.9,152.9,220.7,153.1z"/>
			</g>
			<g>
				<path class="st35" d="M221.4,152.6c0-0.1,0-0.3,0-0.5c0-2,0-4.1,0-6.1c0-0.1,0-0.3-0.1-0.4c0,0,0-0.1,0-0.1c0,0,0.1,0,0.1,0
					c0.1,0.2,0.2,0.3,0.3,0.5c0,0.4,0,0.7,0,1c0,1.7,0,3.4,0,5.1c0,0.1,0,0.1,0,0.2C221.6,152.5,221.4,152.6,221.4,152.6z"/>
			</g>
			<g>
				<path class="st36" d="M224.3,150.7c0,0.2-0.1,0.3-0.2,0.4c-0.3,0.2-0.6,0.3-0.9,0.5c0,0-0.1-0.1-0.1-0.1c0,0,0-0.1,0-0.1
					c0-0.8,0-1.6,0-2.4c0-0.1,0-0.1,0.1-0.2c0.1,0,0.1,0,0.1,0.1c0.1,0.2,0.2,0.4,0.3,0.6c0.1,0.1,0.2,0.3,0.2,0.4
					c0.1,0.2,0.2,0.4,0.4,0.6C224.3,150.6,224.3,150.7,224.3,150.7z"/>
			</g>
			<g>
				<path class="st37" d="M222,152.3c-0.1,0.1-0.2,0.1-0.3,0.2c0,0-0.1-0.1-0.1-0.1c0,0,0,0,0-0.1c0-2,0-3.9,0-5.9c0,0,0,0,0-0.1
					c0-0.1,0.1-0.1,0.1,0c0.1,0.1,0.1,0.1,0.2,0.2c0.3,0.4,0.6,0.8,0.8,1.2c0,0,0,0,0,0c0,0,0,0.1-0.1,0.1c-0.1,0-0.1,0-0.1-0.1
					c-0.1-0.1-0.2-0.3-0.3-0.4c-0.1-0.1-0.2-0.3-0.3-0.4c0,0,0,0-0.1,0c0,0,0,0,0,0.1c0,0,0,0.1,0,0.1
					C222,148.8,222,150.5,222,152.3C222,152.2,222,152.2,222,152.3z"/>
			</g>
			<g>
				<path class="st38" d="M224.3,148.9c0,0.1,0,0.2,0,0.3c-0.1,0.1-0.1,0-0.1,0c-0.2-0.1-0.4-0.2-0.6-0.3c0,0-0.1,0-0.1-0.1
					c-0.1-0.1-0.2-0.1-0.3-0.1c-0.1,0-0.1-0.1-0.1-0.2c0-0.1-0.1-0.1-0.1-0.1c0,0.1,0,0.1,0,0.1c0,1,0,2,0,3c0,0.1,0,0.1,0,0.2
					c-0.1,0.1-0.2,0.1-0.3,0.2c-0.1,0-0.1-0.1-0.1-0.1c0,0,0-0.1,0-0.1c0-1.2,0-2.5,0-3.7c0,0,0-0.1,0-0.1s0-0.1,0.1-0.1
					c0.1,0,0.1,0,0.1,0.1c0,0,0,0.1,0.1,0.1c0.1,0.2,0.2,0.2,0.4,0.3c0.3,0.1,0.6,0.3,0.9,0.4c0.1,0,0.1,0.1,0.1,0.1
					C224.2,148.8,224.3,148.8,224.3,148.9z"/>
			</g>
			<g>
				<path class="st39" d="M222.7,148c-0.1,0-0.1-0.1-0.1-0.1c-0.1,0-0.1-0.1-0.1-0.1c-0.1-0.1-0.1-0.1-0.1-0.2c0,0,0,0,0,0
					c0,0,0,0,0,0.1c0,0,0,0.1,0,0.1c0,1.4,0,2.8,0,4.2c0,0.1,0,0.2,0,0.3c-0.1,0.1-0.2,0.1-0.3,0.2c0,0,0-0.1,0-0.1
					c0-1.7,0-3.5,0-5.2c0,0,0,0,0,0c0,0,0-0.1,0-0.1c0,0,0.1,0,0.1,0.1c0.1,0.2,0.2,0.3,0.3,0.5c0.1,0.1,0.2,0.2,0.3,0.4
					c0,0,0.1,0.1,0.1,0.1C222.8,147.9,222.8,148,222.7,148z"/>
			</g>
			<g>
				<path class="st40" d="M222.3,152.1c0,0,0-0.1,0-0.1c0-1.5,0-3,0-4.5c0,0,0-0.1,0-0.1c0,0,0.1,0,0.1,0.1c0.1,0.1,0.2,0.3,0.2,0.4
					c-0.1,0-0.1,0.1-0.1,0.1c0,1.3,0,2.6,0,3.9c0,0,0,0.1,0,0.1C222.5,152,222.4,152.1,222.3,152.1z"/>
			</g>
			<g>
				<path class="st41" d="M222.9,151.8c0,0,0-0.1,0-0.1c0-1.1,0-2.1,0-3.2c0,0,0,0,0-0.1s0,0,0-0.1c0,0,0,0,0.1,0
					c0.1,0.1,0.1,0.2,0.2,0.3c0,0,0,0.1,0.1,0.1c0.1,0,0.1,0.1,0.1,0.1c-0.1,0-0.1,0.1-0.1,0.1c0,0.8,0,1.6,0,2.4c0,0.1,0,0.1,0,0.2
					C223.1,151.7,223,151.7,222.9,151.8z"/>
			</g>
			<g>
				<path class="st32" d="M221.7,146.3c0,1.9,0,3.9,0,5.9c0,0.1,0,0.2,0,0.2c0,0,0,0-0.1,0c0-0.1,0-0.1,0-0.1c0-1.9,0-3.8,0-5.7
					c0-0.2,0-0.3,0-0.5C221.7,146.1,221.7,146.2,221.7,146.3z"/>
			</g>
			<g>
				<path class="st42" d="M224.3,150.7c-0.2-0.4-0.5-0.8-0.7-1.2c0-0.1,0.1,0,0.1,0c0.2,0.1,0.3,0.1,0.5,0.2c0,0,0.1,0.1,0.1,0.1
					C224.3,150.1,224.3,150.4,224.3,150.7C224.3,150.7,224.3,150.7,224.3,150.7z"/>
			</g>
			<g>
				<path class="st41" d="M222.7,148c0-0.1,0-0.1,0.1-0.1c0,0,0,0,0-0.1c0-0.1,0.1-0.4,0.2-0.4c0.4,0.2,0.8,0.4,1.2,0.6
					c0,0,0.1,0,0.1,0c0,0.3,0,0.6,0,0.8c-0.2-0.1-0.4-0.2-0.5-0.2c-0.3-0.1-0.6-0.3-0.8-0.4C222.8,148.1,222.8,148.1,222.7,148z"/>
			</g>
			<g>
				<path class="st43" d="M224.3,149.8c-0.2-0.1-0.4-0.2-0.6-0.3c-0.1,0-0.1,0-0.1,0c-0.1-0.2-0.3-0.4-0.4-0.6c0,0,0-0.1-0.1-0.1
					c0-0.1,0.1-0.1,0.1-0.1c0.3,0.1,0.6,0.3,0.9,0.4c0,0,0.1,0,0.1,0C224.3,149.4,224.3,149.6,224.3,149.8z"/>
			</g>
			<g>
				<path class="st44" d="M223,147.4c-0.1,0.1-0.1,0.3-0.2,0.4c0,0-0.1,0-0.1-0.1c-0.2-0.3-0.5-0.6-0.7-1c-0.1-0.1-0.2-0.2-0.2-0.3
					c0,0-0.1-0.1-0.1-0.1c0-0.1,0-0.1-0.1-0.2c-0.1-0.2-0.2-0.3-0.3-0.5c0,0,0,0,0-0.1c-0.2-0.4-0.4-0.7-0.6-1.1
					c-0.1-0.1-0.1-0.2-0.2-0.3c0-0.1-0.1-0.2-0.1-0.3c0.1,0,0.1,0.1,0.1,0.1c0.6,0.8,1.2,1.6,1.8,2.5c0.2,0.3,0.4,0.5,0.6,0.8
					C222.9,147.3,223,147.3,223,147.4C223,147.4,223,147.4,223,147.4z"/>
			</g>
		</g>
	</g>
</g>
<g id="mono_wordpress2">
</g>
<g id="mono_wordpress1">
	<g id="Layer_2_1_">
		<g>
			<g>
				<path class="st11" d="M212.9,36.1H209v0.4c1.2,0,1.4,0.3,1.4,1.8V41c0,1.5-0.2,1.8-1.4,1.8c-0.9-0.1-1.5-0.6-2.4-1.5l-1-1.1
					c1.3-0.2,2-1.1,2-2c0-1.2-1-2.1-2.9-2.1h-3.7v0.4c1.2,0,1.4,0.3,1.4,1.8V41c0,1.5-0.2,1.8-1.4,1.8v0.4h4.2v-0.4
					c-1.2,0-1.4-0.3-1.4-1.8v-0.8h0.4l2.4,3h6.2c3,0,4.4-1.6,4.4-3.5C217.2,37.7,215.9,36.1,212.9,36.1z M203.9,39.5v-2.8h0.9
					c1,0,1.4,0.7,1.4,1.4c0,0.7-0.4,1.4-1.4,1.4H203.9L203.9,39.5z M212.9,42.5h-0.1c-0.8,0-0.9-0.2-0.9-1.2v-4.6c0,0,0.9,0,1,0
					c2.2,0,2.6,1.6,2.6,2.9C215.5,40.9,215.1,42.5,212.9,42.5z"/>
			</g>
			<g>
				<path class="st11" d="M189.2,40.3l1.5-4.3c0.4-1.3,0.2-1.6-1.1-1.6v-0.4h4v0.4c-1.3,0-1.7,0.3-2.2,1.9l-2.4,7.3h-0.3l-2.2-6.7
					l-2.2,6.7H184l-2.4-7.3c-0.5-1.5-0.9-1.9-2.1-1.9v-0.4h4.7v0.4c-1.3,0-1.6,0.3-1.1,1.6l1.4,4.3l2.1-6.4h0.4L189.2,40.3z"/>
			</g>
			<g>
				<path class="st11" d="M196.5,43.4c-2.3,0-4.3-1.7-4.3-3.8c0-2.1,1.9-3.8,4.3-3.8s4.3,1.7,4.3,3.8
					C200.7,41.7,198.8,43.4,196.5,43.4z M196.5,36.5c-2,0-2.6,1.8-2.6,3.2c0,1.4,0.7,3.2,2.6,3.2c2,0,2.7-1.7,2.7-3.2
					C199.1,38.2,198.4,36.5,196.5,36.5z"/>
			</g>
			<g>
				<path class="st12" d="M222.5,42.7v0.4h-4.9v-0.4c1.4,0,1.7-0.4,1.7-2.5v-3.4c0-2.1-0.3-2.5-1.7-2.5v-0.4h4.4
					c2.2,0,3.4,1.1,3.4,2.6c0,1.5-1.2,2.6-3.4,2.6h-1.2v1C220.8,42.4,221,42.7,222.5,42.7z M222,34.7h-1.2v3.7h1.2
					c1.2,0,1.7-0.8,1.7-1.8C223.7,35.6,223.2,34.7,222,34.7z"/>
			</g>
			<g>
				<path class="st12" d="M240,41.2l-0.1,0.4c-0.2,0.7-0.4,1-1.9,1h-0.3c-1.1,0-1.3-0.3-1.3-1.8v-1c1.7,0,1.8,0.2,1.8,1.3h0.4v-3.2
					h-0.4c0,1.1-0.1,1.3-1.8,1.3v-2.4h1.2c1.5,0,1.7,0.3,1.9,1l0.1,0.4h0.3l-0.1-2h-6.3v0.4c1.2,0,1.4,0.3,1.4,1.8V41
					c0,1.4-0.2,1.7-1.1,1.8c-0.9-0.1-1.5-0.6-2.3-1.5l-1-1.1c1.3-0.2,2-1.1,2-2c0-1.2-1-2.1-2.9-2.1h-3.7v0.4c1.2,0,1.4,0.3,1.4,1.8
					V41c0,1.5-0.2,1.8-1.4,1.8v0.4h4.2v-0.4c-1.2,0-1.4-0.3-1.4-1.8v-0.8h0.4l2.4,3h8.7l0.1-2L240,41.2L240,41.2z M228.7,39.5v-2.8
					h0.9c1,0,1.4,0.7,1.4,1.4c0,0.7-0.4,1.4-1.4,1.4H228.7L228.7,39.5z"/>
			</g>
			<g>
				<path class="st12" d="M244.3,43.4c-0.9,0-1.6-0.5-1.9-0.7c-0.1,0.1-0.3,0.4-0.3,0.7h-0.4v-2.9h0.4c0.2,1.4,1.1,2.2,2.4,2.2
					c0.7,0,1.2-0.4,1.2-1c0-0.5-0.5-1-1.4-1.4l-1.2-0.6c-0.9-0.4-1.5-1.1-1.5-2c0-1,1-1.9,2.3-1.9c0.7,0,1.3,0.3,1.7,0.5
					c0.1-0.1,0.2-0.3,0.3-0.6h0.4v2.5h-0.4c-0.1-1-0.7-1.8-1.8-1.8c-0.6,0-1.1,0.3-1.1,0.9c0,0.5,0.4,0.8,1.5,1.3l1.2,0.6
					c1,0.5,1.4,1.3,1.4,1.9C246.9,42.5,245.8,43.4,244.3,43.4z"/>
			</g>
			<g>
				<path class="st12" d="M250.9,43.4c-0.9,0-1.6-0.5-1.9-0.7c-0.1,0.1-0.3,0.4-0.3,0.7h-0.4v-2.9h0.4c0.2,1.4,1.1,2.2,2.4,2.2
					c0.7,0,1.2-0.4,1.2-1c0-0.5-0.5-1-1.4-1.4l-1.2-0.6c-0.9-0.4-1.5-1.1-1.5-2c0-1,1-1.9,2.3-1.9c0.7,0,1.3,0.3,1.7,0.5
					c0.1-0.1,0.2-0.3,0.3-0.6h0.4v2.5h-0.4c-0.1-1-0.7-1.8-1.8-1.8c-0.6,0-1.1,0.3-1.1,0.9c0,0.5,0.4,0.8,1.5,1.3l1.2,0.6
					c1,0.5,1.4,1.3,1.4,1.9C253.5,42.5,252.3,43.4,250.9,43.4z"/>
			</g>
			<g>
				<g>
					<path class="st12" d="M158.3,38.4c0,3.7,2.2,7,5.3,8.5l-4.5-12.3C158.6,35.8,158.3,37,158.3,38.4z"/>
				</g>
				<g>
					<path class="st12" d="M174.1,37.9c0-1.2-0.4-2-0.8-2.6c-0.5-0.8-0.9-1.4-0.9-2.2c0-0.9,0.7-1.7,1.6-1.7c0,0,0.1,0,0.1,0
						c-1.7-1.5-3.9-2.5-6.4-2.5c-3.3,0-6.2,1.7-7.9,4.2c0.2,0,0.4,0,0.6,0c1,0,2.5-0.1,2.5-0.1c0.5,0,0.6,0.7,0.1,0.8
						c0,0-0.5,0.1-1.1,0.1l3.4,10.2l2.1-6.2l-1.5-4c-0.5,0-1-0.1-1-0.1c-0.5,0-0.4-0.8,0.1-0.8c0,0,1.6,0.1,2.5,0.1
						c1,0,2.5-0.1,2.5-0.1c0.5,0,0.6,0.7,0.1,0.8c0,0-0.5,0.1-1.1,0.1l3.4,10.1l0.9-3.1C173.8,39.7,174.1,38.7,174.1,37.9z"/>
				</g>
				<g>
					<path class="st12" d="M167.9,39.2l-2.8,8.2c0.8,0.2,1.7,0.4,2.7,0.4c1.1,0,2.1-0.2,3.1-0.5c0,0-0.1-0.1-0.1-0.1L167.9,39.2z"/>
				</g>
				<g>
					<path class="st12" d="M176,33.9c0,0.3,0.1,0.6,0.1,1c0,1-0.2,2-0.7,3.4l-2.9,8.3c2.8-1.6,4.7-4.7,4.7-8.1
						C177.1,36.8,176.7,35.2,176,33.9z"/>
				</g>
				<g>
					<path class="st12" d="M167.7,27.4c-6.1,0-11,4.9-11,11c0,6,4.9,11,11,11c6.1,0,11-4.9,11-11S173.8,27.4,167.7,27.4z
						 M167.7,48.9c-5.8,0-10.5-4.7-10.5-10.5s4.7-10.5,10.5-10.5s10.5,4.7,10.5,10.5C178.2,44.2,173.5,48.9,167.7,48.9z"/>
				</g>
			</g>
		</g>
	</g>
</g>
<g id="mono_Parcel1">
	<g>
		<g>
			<path class="st47" d="M256.1,89c0-0.1,0-0.1,0-0.2c0-0.5,0-1,0-1.5c0-0.2-0.1-0.3-0.2-0.5c-0.1-0.1-0.2-0.1-0.3-0.1h-0.2h-2.9
				c-0.1,0-0.2,0-0.3,0.1c-0.1,0-0.2,0.1-0.2,0.2c-0.1,0.1-0.1,0.2-0.1,0.3v7.2c0,0.1,0,0.2,0,0.3c0.1,0.2,0.2,0.3,0.4,0.3h0.2
				c0.9,0,1.8,0,2.8,0h0.2c0.2,0,0.4-0.2,0.4-0.4c0-0.2,0-0.3,0-0.5v-1.2c0-0.1,0-0.1,0-0.1c0,0,0.1,0,0.1,0h2.4
				c0.1,0,0.1,0,0.1,0.1c0,0.7,0,1.4,0,2.1c0,0.2,0,0.4-0.1,0.6c0,0.3-0.1,0.5-0.3,0.7c-0.1,0.2-0.3,0.4-0.5,0.6
				c-0.2,0.1-0.3,0.2-0.5,0.3c-0.1,0.1-0.2,0.1-0.3,0.1c-0.1,0-0.2,0.1-0.3,0.1c-0.1,0-0.2,0-0.2,0c-0.7,0.1-1.5,0-2.3,0
				c-0.8,0-1.5,0-2.3,0c-0.2,0-0.4,0-0.5,0c-0.5-0.1-1-0.3-1.4-0.7c-0.2-0.2-0.3-0.3-0.4-0.6c-0.1-0.2-0.2-0.3-0.2-0.5
				c0-0.1-0.1-0.2-0.1-0.3c-0.1-0.4-0.1-0.9,0-1.4c0-2.4,0-4.8,0-7.2c0-0.1,0-0.2,0-0.2c0-0.2,0-0.4,0.1-0.6c0-0.2,0.1-0.3,0.2-0.5
				c0.2-0.3,0.4-0.7,0.7-0.9c0.2-0.1,0.4-0.2,0.6-0.3c0.1-0.1,0.3-0.1,0.4-0.1c0.3-0.1,0.7-0.1,1-0.1h3.8c0.2,0,0.4,0,0.6,0.1
				c0.5,0.1,1.1,0.3,1.4,0.8c0.2,0.2,0.3,0.4,0.4,0.7c0.1,0.2,0.1,0.3,0.1,0.5c0.1,0.3,0.1,0.6,0.1,0.9V89c0,0,0,0.1-0.1,0.1
				L256.1,89L256.1,89z M257.2,94c0,0,0,0.1,0,0.2c0,0.2,0,0.5,0,0.7c0,0.2,0,0.4-0.1,0.7c-0.1,0.3-0.5,0.6-0.8,0.7
				c-0.2,0-0.4,0.1-0.5,0.1c-1.1,0-2.2,0-3.4,0c-0.2,0-0.5,0-0.7-0.1s-0.4-0.2-0.6-0.5c-0.1-0.2-0.2-0.5-0.2-0.8c0-0.1,0-0.2,0-0.3
				v-7.2c0-0.2,0-0.5,0.1-0.7c0-0.2,0.1-0.3,0.2-0.5c0.1-0.2,0.3-0.3,0.6-0.4c0.2-0.1,0.4-0.1,0.6-0.1h3.4c0.2,0,0.4,0,0.6,0
				c0.1,0,0.2,0.1,0.4,0.1c0.4,0.2,0.6,0.5,0.6,0.9c0,0.2,0,0.4,0,0.6c0,0.2,0,0.3,0,0.5c0,0.1,0,0.1,0,0.2c0.1,0,0.2,0,0.3,0
				c0,0,0,0,0,0c0-0.4,0-0.8,0-1.1c0-0.2-0.1-0.4-0.2-0.6c-0.1-0.2-0.2-0.3-0.3-0.4c-0.3-0.3-0.8-0.5-1.2-0.5c-1.3,0-2.5,0-3.8,0
				c0,0-0.1,0-0.1,0c-0.2,0-0.5,0.1-0.7,0.2c-0.2,0.1-0.4,0.3-0.5,0.5c-0.1,0.1-0.2,0.3-0.2,0.5c-0.1,0.2-0.1,0.3-0.1,0.5
				c0,0.1,0,0.2,0,0.3v7.4c0,0.2,0,0.4,0,0.6c0,0.2,0.1,0.3,0.1,0.5c0.2,0.4,0.5,0.7,0.9,0.8c0.2,0.1,0.4,0.1,0.6,0.1h3.4
				c0.2,0,0.5,0,0.7,0c0.2,0,0.4-0.1,0.5-0.2c0.4-0.2,0.7-0.6,0.7-1.1c0-0.2,0.1-0.4,0.1-0.6c0-0.2,0-0.4,0-0.5c0,0,0-0.1,0-0.1
				C257.4,94,257.3,94,257.2,94z"/>
		</g>
		<g>
			<path class="st48" d="M261.1,84.3h8.5c0,0,0.1,0,0.2,0c0,0.1,0,2.4,0,2.5h-6v2.7c0.3,0,0.5,0,0.8,0h4c0,0.1,0,2.3,0,2.5
				c-0.3,0-0.5,0-0.8,0h-4c0,0,0,0.1,0,0.1V95c0,0,0,0,0,0.1c0,0,0.1,0,0.1,0h5.9c0,0.2,0,0.4,0,0.5c0,0.7,0,1.3,0,2h-8.6
				L261.1,84.3L261.1,84.3z M262.2,96.6c0.1,0,6.3,0,6.4,0c0-0.1,0-0.1,0-0.2c0-0.2,0-0.2-0.2-0.2h-5.6c0,0-0.1,0-0.1,0v-5.1h4.9
				c0-0.1,0-0.3,0-0.4h-4.8c0-0.1,0-4.7,0-4.8c0,0,0.1,0,0.1,0h5.7c0,0,0.1,0,0.1,0c0-0.1,0-0.2,0-0.3c0-0.1,0-0.1-0.1-0.1l0,0h-6.3
				c0,0-0.1,0-0.1,0.1l0,0c0,0,0,0.1,0,0.1v10.9C262.2,96.5,262.2,96.5,262.2,96.6z"/>
		</g>
		<g>
			<path class="st47" d="M244.5,97.6l-2.1-4.9h-2.1v4.9c-0.1,0-2.5,0-2.7,0V84.3c0,0,0.1,0,0.1,0h6.7c0.2,0,0.4,0,0.6,0.1
				c0.4,0.1,0.9,0.3,1.2,0.6c0.2,0.2,0.4,0.4,0.5,0.7c0.1,0.1,0.1,0.2,0.1,0.3c0.1,0.4,0.2,0.8,0.1,1.2c0,0.9,0,1.8,0,2.8
				c0,0.3,0,0.5-0.1,0.8c-0.1,0.2-0.1,0.4-0.2,0.6c-0.1,0.2-0.2,0.3-0.4,0.5c-0.2,0.2-0.4,0.3-0.6,0.4c-0.1,0.1-0.3,0.2-0.5,0.2
				c0,0-0.1,0-0.1,0.1l2.2,5L244.5,97.6z M239.1,91.7h0.2h3.9v0c0,0.1,0,0.1,0,0.1v0c0,0.1,0,0.1,0.1,0.1c0,0,0,0,0,0.1
				c0.2,0.4,0.3,0.7,0.5,1.1c0.1,0.2,0.2,0.4,0.3,0.6c0.1,0.2,0.2,0.5,0.3,0.8c0.1,0.2,0.1,0.4,0.2,0.6c0.1,0.3,0.3,0.6,0.4,0.9
				c0.1,0.2,0.2,0.4,0.2,0.6c0,0.1,0.1,0.1,0.1,0.1c0.1,0,0.2,0,0.3,0c0-0.1,0-0.1,0-0.2c0,0,0,0,0-0.1c-0.1-0.4-0.3-0.7-0.5-1.1
				c-0.1-0.2-0.2-0.5-0.3-0.7c-0.1-0.2-0.2-0.5-0.3-0.8c-0.1-0.2-0.2-0.4-0.3-0.6c-0.1-0.3-0.2-0.5-0.4-0.8s-0.2-0.4-0.3-0.7
				c0,0,0.1,0,0.1,0c0.1,0,0.3,0,0.4,0c0.2,0,0.4,0,0.5-0.1c0.1,0,0.2-0.1,0.3-0.1c0.2-0.1,0.3-0.2,0.4-0.3c0.2-0.2,0.4-0.6,0.4-0.9
				c0-0.2,0.1-0.4,0.1-0.6c0-0.7,0-1.5,0-2.3c0-0.2,0-0.5-0.1-0.7c0,0,0,0,0,0c-0.1-0.2-0.1-0.3-0.2-0.5c-0.2-0.3-0.5-0.6-0.9-0.7
				c-0.2-0.1-0.5-0.1-0.7-0.1h-5.1c0,0-0.1,0-0.1,0c0,0.1,0,0.1,0,0.2v10.9c0,0,0,0.1,0,0.1c0.1,0,0.2,0,0.3,0c0-0.1,0-0.1,0-0.2v-3
				C239.1,92.9,239.1,92.3,239.1,91.7z"/>
		</g>
		<g>
			<path class="st47" d="M226.9,97.6c-0.1,0-2.7,0-2.8,0c0.1-0.2,0.2-0.5,0.2-0.7c0.1-0.1,0.1-0.2,0.1-0.4c0-0.1,0.1-0.3,0.1-0.4
				c0-0.1,0.1-0.3,0.1-0.4c0-0.2,0.1-0.3,0.2-0.5c0.1-0.2,0.1-0.4,0.2-0.6s0.1-0.4,0.2-0.6c0.1-0.1,0.1-0.3,0.1-0.4s0.1-0.3,0.1-0.4
				c0.1-0.2,0.1-0.4,0.2-0.6c0.1-0.2,0.1-0.4,0.2-0.6c0-0.1,0.1-0.2,0.1-0.3c0-0.1,0.1-0.3,0.1-0.4c0.1-0.2,0.1-0.4,0.2-0.6
				c0-0.1,0.1-0.2,0.1-0.4c0-0.1,0.1-0.3,0.1-0.5s0.1-0.4,0.2-0.5c0.1-0.2,0.1-0.4,0.2-0.6s0.1-0.4,0.2-0.6c0.1-0.1,0.1-0.2,0.1-0.4
				c0.1-0.2,0.1-0.4,0.2-0.6c0-0.1,0.1-0.3,0.1-0.4c0.1-0.2,0.1-0.4,0.2-0.6c0.1-0.1,0.1-0.3,0.1-0.4c0.1-0.2,0.1-0.4,0.2-0.6
				c0.1-0.1,0.1-0.2,0.1-0.4c0-0.1,0.1-0.2,0.1-0.4c0,0,0-0.1,0.1-0.1h3c0.1,0.1,0.1,0.2,0.1,0.3c0.1,0.3,0.2,0.6,0.3,0.9
				c0.1,0.2,0.1,0.3,0.2,0.5c0.1,0.2,0.1,0.5,0.2,0.7s0.1,0.5,0.2,0.7c0.1,0.2,0.1,0.4,0.2,0.6c0.1,0.1,0.1,0.3,0.1,0.4
				s0.1,0.2,0.1,0.4c0.1,0.2,0.1,0.4,0.2,0.6c0.1,0.2,0.1,0.3,0.1,0.4s0.1,0.3,0.1,0.4l0.1,0.4c0.1,0.2,0.1,0.4,0.2,0.6l0.1,0.4
				c0,0.1,0.1,0.3,0.1,0.4c0.1,0.1,0.1,0.3,0.1,0.4c0.1,0.1,0.1,0.2,0.1,0.4c0.1,0.2,0.1,0.4,0.2,0.6c0,0.1,0.1,0.1,0.1,0.2
				c0.1,0.3,0.2,0.5,0.2,0.8c0,0.1,0.1,0.3,0.1,0.4c0.1,0.2,0.1,0.4,0.2,0.6c0.1,0.1,0.1,0.2,0.1,0.4c0,0.1,0.1,0.3,0.1,0.4
				c0,0.1,0.1,0.3,0.1,0.4c0,0.2,0.1,0.2,0.1,0.4c0.1,0.2,0.2,0.4,0.2,0.7c0,0,0,0,0,0c-0.1,0-2.4,0.1-2.9,0c0-0.1-0.1-0.3-0.1-0.4
				c0-0.1-0.1-0.3-0.1-0.4c0-0.1,0-0.1-0.1-0.2c-0.1-0.3-0.1-0.5-0.2-0.8c-0.1-0.2-0.1-0.4-0.1-0.6c-0.1-0.2-0.1-0.3-0.1-0.5
				c0,0,0-0.1-0.1-0.1h-4.2c0,0-0.1,0-0.1,0.1c0,0.1,0,0.1-0.1,0.2c0,0.2-0.1,0.3-0.1,0.5c-0.1,0.2-0.1,0.4-0.2,0.6
				c-0.1,0.2-0.1,0.4-0.2,0.6c0,0.1-0.1,0.3-0.1,0.4c0,0.1-0.1,0.3-0.1,0.4C226.9,97.5,226.9,97.6,226.9,97.6z M233,93.6
				c0.3,1,0.6,2,0.9,3c0.1,0,0.2,0,0.3-0.1c-0.1-0.1,0-0.1-0.1-0.2c-0.1-0.1-0.1-0.2-0.1-0.4c0-0.2-0.1-0.3-0.1-0.4
				c0-0.2-0.1-0.3-0.1-0.5c-0.1-0.2-0.1-0.3-0.1-0.4c-0.1-0.2-0.1-0.4-0.2-0.6c-0.1-0.2-0.1-0.4-0.2-0.6s-0.1-0.3-0.1-0.5
				s-0.1-0.4-0.2-0.6c-0.1-0.2-0.1-0.4-0.2-0.6c-0.1-0.2-0.1-0.3-0.1-0.4c0-0.1-0.1-0.3-0.1-0.5s-0.1-0.4-0.2-0.6
				c0-0.1-0.1-0.3-0.1-0.4s-0.1-0.3-0.1-0.4c-0.1-0.2-0.1-0.4-0.2-0.6s-0.1-0.4-0.2-0.6c0-0.1-0.1-0.3-0.1-0.4
				c-0.1-0.2-0.1-0.4-0.2-0.6c-0.1-0.2-0.1-0.3-0.1-0.5c-0.1-0.2-0.1-0.4-0.2-0.6c-0.1-0.1-0.1-0.3-0.1-0.4c0-0.1-0.1-0.2-0.1-0.4
				c0,0,0-0.1-0.1-0.1c0,0-0.1,0-0.1,0h-1.5c0,0-0.1,0-0.1,0.1c-0.1,0.2-0.1,0.4-0.2,0.6c-0.1,0.2-0.1,0.4-0.2,0.6
				c0,0.1-0.1,0.3-0.1,0.4c0,0.1-0.1,0.3-0.1,0.4c-0.1,0.2-0.1,0.4-0.2,0.6s-0.1,0.4-0.2,0.6S228,89,228,89.2c0,0.2-0.1,0.2-0.1,0.4
				c-0.1,0.2-0.1,0.4-0.2,0.6s-0.1,0.3-0.1,0.4c-0.1,0.2-0.1,0.4-0.2,0.6c-0.1,0.2-0.1,0.4-0.2,0.6c-0.1,0.2-0.1,0.4-0.2,0.6
				s-0.1,0.4-0.2,0.7c0,0.1-0.1,0.3-0.1,0.4s-0.1,0.3-0.1,0.4s-0.1,0.3-0.1,0.4s-0.1,0.3-0.1,0.4c-0.1,0.2-0.2,0.5-0.2,0.8
				c-0.1,0.2-0.1,0.4-0.2,0.6c-0.1,0.2-0.1,0.4-0.2,0.6c0,0,0,0.1,0,0.1h0.2c0,0,0.1,0,0.1-0.1l0,0c0-0.1,0-0.1,0.1-0.2
				c0.1-0.2,0.1-0.4,0.2-0.7c0-0.1,0.1-0.2,0.1-0.2l0.1-0.4c0-0.1,0.1-0.3,0.1-0.4s0.1-0.3,0.1-0.4c0.1-0.2,0.1-0.4,0.2-0.6
				L233,93.6z"/>
		</g>
		<g>
			<path class="st48" d="M214.6,84.3h6.8c0.2,0,0.4,0,0.6,0.1c0.1,0,0.3,0.1,0.4,0.1c0.4,0.2,0.7,0.4,1,0.7c0.1,0.1,0.2,0.3,0.3,0.4
				c0.1,0.2,0.1,0.3,0.2,0.5c0.1,0.3,0.1,0.5,0.1,0.8c0,1.2,0,2.4,0,3.6c0,0.2,0,0.3-0.1,0.5c-0.1,0.3-0.2,0.7-0.4,0.9
				c-0.2,0.3-0.5,0.5-0.8,0.7c-0.2,0.1-0.4,0.2-0.7,0.2c-0.3,0.1-0.6,0.1-0.9,0.1h-3.7c-0.1,0-0.1,0-0.1,0.1c0,0,0,0.1,0,0.1
				c0,1.4,0,2.9,0,4.3c0,0.1,0,0.1,0,0.2c0,0-0.1,0-0.1,0h-2.6c0-0.3,0-0.7,0-1L214.6,84.3z M216.1,91.9c0.1,0,0.1,0,0.2,0h4.6
				c0.3,0,0.6,0,0.9-0.1c0.2-0.1,0.5-0.2,0.6-0.4c0.2-0.2,0.4-0.5,0.4-0.8c0-0.2,0-0.3,0-0.5c0-0.9,0-1.8,0-2.8c0-0.2,0-0.4-0.1-0.6
				c-0.1-0.2-0.1-0.3-0.2-0.5c-0.2-0.3-0.5-0.6-0.9-0.7c-0.2-0.1-0.5-0.1-0.7-0.1h-5.1c-0.2,0-0.2,0-0.2,0.2v10.8c0,0,0,0.1,0,0.1
				c0,0,0,0.1,0,0.1c0.1,0,0.2,0,0.2,0c0.1,0,0.1,0,0.1-0.1c0,0,0-0.1,0-0.1v-4.3C216.1,92,216.1,91.9,216.1,91.9z"/>
		</g>
		<g>
			<path class="st48" d="M280.3,97.6h-8c-0.1,0-0.1,0-0.2,0V84.4h2.7v10.8h5.5c0,0,0,0.1,0,0.1V97.6
				C280.3,97.6,280.3,97.6,280.3,97.6z M273.2,96.6c0.1,0,0.1,0,0.2,0h5.6c0.2,0,0.2,0,0.2-0.2s0-0.2-0.2-0.2h-5.3
				c0,0-0.1,0-0.1-0.1V85.5c0,0,0-0.1,0-0.1c-0.1,0-0.2,0-0.3,0L273.2,96.6z"/>
		</g>
		<g>
			<path class="st47" d="M239.1,85.8c0,0,0.1,0,0.1,0h4.8c0.1,0,0.2,0,0.3,0c0.2,0,0.4,0.1,0.6,0.2c0.2,0.1,0.3,0.3,0.4,0.4
				c0.1,0.1,0.1,0.2,0.1,0.3c0,0.2,0.1,0.4,0.1,0.6c0,0.8,0,1.6,0,2.4c0,0.2,0,0.5-0.1,0.7c-0.1,0.3-0.3,0.6-0.6,0.7
				c-0.3,0.1-0.5,0.2-0.8,0.1h-4.7c-0.1,0-0.1,0-0.1-0.1v0c0-1.7,0-3.4,0-5.2C239.1,85.9,239.1,85.8,239.1,85.8z M240.2,90.2
				c0.1,0,0.1,0,0.1,0c1.1,0,2.2,0,3.2,0c0.1,0,0.1,0,0.2,0c0.1,0,0.2-0.1,0.3-0.2c0.1-0.1,0.2-0.3,0.1-0.5c0-0.7,0-1.4,0-2.1
				c0-0.1,0-0.2-0.1-0.3c0-0.1,0-0.1-0.1-0.1c-0.1-0.1-0.3-0.2-0.5-0.2h-3.4c0,0-0.1,0-0.1,0L240.2,90.2L240.2,90.2z"/>
		</g>
		<g>
			<path class="st47" d="M229.3,85.8h1.3c0.1,0.2,0.1,0.3,0.1,0.4s0.1,0.3,0.1,0.4c0,0.1,0.1,0.3,0.1,0.5s0.1,0.4,0.2,0.5
				s0.1,0.4,0.2,0.7s0.1,0.4,0.2,0.6c0.1,0.2,0.1,0.4,0.2,0.6c0.1,0.2,0.1,0.4,0.2,0.6c0.1,0.1,0.1,0.3,0.1,0.4
				c0,0.1,0.1,0.3,0.1,0.4s0.1,0.3,0.1,0.5c0.1,0.2,0.1,0.4,0.2,0.6c0.1,0.2,0.1,0.4,0.2,0.7c0.1,0.1,0.1,0.3,0.1,0.4
				c0,0,0,0.1,0,0.1l0,0l0,0h-0.1h-5.7h0c0,0,0-0.1,0-0.1c0.1-0.3,0.2-0.6,0.2-0.8c0.1-0.2,0.1-0.4,0.2-0.6c0.1-0.1,0.1-0.3,0.1-0.4
				c0-0.1,0.1-0.3,0.1-0.4c0-0.1,0.1-0.3,0.1-0.4L228,90c0.1-0.2,0.1-0.3,0.1-0.5s0.1-0.4,0.2-0.6c0.1-0.2,0.1-0.4,0.2-0.6
				c0.1-0.3,0.1-0.5,0.2-0.8c0-0.1,0.1-0.2,0.1-0.4c0-0.1,0.1-0.3,0.1-0.4c0-0.1,0.1-0.3,0.1-0.4C229.2,86.2,229.3,86,229.3,85.8z
				 M231.3,92.1c0-0.2-0.1-0.4-0.1-0.6c-0.1-0.2-0.1-0.4-0.2-0.6c0-0.2-0.1-0.3-0.1-0.4s-0.1-0.3-0.1-0.4c-0.1-0.2-0.1-0.5-0.2-0.7
				c0-0.1-0.1-0.3-0.1-0.4c0-0.1-0.1-0.3-0.1-0.4c0-0.2-0.1-0.3-0.1-0.4c0-0.1-0.1-0.3-0.1-0.4c0-0.1,0-0.2-0.1-0.2c0,0-0.1,0-0.1,0
				s-0.1,0.2-0.1,0.2c0,0.1-0.1,0.3-0.1,0.4c-0.1,0.2-0.1,0.4-0.2,0.6s-0.1,0.4-0.2,0.7c-0.1,0.3-0.2,0.6-0.3,0.9
				c-0.1,0.2-0.1,0.3-0.1,0.5s-0.1,0.4-0.2,0.6s-0.1,0.5-0.2,0.7c0,0,0,0.1,0,0.1C228.5,92.1,231.3,92.1,231.3,92.1z"/>
		</g>
		<g>
			<path class="st47" d="M216.1,91.5v-5.7c0,0,0.1,0,0.1,0h4.9c0.1,0,0.2,0,0.3,0c0.6,0.1,1.1,0.6,1.1,1.2c0,0.2,0,0.3,0,0.5
				c0,0.8,0,1.5,0,2.3c0,0.2,0,0.4,0,0.6c0,0.4-0.2,0.8-0.6,1c-0.1,0.1-0.3,0.1-0.5,0.2c-0.4,0.1-0.7,0.1-1.1,0c-1.3,0-2.7,0-4,0
				C216.2,91.5,216.1,91.5,216.1,91.5z M217.3,86.9c0,0,0,0.1,0,0.1v3.3c0,0,0,0,0,0.1c0,0.1,0,0.1,0.1,0.1c0,0,0,0,0.1,0h3.3
				c0.1,0,0.1,0,0.2,0c0.2,0,0.3-0.1,0.4-0.3c0.1-0.1,0.1-0.2,0.1-0.4c0-0.7,0-1.5,0-2.2c0-0.1,0-0.2,0-0.2c0-0.1-0.1-0.3-0.2-0.3
				c-0.1-0.1-0.3-0.1-0.4-0.1H217.3C217.3,86.8,217.3,86.8,217.3,86.9z"/>
		</g>
	</g>
</g>
<g id="mono_Next1">
	<g id="Page-1_2_">
		<g id="Black-Next.js_2_" transform="translate(-247.000000, -138.000000)">
			<g id="next-black_2_" transform="translate(247.000000, 138.000000)">
				<g id="EXT-_x2B_-Type-something_2_">
					<g id="EXT_2_">
						<path class="st0" d="M124.1,183.2h9.5v0.8H125v5.6h8.1v0.8H125v6.2h8.7v0.8h-9.6C124.1,197.3,124.1,183.2,124.1,183.2z
							 M134.5,183.2h1l4.5,6.2l4.6-6.2l6.2-7.9l-10.2,14.7l5.3,7.2h-1.1l-4.8-6.6l-4.8,6.6h-1l5.3-7.2L134.5,183.2z M146.1,184v-0.8
							H157v0.8h-5v13.4h-0.9V184H146.1z"/>
					</g>
					<g id="Type-something_2_">
						<polygon class="st0" points="112.3,183.2 113.3,183.2 128.3,205.6 122.1,197.3 113.2,184.3 113.1,197.3 112.3,197.3 						"/>
					</g>
				</g>
				<g id="_x2E_JS_2_">
					<path class="st0" d="M156.9,196.3c0.2,0,0.3-0.1,0.3-0.3s-0.1-0.3-0.3-0.3s-0.3,0.1-0.3,0.3S156.7,196.3,156.9,196.3z
						 M157.7,195.5c0,0.5,0.4,0.9,0.9,0.9c0.6,0,0.9-0.4,0.9-1v-2.1h-0.5v2.1c0,0.3-0.2,0.5-0.5,0.5c-0.3,0-0.4-0.2-0.5-0.4H157.7z
						 M160.2,195.5c0,0.5,0.5,0.9,1.2,0.9c0.7,0,1.2-0.4,1.2-0.9c0-0.5-0.3-0.7-0.9-0.9l-0.3-0.1c-0.4-0.1-0.6-0.2-0.6-0.4
						c0-0.3,0.2-0.4,0.6-0.4c0.4,0,0.6,0.2,0.6,0.5h0.5c0-0.5-0.5-0.9-1.1-0.9c-0.7,0-1.1,0.4-1.1,0.9c0,0.4,0.2,0.7,0.8,0.8
						l0.4,0.1c0.4,0.1,0.6,0.2,0.6,0.5c0,0.3-0.3,0.5-0.7,0.5c-0.4,0-0.7-0.2-0.7-0.5L160.2,195.5L160.2,195.5z"/>
				</g>
			</g>
		</g>
	</g>
</g>
<g id="mono_HTML1">
	<g>
		<g>
			<path class="st45" d="M103.4,57.3l-2.1,24.5c-3.1,2.4-7.1,3.9-11.3,3.9c-4.2,0-8.1-1.4-11.2-3.8l-2.1-24.5L103.4,57.3L103.4,57.3
				z"/>
		</g>
		<g>
			<polygon class="st46" points="90.1,59.6 90.1,85.1 98.8,82.6 100.8,59.6 			"/>
		</g>
		<g>
			<polygon class="st1" points="81.7,62.8 82.6,73 94,73 93.7,77.2 90.1,78.2 86.3,77.2 86.2,74.6 82.7,74.6 83.1,79.7 90.1,81.7 
				97,79.7 97.8,69.6 85.7,69.6 85.4,66.3 85.4,66.3 98.1,66.2 98.4,62.8 			"/>
		</g>
		<g>
			<polygon class="st0" points="82.4,49.9 82.4,51.7 80.8,51.7 80.8,49.9 79.2,49.9 79.2,54.9 80.8,54.9 80.8,53.3 82.4,53.3 
				82.4,54.9 84,54.9 84,49.9 			"/>
		</g>
		<g>
			<polygon class="st0" points="89.5,49.9 84.7,49.9 84.7,51.7 86.3,51.7 86.3,55 88,55 88,51.7 89.5,51.7 			"/>
		</g>
		<g>
			<polygon class="st0" points="98.5,53.4 98.5,50 96.8,50 96.8,53.4 96.8,55 98.5,55 100.9,55 100.9,53.4 			"/>
		</g>
		<g>
			<polygon class="st0" points="94.3,50 93.1,51.7 91.9,50 90.2,50 90.2,55 91.9,55 91.9,52.5 93.1,54.3 94.3,52.5 94.3,55 95.9,55 
				95.9,50 			"/>
		</g>
	</g>
</g>
<g id="mono_angular1">
	<g>
		<g>
			<path class="st1" d="M12,153.5c0.7-0.2,8.8-7.1,8.8-7.1l2.5,2.8l6.8,14.8l-0.9,2l-2.5,0.6l-13.8-0.1l-1.4-0.4"/>
		</g>
		<g>
			<g>
				<g>
					<path class="st2" d="M20.6,171.8c-0.9-0.5-1.8-0.9-2.6-1.4c-2.5-1.4-5.1-2.8-7.6-4.2c-0.2-0.1-0.3-0.3-0.4-0.5
						c-0.6-5-1.1-10-1.7-15c0-0.2-0.1-0.3-0.1-0.5c0-0.2,0-0.5,0-0.7c0.1,0,0.3-0.1,0.4-0.1c4-1.4,7.9-2.8,11.9-4.2c0,0,0.1,0,0.1,0
						c0,1.1,0,2.1,0,3.2c-2.6,5.7-5.2,11.5-7.7,17.2c0.9,0,1.7,0,2.5,0c0.3,0,0.4-0.1,0.6-0.4c0.4-1.1,0.9-2.2,1.3-3.3
						c0-0.1,0.2-0.3,0.3-0.3c1,0,2,0,3.1,0C20.6,164.9,20.6,168.3,20.6,171.8z"/>
				</g>
				<g>
					<path class="st3" d="M20.6,171.8c0-3.4,0-6.9,0-10.3c1.1,0,2.2,0,3.3,0c0.3,0,0.4,0.1,0.5,0.3c0.5,1.1,1,2.2,1.5,3.4
						c0,0.1,0.1,0.3,0.2,0.3c0.9,0,1.7,0,2.6,0c0-0.1-0.1-0.2-0.1-0.2c-2.6-5.6-5.2-11.1-7.8-16.7c0-0.1-0.1-0.2-0.2-0.3
						c0-1.1,0-2.1,0-3.2c0.4,0.1,0.8,0.2,1.1,0.4c3.8,1.3,7.6,2.6,11.4,3.9c0.1,0,0.2,0.1,0.3,0.1c-0.1,0.9-0.2,1.8-0.3,2.7
						c-0.4,3.2-0.8,6.4-1.2,9.6c-0.2,1.3-0.3,2.6-0.5,3.9c0,0.2-0.2,0.4-0.3,0.5c-3.4,1.9-6.8,3.8-10.2,5.6
						C20.8,171.7,20.7,171.7,20.6,171.8z"/>
				</g>
				<g>
					<path class="st4" d="M38.8,155.1c0,3.2,0,6.5,0,9.7c-0.5,0-1,0-1.5,0c0-4,0-8.1,0-12.2c0.5,0,1,0,1.4,0c0.1,0,0.2,0.2,0.3,0.3
						c2.3,3,4.6,6.1,6.9,9.1c0.1,0.1,0.2,0.2,0.3,0.4c0-3.3,0-6.5,0-9.7c0.5,0,1,0,1.5,0c0,4,0,8.1,0,12.2c-0.5,0-1,0-1.5,0
						c-0.1,0-0.2-0.2-0.3-0.3c-2.3-3.1-4.6-6.1-6.9-9.2C39,155.3,39,155.2,38.8,155.1C38.8,155.1,38.8,155.1,38.8,155.1z"/>
				</g>
				<g>
					<path class="st5" d="M99.4,154c0,3.6,0,7.2,0,10.8c-0.5,0-1.1,0-1.6,0c0-4,0-8.1,0-12.1c0.1,0,0.1,0,0.2,0c1.8,0,3.5,0,5.3,0
						c0.3,0,0.5,0,0.8,0.1c2.2,0.4,3.2,2.8,1.8,4.6c-0.5,0.7-1.2,1.1-2,1.4c-0.2,0.1-0.5,0.2-0.8,0.3c1.4,1.9,2.8,3.8,4.2,5.7
						c-0.7,0-1.3,0-2,0c-0.1,0-0.2-0.1-0.3-0.2c-1.2-1.7-2.4-3.4-3.6-5.1c-0.2-0.3-0.2-0.8-0.2-1.1c0.6-0.2,1.1-0.3,1.6-0.5
						c0.5-0.2,0.9-0.4,1.3-0.8c0.6-0.6,0.8-1.3,0.6-2.1c-0.2-0.6-0.7-1-1.4-1.1C102,154,100.8,154,99.4,154z"/>
				</g>
				<g>
					<path class="st6" d="M71,152.7c0.5,0,1,0,1.6,0c0,0.1,0,0.3,0,0.4c0,2.3,0,4.6,0,7c0,0.5,0,1-0.1,1.5c-0.3,1.7-1.3,2.8-3,3.2
						c-1.3,0.3-2.6,0.3-3.9,0c-1.8-0.5-2.9-1.8-3.1-3.7c0-0.4,0-0.8,0-1.1c0-2.2,0-4.5,0-6.8c0-0.1,0-0.3,0-0.4c0.5,0,1,0,1.6,0
						c0,0.1,0,0.3,0,0.4c0,2.3,0,4.6,0,6.9c0,0.4,0,0.8,0.1,1.1c0.2,1.3,1,2.1,2.3,2.4c0.6,0.1,1.2,0.1,1.7,0.1
						c1.8-0.2,2.8-1.2,2.9-3.1c0-0.9,0-1.8,0-2.7c0-1.6,0-3.1,0-4.7C71,153,71,152.9,71,152.7z"/>
				</g>
				<g>
					<path class="st4" d="M90.1,151.1c2,4.6,4,9.2,6.1,13.8c-0.6,0-1.1,0-1.6,0c-0.1,0-0.2-0.1-0.2-0.3c-0.4-1.1-0.9-2.1-1.3-3.2
						c-0.1-0.2-0.2-0.4-0.5-0.4c-1.2,0-2.4,0-3.7,0c0.1-0.4,0.2-0.8,0.4-1.2c0-0.1,0.2-0.1,0.3-0.1c0.9,0,1.8,0,2.8,0
						c-0.8-1.8-1.5-3.6-2.3-5.5c-0.1,0.2-0.1,0.3-0.2,0.4c-1.3,3.3-2.7,6.5-4,9.8c-0.1,0.3-0.3,0.4-0.6,0.4c-0.4,0-0.8,0-1.2,0
						C86,160.3,88,155.7,90.1,151.1z"/>
				</g>
				<g>
					<path class="st7" d="M59.9,154.4c-0.8-0.2-1.5-0.4-2.2-0.4c-0.9-0.1-1.9-0.1-2.8,0.1c-1.8,0.3-2.9,1.6-3.1,3.4
						c-0.1,0.9-0.1,1.7,0,2.6c0.3,2.2,1.7,3.4,4,3.6c0.7,0.1,1.5-0.1,2.2-0.1c0.3,0,0.3-0.1,0.3-0.4c0-1.2,0-2.5,0-3.7
						c0.5,0,1,0,1.5,0c0,0.1,0,0.2,0,0.2c0,1.5,0,3,0,4.5c0,0.2-0.1,0.3-0.3,0.4c-1.9,0.6-3.8,0.6-5.7,0.1c-1.9-0.6-3-1.8-3.5-3.7
						c-0.3-1.4-0.4-2.8,0-4.2c0.5-2.2,2-3.5,4.3-3.9c1.6-0.3,3.3-0.2,4.9,0.2c0.3,0.1,0.4,0.2,0.4,0.5
						C59.9,153.8,59.9,154.1,59.9,154.4z"/>
				</g>
				<g>
					<path class="st8" d="M77,163.6c2.1,0,4.2,0,6.4,0c0,0.4,0,0.8,0,1.3c-2.6,0-5.3,0-7.9,0c0-4.1,0-8.1,0-12.1c0.5,0,1,0,1.6,0
						C77,156.3,77,159.9,77,163.6z"/>
				</g>
				<g>
					<path class="st9" d="M20.6,153.9c0-0.1,0-0.1,0.1-0.2c0.9,1.9,1.8,3.6,2.6,5.5c-0.9,0-1.8,0-2.7,0
						C20.6,157.4,20.6,155.7,20.6,153.9z"/>
				</g>
				<g>
					<path class="st10" d="M20.6,153.9c0,1.7,0,3.5,0,5.2c-0.7,0-1.4,0-2.2,0c0-0.1,0-0.2,0-0.2c0.7-1.6,1.4-3.2,2-4.9
						C20.5,154,20.5,154,20.6,153.9z"/>
				</g>
			</g>
		</g>
	</g>
</g>
</svg>
