<?xml version="1.0" encoding="utf-8"?>
<!-- Generator: Adobe Illustrator 25.2.1, SVG Export Plug-In . SVG Version: 6.00 Build 0)  -->
<!DOCTYPE svg PUBLIC "-//W3C//DTD SVG 1.1//EN" "http://www.w3.org/Graphics/SVG/1.1/DTD/svg11.dtd" [
	<!ENTITY st0 "fill:#006C93;">
	<!ENTITY st1 "fill:#0095AF;">
]>
<svg version="1.1" id="Layer_1" xmlns="http://www.w3.org/2000/svg" xmlns:xlink="http://www.w3.org/1999/xlink" x="0px" y="0px"
	 viewBox="0 0 146.2 61.1" style="enable-background:new 0 0 146.2 61.1;" xml:space="preserve">
<g>
	<rect x="125.8" y="5.6" style="&st0;" width="2.9" height="47.9"/>
	<rect x="117.5" y="5.6" style="&st1;" width="2.9" height="47.9"/>
	<rect x="141.6" y="5.6" style="&st0;" width="2.9" height="47.9"/>
	<rect x="133.3" y="5.6" style="&st1;" width="2.9" height="47.9"/>
	<g>
		<path d="M2.8,25.5l-0.1-0.6h4.1c4.9,0,9.8,0,14.7-0.1c3.9742-0.1712,8.1028,0.3426,12-0.2c0.5-4.2-0.8-8.4-3.7-11.7
			c-2.8-3.3-7-5.4-10.6-5.5C19.3,7.8,19.3,9,19.3,9c6.9,1,12.2,6.6,12.5,13.4V23h-5.3c-4.4203,0.1224-8.778,0.0964-13.2,0.1H9
			c-2.6,0-5.3,0-8.1,0.1c-0.7,8.7,6.5,15,12.1,16.2l0.5,0.1c0.7394,0.1597,1.6863,0.4673,2.5,0.2c-0.0182-0.6,0.0792-1.1943-0.2-1.6
			C9.1,37.4,3.4,31.9,2.8,25.5z"/>
		<path d="M25.4,42.3l-1.2-0.5l1.2-0.5c7-3.2,9.3-9.7,8.7-12.9c-0.4,0-0.8,0-1.3,0c-0.3,6.2-5,11.3-10.9,11.8l-0.6,0.1v-0.6
			c-0.1-2.5-0.1-4.9-0.1-7.2v-3.9c-0.6229-0.4109-0.9374-0.0598-1.6-0.1c-0.2,7.7-0.2,18.8,0.2,27.8c0.5,0,1,0.1,1.4,0.1
			c0.2-0.7,0.2-1.5,0.1-2.3c0-0.5,0-1.1,0-1.6c0.1-1.2,0.1-2.5,0-3.7c0-1.7-0.1-3.3,0.2-5l0.1-0.6l0.6,0.1
			c6.4,1.1,10.4,5.9,10.7,12.9c0.7259,0.1968,0.5926,0.085,1.4-0.1c0.3-1.6,0-3.3-0.7-5.3C32.3,47,29.6,44.2,25.4,42.3z"/>
		<path d="M64.5,41.4l-0.2-0.2h0.3c1.6,0.1,3,0.1,4.5,0.1c0.5-0.9,0.4-2,0.2-2.8c-0.8785-6.0288-6.6411-10.8019-12.5-9.9
			c-0.3,4.1-0.1,21.4,0.3,23.2c0,0,1.1,0,1.5-0.1c0-2.7,0-5.3,0-7.9v-2.5c1.8246-0.1241,3.4695,0.7343,4.6,1.5
			c3.4,2.1,4.5,5.9,5,8.9c0.8665,0.1403,1.0675,0.2468,1.8-0.3C69.5,47.3,67.7,44.1,64.5,41.4z M58.6,39.5h-0.1v-9h0.1
			c4.2991-0.3396,8.7615,4.2626,8.9,8.9v0.1h-0.1C64.5,39.5,61.6,39.5,58.6,39.5z"/>
		<path d="M51.6,28.6c-0.3-0.1-0.6-0.1-0.9-0.1h-0.1c-6.2,0.5-11.1,5.7-10.9,11.8c0.0698,3.9646-0.1671,7.625,0.1,11.6h1.5
			c0-3.6,0-6.9,0-10.4v-0.1h0.1c2.8922,0.0382,6.0879-0.0975,8.9,0.1h0.1v0.1c0.2049,3.5466,0.0039,6.8972,0.2,10.4
			c0,0,1.4-0.1,1.7-0.1l-0.1-23.2C52,28.6,51.8,28.6,51.6,28.6z M50.4,39.5h-0.1c-2.9,0.1-5.8,0.1-8.8,0.1h-0.1v-0.1
			c0.2355-5.1752,5.0355-9.1764,9-9.1389V30.4C50.4,32.5,50.4,39.5,50.4,39.5z"/>
		<path d="M88,39.4c-4.5368-0.0273-9.7923,0.1095-14.1-0.2h-0.1v-0.1c0.8-5.4,3.9-8.4,9.5-9.1c0-0.5,0-1,0-1.6
			c-3.1286-0.1214-5.8537,0.9254-8.2,3.4c-2.6,2.7-3.6,5.8-3,9.4c5.3944,0.0184,11.1796-0.0674,16.5,0.1h0.1v0.1
			C88,46.1,85.9,48.1,80,50l0.2,1.8c3.5-0.2,6.4-1.8,8.6-4.9c1.7-2.4,2.4-5.7,1.6-7.5C89.6,39.4,88.8,39.4,88,39.4z"/>
		<path d="M106.5,28.3c-0.5,0-1,0-1.4,0c-1.3,6.2-4.4,9.5-9.3,9.8h-0.1v-0.2c0-3.1-0.1-6.2-0.1-9.5c-0.6,0-1,0-1.6,0
			c0,7.8,0.1,15.5,0,23.3c0,0,1.3-0.1,1.6-0.1c0.348-3.6222-0.1491-7.1749,0.2-10.7v-0.1h0.1c2.6,0.4,4,1,5.7,2.5
			c2.3,2,3.4,4.7,3.4,8.2c0.4-0.1,1.5-0.1,1.5-0.1c0-5.6-2.6-9.5-8.1-11.9l-0.2-0.1l0.2-0.1C103.6,37.1,106.2,33.6,106.5,28.3z"/>
		<path d="M69.4,21c0.3-0.6,0.6-1.4,0.2-2.1c-1.4296-0.3155-4.9204-0.2489-5.9,0.3l0.2,1.2c0.7,0,3.9,0,3.9,0l-0.1,0.1
			c-2.4014,6.4894-12.0661,4.9767-12.3-2c0.158-8.59,11.686-8.8443,12.9-0.7c0.5,0,0.9-0.1,1.4-0.1c0-0.3986,0-0.6642,0-1
			c-1.9021-9.2037-15.6079-8.3808-16,1.5C54.0976,27.3453,66.0211,29.5069,69.4,21z"/>
		<path d="M110.6,25.7c0.1,0.1,0.1,0.3,0.1,0.4c0.5-0.1,0.9-0.1,1.4-0.2c-0.0451-2.6541,0.1102-5.2486,0-7.9c0-1,0-2,0-3
			c0.1-1.6,0.1-3.3-0.1-4.9h-1.5V20l-0.2-0.2c-3.4059-3.5552-9.0463-3.61-12.4,0.1l-0.2,0.2l-0.1-9.9h-1.4c-0.3,2-0.3,14,0.1,15.9
			c0.4,0,0.8,0,1.2,0c0.1-3.7,2.1-7.4,6.7-7.4h0.1C108.1668,18.7095,110.7329,22.1097,110.6,25.7z"/>
		<path d="M43.8,26.3c2.3,0,4.2-0.1,4.9-0.4c-0.3-2.5-1.4-4.7-3.3-6.5l-0.2-0.2h0.3c0.9462,0.0265,1.7639-0.0366,2.7-0.2
			c0.3-2-0.3-4.1-1.8-5.8c-1.7527-1.9485-4.1117-3.0447-6.5-2.6c-0.4,1.5-0.4,13.7,0,15.5C40.9,26.2,42.3,26.3,43.8,26.3z
			 M46.9,24.7v0.1h-5.8v-0.1c0-1.2,0-5.6,0-5.5h0.1C44.3,19.9,46.2,21.7,46.9,24.7z M41,12.2h0.3c2.7,0,4.8,2.1,5.5,5.4v0.1L41,17.8
			V12.2z"/>
		<path d="M73.1,12h0.1c5.7,1.1,5.6,5.7,5.5,10.1c0,1.1-0.1,2.3,0,3.4c0,0.1,0,0.3,0.1,0.5c0.1,0.1,0.1,0.1,0.1,0.2l1.3,0.1
			c0.1182-5.422,0.3441-10.6516-0.1-16l-1.4,0.2l-0.1,2.6L78.4,13c-3.7766-2.4683-4.1564-2.893-7-2.4c0,5.7,0,10.8,0.1,15.7l1.6,0.1
			V12z"/>
		<path d="M94.1,24.7c-4.4-0.5-6.7-2.4-7-5.6V19c0,0,5.8-0.1,7.1-0.1l-0.1-1.5h-7v-0.1c0.4991-3.3703,3.4463-5.6925,7-5.6l0.1-1.3
			c-3.1512-0.5283-6.2369,1.0794-7.8,4c-1.3,2.2-1.2,5.1,0.2,7.6c1.6502,2.9495,4.6866,4.6319,7.6,3.8
			C94.2,25.8,94.1,24.9,94.1,24.7z"/>
		<path d="M112.2,28.3c-0.4851-0.6639-0.9381-0.5867-1.7-0.2c0,7.8,0.1,15.6,0.1,23.7l1.7-0.1v-4.3
			C112.2,40.9,112.2,34.5,112.2,28.3z"/>
		<path d="M83.6,26.2l0.3,0.1c0.3-2.2,0.2-14.4-0.1-15.9c-0.5771-0.1614-0.8021-0.1352-1.4,0c0,2.8,0.1,15.8,0.1,15.8
			C82.9,26.2,83.3,26.2,83.6,26.2z"/>
		<path d="M50.8,10.4c-0.3,2.2-0.2,14.4,0.2,16c0.3,0,0.7,0,1.3-0.1c0-5.3-0.1-10.5-0.1-15.8L50.8,10.4z"/>
	</g>
</g>
</svg>
