<?xml version="1.0" encoding="utf-8"?>
<!-- Generator: Adobe Illustrator 25.4.1, SVG Export Plug-In . SVG Version: 6.00 Build 0)  -->
<svg version="1.1" id="Layer_1" xmlns="http://www.w3.org/2000/svg" xmlns:xlink="http://www.w3.org/1999/xlink" x="0px" y="0px"
	 viewBox="0 0 60 60" style="enable-background:new 0 0 60 60;" xml:space="preserve">
<style type="text/css">
	.st0{fill:#2E4457;}
	.st1{fill:#304658;}
</style>
<g id="_x37_LL6c2.tif">
	<g>
		<path class="st0" d="M6.3,30.1c0-7.1,0-14.1,0-21.2c0-3.4,2.2-6.2,5.5-7.1c0.6-0.1,1.2-0.2,1.8-0.2c6.7,0,13.4,0,20.2,0
			c0.8,0,1.5,0.3,2,0.9C41.5,8.2,47.3,13.9,53,19.7c0.6,0.6,0.9,1.3,0.9,2.2c0,9.8,0,19.6,0,29.4c0,3.7-2.4,6.6-6.1,7.3
			c-0.3,0.1-0.7,0.1-1,0.1c-11.1,0-22.1,0-33.2,0c-3.5,0-6.3-2.3-7.1-5.7c-0.1-0.6-0.2-1.2-0.2-1.7C6.3,44.1,6.3,37.1,6.3,30.1z
			 M10.7,30.1c0,7,0,14.1,0,21.1c0,1.9,1.2,3,3,3c10.9,0,21.8,0,32.7,0c1.9,0,3.1-1.1,3.1-3c0-9,0-18,0-27c0-0.5-0.1-0.5-0.6-0.5
			c-3.2,0-6.4,0-9.7,0c-4.3,0-7.4-3.1-7.4-7.4c0-3.2,0-6.4,0-9.6c0-0.5-0.1-0.7-0.7-0.7C25.4,6,19.7,6,14,6c-1.8,0-3.2,1.1-3.2,3.2
			C10.8,16.2,10.7,23.1,10.7,30.1z"/>
		<path class="st1" d="M30.1,31.1c3,0,6.1,0,9.1,0c1.1,0,2,0.8,2.2,1.8c0.2,1.1-0.4,2.1-1.4,2.4c-0.3,0.1-0.6,0.2-1,0.2
			c-6,0-12,0-18,0c-1.4,0-2.4-0.9-2.4-2.2c0-1.3,1-2.2,2.4-2.2C24.1,31.1,27.1,31.1,30.1,31.1z"/>
		<path class="st1" d="M30.1,42.3c3,0,6.1,0,9.1,0c1.3,0,2.2,0.9,2.3,2c0.1,1.4-0.9,2.4-2.4,2.4c-3.7,0-7.3,0-11,0
			c-2.4,0-4.8,0-7.1,0c-1,0-1.7-0.4-2.1-1.3c-0.4-0.8-0.2-1.6,0.4-2.3c0.5-0.5,1.1-0.7,1.8-0.7C24.1,42.3,27.1,42.3,30.1,42.3z"/>
	</g>
</g>
</svg>
