<?xml version="1.0" encoding="utf-8"?>
<!-- Generator: Adobe Illustrator 25.0.0, SVG Export Plug-In . SVG Version: 6.00 Build 0)  -->
<svg version="1.1" id="Layer_1" xmlns="http://www.w3.org/2000/svg" xmlns:xlink="http://www.w3.org/1999/xlink" x="0px" y="0px"
	 viewBox="0 0 512 512" style="enable-background:new 0 0 512 512;" xml:space="preserve">
<style type="text/css">
	.st0{opacity:0.87;fill:#006C93;enable-background:new    ;}
	.st1{fill:#016889;}
	.st2{fill:#0095BD;}
	.st3{fill:#006A8A;}
</style>
<path class="st0" d="M-124.9,486l53.4-53.4c22.3-22.3,22.3-58.4,0-80.6l0,0c-22.3-22.3-58.4-22.3-80.6,0l-53.4,53.4l-53.4-53.4
	c-22.3-22.3-58.4-22.3-80.6,0l0,0c-22.3,22.3-22.3,58.4,0,80.6l53.4,53.4l-53.4,53.4c-22.3,22.3-22.3,58.4,0,80.6l0,0
	c22.3,22.3,58.4,22.3,80.6,0l53.4-53.4l53.4,53.4c22.3,22.3,58.4,22.3,80.6,0l0,0c22.3-22.3,22.3-58.4,0-80.6L-124.9,486z"/>
<image style="overflow:visible;enable-background:new    ;" width="301" height="142" xlink:href="../../../../../Desktop/62D21505.jpg"  transform="matrix(0.996 0 0 0.996 -369.8982 36.2839)">
</image>
<rect x="120" y="234.3" transform="matrix(0.7071 -0.7071 0.7071 0.7071 -101.847 261.7196)" class="st1" width="290" height="39"/>
<rect x="245.5" y="108.8" transform="matrix(0.7071 -0.7071 0.7071 0.7071 -101.847 261.7196)" class="st2" width="39" height="290"/>
<rect x="-291" y="271.9" class="st2" width="98" height="39"/>
<rect x="-161" y="234.3" class="st3" width="98" height="39"/>
</svg>