<?xml version="1.0" standalone="no"?>
<!DOCTYPE svg PUBLIC "-//W3C//DTD SVG 20010904//EN"
 "http://www.w3.org/TR/2001/REC-SVG-20010904/DTD/svg10.dtd">
<svg version="1.0" xmlns="http://www.w3.org/2000/svg"
 width="300.000000pt" height="300.000000pt" viewBox="0 0 300.000000 300.000000"
 preserveAspectRatio="xMidYMid meet">
<metadata>
Created by potrace 1.14, written by Peter Selinger 2001-2017
</metadata>
<g transform="translate(0.000000,300.000000) scale(0.100000,-0.100000)"
fill="#000000" stroke="none">
<path d="M1572 2889 c-11 -4 -23 -20 -26 -36 -7 -36 0 -103 13 -116 5 -5 50
-20 99 -33 155 -40 261 -101 370 -213 107 -111 185 -266 199 -401 l5 -55 -418
-2 c-231 -1 -604 -2 -830 -3 -495 -2 -454 11 -449 -137 4 -114 8 -137 36 -229
66 -215 240 -421 451 -533 95 -51 254 -101 330 -104 52 -2 62 1 79 22 19 23
25 83 13 116 -8 21 -50 41 -99 48 -61 9 -182 55 -260 100 -83 47 -214 177
-264 260 -41 69 -77 159 -85 211 -4 21 -9 42 -12 47 -7 12 -165 10 1324 21
l324 3 23 27 c20 24 23 38 23 110 -1 398 -256 739 -653 873 -62 21 -166 34
-193 24z"/>
<path d="M1600 1727 c-19 -10 -26 -23 -31 -57 -7 -46 -2 -1330 5 -1410 2 -25
4 -57 5 -71 2 -38 22 -59 70 -70 100 -22 102 -17 101 372 -1 176 2 324 5 329
18 29 209 -48 294 -118 66 -54 97 -89 141 -162 59 -98 86 -180 97 -303 9 -102
51 -141 120 -112 47 20 56 39 56 118 -2 194 -79 378 -218 522 -64 66 -227 185
-254 185 -17 0 -13 17 6 24 41 16 162 106 219 162 146 146 234 332 234 494 0
82 -12 100 -71 107 -63 7 -86 -15 -94 -89 -25 -245 -206 -465 -437 -532 -88
-26 -98 -27 -99 -8 -1 9 -3 139 -4 289 -2 150 -6 284 -9 298 -11 42 -83 59
-136 32z"/>
<path d="M1623 3 c26 -2 67 -2 90 0 23 2 2 3 -48 3 -49 0 -68 -1 -42 -3z"/>
<path d="M2338 3 c23 -2 61 -2 85 0 23 2 4 4 -43 4 -47 0 -66 -2 -42 -4z"/>
</g>
</svg>
