<?xml version="1.0" encoding="utf-8"?>
<!-- Generator: Adobe Illustrator 25.0.1, SVG Export Plug-In . SVG Version: 6.00 Build 0)  -->
<svg version="1.1" id="Layer_1" xmlns="http://www.w3.org/2000/svg" xmlns:xlink="http://www.w3.org/1999/xlink" x="0px" y="0px"
	 viewBox="0 0 800 800" style="enable-background:new 0 0 800 800;" xml:space="preserve">
<style type="text/css">
	.st0{fill:#086E91;}
</style>
<path class="st0" d="M400,0C179.4,0,0,179.4,0,400s179.4,400,400,400c220.6,0,400-179.4,400-400C800,179.4,620.5,0,400,0L400,0z
	 M400,715.3C226.1,715.3,84.7,573.9,84.7,400S226.1,84.7,400,84.7c173.9,0,315.3,141.5,315.3,315.3S573.8,715.3,400,715.3L400,715.3
	z"/>
<path class="st0" d="M440.6,361.2h-81.2c-13.6,0-24.7,11.1-24.7,24.7v240.8c0,13.6,11.1,24.7,24.7,24.7h81.2
	c13.6,0,24.7-11,24.7-24.7V385.8C465.3,372.2,454.2,361.2,440.6,361.2z"/>
<path class="st0" d="M400,148.7c-39.9,0-72.3,32.4-72.3,72.3c0,39.9,32.4,72.3,72.3,72.3c39.9,0,72.3-32.4,72.3-72.3
	C472.3,181.1,439.9,148.7,400,148.7z"/>
</svg>
