o Solid_1
v 7.697761535644531 19.660415649414062 1.385474681854248
v 7.697761535644531 19.660415649414062 0.8484331965446472
v -9.178215026855469 19.660415649414062 0.8484331965446472
v -9.178215026855469 19.660415649414062 1.385474681854248
v -9.335305213928223 19.648052215576172 0.8484331965446472
v -9.335305213928223 19.648052215576172 1.385474681854248
v -9.488526344299316 19.61126708984375 0.8484331965446472
v -9.488526344299316 19.61126708984375 1.385474681854248
v -9.634106636047363 19.55096435546875 0.8484331965446472
v -9.634106636047363 19.55096435546875 1.385474681854248
v -9.768461227416992 19.468631744384766 0.8484331965446472
v -9.768461227416992 19.468631744384766 1.385474681854248
v -9.88828182220459 19.366294860839844 0.8484331965446472
v -9.88828182220459 19.366294860839844 1.385474681854248
v -9.990618705749512 19.246475219726562 0.8484331965446472
v -9.990618705749512 19.246475219726562 1.385474681854248
v -10.072951316833496 19.112119674682617 0.8484331965446472
v -10.072951316833496 19.112119674682617 1.385474681854248
v -10.13325309753418 18.96653938293457 0.8484331965446472
v -10.13325309753418 18.96653938293457 1.385474681854248
v -10.170038223266602 18.813318252563477 0.8484331965446472
v -10.170038223266602 18.813318252563477 1.385474681854248
v -10.182401657104492 18.65622901916504 0.8484331965446472
v -10.182401657104492 18.65622901916504 1.385474681854248
v -10.182401657104492 -8.882708549499512 0.8484331965446472
v -10.182401657104492 -8.882708549499512 1.385474681854248
v -10.170038223266602 -9.03979778289795 0.8484331965446472
v -10.170038223266602 -9.03979778289795 1.385474681854248
v -10.13325309753418 -9.193018913269043 0.8484331965446472
v -10.13325309753418 -9.193018913269043 1.385474681854248
v -10.072951316833496 -9.33859920501709 0.8484331965446472
v -10.072951316833496 -9.33859920501709 1.385474681854248
v -9.990618705749512 -9.472953796386719 0.8484331965446472
v -9.990618705749512 -9.472953796386719 1.385474681854248
v -9.88828182220459 -9.592775344848633 0.8484331965446472
v -9.88828182220459 -9.592775344848633 1.385474681854248
v -9.768461227416992 -9.695112228393555 0.8484331965446472
v -9.768461227416992 -9.695112228393555 1.385474681854248
v -9.634106636047363 -9.777444839477539 0.8484331965446472
v -9.634106636047363 -9.777444839477539 1.385474681854248
v -9.488526344299316 -9.837745666503906 0.8484331965446472
v -9.488526344299316 -9.837745666503906 1.385474681854248
v -9.335305213928223 -9.874530792236328 0.8484331965446472
v -9.335305213928223 -9.874530792236328 1.385474681854248
v -9.178215026855469 -9.886894226074219 0.8484331965446472
v -9.178215026855469 -9.886894226074219 1.385474681854248
v 7.697761535644531 -9.886894226074219 0.8484331965446472
v 7.697761535644531 -9.886894226074219 1.385474681854248
v 8.701947212219238 18.65622901916504 0.8484331965446472
v 8.510165214538574 19.246475219726562 0.8484331965446472
v 8.592497825622559 19.112119674682617 0.8484331965446472
v 7.854850769042969 19.648052215576172 0.8484331965446472
v 8.008071899414062 19.61126708984375 0.8484331965446472
v 8.652799606323242 -9.193018913269043 0.8484331965446472
v 8.407828330993652 -9.592775344848633 0.8484331965446472
v 8.288006782531738 -9.695112228393555 0.8484331965446472
v 8.592497825622559 -9.33859920501709 0.8484331965446472
v 8.652799606323242 18.96653938293457 0.8484331965446472
v 8.288006782531738 19.468631744384766 0.8484331965446472
v 8.407828330993652 19.366294860839844 0.8484331965446472
v 8.701947212219238 -8.882708549499512 0.8484331965446472
v 8.15365219116211 -9.777444839477539 0.8484331965446472
v 8.008071899414062 -9.837745666503906 0.8484331965446472
v 8.510165214538574 -9.472953796386719 0.8484331965446472
v 8.689584732055664 -9.03979778289795 0.8484331965446472
v 8.15365219116211 19.55096435546875 0.8484331965446472
v 7.854850769042969 -9.874530792236328 0.8484331965446472
v 8.689584732055664 18.813318252563477 0.8484331965446472
v 7.854850769042969 -9.874530792236328 1.385474681854248
v 8.008071899414062 -9.837745666503906 1.385474681854248
v 8.15365219116211 -9.777444839477539 1.385474681854248
v 8.288006782531738 -9.695112228393555 1.385474681854248
v 8.407828330993652 -9.592775344848633 1.385474681854248
v 8.510165214538574 -9.472953796386719 1.385474681854248
v 8.592497825622559 -9.33859920501709 1.385474681854248
v 8.652799606323242 -9.193018913269043 1.385474681854248
v 8.689584732055664 -9.03979778289795 1.385474681854248
v 8.701947212219238 -8.882708549499512 1.385474681854248
v 8.701947212219238 18.65622901916504 1.385474681854248
v 8.689584732055664 18.813318252563477 1.385474681854248
v 8.652799606323242 18.96653938293457 1.385474681854248
v 8.592497825622559 19.112119674682617 1.385474681854248
v 8.510165214538574 19.246475219726562 1.385474681854248
v 8.407828330993652 19.366294860839844 1.385474681854248
v 8.288006782531738 19.468631744384766 1.385474681854248
v 8.15365219116211 19.55096435546875 1.385474681854248
v 8.008071899414062 19.61126708984375 1.385474681854248
v 7.854850769042969 19.648052215576172 1.385474681854248
v 7.918998718261719 16.552532196044922 1.385474681854248
v 8.701947212219238 16.552532196044922 1.385474681854248
v 7.918998718261719 -6.2462849617004395 1.385474681854248
v 8.701947212219238 -6.2462849617004395 1.385474681854248
v 8.701947212219238 16.552532196044922 1.0167393684387207
v 8.701947212219238 -6.2462849617004395 1.0167393684387207
v 8.626105308532715 -6.2462849617004395 1.0925815105438232
v 8.626105308532715 16.552532196044922 1.0925815105438232
vn 0 1 0
vn 0 1 0
vn 0 1 0
vn 0 1 0
vn -0.15643446147441864 0.9876883625984192 0
vn -0.15643446147441864 0.9876883625984192 0
vn -0.30901700258255005 0.9510565400123596 0
vn -0.30901700258255005 0.9510565400123596 0
vn -0.45399048924446106 0.8910065293312073 0
vn -0.45399048924446106 0.8910065293312073 0
vn -0.5877852439880371 0.80901700258255 0
vn -0.5877852439880371 0.80901700258255 0
vn -0.7071067690849304 0.7071067690849304 0
vn -0.7071067690849304 0.7071067690849304 0
vn -0.80901700258255 0.5877852439880371 0
vn -0.80901700258255 0.5877852439880371 0
vn -0.8910065293312073 0.45399048924446106 0
vn -0.8910065293312073 0.45399048924446106 0
vn -0.9510565400123596 0.30901700258255005 0
vn -0.9510565400123596 0.30901700258255005 0
vn -0.9876883625984192 0.15643446147441864 0
vn -0.9876883625984192 0.15643446147441864 0
vn -1 1.2246468525851679e-16 0
vn -1 1.2246468525851679e-16 0
vn -1 1.2246468525851679e-16 0
vn -1 1.2246468525851679e-16 0
vn -0.9876883625984192 -0.15643446147441864 0
vn -0.9876883625984192 -0.15643446147441864 0
vn -0.9510565400123596 -0.30901700258255005 0
vn -0.9510565400123596 -0.30901700258255005 0
vn -0.8910065293312073 -0.45399048924446106 0
vn -0.8910065293312073 -0.45399048924446106 0
vn -0.80901700258255 -0.5877852439880371 0
vn -0.80901700258255 -0.5877852439880371 0
vn -0.7071067690849304 -0.7071067690849304 0
vn -0.7071067690849304 -0.7071067690849304 0
vn -0.5877852439880371 -0.80901700258255 0
vn -0.5877852439880371 -0.80901700258255 0
vn -0.45399048924446106 -0.8910065293312073 0
vn -0.45399048924446106 -0.8910065293312073 0
vn -0.30901700258255005 -0.9510565400123596 0
vn -0.30901700258255005 -0.9510565400123596 0
vn -0.15643446147441864 -0.9876883625984192 0
vn -0.15643446147441864 -0.9876883625984192 0
vn -1.8369701465288538e-16 -1 0
vn -1.8369701465288538e-16 -1 0
vn -1.8369701465288538e-16 -1 0
vn -1.8369701465288538e-16 -1 0
vn 0 0 -1
vn 0 0 -1
vn 0 0 -1
vn 0 0 -1
vn 0 0 -1
vn 0 0 -1
vn 0 0 -1
vn 0 0 -1
vn 0 0 -1
vn 0 0 -1
vn 0 0 -1
vn 0 0 -1
vn 0 0 -1
vn 0 0 -1
vn 0 0 -1
vn 0 0 -1
vn 0 0 -1
vn 0 0 -1
vn 0 0 -1
vn 0 0 -1
vn 0 0 -1
vn 0 0 -1
vn 0 0 -1
vn 0 0 -1
vn 0 0 -1
vn 0 0 -1
vn 0 0 -1
vn 0 0 -1
vn 0 0 -1
vn 0 0 -1
vn 0 0 -1
vn 0 0 -1
vn 0 0 -1
vn 0 0 -1
vn 0 0 -1
vn 0 0 -1
vn 0 0 -1
vn 0 0 -1
vn 0 0 -1
vn 0 0 -1
vn 0 0 -1
vn 0 0 -1
vn 0 0 -1
vn 0 0 -1
vn 0.15643446147441864 -0.9876883625984192 0
vn 0.15643446147441864 -0.9876883625984192 0
vn 0.30901700258255005 -0.9510565400123596 0
vn 0.30901700258255005 -0.9510565400123596 0
vn 0.45399048924446106 -0.8910065293312073 0
vn 0.45399048924446106 -0.8910065293312073 0
vn 0.5877852439880371 -0.80901700258255 0
vn 0.5877852439880371 -0.80901700258255 0
vn 0.7071067690849304 -0.7071067690849304 0
vn 0.7071067690849304 -0.7071067690849304 0
vn 0.80901700258255 -0.5877852439880371 0
vn 0.80901700258255 -0.5877852439880371 0
vn 0.8910065293312073 -0.45399048924446106 0
vn 0.8910065293312073 -0.45399048924446106 0
vn 0.9510565400123596 -0.30901700258255005 0
vn 0.9510565400123596 -0.30901700258255005 0
vn 0.9876883625984192 -0.15643446147441864 0
vn 0.9876883625984192 -0.15643446147441864 0
vn 1 -2.4492937051703357e-16 0
vn 1 -2.4492937051703357e-16 0
vn 1 -2.4492937051703357e-16 0
vn 1 -2.4492937051703357e-16 0
vn 0.9876883625984192 0.15643446147441864 0
vn 0.9876883625984192 0.15643446147441864 0
vn 0.9510565400123596 0.30901700258255005 0
vn 0.9510565400123596 0.30901700258255005 0
vn 0.8910065293312073 0.45399048924446106 0
vn 0.8910065293312073 0.45399048924446106 0
vn 0.80901700258255 0.5877852439880371 0
vn 0.80901700258255 0.5877852439880371 0
vn 0.7071067690849304 0.7071067690849304 0
vn 0.7071067690849304 0.7071067690849304 0
vn 0.5877852439880371 0.80901700258255 0
vn 0.5877852439880371 0.80901700258255 0
vn 0.45399048924446106 0.8910065293312073 0
vn 0.45399048924446106 0.8910065293312073 0
vn 0.30901700258255005 0.9510565400123596 0
vn 0.30901700258255005 0.9510565400123596 0
vn 0.15643446147441864 0.9876883625984192 0
vn 0.15643446147441864 0.9876883625984192 0
vn 6.123234262925839e-17 1 0
vn 6.123234262925839e-17 1 0
vn 0 0 1
vn 0 0 1
vn 0 0 1
vn 0 0 1
vn 0 0 1
vn 0 0 1
vn 0 0 1
vn 0 0 1
vn 0 0 1
vn 0 0 1
vn 0 0 1
vn 0 0 1
vn 0 0 1
vn 0 0 1
vn 0 0 1
vn 0 0 1
vn 0 0 1
vn 0 0 1
vn 0 0 1
vn 0 0 1
vn 0 0 1
vn 0 0 1
vn 0 0 1
vn 0 0 1
vn 0 0 1
vn 0 0 1
vn 0 0 1
vn 0 0 1
vn 0 0 1
vn 0 0 1
vn 0 0 1
vn 0 0 1
vn 0 0 1
vn 0 0 1
vn 0 0 1
vn 0 0 1
vn 0 0 1
vn 0 0 1
vn 0 0 1
vn 0 0 1
vn 0 0 1
vn 0 0 1
vn 0 0 1
vn 0 0 1
vn 0 0 1
vn 0 0 1
vn 0 0 1
vn 0 0 1
vn 1 0 0
vn 1 0 0
vn 1 0 0
vn 1 0 0
vn 1 0 0
vn 1 0 0
vn 1 0 0
vn 1 0 0
vn 0 1 0
vn 0 1 0
vn 0 1 0
vn 0 1 0
vn 0 -1 0
vn 0 -1 0
vn 0 -1 0
vn 0 -1 0
vn 0.7071067690849304 0 0.7071067690849304
vn 0.7071067690849304 0 0.7071067690849304
vn 0.7071067690849304 0 0.7071067690849304
vn 0.7071067690849304 0 0.7071067690849304
vn 0.3826834261417389 0 0.9238795042037964
vn 0.3826834261417389 0 0.9238795042037964
vn 0.3826834261417389 0 0.9238795042037964
vn 0.3826834261417389 0 0.9238795042037964
f 1//1 2//2 3//3
f 3//3 4//4 1//1
f 4//4 3//3 5//5
f 6//6 5//5 7//7
f 8//8 7//7 9//9
f 10//10 9//9 11//11
f 12//12 11//11 13//13
f 14//14 13//13 15//15
f 16//16 15//15 17//17
f 18//18 17//17 19//19
f 20//20 19//19 21//21
f 22//22 21//21 23//23
f 23//23 24//24 22//22
f 21//21 22//22 20//20
f 19//19 20//20 18//18
f 17//17 18//18 16//16
f 15//15 16//16 14//14
f 13//13 14//14 12//12
f 11//11 12//12 10//10
f 9//9 10//10 8//8
f 7//7 8//8 6//6
f 5//5 6//6 4//4
f 24//24 23//23 25//25
f 25//25 26//26 24//24
f 26//26 25//25 27//27
f 28//28 27//27 29//29
f 30//30 29//29 31//31
f 32//32 31//31 33//33
f 34//34 33//33 35//35
f 36//36 35//35 37//37
f 38//38 37//37 39//39
f 40//40 39//39 41//41
f 42//42 41//41 43//43
f 44//44 43//43 45//45
f 45//45 46//46 44//44
f 43//43 44//44 42//42
f 41//41 42//42 40//40
f 39//39 40//40 38//38
f 37//37 38//38 36//36
f 35//35 36//36 34//34
f 33//33 34//34 32//32
f 31//31 32//32 30//30
f 29//29 30//30 28//28
f 27//27 28//28 26//26
f 47//47 48//48 46//46
f 46//46 45//45 47//47
f 49//49 50//50 51//51
f 49//49 52//52 53//53
f 23//54 9//55 7//56
f 23//54 19//57 17//58
f 54//59 55//60 56//61
f 55//60 54//59 57//62
f 51//51 58//63 49//49
f 49//49 59//64 60//65
f 49//49 2//66 52//52
f 7//56 5//67 23//54
f 23//54 15//68 13//69
f 23//54 21//70 19//57
f 25//71 31//72 29//73
f 25//71 35//74 33//75
f 25//71 39//76 37//77
f 61//78 62//79 63//80
f 57//62 64//81 55//60
f 62//79 61//78 65//82
f 60//65 50//50 49//49
f 53//53 66//83 49//49
f 23//54 11//84 9//55
f 17//58 15//68 23//54
f 33//75 31//72 25//71
f 25//71 41//85 39//76
f 63//80 67//86 61//78
f 65//82 54//59 62//79
f 47//87 2//66 49//49
f 66//83 59//64 49//49
f 13//69 11//84 23//54
f 3//88 45//89 25//71
f 37//77 35//74 25//71
f 25//71 45//89 43//90
f 56//61 62//79 54//59
f 58//63 68//91 49//49
f 25//71 23//54 3//88
f 43//90 41//85 25//71
f 49//49 61//78 47//87
f 3//88 2//66 47//87
f 29//73 27//92 25//71
f 47//87 45//89 3//88
f 67//86 47//87 61//78
f 5//67 3//88 23//54
f 48//48 47//47 67//93
f 69//94 67//93 63//95
f 70//96 63//95 62//97
f 71//98 62//97 56//99
f 72//100 56//99 55//101
f 73//102 55//101 64//103
f 74//104 64//103 57//105
f 75//106 57//105 54//107
f 76//108 54//107 65//109
f 77//110 65//109 61//111
f 61//111 78//112 77//110
f 65//109 77//110 76//108
f 54//107 76//108 75//106
f 57//105 75//106 74//104
f 64//103 74//104 73//102
f 55//101 73//102 72//100
f 56//99 72//100 71//98
f 62//97 71//98 70//96
f 63//95 70//96 69//94
f 67//93 69//94 48//48
f 79//113 49//114 68//115
f 80//116 68//115 58//117
f 81//118 58//117 51//119
f 82//120 51//119 50//121
f 83//122 50//121 60//123
f 84//124 60//123 59//125
f 85//126 59//125 66//127
f 86//128 66//127 53//129
f 87//130 53//129 52//131
f 88//132 52//131 2//133
f 2//133 1//134 88//132
f 52//131 88//132 87//130
f 53//129 87//130 86//128
f 66//127 86//128 85//126
f 59//125 85//126 84//124
f 60//123 84//124 83//122
f 50//121 83//122 82//120
f 51//119 82//120 81//118
f 58//117 81//118 80//116
f 68//115 80//116 79//113
f 86//135 87//136 88//137
f 89//138 20//139 22//140
f 89//138 16//141 18//142
f 89//138 6//143 8//144
f 1//145 85//146 86//135
f 1//145 83//147 84//148
f 1//145 81//149 82//150
f 1//145 79//151 80//152
f 26//153 36//154 38//155
f 26//153 32//156 34//157
f 26//153 28//158 30//159
f 18//142 20//139 89//138
f 89//138 12//160 14//161
f 89//138 4//162 6//143
f 73//163 74//164 75//165
f 76//166 71//167 72//168
f 84//148 85//146 1//145
f 80//152 81//149 1//145
f 26//153 44//169 46//170
f 38//155 40//171 26//153
f 30//159 32//156 26//153
f 14//161 16//141 89//138
f 8//144 10//172 89//138
f 71//167 76//166 77//173
f 72//168 73//163 76//166
f 78//174 69//175 70//176
f 82//150 83//147 1//145
f 89//138 90//177 79//151
f 26//153 42//178 44//169
f 34//157 36//154 26//153
f 24//179 26//153 91//180
f 10//172 12//160 89//138
f 75//165 76//166 73//163
f 78//174 48//181 69//175
f 79//151 1//145 89//138
f 40//171 42//178 26//153
f 22//140 24//179 89//138
f 70//176 71//167 78//174
f 88//137 1//145 86//135
f 91//180 89//138 24//179
f 78//174 92//182 91//180
f 78//174 46//170 48//181
f 46//170 91//180 26//153
f 77//173 78//174 71//167
f 91//180 46//170 78//174
f 1//145 4//162 89//138
f 49//183 93//184 94//185
f 79//186 90//187 93//184
f 78//188 61//189 94//185
f 93//184 49//183 79//186
f 94//185 61//189 49//183
f 94//185 92//190 78//188
f 92//191 94//192 95//193
f 95//193 91//194 92//191
f 90//195 89//196 96//197
f 96//197 93//198 90//195
f 94//199 93//200 96//201
f 96//201 95//202 94//199
f 96//203 89//204 91//205
f 91//205 95//206 96//203
