# OBJ written from /Users/tosh/Documents/GitHub/portfolio/src/lib/theatre/obj/laptop_body.obj
# Units	meters

o Mesh
mtllib laptop_body.mtl

o Solid_40
v 6.87807 -8.11597 0.575466
v 7.29355 -8.2278 0.579172
v 6.99262 -8.10061 0.334058
v 6.83852 -8.03548 0.2414
v 6.73261 -8.02083 0.360987
v 6.57901 -7.9258 0.123911
v 6.42897 -7.8676 0.121418
v 6.64314 -7.97187 0.270378
v 6.07266 -7.71178 0.00873055
v 6.3151 -7.81634 0.0699045
v 6.61222 -8.11919 0.149718
v 5.88599 -7.63289 -4.44089e-16
v 5.95702 -7.66291 0.00126186
v 6.08564 -7.75043 0.010492
v 6.07458 -7.72434 0.00898134
v 6.47777 -9.03307 0.571894
v 6.36361 -8.76297 0.349874
v 6.60245 -8.69422 0.334188
v 6.79728 -8.9788 0.574745
v 6.70199 -9.00803 0.573895
v 6.8049 -8.5518 0.32896
v 7.12437 -8.74199 0.577663
v 6.93075 -8.91378 0.575935
v 6.94732 -8.34936 0.334188
v 7.23563 -8.54687 0.578655
v 7.2527 -8.49864 0.578808
v 6.51043 -8.25733 0.146914
v 6.37229 -8.35913 0.149718
v 6.20561 -8.38912 0.148486
v 5.88599 -7.63289 0.000160327
v 5.88599 -7.61625 -1.11022e-16
v 5.93708 -7.61625 -1.11022e-16
v 5.93723 -7.61639 1.10095e-08
v -7.95657 -8.88833 0.443121
v -7.85487 -8.64769 0.27658
v -7.70731 -8.29856 0.114031
v -7.57434 -7.98394 0.0310509
v -7.48328 -7.76851 0.00460349
v -7.42596 -7.63289 0
v -8.12683 -8.8688 0.441602
v -8.23377 -8.83623 0.440648
v -8.05254 -8.57065 0.254961
v -7.84871 -8.27044 0.114139
v -8.67343 -8.16013 0.436725
v -8.3614 -8.2642 0.25475
v -8.62487 -8.43848 0.437159
v -8.06183 -8.05879 0.114033
v -7.97079 -8.18031 0.111879
v -8.47028 -8.68208 0.438538
v -8.51035 -8.63787 0.43818
v -8.33499 -8.78716 0.439745
v -8.10997 -7.92198 0.120603
v -8.08681 -7.9122 0.112336
v -7.7744 -7.78016 0.0305862
v -7.56056 -7.68978 0.00453444
v -8.67343 13.2952 0.436725
v -8.10978 13.057 0.120535
v -8.08681 13.0473 0.112336
v -7.7744 12.9152 0.0305862
v -7.56056 12.8248 0.00453444
v -7.42596 12.7679 -4.44089e-16
v -8.65565 13.4674 0.436884
v -8.62512 13.5729 0.437156
v -8.36347 13.3944 0.254818
v -8.06334 13.1906 0.114075
v -7.95657 14.0234 0.443121
v -7.84848 13.7676 0.267775
v -8.0571 13.7031 0.254607
v -8.23508 13.9708 0.440636
v -7.85175 13.4036 0.113969
v -7.97323 13.3126 0.111816
v -8.47513 13.8122 0.438494
v -8.43109 13.8536 0.438887
v -8.57652 13.6771 0.43759
v -7.70731 13.4336 0.114031
v -7.57434 13.119 0.0310509
v -7.48328 12.9036 0.00460349
v 6.47777 14.1681 0.571894
v 6.36361 13.898 0.349874
v 6.20561 13.5242 0.148486
v 5.88599 12.7679 -1.11022e-16
v 6.87807 13.251 0.575466
v 7.29355 13.3629 0.579172
v 7.2527 13.6337 0.578808
v 7.23563 13.6819 0.578655
v 7.12437 13.8771 0.577663
v 6.93075 14.0488 0.575935
v 6.79728 14.1139 0.574745
v 6.70199 14.1431 0.573895
v 6.99262 13.2357 0.334058
v 6.94732 13.4844 0.334188
v 6.8049 13.6869 0.32896
v 6.60245 13.8293 0.334188
v 6.51043 13.3924 0.146914
v 6.37229 13.4942 0.149718
v 6.61222 13.2542 0.149718
v 6.57596 13.0596 0.122788
v 6.07266 12.8468 0.00873055
v 5.97483 12.8055 0.0019746
v 5.93042 12.7867 0.000493769
v 5.9082 12.7773 0.000123457
v 6.83947 13.1709 0.241916
v 5.93708 12.6345 -1.11022e-16
v 5.93723 12.6347 1.14564e-08
v 6.11905 12.7915 0.0157808
v 6.29628 12.9431 0.0629008
v 6.43769 13.0067 0.126056
v 6.64316 13.1069 0.270401
v 6.72847 13.1535 0.356284
v 5.88599 12.6345 -1.11022e-16
v 5.88599 12.7679 0.0113714
v 5.90796 12.7773 0.0130343
v 5.92992 12.7867 0.0148161
v 5.97384 12.8054 0.0187391
vn 0.304492 0.92861 0.212055
vn 0.204296 0.957759 0.202389
vn 0.27661 0.943253 0.183743
vn 0.306314 0.937361 0.165912
vn 0.335008 0.926188 0.173046
vn 0.345724 0.929605 0.12771
vn 0.368436 0.923534 0.106493
vn 0.347605 0.925211 0.152167
vn 0.38617 0.921717 0.0362012
vn 0.375957 0.92286 0.0835854
vn 0.0933357 -1.64093e-07 -0.995635
vn 0.346515 -1.58783e-07 -0.938044
vn 0.313029 -0.129003 -0.940942
vn -2.60228e-17 -1.82469e-16 -1
vn 0.0355153 8.16798e-08 -0.999369
vn 0.0884994 -0.0279586 -0.995684
vn 0.0895659 -0.0113696 -0.995916
vn -2.23873e-07 -0.70009 -0.714054
vn 2.72346e-07 -0.565043 -0.825062
vn 0.182679 -0.469596 -0.863775
vn 0.237091 -0.614718 -0.75227
vn 0.163988 -0.649092 -0.742824
vn 0.339286 -0.339286 -0.877365
vn 0.509212 -0.396542 -0.763844
vn 0.343577 -0.549174 -0.761815
vn 0.469596 -0.182679 -0.863775
vn 0.616681 -0.238032 -0.750364
vn 0.553316 1.29074e-07 -0.832972
vn 0.703783 1.37287e-07 -0.710415
vn 0.635596 -0.200541 -0.745521
vn 0.227329 -0.227329 -0.946913
vn 0.129003 -0.313029 -0.940942
vn -2.56488e-07 -0.378117 -0.925758
vn 0.476267 1.71957e-07 -0.879301
vn 0.388852 0.921196 0.013819
vn 0.389306 0.921108 8.1643e-09
vn 0 -0.0192723 -0.999814
vn 0 0 -1
vn 0 -0.000159711 -1
vn 0 -0.155438 -0.987846
vn 0 -0.0540503 -0.998538
vn 1 0 0
vn 0 -0.700092 -0.714053
vn 0 -0.627719 -0.77844
vn 0 -0.507401 -0.86171
vn 0 -0.378118 -0.925757
vn 0 -0.565041 -0.825063
vn 0 -0.332837 -0.942985
vn 0 -0.175527 -0.984475
vn 0 -0.0678099 -0.997698
vn 0 -8.88178e-16 -1
vn -1.61e-07 -0.62772 -0.778439
vn -0.124073 -0.583177 -0.802814
vn -0.203867 -0.541687 -0.815483
vn -0.15947 -0.411329 -0.897428
vn -2.67117e-07 -0.507403 -0.861709
vn -0.112907 -0.274311 -0.95499
vn -3.24014e-07 -0.332839 -0.942984
vn 6.96924e-17 -4.80115e-16 -1
vn -1.66909e-07 -0.0678106 -0.997698
vn 3.40562e-07 -0.175525 -0.984475
vn -0.623735 -2.25412e-07 -0.781636
vn -0.40882 -0.162983 -0.897944
vn -0.539272 -0.203577 -0.817155
vn -0.272588 -0.115201 -0.955209
vn -0.198247 -0.200096 -0.95951
vn -0.391681 -0.395826 -0.830607
vn -0.426457 -0.359012 -0.830208
vn -0.281695 -0.490444 -0.82469
vn -0.342005 -2.47335e-07 -0.939698
vn -0.330428 -3.09251e-07 -0.943831
vn -0.174217 3.16319e-07 -0.984707
vn -0.0673006 -1.34462e-07 -0.997733
vn -0.623733 0 -0.781637
vn -0.341911 0 -0.939732
vn -0.330426 0 -0.943832
vn -0.342004 0 -0.939699
vn -0.174219 0 -0.984707
vn -0.0673001 0 -0.997733
vn -0.623735 2.25733e-07 -0.781636
vn -0.579569 0.124922 -0.805291
vn -0.539558 0.203081 -0.81709
vn -0.411212 0.159432 -0.897489
vn -0.274233 0.112879 -0.955015
vn -0.341912 2.48832e-07 -0.939732
vn 2.60228e-17 1.82469e-16 -1
vn -0.0673006 1.34476e-07 -0.997733
vn -0.174217 -3.16398e-07 -0.984707
vn -0.330428 3.09202e-07 -0.943831
vn -1.60543e-07 0.62772 -0.778439
vn 9.45108e-09 0.499849 -0.866113
vn -0.162943 0.408704 -0.898004
vn -0.204856 0.541106 -0.815622
vn -0.115172 0.272511 -0.955235
vn -0.200041 0.198193 -0.959533
vn -0.395821 0.391646 -0.830626
vn -0.358846 0.427239 -0.829877
vn -0.488006 0.282647 -0.825809
vn -3.24126e-07 0.332838 -0.942984
vn 3.40586e-07 0.175525 -0.984475
vn -1.66916e-07 0.0678106 -0.997698
vn 0 0.627719 -0.77844
vn 0 0.700092 -0.714053
vn 0 0.565041 -0.825063
vn 0 0.378118 -0.925757
vn 0 0.499849 -0.866113
vn 0 0.332837 -0.942985
vn 0 0.0678099 -0.997698
vn 0 0.175527 -0.984475
vn -0.00892098 0 0.99996
vn 0.703783 -1.37349e-07 -0.710415
vn 0.553316 -1.29187e-07 -0.832972
vn 0.469596 0.182679 -0.863775
vn 0.616681 0.238032 -0.750364
vn 0.635596 0.200541 -0.745521
vn 0.339286 0.339286 -0.877365
vn 0.509212 0.396542 -0.763844
vn 0.182679 0.469596 -0.863775
vn 0.237091 0.614718 -0.75227
vn 0.343577 0.549174 -0.761815
vn 2.75693e-07 0.565043 -0.825062
vn -2.21433e-07 0.70009 -0.714054
vn 0.163988 0.649092 -0.742824
vn 0.227329 0.227329 -0.946913
vn 0.129003 0.313029 -0.940942
vn -3.21854e-16 9.86253e-16 -1
vn 0.313029 0.129003 -0.940942
vn 0.34499 1.91953e-07 -0.938606
vn 0.0933357 1.64101e-07 -0.995635
vn 0.044423 -3.44417e-07 -0.999013
vn 0.0222193 3.41135e-07 -0.999753
vn 0.0111117 2.40141e-07 -0.999938
vn 0.476743 -1.88894e-07 -0.879043
vn -2.52742e-07 0.378117 -0.925758
vn 0.000147226 0 -1
vn 0.172147 0 -0.985071
vn 0.339805 0 -0.940496
vn 0.357612 0 -0.93387
vn 0.128257 0 -0.991741
vn 0.130079 0 -0.991504
vn 0.140543 0 -0.990075
vn 0.000144326 0 -1
vn 0.47358 0 -0.880751
vn 0.667956 0 -0.744201
vn 0.667931 0 -0.744223
vn 0.465327 0 -0.885139
vn 0.748659 0 -0.662956
vn 0.890179 0 -0.45561
vn 0.752575 0 -0.658507
vn 0.389306 -0.921108 8.1643e-09
vn 0.389262 -0.921117 0.00432527
vn 0.391405 -0.920208 0.00432839
vn 0.389129 -0.921143 0.00864802
vn 0.391509 -0.920134 0.00866567
vn 0.388596 -0.921246 0.01728
vn 0.391387 -0.920062 0.0173555
vn 0.38617 -0.921717 0.0362012
vn 0.34611 -0.929529 0.127213
vn 0.347602 -0.925212 0.152173
vn 0.367774 -0.92359 0.108276
vn 0.377015 -0.922759 0.0798543
vn 0.306145 -0.937394 0.166035
vn 0.335664 -0.926137 0.172044
vn 0.27661 -0.943253 0.183743
vn 0.204296 -0.957759 0.202389
vn 0.304492 -0.92861 0.212055
vn 0 0.169239 -0.985575
vn 0 0.181095 -0.983466
vn 0 0.192966 -0.981205
vn 0 0.199088 -0.979982
vn 0 0.000170486 -1
vn 0 0.216742 -0.976229
vn 0 0.391429 -0.920208
vt 0.0260214 0.9936
vt 0 1
vt 0.0188474 0.576785
vt 0.0284984 0.416802
vt 0.0351314 0.623281
vt 0.0447511 0.213946
vt 0.0541485 0.20964
vt 0.0407352 0.466834
vt 0.0764639 0.0150742
vt 0.0612797 0.120697
vt 0.0764639 0.0569491
vt 0.0447511 0.0477249
vt 0.0426711 0.0393895
vt 0.0881549 0.0603496
vt 0.0837063 0.0590556
vt 0.0756506 0.0552834
vt 0.0763433 0.056408
vt 0.0510917 0
vt 0.0582414 0.0116417
vt 0.043283 0.0146049
vt 0.0310815 0.00233922
vt 0.0370493 0.0010794
vt 0.0306041 0.0207433
vt 0.0105957 0.0125459
vt 0.0227222 0.00514181
vt 0.0216845 0.0294689
vt 0.0036276 0.0209561
vt 0.0188474 0.0401904
vt 0 0.0347083
vt 0.00255844 0.0230348
vt 0.0490465 0.0334354
vt 0.0576983 0.0290478
vt 0.0681371 0.0277549
vt 0.0284984 0.0429975
vt 0.0837063 0.00217873
vt 0.0881549 0
vt 0.0881549 0.00027682
vt 0.0881549 0.0610666
vt 0.0849551 0.0610666
vt 0.0849456 0.0610607
vt 1 0.0610666
vt 0.999723 0.0603496
vt 1 0.0603496
vt 0.955104 0.00623868
vt 0.948734 0.0166104
vt 0.939493 0.0316583
vt 0.931165 0.0452187
vt 0.925462 0.0545042
vt 0.921872 0.0603496
vt 0.965767 0.00708021
vt 0.972464 0.00848401
vt 0.961114 0.0199311
vt 0.948348 0.0328702
vt 1 0.0376249
vt 0.980458 0.0331394
vt 0.996959 0.0256276
vt 0.961696 0.0419927
vt 0.955994 0.036755
vt 0.987277 0.015128
vt 0.989787 0.0170338
vt 0.978804 0.0105991
vt 0.964711 0.0478892
vt 0.963261 0.048311
vt 0.943695 0.0540022
vt 0.930302 0.0578976
vt 1 0.962375
vt 0.964699 0.952107
vt 0.963261 0.951689
vt 0.943695 0.945998
vt 0.930302 0.942102
vt 0.921872 0.93965
vt 0.998886 0.969799
vt 0.996974 0.974344
vt 0.980588 0.966649
vt 0.961791 0.957866
vt 0.955104 0.993761
vt 0.948334 0.982739
vt 0.9614 0.979958
vt 0.972546 0.991494
vt 0.948539 0.96705
vt 0.956147 0.963127
vt 0.987581 0.984659
vt 0.984822 0.986443
vt 0.993931 0.978837
vt 0.939493 0.968342
vt 0.931165 0.954781
vt 0.925462 0.945496
vt 0.0510917 1
vt 0.0582414 0.988358
vt 0.0681371 0.972245
vt 0.0881549 0.93965
vt 0.993922 0.967709
vt 0.988959 0.979952
vt 0.987197 0.982706
vt 0.981436 0.989056
vt 0.976982 0.992108
vt 0.972467 0.994035
vt 0.965086 0.995181
vt 0.0448044 1
vt 0.0328493 0.997036
vt 0.0242595 0.989943
vt 0.0223501 0.987456
vt 0.0177988 0.979047
vt 0.015661 0.972749
vt 0.014229 0.966092
vt 0.0133358 0.955484
vt 0.00241691 0.0558746
vt 0.00341779 0.041894
vt 0.00464046 0.0359484
vt 0.00738576 0.0276151
vt 0.0146912 0.0155089
vt 0.0230241 0.00853065
vt 0.0250873 0.00745583
vt 0.0366911 0.00484908
vt 0.0416234 0.0307193
vt 0.958115 0.0259205
vt 0.96278 0
vt 0.974408 0.00248516
vt 0.976481 0.00353828
vt 0.98489 0.0104288
vt 0.992318 0.022458
vt 0.995154 0.0307621
vt 0.996438 0.0366945
vt 0.997583 0.0506638
vt 0.996087 0.950338
vt 0 0.965292
vt 0.0188474 0.95981
vt 0.0216845 0.970531
vt 0.0036276 0.979044
vt 0.00255844 0.976965
vt 0.0306041 0.979257
vt 0.0105957 0.987454
vt 0.043283 0.985395
vt 0.0310815 0.997661
vt 0.0227222 0.994858
vt 0.0370493 0.998921
vt 0.0490465 0.966565
vt 0.0576983 0.970952
vt 0.0426711 0.258503
vt 0.0449421 0.212006
vt 0.0825904 0.00340934
vt 0.0853719 0.000852542
vt 0.0867633 0.000213161
vt 0.0881549 5.55112e-16
vt 0.0284387 0.95702
vt 0.0449421 0.95222
vt 0.0426711 0.960611
vt 0.0849551 0.9339
vt 0.0849454 0.933906
vt 0.0735583 0.940665
vt 0.0624586 0.9472
vt 0.0612797 0.0524425
vt 0.0536021 0.94994
vt 0.0407335 0.954261
vt 0.0407352 0.0457393
vt 0.0541485 0.0502331
vt 0.533166 0.0457393
vt 0.533124 0.954261
vt 0.384839 0.956269
vt 0.00639988 0.960472
vt 0.00639988 0.0395282
vt 0.376719 0.043629
vt 0.0881549 0.9339
vt 0.911845 0.0196339
vt 0.911845 5.55112e-16
vt 0.913237 0.000213161
vt 0.913221 0.022505
vt 0.914628 0.000852542
vt 0.914597 0.0255815
vt 0.91741 0.00340934
vt 0.917348 0.032355
vt 0.923536 0.0150742
vt 0.955058 0.212006
vt 0.959266 0.466876
vt 0.946398 0.217649
vt 0.937541 0.108605
vt 0.971561 0.417693
vt 0.964609 0.615161
vt 0.981153 0.576785
vt 1 1
vt 0.973979 0.9936
vt 0.0867789 0.940053
vt 0.0854031 0.940457
vt 0.0826524 0.941264
vt 0.980366 0.93965
vt 1 0.9339
vt 1 0.93965
mtllib laptop_body.mtl
usemtl Default
g Default
f 1/1/1 2/2/2 3/3/3 4/4/4 5/5/5
f 5/5/5 4/4/4 6/6/6 7/7/7 8/8/8
f 7/7/7 6/6/6 9/9/9 10/10/10
f 9/11/11 6/12/12 11/13/13 12/14/14 13/15/15 14/16/16 15/17/17
f 16/18/18 17/19/19 18/20/20 19/21/21 20/22/22
f 19/21/21 18/20/20 21/23/23 22/24/24 23/25/25
f 22/24/24 21/23/23 24/26/26 25/27/27
f 25/27/27 24/26/26 3/28/28 2/29/29 26/30/30
f 21/23/23 27/31/31 11/13/13 24/26/26
f 11/13/13 27/31/31 12/14/14
f 28/32/32 29/33/33 12/14/14
f 17/19/19 29/33/33 28/32/32 18/20/20
f 24/26/26 11/13/13 6/12/12 4/34/34 3/28/28
f 12/14/14 27/31/31 28/32/32
f 18/20/20 28/32/32 27/31/31 21/23/23
f 13/35/35 12/36/36 30/37/36
f 30/14/37 31/38/38 32/39/38 33/40/39 14/16/40 13/15/41
f 31/41/42 30/42/42 12/43/42
f 16/18/43 34/44/44 35/45/45 29/33/46 17/19/47
f 29/33/46 35/45/45 36/46/48 37/47/49
f 29/33/46 37/47/49 38/48/50 39/49/51 12/14/51
f 34/44/52 40/50/53 41/51/54 42/52/55 35/45/56
f 35/45/56 42/52/55 43/53/57 36/46/58
f 36/46/58 43/53/57 39/49/59 38/48/60 37/47/61
f 44/54/62 45/55/63 46/56/64
f 46/56/64 45/55/63 47/57/65 48/58/66 49/59/67 50/60/68
f 49/59/67 48/58/66 43/53/57 42/52/55 41/51/54 51/61/69
f 43/53/57 48/58/66 39/49/59
f 47/57/65 52/62/70 53/63/71 54/64/72 55/65/73 39/49/59
f 44/54/62 52/62/70 47/57/65 45/55/63
f 39/49/59 48/58/66 47/57/65
f 44/54/74 56/66/74 57/67/75 58/68/76 53/63/76 52/62/77
f 53/63/76 58/68/76 59/69/78 60/70/79 61/71/38 39/49/38 55/65/79 54/64/78
f 56/66/80 62/72/81 63/73/82 64/74/83
f 56/66/80 64/74/83 65/75/84 57/67/85
f 57/67/85 65/75/84 61/71/86 60/70/87 59/69/88 58/68/89
f 66/76/90 67/77/91 68/78/92 69/79/93
f 69/79/93 68/78/92 70/80/94 71/81/95 72/82/96 73/83/97
f 72/82/96 71/81/95 65/75/84 64/74/83 63/73/82 74/84/98
f 65/75/84 71/81/95 61/71/86
f 70/80/94 75/85/99 76/86/100 77/87/101 61/71/86
f 67/77/91 75/85/99 70/80/94 68/78/92
f 61/71/86 71/81/95 70/80/94
f 66/76/102 78/88/103 79/89/104 80/90/105 67/77/106
f 67/77/106 80/90/105 75/85/107
f 75/85/107 80/90/105 81/91/38 61/71/38 77/87/108 76/86/109
f 83/126/111 90/127/112 91/128/113 85/129/114 84/130/115
f 85/129/114 91/128/113 92/131/116 86/132/117
f 86/132/117 92/131/116 93/133/118 88/134/119 87/135/120
f 88/134/119 93/133/118 79/89/121 78/88/122 89/136/123
f 92/131/116 94/137/124 95/138/125 93/133/118
f 95/138/125 94/137/124 81/91/126
f 96/139/127 97/140/128 98/9/129 99/141/130 100/142/131 101/143/132 81/144/126
f 90/127/112 102/145/133 97/146/128 96/147/127 91/128/113
f 81/91/126 80/90/134 95/138/125
f 93/133/118 95/138/125 80/90/134 79/89/121
f 81/91/126 94/137/124 96/147/127
f 91/128/113 96/147/127 94/137/124 92/131/116
f 32/39/126 103/148/126 104/149/135 105/150/136 106/151/137 10/152/138 9/11/139 15/17/140 14/16/141 33/40/142
f 10/152/138 106/151/137 107/153/143 108/154/144 8/155/145 7/156/146
f 8/157/145 108/158/144 109/159/147 82/160/148 1/161/148 5/162/149
f 103/148/38 32/39/38 31/38/38 12/14/38 39/49/38 61/71/38 81/91/38 110/163/38
f 111/164/150 81/165/150 101/166/151 112/167/152
f 112/167/152 101/166/151 100/168/153 113/169/154
f 113/169/154 100/168/153 99/170/155 114/171/156
f 114/171/156 99/170/155 98/172/157 97/173/158 108/174/159 107/175/160 106/176/161
f 108/174/159 97/173/158 102/177/162 109/178/163
f 109/178/163 102/177/162 90/179/164 83/180/165 82/181/166
f 103/148/38 110/163/38 111/91/167 112/182/168 113/183/169 105/150/170 104/149/171
f 105/150/170 113/183/169 114/184/172 106/151/173
f 111/185/42 110/186/42 81/187/42
usemtl image_
f 69/92/110 73/93/110 72/94/110 74/95/110 63/96/110 62/97/110 56/98/110 44/99/110 46/100/110 50/101/110 49/102/110 51/103/110 41/104/110 40/105/110 34/106/110 16/107/110 20/108/110 19/109/110 23/110/110 22/111/110 25/112/110 26/113/110 2/114/110 1/115/110 82/116/110 83/117/110 84/118/110 85/119/110 86/120/110 87/121/110 88/122/110 89/123/110 78/124/110 66/125/110
