# OBJ written from /Users/tosh/Documents/GitHub/portfolio/src/lib/theatre/obj/laptop_body2.obj
# Units	meters

o Mesh
mtllib laptop_body2.mtl

o Solid_1
v 6.38987 14.14 1.38547
v 6.38987 14.14 0.848433
v -7.87033 14.14 0.848433
v -7.87033 14.14 1.38547
v -8.00307 14.1303 0.848433
v -8.00307 14.1303 1.38547
v -8.13254 14.1014 0.848433
v -8.13254 14.1014 1.38547
v -8.25556 14.054 0.848433
v -8.25556 14.054 1.38547
v -8.36909 13.9894 0.848433
v -8.36909 13.9894 1.38547
v -8.47033 13.909 0.848433
v -8.47033 13.909 1.38547
v -8.55681 13.8149 0.848433
v -8.55681 13.8149 1.38547
v -8.62638 13.7094 0.848433
v -8.62638 13.7094 1.38547
v -8.67733 13.595 0.848433
v -8.67733 13.595 1.38547
v -8.70842 13.4747 0.848433
v -8.70842 13.4747 1.38547
v -8.71886 13.3513 0.848433
v -8.71886 13.3513 1.38547
v -8.71886 -8.27778 0.848433
v -8.71886 -8.27778 1.38547
v -8.70842 -8.40116 0.848433
v -8.70842 -8.40116 1.38547
v -8.67733 -8.5215 0.848433
v -8.67733 -8.5215 1.38547
v -8.62638 -8.63584 0.848433
v -8.62638 -8.63584 1.38547
v -8.55681 -8.74136 0.848433
v -8.55681 -8.74136 1.38547
v -8.47033 -8.83547 0.848433
v -8.47033 -8.83547 1.38547
v -8.36909 -8.91584 0.848433
v -8.36909 -8.91584 1.38547
v -8.25556 -8.98051 0.848433
v -8.25556 -8.98051 1.38547
v -8.13254 -9.02787 0.848433
v -8.13254 -9.02787 1.38547
v -8.00307 -9.05676 0.848433
v -8.00307 -9.05676 1.38547
v -7.87033 -9.06647 0.848433
v -7.87033 -9.06647 1.38547
v 6.38987 -9.06647 0.848433
v 6.38987 -9.06647 1.38547
v 7.23841 13.3513 0.848433
v 7.07635 13.8149 0.848433
v 7.14593 13.7094 0.848433
v 6.52261 14.1303 0.848433
v 6.65209 14.1014 0.848433
v 7.19688 -8.5215 0.848433
v 6.98988 -8.83547 0.848433
v 6.88863 -8.91584 0.848433
v 7.14593 -8.63584 0.848433
v 7.19688 13.595 0.848433
v 6.88863 13.9894 0.848433
v 6.98988 13.909 0.848433
v 7.23841 -8.27778 0.848433
v 6.7751 -8.98051 0.848433
v 6.65209 -9.02787 0.848433
v 7.07635 -8.74136 0.848433
v 7.22796 -8.40116 0.848433
v 6.7751 14.054 0.848433
v 6.52261 -9.05676 0.848433
v 7.22796 13.4747 0.848433
v 6.52261 -9.05676 1.38547
v 6.65209 -9.02787 1.38547
v 6.7751 -8.98051 1.38547
v 6.88863 -8.91584 1.38547
v 6.98988 -8.83547 1.38547
v 7.07635 -8.74136 1.38547
v 7.14593 -8.63584 1.38547
v 7.19688 -8.5215 1.38547
v 7.22796 -8.40116 1.38547
v 7.23841 -8.27778 1.38547
v 7.23841 13.3513 1.38547
v 7.22796 13.4747 1.38547
v 7.19688 13.595 1.38547
v 7.14593 13.7094 1.38547
v 7.07635 13.8149 1.38547
v 6.98988 13.909 1.38547
v 6.88863 13.9894 1.38547
v 6.7751 14.054 1.38547
v 6.65209 14.1014 1.38547
v 6.52261 14.1303 1.38547
v 6.57682 11.6991 1.38547
v 7.23841 11.6991 1.38547
v 6.57682 -6.20713 1.38547
v 7.23841 -6.20713 1.38547
v 7.23841 11.6991 1.01674
v 7.23841 -6.20713 1.01674
v 7.17432 -6.20713 1.09258
v 7.17432 11.6991 1.09258
vn 0 1 0
vn -0.156434 0.987688 0
vn -0.309017 0.951057 0
vn -0.45399 0.891007 0
vn -0.587785 0.809017 0
vn -0.707107 0.707107 0
vn -0.809017 0.587785 0
vn -0.891007 0.45399 0
vn -0.951057 0.309017 0
vn -0.987688 0.156434 0
vn -1 1.22465e-16 0
vn -0.987688 -0.156434 0
vn -0.951057 -0.309017 0
vn -0.891007 -0.45399 0
vn -0.809017 -0.587785 0
vn -0.707107 -0.707107 0
vn -0.587785 -0.809017 0
vn -0.45399 -0.891007 0
vn -0.309017 -0.951057 0
vn -0.156434 -0.987688 0
vn -1.83697e-16 -1 0
vn 0 0 -1
vn 0.156434 -0.987688 0
vn 0.309017 -0.951057 0
vn 0.45399 -0.891007 0
vn 0.587785 -0.809017 0
vn 0.707107 -0.707107 0
vn 0.809017 -0.587785 0
vn 0.891007 -0.45399 0
vn 0.951057 -0.309017 0
vn 0.987688 -0.156434 0
vn 1 -2.44929e-16 0
vn 0.987688 0.156434 0
vn 0.951057 0.309017 0
vn 0.891007 0.45399 0
vn 0.809017 0.587785 0
vn 0.707107 0.707107 0
vn 0.587785 0.809017 0
vn 0.45399 0.891007 0
vn 0.309017 0.951057 0
vn 0.156434 0.987688 0
vn 6.12323e-17 1 0
vn 0 0 1
vn 1 0 0
vn 0 -1 0
vn 0.707107 0 0.707107
vn 0.382683 0 0.92388
vt 0.988651 0.940884
vt 0.00375077 0.940884
vt 0.00375077 0.056172
vt 0.988651 0.056172
vt 0.00375077 0.0479367
vt 0.988651 0.0479367
vt 0.00375077 0.0399042
vt 0.988651 0.0399042
vt 0.00375077 0.0322722
vt 0.988651 0.0322722
vt 0.00375077 0.0252287
vt 0.988651 0.0252287
vt 0.00375077 0.0189473
vt 0.978847 0.00352821
vt 0.978847 0.993528
vt 0.974853 0.993528
vt 0.974853 0.00352821
vt 0.970374 0.993528
vt 0.970374 0.00352821
vt 0.965522 0.993528
vt 0.965522 0.00352821
vt 0.960415 0.993528
vt 0.960415 0.00352821
vt 0.955178 0.993528
vt 0.955178 0.00352821
vt 0.988651 0.0189473
vt 0.0372233 0.993528
vt 0.0372233 0.00352821
vt 0.031987 0.993528
vt 0.031987 0.00352821
vt 0.0268797 0.993528
vt 0.0268797 0.00352821
vt 0.0220271 0.993528
vt 0.0220271 0.00352821
vt 0.0175486 0.993528
vt 0.0175486 0.00352821
vt 0.0135546 0.993528
vt 0.988651 0.978109
vt 0.00375077 0.978109
vt 0.00375077 0.971828
vt 0.988651 0.971828
vt 0.00375077 0.964784
vt 0.988651 0.964784
vt 0.00375077 0.957152
vt 0.988651 0.957152
vt 0.00375077 0.94912
vt 0.988651 0.94912
vt 0.0135546 0.00352821
vt 0.00375077 0.0561719
vt 0.988651 0.0561719
vt 0.974853 0.983474
vt 0.970374 0.98779
vt 0.988239 0.94912
vt 0.987012 0.957152
vt 0.985002 0.0322722
vt 0.987012 0.0399042
vt 0.965522 0.00610476
vt 0.970374 0.00926609
vt 0.0268797 0.990952
vt 0.0135546 0.978109
vt 0.0101435 0.971828
vt 0.0220271 0.98779
vt 0.965522 0.990952
vt 0.982258 0.971828
vt 0.978847 0.978109
vt 0.988239 0.0479367
vt 0.974853 0.0135822
vt 0.978847 0.0189473
vt 0.960415 0.00417625
vt 0.0220271 0.00926609
vt 0.0268797 0.00610476
vt 0.0135546 0.0189473
vt 0.0175486 0.0135822
vt 0.00739903 0.0322722
vt 0.0101435 0.0252287
vt 0.00739903 0.964784
vt 0.00538906 0.957152
vt 0.0175486 0.983474
vt 0.031987 0.99288
vt 0.985002 0.964784
vt 0.982258 0.0252287
vt 0.00538906 0.0399042
vt 0.00416292 0.94912
vt 0.00416292 0.0479367
vt 0.960415 0.99288
vt 0.031987 0.00417625
vt 0.00375077 0.0189472
vt 0.988651 0.0189472
vt 0.988651 0.978109
vt 0.00375077 0.978109
vt 0.885056 0.0445738
vt 0.970374 0.98779
vt 0.978847 0.0189472
vt 0.970374 0.00926597
vt 0.0135546 0.978109
vt 0.0220271 0.98779
vt 0.978847 0.978109
vt 0.0135546 0.0189472
vt 0.0220271 0.00926597
vt 0.885056 0.00352821
vt 0.125103 0.0445738
vt 0.125103 0.00352821
vt 0.885056 0.313789
vt 0.125103 0.313789
vt 0.885056 0.993528
vt 0.125103 0.993528
vt 0.988651 0.993528
vt 0.312414 0.993528
vt 0.451503 0.989552
vt 0.988651 0.952483
vt 0.988651 0.00352821
vt 0.988651 0.0445738
vt 0.451503 0.00750409
vt 0.312414 0.00352821
vt 0.885056 0.453599
vt 0.125103 0.453599
vt 0.885056 0.00750409
vt 0.125103 0.00750409
mtllib laptop_body2.mtl
usemtl Default
g Default
f 1/1/1 2/2/1 3/3/1
f 3/3/1 4/4/1 1/1/1
f 4/4/1 3/3/1 5/5/2
f 6/6/2 5/5/2 7/7/3
f 8/8/3 7/7/3 9/9/4
f 10/10/4 9/9/4 11/11/5
f 12/12/5 11/11/5 13/13/6
f 14/14/6 13/15/6 15/16/7
f 16/17/7 15/16/7 17/18/8
f 18/19/8 17/18/8 19/20/9
f 20/21/9 19/20/9 21/22/10
f 22/23/10 21/22/10 23/24/11
f 23/24/11 24/25/11 22/23/10
f 21/22/10 22/23/10 20/21/9
f 19/20/9 20/21/9 18/19/8
f 17/18/8 18/19/8 16/17/7
f 15/16/7 16/17/7 14/14/6
f 13/13/6 14/26/6 12/12/5
f 11/11/5 12/12/5 10/10/4
f 9/9/4 10/10/4 8/8/3
f 7/7/3 8/8/3 6/6/2
f 5/5/2 6/6/2 4/4/1
f 24/25/11 23/24/11 25/27/11
f 25/27/11 26/28/11 24/25/11
f 26/28/11 25/27/11 27/29/12
f 28/30/12 27/29/12 29/31/13
f 30/32/13 29/31/13 31/33/14
f 32/34/14 31/33/14 33/35/15
f 34/36/15 33/35/15 35/37/16
f 36/38/16 35/39/16 37/40/17
f 38/41/17 37/40/17 39/42/18
f 40/43/18 39/42/18 41/44/19
f 42/45/19 41/44/19 43/46/20
f 44/47/20 43/46/20 45/2/21
f 45/2/21 46/1/21 44/47/20
f 43/46/20 44/47/20 42/45/19
f 41/44/19 42/45/19 40/43/18
f 39/42/18 40/43/18 38/41/17
f 37/40/17 38/41/17 36/38/16
f 35/37/16 36/48/16 34/36/15
f 33/35/15 34/36/15 32/34/14
f 31/33/14 32/34/14 30/32/13
f 29/31/13 30/32/13 28/30/12
f 27/29/12 28/30/12 26/28/11
f 47/49/21 48/50/21 46/1/21
f 46/1/21 45/2/21 47/49/21
f 49/24/22 50/51/22 51/52/22
f 49/24/22 52/53/22 53/54/22
f 23/25/22 9/55/22 7/56/22
f 23/25/22 19/57/22 17/58/22
f 54/59/22 55/60/22 56/61/22
f 55/60/22 54/59/22 57/62/22
f 49/24/22 59/64/22 60/65/22
f 49/24/22 2/1/22 52/53/22
f 7/56/22 5/66/22 23/25/22
f 23/25/22 15/67/22 13/68/22
f 23/25/22 21/69/22 19/57/22
f 25/28/22 31/70/22 29/71/22
f 25/28/22 35/72/22 33/73/22
f 25/28/22 39/74/22 37/75/22
f 61/27/22 62/76/22 63/77/22
f 57/62/22 64/78/22 55/60/22
f 62/76/22 61/27/22 65/79/22
f 60/65/22 50/51/22 49/24/22
f 53/54/22 66/80/22 49/24/22
f 23/25/22 11/81/22 9/55/22
f 17/58/22 15/67/22 23/25/22
f 33/73/22 31/70/22 25/28/22
f 25/28/22 41/82/22 39/74/22
f 63/77/22 67/83/22 61/27/22
f 65/79/22 54/59/22 62/76/22
f 47/2/22 2/1/22 49/24/22
f 66/80/22 59/64/22 49/24/22
f 13/68/22 11/81/22 23/25/22
f 3/4/22 45/3/22 25/28/22
f 37/75/22 35/72/22 25/28/22
f 25/28/22 45/3/22 43/84/22
f 56/61/22 62/76/22 54/59/22
f 25/28/22 23/25/22 3/4/22
f 43/84/22 41/82/22 25/28/22
f 49/24/22 61/27/22 47/2/22
f 3/4/22 2/1/22 47/2/22
f 29/71/22 27/86/22 25/28/22
f 47/2/22 45/3/22 3/4/22
f 67/83/22 47/2/22 61/27/22
f 5/66/22 3/4/22 23/25/22
f 48/50/21 47/49/21 67/5/23
f 69/6/23 67/5/23 63/7/24
f 70/8/24 63/7/24 62/9/25
f 71/10/25 62/9/25 56/11/26
f 72/12/26 56/11/26 55/87/27
f 73/37/27 55/48/27 64/36/28
f 74/35/28 64/36/28 57/34/29
f 75/33/29 57/34/29 54/32/30
f 76/31/30 54/32/30 65/30/31
f 77/29/31 65/30/31 61/28/32
f 61/28/32 78/27/32 77/29/31
f 65/30/31 77/29/31 76/31/30
f 54/32/30 76/31/30 75/33/29
f 57/34/29 75/33/29 74/35/28
f 64/36/28 74/35/28 73/37/27
f 55/87/27 73/88/27 72/12/26
f 56/11/26 72/12/26 71/10/25
f 62/9/25 71/10/25 70/8/24
f 63/7/24 70/8/24 69/6/23
f 67/5/23 69/6/23 48/50/21
f 79/24/32 49/25/32 68/23/33
f 80/22/33 68/23/33 58/21/34
f 81/20/34 58/21/34 51/19/35
f 82/18/35 51/19/35 50/17/36
f 83/16/36 50/17/36 60/14/37
f 84/89/37 60/90/37 59/40/38
f 85/41/38 59/40/38 66/42/39
f 86/43/39 66/42/39 53/44/40
f 87/45/40 53/44/40 52/46/41
f 88/47/41 52/46/41 2/2/42
f 2/2/42 1/1/42 88/47/41
f 52/46/41 88/47/41 87/45/40
f 53/44/40 87/45/40 86/43/39
f 66/42/39 86/43/39 85/41/38
f 59/40/38 85/41/38 84/89/37
f 60/14/37 84/15/37 83/16/36
f 50/17/36 83/16/36 82/18/35
f 51/19/35 82/18/35 81/20/34
f 58/21/34 81/20/34 80/22/33
f 68/23/33 80/22/33 79/24/32
f 49/25/44 93/103/44 94/104/44
f 79/24/44 90/105/44 93/103/44
f 78/27/44 61/28/44 94/104/44
f 93/103/44 49/25/44 79/24/44
f 94/104/44 61/28/44 49/25/44
f 94/104/44 92/106/44 78/27/44
f 96/115/46 95/116/46 94/104/46
usemtl image_
f 51/52/22 58/63/22 49/24/22
f 58/63/22 68/85/22 49/24/22
f 86/55/43 87/56/43 88/66/43
f 89/91/43 20/63/43 22/85/43
f 89/91/43 16/51/43 18/92/43
f 89/91/43 6/53/43 8/54/43
f 1/50/43 85/81/43 86/55/43
f 1/50/43 83/67/43 84/93/43
f 1/50/43 81/57/43 82/94/43
f 1/50/43 79/25/43 80/69/43
f 26/27/43 36/95/43 38/61/43
f 26/27/43 32/96/43 34/78/43
f 26/27/43 28/79/43 30/59/43
f 18/92/43 20/63/43 89/91/43
f 89/91/43 12/64/43 14/97/43
f 89/91/43 4/1/43 6/53/43
f 73/98/43 74/73/43 75/99/43
f 76/71/43 71/74/43 72/75/43
f 84/93/43 85/81/43 1/50/43
f 80/69/43 81/57/43 1/50/43
f 26/27/43 44/83/43 46/2/43
f 38/61/43 40/76/43 26/27/43
f 30/59/43 32/96/43 26/27/43
f 14/97/43 16/51/43 89/91/43
f 8/54/43 10/80/43 89/91/43
f 71/74/43 76/71/43 77/86/43
f 72/75/43 73/98/43 76/71/43
f 78/28/43 69/84/43 70/82/43
f 82/94/43 83/67/43 1/50/43
f 89/91/43 90/100/43 79/25/43
f 26/27/43 42/77/43 44/83/43
f 34/78/43 36/95/43 26/27/43
f 24/24/43 26/27/43 91/101/43
f 10/80/43 12/64/43 89/91/43
f 75/99/43 76/71/43 73/98/43
f 78/28/43 48/49/43 69/84/43
f 79/25/43 1/50/43 89/91/43
f 40/76/43 42/77/43 26/27/43
f 22/85/43 24/24/43 89/91/43
f 70/82/43 71/74/43 78/28/43
f 88/66/43 1/50/43 86/55/43
f 91/101/43 89/91/43 24/24/43
f 78/28/43 92/102/43 91/101/43
f 78/28/43 46/2/43 48/49/43
f 46/2/43 91/101/43 26/27/43
f 77/86/43 78/28/43 71/74/43
f 91/101/43 46/2/43 78/28/43
f 1/50/43 4/1/43 89/91/43
f 92/107/1 94/108/1 95/109/1
f 95/109/1 91/110/1 92/107/1
f 90/111/45 89/112/45 96/113/45
f 96/113/45 93/114/45 90/111/45
f 94/104/46 93/103/46 96/115/46
f 96/117/47 89/91/47 91/101/47
f 91/101/47 95/118/47 96/117/47
