# OBJ written from /Users/tosh/Documents/GitHub/portfolio/src/lib/theatre/phone.obj
# Units	meters

o Mesh
mtllib phone.mtl

o obudowa
v 3.16518 10.2268 0.805179
v 3.16518 10.2268 0.669347
v 3.45411 10.5157 0.669347
v 3.45411 10.5157 0.805179
v 3.8084 10.6625 0.669347
v 3.8084 10.6625 0.805179
v 11.2943 10.6625 0.669347
v 11.2943 10.6625 0.805179
v 3.76812 10.865 0.786999
v 3.3394 10.6874 0.786999
v 3.72913 11.061 0.733041
v 3.22835 10.8536 0.733041
v 11.6486 10.5157 0.669347
v 11.6486 10.5157 0.805179
v 11.3346 10.865 0.786999
v 11.3735 11.061 0.733041
v 11.9375 10.2268 0.669347
v 11.9375 10.2268 0.805179
v 11.7633 10.6874 0.786999
v 11.8743 10.8536 0.733041
v 11.3735 11.061 0
v 3.72913 11.061 0
v 3.22835 10.8536 0
v 2.82731 10.4525 0.733041
v 2.82731 10.4525 0
v 11.8743 10.8536 0
v 12.2754 10.4525 0.733041
v 12.2754 10.4525 0
v 12.1092 10.3415 0.786999
v 12.0842 9.87248 0.669347
v 12.0842 9.87248 0.805179
v 12.4828 9.95176 0.733041
v 12.4828 9.95176 0
v 12.2868 9.91276 0.786999
v 12.0842 -9.90578 0.669347
v 12.0842 -9.90578 0.805179
v 12.4828 -9.98506 0.733041
v 12.4828 -9.98506 0
v 12.2868 -9.94606 0.786999
v 11.9375 -10.2601 0.669347
v 11.9375 -10.2601 0.805179
v 12.2754 -10.4858 0.733041
v 12.2754 -10.4858 0
v 12.1092 -10.3748 0.786999
v 11.6486 -10.549 0.669347
v 11.6486 -10.549 0.805179
v 11.8743 -10.8869 0.733041
v 11.8743 -10.8869 0
v 11.7633 -10.7207 0.786999
v 11.2943 -10.6958 0.669347
v 11.2943 -10.6958 0.805179
v 11.3735 -11.0943 0.733041
v 11.3735 -11.0943 0
v 11.3346 -10.8983 0.786999
v 3.8084 -10.6958 0.669347
v 3.8084 -10.6958 0.805179
v 3.72913 -11.0943 0.733041
v 3.72913 -11.0943 0
v 3.76812 -10.8983 0.786999
v 3.45411 -10.549 0.669347
v 3.45411 -10.549 0.805179
v 3.22835 -10.8869 0.733041
v 3.22835 -10.8869 0
v 3.3394 -10.7207 0.786999
v 3.16518 -10.2601 0.669347
v 3.16518 -10.2601 0.805179
v 3.01843 9.87248 0.669347
v 3.01843 -9.90578 0.669347
v 3.01843 -9.90578 0.805179
v 2.82731 -10.4858 0.733041
v 2.9935 -10.3748 0.786999
v 3.01843 9.87248 0.805179
v 2.9935 10.3415 0.786999
v 2.81591 9.91276 0.786999
v 2.61988 9.95176 0.733041
v 2.82731 -10.4858 0
v 2.61988 -9.98506 0.733041
v 2.81591 -9.94606 0.786999
v 2.61988 9.95176 0
v 2.61988 -9.98506 0
vn 0.707107 -0.707107 0
vn 0.382683 -0.92388 0
vn -2.44929e-16 -1 0
vn -1.08405e-16 2.61714e-16 1
vn -0.0681594 0.164551 0.984011
vn -0.134139 0.323841 0.936554
vn -0.382683 -0.92388 0
vn 2.99952e-32 1.22465e-16 1
vn 4.36242e-17 0.178109 0.984011
vn 8.58533e-17 0.350523 0.936554
vn -0.707107 -0.707107 0
vn -3.58974e-17 -1.59193e-16 1
vn 0.0681594 0.164551 0.984011
vn 0.134139 0.323841 0.936554
vn 2.44929e-16 1 0
vn -0.382683 0.92388 0
vn -0.707107 0.707107 0
vn 0.382683 0.92388 0
vn 0.707107 0.707107 0
vn -5.84739e-16 -5.84739e-16 1
vn 0.125942 0.125942 0.984011
vn 0.247857 0.247857 0.936554
vn -0.92388 -0.382683 0
vn 0.92388 0.382683 0
vn -3.71846e-16 -1.02738e-16 1
vn 0.164551 0.0681594 0.984011
vn 0.323841 0.134139 0.936554
vn -1 2.44929e-16 0
vn 1 -2.44929e-16 0
vn 1.22465e-16 -2.99952e-32 1
vn 0.178109 -4.36242e-17 0.984011
vn 0.350523 -8.58533e-17 0.936554
vn -0.92388 0.382683 0
vn 0.92388 -0.382683 0
vn 0.323841 -0.134139 0.936554
vn 0.164551 -0.0681594 0.984011
vn 5.65713e-17 -2.34326e-17 1
vn 0.247857 -0.247857 0.936554
vn 0.125942 -0.125942 0.984011
vn 8.28344e-16 -8.28344e-16 1
vn 0.134139 -0.323841 0.936554
vn 0.0681594 -0.164551 0.984011
vn 5.33269e-16 -1.28743e-15 1
vn -8.58533e-17 -0.350523 0.936554
vn -4.36242e-17 -0.178109 0.984011
vn 0 0 1
vn -0.134139 -0.323841 0.936554
vn -0.0681594 -0.164551 0.984011
vn 1.46513e-16 3.53714e-16 1
vn -0.247857 -0.247857 0.936554
vn -0.125942 -0.125942 0.984011
vn -6.71335e-16 -6.71335e-16 1
vn -6.71335e-16 6.71335e-16 1
vn -0.125942 0.125942 0.984011
vn -0.247857 0.247857 0.936554
vn -6.71929e-17 -2.21021e-18 1
vn -0.164551 0.0681594 0.984011
vn -0.323841 0.134139 0.936554
vn -0.323841 -0.134139 0.936554
vn -0.164551 -0.0681594 0.984011
vn -6.09709e-17 -1.2811e-17 1
vn 0 0 -1
vn -0.178109 4.36242e-17 0.984011
vn -0.350523 8.58533e-17 0.936554
mtllib phone.mtl
usemtl Default
g Default
f 1//1 2//1 3//1 4//1
f 4//2 3//2 5//2 6//2
f 6//3 5//3 7//3 8//3
f 4//4 6//4 9//5 10//5
f 10//5 9//5 11//6 12//6
f 8//7 7//7 13//7 14//7
f 6//8 8//8 15//9 9//9
f 9//9 15//9 16//10 11//10
f 14//11 13//11 17//11 18//11
f 8//12 14//12 19//13 15//13
f 15//13 19//13 20//14 16//14
f 11//15 16//15 21//15 22//15
f 12//16 11//16 22//16 23//16
f 24//17 12//17 23//17 25//17
f 16//18 20//18 26//18 21//18
f 20//19 27//19 28//19 26//19
f 14//20 18//20 29//21 19//21
f 19//21 29//21 27//22 20//22
f 18//23 17//23 30//23 31//23
f 27//24 32//24 33//24 28//24
f 18//25 31//25 34//26 29//26
f 29//26 34//26 32//27 27//27
f 31//28 30//28 35//28 36//28
f 32//29 37//29 38//29 33//29
f 31//30 36//30 39//31 34//31
f 34//31 39//31 37//32 32//32
f 36//33 35//33 40//33 41//33
f 37//34 42//34 43//34 38//34
f 42//35 37//35 39//36 44//36
f 44//36 39//36 36//37 41//37
f 41//17 40//17 45//17 46//17
f 42//1 47//1 48//1 43//1
f 47//38 42//38 44//39 49//39
f 49//39 44//39 41//40 46//40
f 46//16 45//16 50//16 51//16
f 47//2 52//2 53//2 48//2
f 52//41 47//41 49//42 54//42
f 54//42 49//42 46//43 51//43
f 51//15 50//15 55//15 56//15
f 52//3 57//3 58//3 53//3
f 57//44 52//44 54//45 59//45
f 59//45 54//45 51//46 56//46
f 56//18 55//18 60//18 61//18
f 57//7 62//7 63//7 58//7
f 62//47 57//47 59//48 64//48
f 64//48 59//48 56//49 61//49
f 61//19 60//19 65//19 66//19
f 67//49 68//49 65//49 60//49 55//49 50//49 45//49 40//49 35//49 30//49 17//49 13//49 7//49 5//49 3//49 2//49
f 66//24 65//24 68//24 69//24
f 70//50 62//50 64//51 71//51
f 71//51 64//51 61//52 66//52
f 69//29 68//29 67//29 72//29
f 72//34 67//34 2//34 1//34
f 1//53 4//53 10//54 73//54
f 73//54 10//54 12//55 24//55
f 72//56 1//56 73//57 74//57
f 74//57 73//57 24//58 75//58
f 62//11 70//11 76//11 63//11
f 77//59 70//59 71//60 78//60
f 78//60 71//60 66//61 69//61
f 79//62 25//62 23//62 22//62 21//62 26//62 28//62 33//62 38//62 43//62 48//62 53//62 58//62 63//62 76//62 80//62
f 77//28 75//28 79//28 80//28
f 75//33 24//33 25//33 79//33
f 70//23 77//23 80//23 76//23
f 69//46 72//46 74//63 78//63
f 78//63 74//63 75//64 77//64

o Solid_74
v 7.89924 10.232 0.725054
v 7.85503 10.1657 0.725054
v 7.78894 10.1105 0.725054
v 7.70567 10.0704 0.725054
v 7.61116 10.0482 0.725054
v 7.51216 10.0455 0.725054
v 7.41573 10.0624 0.725054
v 7.32875 10.0979 0.725054
v 7.25743 10.1493 0.725054
v 7.20685 10.213 0.725054
v 7.18063 10.2844 0.725054
v 7.18063 10.3585 0.725054
v 7.20685 10.4299 0.725054
v 7.25743 10.4936 0.725054
v 7.32875 10.545 0.725054
v 7.41573 10.5804 0.725054
v 7.51216 10.5974 0.725054
v 7.61116 10.5947 0.725054
v 7.70567 10.5725 0.725054
v 7.78894 10.5323 0.725054
v 7.85503 10.4772 0.725054
v 7.89924 10.4109 0.725054
v 7.91839 10.3382 0.725054
v 7.91839 10.3046 0.725054
v 7.89924 10.232 0.755019
v 7.91839 10.3046 0.755019
v 7.85503 10.1657 0.755019
v 7.78894 10.1105 0.755019
v 7.70567 10.0704 0.755019
v 7.61116 10.0482 0.755019
v 7.51216 10.0455 0.755019
v 7.41573 10.0624 0.755019
v 7.32875 10.0979 0.755019
v 7.25743 10.1493 0.755019
v 7.20685 10.213 0.755019
v 7.18063 10.2844 0.755019
v 7.18063 10.3585 0.755019
v 7.20685 10.4299 0.755019
v 7.25743 10.4936 0.755019
v 7.32875 10.545 0.755019
v 7.41573 10.5804 0.755019
v 7.51216 10.5974 0.755019
v 7.61116 10.5947 0.755019
v 7.70567 10.5725 0.755019
v 7.78894 10.5323 0.755019
v 7.85503 10.4772 0.755019
v 7.89924 10.4109 0.755019
v 7.91839 10.3382 0.755019
vn 2.71926e-32 -2.22045e-16 -1
vn 0.946514 -0.322663 0
vn 0.998162 -0.0605952 0
vn 0.827334 -0.56171 0
vn 0.649126 -0.760681 0
vn 0.424605 -0.905379 0
vn 0.169789 -0.98548 0
vn -0.0971401 -0.995271 0
vn -0.357139 -0.934051 0
vn -0.591657 -0.80619 0
vn -0.783962 -0.620809 0
vn -0.920333 -0.391135 0
vn -0.991041 -0.133555 0
vn -0.991041 0.133555 0
vn -0.920333 0.391135 0
vn -0.783962 0.620809 0
vn -0.591657 0.80619 0
vn -0.357139 0.934051 0
vn -0.0971401 0.995271 0
vn 0.169789 0.98548 0
vn 0.424605 0.905379 0
vn 0.649126 0.760681 0
vn 0.827334 0.56171 0
vn 0.946514 0.322663 0
vn 0.998162 0.0605952 0
vn 1 1.22465e-16 0
vn -2.71926e-32 2.22045e-16 1
mtllib phone.mtl
usemtl Default
g Default
f 81//65 82//65 83//65 84//65 85//65 86//65 87//65 88//65 89//65 90//65 91//65 92//65 93//65 94//65 95//65 96//65 97//65 98//65 99//65 100//65 101//65 102//65 103//65 104//65
f 105//66 81//66 104//67 106//67
f 107//68 82//68 81//66 105//66
f 108//69 83//69 82//68 107//68
f 109//70 84//70 83//69 108//69
f 110//71 85//71 84//70 109//70
f 111//72 86//72 85//71 110//71
f 112//73 87//73 86//72 111//72
f 113//74 88//74 87//73 112//73
f 114//75 89//75 88//74 113//74
f 115//76 90//76 89//75 114//75
f 116//77 91//77 90//76 115//76
f 117//78 92//78 91//77 116//77
f 118//79 93//79 92//78 117//78
f 119//80 94//80 93//79 118//79
f 120//81 95//81 94//80 119//80
f 121//82 96//82 95//81 120//81
f 122//83 97//83 96//82 121//82
f 123//84 98//84 97//83 122//83
f 124//85 99//85 98//84 123//84
f 125//86 100//86 99//85 124//85
f 126//87 101//87 100//86 125//86
f 127//88 102//88 101//87 126//87
f 128//89 103//89 102//88 127//88
f 106//90 104//90 103//90 128//90
f 127//91 126//91 125//91 124//91 123//91 122//91 121//91 120//91 119//91 118//91 117//91 116//91 115//91 114//91 113//91 112//91 111//91 110//91 109//91 108//91 107//91 105//91 106//91 128//91

o Solid_73
v 7.89941 10.4105 0.755019
v 7.89941 10.4105 0.725192
v 7.91839 10.3382 0.725192
v 7.91839 10.3382 0.755019
v 7.85563 10.4765 0.755019
v 7.85563 10.4765 0.725192
v 7.79015 10.5316 0.755019
v 7.79015 10.5316 0.725192
v 7.7076 10.5718 0.755019
v 7.7076 10.5718 0.725192
v 7.61379 10.5943 0.755019
v 7.61379 10.5943 0.725192
v 7.51535 10.5976 0.755019
v 7.51535 10.5976 0.725192
v 7.41923 10.5814 0.755019
v 7.41923 10.5814 0.725192
v 7.33221 10.5468 0.755019
v 7.33221 10.5468 0.725192
v 7.26043 10.4964 0.755019
v 7.26043 10.4964 0.725192
v 7.20897 10.4335 0.755019
v 7.20897 10.4335 0.725192
v 7.18146 10.3628 0.755019
v 7.18146 10.3628 0.725192
v 7.18146 10.7036 0.755019
v 7.18146 10.7036 0.725192
v 7.91839 10.7036 0.755019
v 7.91839 10.7036 0.725192
vn -0.946977 -0.321301 0
vn -0.998162 -0.0605952 0
vn -0.828948 -0.559326 0
vn -0.652405 -0.757871 0
vn -0.429811 -0.902919 0
vn -0.176877 -0.984233 0
vn 0.0885414 -0.996072 0
vn 0.34771 -0.937602 0
vn 0.582335 -0.812949 0
vn 0.775854 -0.630912 0
vn 0.914608 -0.404341 0
vn 0.988803 -0.149228 0
vn -1 -1.22465e-16 0
vn -1.22465e-16 1 0
vn 1 1.22465e-16 0
vn 2.71926e-32 -2.22045e-16 -1
vn -2.71926e-32 2.22045e-16 1
mtllib phone.mtl
usemtl Default
g Default
f 129//92 130//92 131//93 132//93
f 133//94 134//94 130//92 129//92
f 135//95 136//95 134//94 133//94
f 137//96 138//96 136//95 135//95
f 139//97 140//97 138//96 137//96
f 141//98 142//98 140//97 139//97
f 143//99 144//99 142//98 141//98
f 145//100 146//100 144//99 143//99
f 147//101 148//101 146//100 145//100
f 149//102 150//102 148//101 147//101
f 151//103 152//103 150//102 149//102
f 153//104 154//104 152//104 151//104
f 155//105 156//105 154//105 153//105
f 132//106 131//106 156//106 155//106
f 130//107 134//107 136//107 138//107 140//107 142//107 144//107 146//107 148//107 150//107 152//107 154//107 156//107 131//107
f 149//108 147//108 145//108 143//108 141//108 139//108 137//108 135//108 133//108 129//108 132//108 155//108 153//108 151//108

o ekran
v 3.0159 10.1483 0.682123
v 3.0159 -9.8592 0.682123
v 3.16435 -10.2176 0.682123
v 3.45663 -10.5099 0.682123
v 3.81503 -10.6583 0.682123
v 11.3876 -10.6583 0.682123
v 11.746 -10.5099 0.682123
v 12.0383 -10.2176 0.682123
v 12.1868 -9.8592 0.682123
v 12.1868 10.1483 0.682123
v 12.0383 10.5067 0.682123
v 11.746 10.7989 0.682123
v 11.3876 10.9474 0.682123
v 3.81503 10.9474 0.682123
v 3.45663 10.7989 0.682123
v 3.16435 10.5067 0.682123
vn 0 0 1
vt 0 0.963013
vt 0 0.0369869
vt 0.0161875 0.0203988
vt 0.0480578 0.00687104
vt 0.0871378 0
vt 0.912862 0
vt 0.951942 0.00687104
vt 0.983813 0.0203988
vt 1 0.0369869
vt 1 0.963013
vt 0.983813 0.979601
vt 0.951942 0.993129
vt 0.912862 1
vt 0.0871378 1
vt 0.0480578 0.993129
vt 0.0161875 0.979601
mtllib phone.mtl
usemtl image_
g Default
f 157/1/109 158/2/109 159/3/109 160/4/109 161/5/109 162/6/109 163/7/109 164/8/109 165/9/109 166/10/109 167/11/109 168/12/109 169/13/109 170/14/109 171/15/109 172/16/109
