# OBJ written from /Users/tosh/Documents/GitHub/portfolio/src/lib/theatre/obj/tablet_ekran_.obj
# Units	meters

o ekran_tablet
v 6.57973 10.0213 0.663123
v 6.57973 -9.9862 0.663123
v 6.72818 -10.3446 0.663123
v 6.57973 10.0213 0.663123
v 6.72818 -10.3446 0.663123
v 7.02046 -10.6369 0.663123
v 6.57973 10.0213 0.663123
v 7.02046 -10.6369 0.663123
v 7.37886 -10.7853 0.663123
v 6.57973 10.0213 0.663123
v 7.37886 -10.7853 0.663123
v 21.3514 -10.7853 0.663123
v 6.57973 10.0213 0.663123
v 21.3514 -10.7853 0.663123
v 21.7098 -10.6369 0.663123
v 6.57973 10.0213 0.663123
v 21.7098 -10.6369 0.663123
v 22.0021 -10.3446 0.663123
v 6.57973 10.0213 0.663123
v 22.0021 -10.3446 0.663123
v 22.1506 -9.9862 0.663123
v 6.57973 10.0213 0.663123
v 22.1506 -9.9862 0.663123
v 22.1506 10.0213 0.663123
v 6.57973 10.0213 0.663123
v 22.1506 10.0213 0.663123
v 22.0021 10.3797 0.663123
v 6.57973 10.0213 0.663123
v 22.0021 10.3797 0.663123
v 21.7098 10.6719 0.663123
v 6.57973 10.0213 0.663123
v 21.7098 10.6719 0.663123
v 21.3514 10.8204 0.663123
v 6.57973 10.0213 0.663123
v 21.3514 10.8204 0.663123
v 7.37886 10.8204 0.663123
v 6.57973 10.0213 0.663123
v 7.37886 10.8204 0.663123
v 7.02046 10.6719 0.663123
v 6.57973 10.0213 0.663123
v 7.02046 10.6719 0.663123
v 6.72818 10.3797 0.663123
vn -1.22465e-16 -1.22465e-16 1
vt -6.12473e-09 0.036987
vt -6.12473e-09 0.963013
vt 0.00953406 0.979601
vt 0.0283049 0.993129
vt 0.0513221 1
vt 0.948678 1
vt 0.971695 0.993129
vt 0.990466 0.979601
vt 1 0.963013
vt 1 0.036987
vt 0.990466 0.020399
vt 0.971695 0.00687099
vt 0.948678 0
vt 0.0513221 0
vt 0.0283049 0.00687099
vt 0.00953406 0.020399
mtllib tablet_ekran_.mtl
usemtl Default
g Default
f 1/1/1 2/2/1 3/3/1
f 4/1/1 5/3/1 6/4/1
f 7/1/1 8/4/1 9/5/1
f 10/1/1 11/5/1 12/6/1
f 13/1/1 14/6/1 15/7/1
f 16/1/1 17/7/1 18/8/1
f 19/1/1 20/8/1 21/9/1
f 22/1/1 23/9/1 24/10/1
f 25/1/1 26/10/1 27/11/1
f 28/1/1 29/11/1 30/12/1
f 31/1/1 32/12/1 33/13/1
f 34/1/1 35/13/1 36/14/1
f 37/1/1 38/14/1 39/15/1
f 40/1/1 41/15/1 42/16/1
