o ekran_tablet
v 6.579729834837151 10.021300170898437 0.6631230053901689
v 6.5797298348371545 -9.986199523925782 0.6631230053901663
v 6.728179971021847 -10.344599868774415 0.6631230053901663
v 6.579729834837151 10.021300170898437 0.6631230053901689
v 6.728179971021847 -10.344599868774415 0.6631230053901663
v 7.020459929746822 -10.636900093078614 0.6631230053901663
v 6.579729834837151 10.021300170898437 0.6631230053901689
v 7.020459929746822 -10.636900093078614 0.6631230053901663
v 7.378860036176876 -10.785300399780274 0.6631230053901663
v 6.579729834837151 10.021300170898437 0.6631230053901689
v 7.378860036176876 -10.785300399780274 0.6631230053901663
v 21.35142950181408 -10.785300399780272 0.6631230053901681
v 6.579729834837151 10.021300170898437 0.6631230053901689
v 21.35142950181408 -10.785300399780272 0.6631230053901681
v 21.709829846662714 -10.636900093078612 0.6631230053901681
v 6.579729834837151 10.021300170898437 0.6631230053901689
v 21.709829846662714 -10.636900093078612 0.6631230053901681
v 22.002129117292597 -10.344599868774413 0.6631230053901682
v 6.579729834837151 10.021300170898437 0.6631230053901689
v 22.002129117292597 -10.344599868774413 0.6631230053901682
v 22.15062955979748 -9.98619952392578 0.6631230053901683
v 6.579729834837151 10.021300170898437 0.6631230053901689
v 22.15062955979748 -9.98619952392578 0.6631230053901683
v 22.15062955979748 10.021300170898439 0.6631230053901708
v 6.579729834837151 10.021300170898437 0.6631230053901689
v 22.15062955979748 10.021300170898439 0.6631230053901708
v 22.002129117292597 10.379699562072755 0.6631230053901708
v 6.579729834837151 10.021300170898437 0.6631230053901689
v 22.002129117292597 10.379699562072755 0.6631230053901708
v 21.709829846662714 10.671899650573732 0.6631230053901708
v 6.579729834837151 10.021300170898437 0.6631230053901689
v 21.709829846662714 10.671899650573732 0.6631230053901708
v 21.35142950181408 10.820400093078614 0.6631230053901708
v 6.579729834837151 10.021300170898437 0.6631230053901689
v 21.35142950181408 10.820400093078614 0.6631230053901708
v 7.378860036176873 10.820400093078613 0.663123005390169
v 6.579729834837151 10.021300170898437 0.6631230053901689
v 7.378860036176873 10.820400093078613 0.663123005390169
v 7.020459929746819 10.67189965057373 0.663123005390169
v 6.579729834837151 10.021300170898437 0.6631230053901689
v 7.020459929746819 10.67189965057373 0.663123005390169
v 6.728179971021843 10.379699562072753 0.6631230053901689
vt -6.124730056455974e-9 0.9630129933357239
vt -6.124730056455974e-9 0.03698689863085747
vt 0.009534060023725033 0.02039879932999611
vt -6.124730056455974e-9 0.9630129933357239
vt 0.009534060023725033 0.02039879932999611
vt 0.028304899111390114 0.006871039979159832
vt -6.124730056455974e-9 0.9630129933357239
vt 0.028304899111390114 0.006871039979159832
vt 0.051322098821401596 -1.1102199806005023e-16
vt -6.124730056455974e-9 0.9630129933357239
vt 0.051322098821401596 -1.1102199806005023e-16
vt 0.9486780166625977 5.551119755337213e-17
vt -6.124730056455974e-9 0.9630129933357239
vt 0.9486780166625977 5.551119755337213e-17
vt 0.9716950058937073 0.006871039979159832
vt -6.124730056455974e-9 0.9630129933357239
vt 0.9716950058937073 0.006871039979159832
vt 0.9904659986495972 0.02039879932999611
vt -6.124730056455974e-9 0.9630129933357239
vt 0.9904659986495972 0.02039879932999611
vt 1 0.03698689863085747
vt -6.124730056455974e-9 0.9630129933357239
vt 1 0.03698689863085747
vt 1 0.9630129933357239
vt -6.124730056455974e-9 0.9630129933357239
vt 1 0.9630129933357239
vt 0.9904659986495972 0.9796010255813599
vt -6.124730056455974e-9 0.9630129933357239
vt 0.9904659986495972 0.9796010255813599
vt 0.9716950058937073 0.9931290149688721
vt -6.124730056455974e-9 0.9630129933357239
vt 0.9716950058937073 0.9931290149688721
vt 0.9486780166625977 1
vt -6.124730056455974e-9 0.9630129933357239
vt 0.9486780166625977 1
vt 0.051322098821401596 1
vt -6.124730056455974e-9 0.9630129933357239
vt 0.051322098821401596 1
vt 0.028304899111390114 0.9931290149688721
vt -6.124730056455974e-9 0.9630129933357239
vt 0.028304899111390114 0.9931290149688721
vt 0.009534060023725033 0.9796010255813599
vn -1.224646799147353e-16 -1.2246467991473535e-16 1
vn -1.224646799147353e-16 -1.2246467991473535e-16 1
vn -1.224646799147353e-16 -1.2246467991473535e-16 1
vn -1.224646799147353e-16 -1.2246467991473535e-16 1
vn -1.224646799147353e-16 -1.2246467991473535e-16 1
vn -1.224646799147353e-16 -1.2246467991473535e-16 1
vn -1.224646799147353e-16 -1.2246467991473535e-16 1
vn -1.224646799147353e-16 -1.2246467991473535e-16 1
vn -1.224646799147353e-16 -1.2246467991473535e-16 1
vn -1.224646799147353e-16 -1.2246467991473535e-16 1
vn -1.224646799147353e-16 -1.2246467991473535e-16 1
vn -1.224646799147353e-16 -1.2246467991473535e-16 1
vn -1.224646799147353e-16 -1.2246467991473535e-16 1
vn -1.224646799147353e-16 -1.2246467991473535e-16 1
vn -1.224646799147353e-16 -1.2246467991473535e-16 1
vn -1.224646799147353e-16 -1.2246467991473535e-16 1
vn -1.224646799147353e-16 -1.2246467991473535e-16 1
vn -1.224646799147353e-16 -1.2246467991473535e-16 1
vn -1.224646799147353e-16 -1.2246467991473535e-16 1
vn -1.224646799147353e-16 -1.2246467991473535e-16 1
vn -1.224646799147353e-16 -1.2246467991473535e-16 1
vn -1.224646799147353e-16 -1.2246467991473535e-16 1
vn -1.224646799147353e-16 -1.2246467991473535e-16 1
vn -1.224646799147353e-16 -1.2246467991473535e-16 1
vn -1.224646799147353e-16 -1.2246467991473535e-16 1
vn -1.224646799147353e-16 -1.2246467991473535e-16 1
vn -1.224646799147353e-16 -1.2246467991473535e-16 1
vn -1.224646799147353e-16 -1.2246467991473535e-16 1
vn -1.224646799147353e-16 -1.2246467991473535e-16 1
vn -1.224646799147353e-16 -1.2246467991473535e-16 1
vn -1.224646799147353e-16 -1.2246467991473535e-16 1
vn -1.224646799147353e-16 -1.2246467991473535e-16 1
vn -1.224646799147353e-16 -1.2246467991473535e-16 1
vn -1.224646799147353e-16 -1.2246467991473535e-16 1
vn -1.224646799147353e-16 -1.2246467991473535e-16 1
vn -1.224646799147353e-16 -1.2246467991473535e-16 1
vn -1.224646799147353e-16 -1.2246467991473535e-16 1
vn -1.224646799147353e-16 -1.2246467991473535e-16 1
vn -1.224646799147353e-16 -1.2246467991473535e-16 1
vn -1.224646799147353e-16 -1.2246467991473535e-16 1
vn -1.224646799147353e-16 -1.2246467991473535e-16 1
vn -1.224646799147353e-16 -1.2246467991473535e-16 1
f 1/1/1 2/2/2 3/3/3
f 4/4/4 5/5/5 6/6/6
f 7/7/7 8/8/8 9/9/9
f 10/10/10 11/11/11 12/12/12
f 13/13/13 14/14/14 15/15/15
f 16/16/16 17/17/17 18/18/18
f 19/19/19 20/20/20 21/21/21
f 22/22/22 23/23/23 24/24/24
f 25/25/25 26/26/26 27/27/27
f 28/28/28 29/29/29 30/30/30
f 31/31/31 32/32/32 33/33/33
f 34/34/34 35/35/35 36/36/36
f 37/37/37 38/38/38 39/39/39
f 40/40/40 41/41/41 42/42/42
