<?xml version="1.0" encoding="utf-8"?>
<!-- Generator: Adobe Illustrator 25.0.1, SVG Export Plug-In . SVG Version: 6.00 Build 0)  -->
<svg version="1.1" id="Layer_1" xmlns="http://www.w3.org/2000/svg" xmlns:xlink="http://www.w3.org/1999/xlink" x="0px" y="0px"
	 viewBox="0 0 64.7 55.2" style="enable-background:new 0 0 64.7 55.2;" xml:space="preserve">
<style type="text/css">
	.st0{fill:#E0E0E0;}
	.st1{fill:#096D94;}
	.st2{fill:#FFFFFF;}
	.st3{fill:#30AFE3;}
	.st4{fill:none;stroke:#096D94;stroke-width:2;stroke-linecap:round;stroke-miterlimit:10;}
	.st5{fill:none;stroke:#FFFFFF;stroke-width:3;stroke-miterlimit:10;}
</style>
<circle class="st0" cx="30.9" cy="28" r="26.1"/>
<circle class="st1" cx="30.9" cy="28" r="20"/>
<circle class="st2" cx="30.9" cy="28" r="15.3"/>
<circle class="st3" cx="30.9" cy="28" r="8.4"/>
<circle class="st2" cx="30.9" cy="28" r="5.2"/>
<line class="st4" x1="48.1" y1="10.5" x2="30.7" y2="28"/>
<line class="st5" x1="55" y1="7.3" x2="31.5" y2="30.7"/>
<polyline class="st1" points="46.4,7.1 44.3,14.5 51.7,12.4 55,9.1 47.6,11.2 49.7,3.8 "/>
<polyline class="st1" points="48.3,5.2 46.2,12.6 53.6,10.5 56.9,7.2 49.5,9.3 51.6,1.9 "/>
<polyline class="st1" points="49.8,3.6 49,9.8 55.2,9 57.6,6.5 51.5,7.4 52.3,1.2 "/>
<polyline class="st2" points="48.4,7.1 47,11.6 51.5,10.2 53.5,8.1 49,9.5 50.4,5 "/>
</svg>
