<?xml version="1.0" encoding="utf-8"?>
<!-- Generator: Adobe Illustrator 25.0.1, SVG Export Plug-In . SVG Version: 6.00 Build 0)  -->
<svg version="1.1" id="Layer_1" xmlns="http://www.w3.org/2000/svg" xmlns:xlink="http://www.w3.org/1999/xlink" x="0px" y="0px"
	 viewBox="0 0 800 800" style="enable-background:new 0 0 800 800;" xml:space="preserve">
<style type="text/css">
	.st0{fill:#086E91;}
	.st1{fill:#FFFFFF;}
</style>
<g>
	<path class="st0" d="M-161,620c-11.8,0-23.5-4.5-32.5-13.5L-376,424c-18-18-18-47.1,0-65.1l179.5-179.5c18-18,47.1-18,65.1,0
		s18,47.1,0,65.1l-147,147l150,150c18,18,18,47.1,0,65.1C-137.5,615.5-149.2,620-161,620z"/>
</g>
<g>
	<path class="st1" d="M204.6,361.1H97c-21,0-38-17-38-38v-200c0-21,17-38,38-38h107.6c21,0,38,17,38,38v200
		C242.6,344.1,225.6,361.1,204.6,361.1z"/>
	<path class="st1" d="M453.8,361.1H346.2c-21,0-38-17-38-38v-200c0-21,17-38,38-38h107.6c21,0,38,17,38,38v200
		C491.8,344.1,474.8,361.1,453.8,361.1z"/>
	<path class="st1" d="M703,361.1H595.4c-21,0-38-17-38-38v-200c0-21,17-38,38-38H703c21,0,38,17,38,38v200
		C741,344.1,724,361.1,703,361.1z"/>
	<path class="st1" d="M204.6,714.9H97c-21,0-38-17-38-38v-200c0-21,17-38,38-38h107.6c21,0,38,17,38,38v200
		C242.6,697.9,225.6,714.9,204.6,714.9z"/>
	<path class="st1" d="M453.8,714.9H346.2c-21,0-38-17-38-38v-200c0-21,17-38,38-38h107.6c21,0,38,17,38,38v200
		C491.8,697.9,474.8,714.9,453.8,714.9z"/>
	<path class="st1" d="M703,714.9H595.4c-21,0-38-17-38-38v-200c0-21,17-38,38-38H703c21,0,38,17,38,38v200
		C741,697.9,724,714.9,703,714.9z"/>
</g>
</svg>
