<?xml version="1.0" encoding="utf-8"?>
<!-- Generator: Adobe Illustrator 25.2.1, SVG Export Plug-In . SVG Version: 6.00 Build 0)  -->
<svg version="1.1" id="Layer_1" xmlns="http://www.w3.org/2000/svg" xmlns:xlink="http://www.w3.org/1999/xlink" x="0px" y="0px"
	 viewBox="0 0 997 362.7" style="enable-background:new 0 0 997 362.7;" xml:space="preserve">
<style type="text/css">
	.st0{fill:#FFFFFF;}
	.st1{opacity:0.46;fill:#FFFFFF;enable-background:new    ;}
</style>
<path class="st0" d="M995.6,362.7v-9.9h0.1v-7.9h-0.1V333v-8.5v-102v-5.2c-12.5,3.3-34.6,9.1-71.7,18.9
	c-134.4,35.7-274.9,46.9-385.8,57.1c-110.8,10.2-295.3,5.6-363.3,0c-68-5.6-173.5-27.8-173.5-27.8v58.9v8.5v11.9v4.8v3.2v9.9H995.6z
	"/>
<path class="st1" d="M585.2,267c-56.8,7.9-413,60.9-488.5,75.4c-21,4-14.4,11.5,6.1,20.3h466l395.2-79L997,269V158.6
	C815.9,233,630.7,260.7,585.2,267z"/>
</svg>
