<?xml version="1.0" encoding="utf-8"?>
<!-- Generator: Adobe Illustrator 25.2.3, SVG Export Plug-In . SVG Version: 6.00 Build 0)  -->
<svg version="1.1" id="Warstwa_1" xmlns="http://www.w3.org/2000/svg" xmlns:xlink="http://www.w3.org/1999/xlink" x="0px" y="0px"
	 viewBox="0 0 118 35.66" style="enable-background:new 0 0 118 35.66;" xml:space="preserve">
<style type="text/css">
	.st0{fill:#E95531;}
	.st1{fill:#F76C33;}
	.st2{fill:#FFFFFF;}
	.st3{fill:#010101;}
	.st4{fill:#E83C3A;}
	.st5{fill:#BB3535;}
	.st6{fill:#BC3937;}
	.st7{fill:#BC3936;}
	.st8{fill:#BC3A37;}
	.st9{fill:#BC3836;}
	.st10{fill:#BB3635;}
	.st11{fill:#BC3636;}
	.st12{fill:#E83D3B;}
</style>
<g>
	<g>
		<path class="st0" d="M99.23,72.67l-2.11,24.47c-3.13,2.43-7.05,3.87-11.32,3.87c-4.23,0-8.12-1.42-11.23-3.8l-2.12-24.53H99.23z"
			/>
	</g>
	<g>
		<polygon class="st1" points="85.84,74.97 85.84,100.45 94.64,97.96 96.61,74.97 		"/>
	</g>
	<g>
		<polygon class="st2" points="77.49,78.17 78.36,88.39 89.83,88.39 89.45,92.61 85.84,93.58 82.08,92.53 81.99,89.9 78.48,89.9 
			78.92,95.09 85.84,97.04 92.76,95.09 93.62,84.93 81.54,84.93 81.24,81.63 81.24,81.63 93.9,81.56 94.19,78.17 		"/>
	</g>
	<g>
		<polygon class="st3" points="78.23,65.26 78.23,67.02 76.56,67.02 76.56,65.26 75,65.26 75,70.29 76.56,70.29 76.56,68.66 
			78.23,68.66 78.23,70.29 79.79,70.29 79.79,65.26 		"/>
	</g>
	<g>
		<polygon class="st3" points="85.33,65.26 80.54,65.26 80.54,67.02 82.1,67.02 82.1,70.33 83.77,70.33 83.77,67.02 85.33,67.02 		
			"/>
	</g>
	<g>
		<polygon class="st3" points="94.27,68.73 94.27,65.3 92.59,65.3 92.59,68.73 92.59,70.33 94.27,70.33 96.69,70.33 96.69,68.73 		
			"/>
	</g>
	<g>
		<polygon class="st3" points="90.06,65.3 88.89,67.1 87.71,65.3 86.04,65.3 86.04,70.33 87.71,70.33 87.71,67.84 88.89,69.63 
			90.06,67.84 90.06,70.33 91.73,70.33 91.73,65.3 		"/>
	</g>
</g>
<g>
	<g>
		<path class="st2" d="M11.87,12.64c0.67-0.24,8.82-7.1,8.82-7.1l2.48,2.79l6.75,14.82l-0.85,1.99l-2.52,0.55l-13.8-0.11l-1.45-0.44
			"/>
	</g>
	<g>
		<g>
			<g>
				<path class="st4" d="M20.43,30.94c-0.88-0.48-1.77-0.95-2.65-1.44c-2.54-1.4-5.07-2.82-7.61-4.21
					c-0.24-0.13-0.32-0.29-0.35-0.54c-0.57-5-1.15-9.99-1.73-14.99C8.07,9.6,8.01,9.43,7.96,9.27c0-0.23,0-0.46,0-0.7
					c0.15-0.04,0.3-0.06,0.44-0.11c3.97-1.41,7.95-2.83,11.92-4.25c0.04-0.01,0.07-0.02,0.11-0.02c0,1.05,0,2.1,0.01,3.16
					c-2.58,5.73-5.16,11.47-7.74,17.21c0.86,0,1.67-0.01,2.48,0.01c0.3,0.01,0.45-0.08,0.56-0.37c0.41-1.09,0.86-2.18,1.31-3.26
					c0.05-0.12,0.21-0.28,0.33-0.28c1.02-0.02,2.04,0,3.06,0C20.43,24.08,20.43,27.51,20.43,30.94z"/>
			</g>
			<g>
				<path class="st5" d="M20.43,30.94c0-3.43,0-6.86,0-10.29c1.11-0.01,2.22,0,3.33-0.02c0.26,0,0.38,0.07,0.48,0.32
					c0.47,1.13,0.96,2.25,1.45,3.37c0.05,0.1,0.15,0.26,0.23,0.26c0.87,0.02,1.74,0.01,2.63,0.01c-0.03-0.08-0.06-0.16-0.1-0.24
					c-2.61-5.57-5.22-11.14-7.83-16.71c-0.05-0.1-0.12-0.19-0.19-0.28c0-1.05,0-2.1-0.01-3.16c0.38,0.12,0.76,0.23,1.14,0.35
					c3.79,1.29,7.59,2.58,11.38,3.88c0.1,0.03,0.19,0.07,0.32,0.12c-0.11,0.89-0.21,1.78-0.32,2.67c-0.4,3.2-0.81,6.41-1.21,9.61
					c-0.16,1.3-0.32,2.61-0.5,3.9c-0.02,0.17-0.16,0.38-0.31,0.46c-3.39,1.89-6.78,3.76-10.18,5.64
					C20.65,30.88,20.54,30.9,20.43,30.94z"/>
			</g>
			<g>
				<path class="st6" d="M38.62,14.32c0,3.23,0,6.46,0,9.71c-0.49,0-0.97,0-1.47,0c0-4.04,0-8.07,0-12.16
					c0.47,0,0.96-0.02,1.44,0.01c0.12,0.01,0.24,0.17,0.33,0.29c2.3,3.02,4.6,6.05,6.91,9.08c0.08,0.1,0.16,0.2,0.3,0.37
					c0-3.29,0-6.5,0-9.73c0.51,0,0.99,0,1.49,0c0,4.04,0,8.07,0,12.16c-0.48,0-0.97,0.02-1.45-0.01c-0.11-0.01-0.22-0.16-0.3-0.26
					c-2.31-3.06-4.61-6.11-6.91-9.17c-0.08-0.11-0.17-0.21-0.25-0.32C38.67,14.3,38.64,14.31,38.62,14.32z"/>
			</g>
			<g>
				<path class="st7" d="M99.25,13.22c0,3.62,0,7.21,0,10.82c-0.54,0-1.05,0-1.59,0c0-4.04,0-8.08,0-12.13
					c0.06-0.01,0.12-0.03,0.18-0.03c1.77,0,3.54,0,5.31,0.01c0.27,0,0.54,0.03,0.81,0.08c2.23,0.39,3.16,2.83,1.77,4.62
					c-0.52,0.67-1.23,1.09-1.99,1.42c-0.25,0.11-0.5,0.2-0.79,0.32c1.39,1.91,2.75,3.79,4.17,5.73c-0.7,0-1.33,0.01-1.96-0.01
					c-0.09,0-0.2-0.11-0.26-0.2c-1.2-1.69-2.42-3.37-3.58-5.09c-0.2-0.3-0.15-0.77-0.21-1.15c0.6-0.16,1.12-0.26,1.61-0.46
					c0.47-0.2,0.94-0.45,1.32-0.78c0.63-0.55,0.75-1.3,0.56-2.09c-0.15-0.63-0.65-1.03-1.41-1.06
					C101.88,13.19,100.59,13.22,99.25,13.22z"/>
			</g>
			<g>
				<path class="st8" d="M70.87,11.89c0.53,0,1.03,0,1.56,0c0.01,0.13,0.02,0.26,0.02,0.38c0,2.32,0.01,4.64,0,6.96
					c0,0.49-0.04,0.98-0.12,1.46c-0.3,1.72-1.31,2.82-3.01,3.25c-1.3,0.33-2.61,0.32-3.91,0c-1.82-0.46-2.9-1.78-3.07-3.72
					c-0.03-0.37-0.05-0.75-0.05-1.12c0-2.25,0-4.51,0-6.76c0-0.14,0-0.28,0-0.44c0.53,0,1.03,0,1.58,0c0,0.14,0,0.28,0,0.41
					c0,2.31,0,4.61,0,6.92c0,0.38,0.02,0.77,0.09,1.15c0.21,1.3,1,2.14,2.3,2.38c0.56,0.1,1.16,0.14,1.73,0.07
					c1.83-0.2,2.79-1.24,2.86-3.09c0.03-0.91,0.01-1.83,0.01-2.74c0-1.56,0-3.12,0-4.68C70.87,12.18,70.87,12.05,70.87,11.89z"/>
			</g>
			<g>
				<path class="st6" d="M89.89,10.26c2.03,4.63,4.04,9.18,6.06,13.8c-0.58,0-1.1,0.01-1.62-0.01c-0.08,0-0.19-0.15-0.23-0.26
					c-0.45-1.07-0.89-2.14-1.32-3.22c-0.1-0.25-0.22-0.35-0.5-0.35c-1.2,0.02-2.4,0.01-3.67,0.01c0.14-0.42,0.25-0.81,0.4-1.18
					c0.03-0.07,0.22-0.1,0.33-0.11c0.9-0.01,1.8,0,2.76,0c-0.76-1.82-1.49-3.6-2.27-5.48c-0.09,0.2-0.14,0.32-0.19,0.44
					c-1.34,3.26-2.68,6.52-4.01,9.79c-0.12,0.29-0.26,0.39-0.56,0.37c-0.39-0.03-0.79-0.01-1.25-0.01
					C85.85,19.45,87.85,14.9,89.89,10.26z"/>
			</g>
			<g>
				<path class="st9" d="M59.78,13.56c-0.75-0.16-1.46-0.4-2.18-0.44c-0.93-0.05-1.89-0.05-2.81,0.12c-1.82,0.33-2.94,1.56-3.14,3.4
					c-0.09,0.85-0.1,1.73,0.04,2.57c0.35,2.18,1.72,3.39,3.98,3.56c0.74,0.05,1.49-0.07,2.23-0.11c0.26-0.01,0.31-0.14,0.31-0.37
					c-0.01-1.24,0-2.47,0-3.73c0.52,0,1.01,0,1.54,0c0.01,0.07,0.03,0.16,0.03,0.24c0,1.49,0,2.99,0.01,4.48
					c0,0.24-0.09,0.34-0.3,0.4c-1.9,0.59-3.81,0.63-5.72,0.07c-1.88-0.55-3.05-1.81-3.52-3.7c-0.35-1.41-0.37-2.83-0.05-4.25
					c0.49-2.16,1.98-3.49,4.35-3.88c1.64-0.27,3.26-0.17,4.87,0.24c0.29,0.08,0.4,0.2,0.37,0.5C59.76,12.97,59.78,13.27,59.78,13.56
					z"/>
			</g>
			<g>
				<path class="st10" d="M76.82,22.78c2.14,0,4.24,0,6.37,0c0,0.43,0,0.84,0,1.26c-2.64,0-5.27,0-7.91,0c0-4.05,0-8.09,0-12.14
					c0.51,0,1.01,0,1.55,0C76.82,15.52,76.82,19.13,76.82,22.78z"/>
			</g>
			<g>
				<path class="st11" d="M20.42,13.1c0.01-0.05,0.02-0.09,0.06-0.25c0.9,1.87,1.75,3.65,2.62,5.47c-0.93,0-1.8,0-2.67,0
					C20.43,16.58,20.43,14.84,20.42,13.1z"/>
			</g>
			<g>
				<path class="st12" d="M20.42,13.1c0,1.74,0.01,3.48,0.01,5.22c-0.72,0-1.44,0-2.18,0c0.02-0.08,0.02-0.16,0.05-0.22
					c0.68-1.62,1.36-3.24,2.04-4.86C20.36,13.18,20.4,13.14,20.42,13.1z"/>
			</g>
		</g>
	</g>
</g>
</svg>
