<?xml version="1.0" encoding="utf-8"?>
<!-- Generator: Adobe Illustrator 25.0.1, SVG Export Plug-In . SVG Version: 6.00 Build 0)  -->
<svg version="1.1" id="Layer_1" xmlns="http://www.w3.org/2000/svg" xmlns:xlink="http://www.w3.org/1999/xlink" x="0px" y="0px"
	 viewBox="0 0 800 800" style="enable-background:new 0 0 800 800;" xml:space="preserve">
<style type="text/css">
	.st0{fill:#086E91;}
</style>
<path class="st0" d="M-494,0c-220.6,0-400,179.4-400,400s179.4,400,400,400S-94,620.6-94,400S-273.5,0-494,0L-494,0z M-494,715.3
	c-173.9,0-315.3-141.4-315.3-315.3S-667.9,84.7-494,84.7S-178.7,226.2-178.7,400S-320.2,715.3-494,715.3L-494,715.3z"/>
<path class="st0" d="M-453.4,361.2h-81.2c-13.6,0-24.7,11.1-24.7,24.7v240.8c0,13.6,11.1,24.7,24.7,24.7h81.2
	c13.6,0,24.7-11,24.7-24.7V385.8C-428.7,372.2-439.8,361.2-453.4,361.2z"/>
<path class="st0" d="M-494,148.7c-39.9,0-72.3,32.4-72.3,72.3s32.4,72.3,72.3,72.3s72.3-32.4,72.3-72.3S-454.1,148.7-494,148.7z"/>
<path class="st0" d="M309.3,101.2c170.6,0,309.3,138.7,309.3,309.3S479.9,719.9,309.3,719.9S0,581.1,0,410.5
	S138.8,101.2,309.3,101.2L309.3,101.2z M309.3,617.7c114.3,0,207.2-92.9,207.2-207.2s-92.9-207.2-207.2-207.2s-207.2,93-207.2,207.2
	S195.1,617.7,309.3,617.7L309.3,617.7z"/>
<path class="st0" d="M471.5,621.2l48.6-48.6c8.1-8.1,21.4-8.2,29.5-0.1L693,716c8.1,8.1,8.1,21.4-0.1,29.5l-48.6,48.6
	c-8.1,8.1-21.3,8.2-29.5,0.1L471.3,650.7C463.2,642.6,463.3,629.4,471.5,621.2z"/>
</svg>
