<?xml version="1.0" encoding="utf-8"?>
<!-- Generator: Adobe Illustrator 25.2.1, SVG Export Plug-In . SVG Version: 6.00 Build 0)  -->
<svg version="1.1" id="Layer_1" xmlns="http://www.w3.org/2000/svg" xmlns:xlink="http://www.w3.org/1999/xlink" x="0px" y="0px"
	 viewBox="0 0 83.16 50.94" style="enable-background:new 0 0 83.16 50.94;" xml:space="preserve">
<style type="text/css">
	.st0{fill:#649F60;}
	.st1{fill-rule:evenodd;clip-rule:evenodd;fill:#333333;}
	.st2{fill-rule:evenodd;clip-rule:evenodd;fill:#649F60;}
	.st3{fill:#3B8744;}
	.st4{fill:#70AB60;}
	.st5{fill:#9FC49F;}
	.st6{fill:#A8CEA3;}
	.st7{fill:#DCEAD8;}
	.st8{fill:#74B45A;}
	.st9{fill:#73B952;}
	.st10{fill:#68C050;}
	.st11{fill:#6FBC4E;}
	.st12{fill:#6BBE4F;}
	.st13{fill:#549E4A;}
	.st14{fill:#6BA65C;}
	.st15{fill:#64A058;}
	.st16{fill:#619E55;}
	.st17{fill:#3A8744;}
	.st18{fill:#5B9950;}
	.st19{fill:#489046;}
	.st20{fill:#56964A;}
	.st21{fill:#4C9348;}
	.st22{fill:#418C45;}
	.st23{fill:#619B54;}
	.st24{fill:#4A9046;}
	.st25{fill:#5D9751;}
</style>
<g id="mono_node1">
	<g>
		<g>
			<path class="st0" d="M41.15,50.94c-0.28,0-0.55-0.07-0.79-0.22l-2.52-1.48c-0.39-0.22-0.2-0.28-0.07-0.33
				c0.5-0.17,0.61-0.22,1.12-0.52c0.06-0.04,0.13-0.02,0.18,0.02L41,49.55c0.07,0.04,0.17,0.04,0.24,0l7.5-4.34
				c0.07-0.04,0.11-0.13,0.11-0.2l-0.01-8.66c0-0.09-0.04-0.17-0.11-0.22l-7.5-4.32c-0.07-0.04-0.15-0.04-0.22,0l-7.48,4.34
				c-0.07,0.04-0.11,0.13-0.11,0.22l0.01,8.66c0,0.09,0.04,0.15,0.11,0.2l2.06,1.17c1.12,0.57,1.8-0.09,1.8-0.76l-0.01-8.55
				c0-0.13,0.09-0.22,0.22-0.22l0.94,0c0.11,0,0.22,0.09,0.22,0.22l0.01,8.55c0,1.49-0.82,2.33-2.22,2.33c-0.44,0-0.77,0-1.73-0.46
				l-1.97-1.14c-0.5-0.27-0.79-0.81-0.79-1.36l-0.01-8.66c0-0.57,0.29-1.08,0.79-1.36l7.5-4.34c0.48-0.28,1.12-0.28,1.58,0
				l7.51,4.32c0.48,0.27,0.79,0.81,0.79,1.36L50.25,45c0,0.57-0.29,1.08-0.79,1.36l-7.5,4.34C41.7,50.87,41.45,50.94,41.15,50.94"/>
		</g>
		<g>
			<path class="st0" d="M43.47,44.97c-3.29,0-3.99-1.5-3.99-2.77c0-0.13,0.09-0.22,0.22-0.22l0.97,0c0.11,0,0.2,0.09,0.22,0.18
				c0.15,0.99,0.57,1.49,2.57,1.48c1.58,0,2.26-0.35,2.26-1.2c0-0.48-0.2-0.84-2.65-1.08c-2.06-0.2-3.32-0.66-3.33-2.29
				c0-1.51,1.28-2.41,3.43-2.41c2.4,0,3.6,0.82,3.75,2.62c0,0.06-0.02,0.13-0.05,0.17c-0.04,0.04-0.09,0.07-0.15,0.07l-0.97,0
				c-0.09,0-0.18-0.07-0.22-0.16c-0.24-1.05-0.81-1.36-2.33-1.36c-1.73,0-1.93,0.61-1.93,1.07c0,0.55,0.24,0.7,2.57,1.01
				c2.31,0.31,3.4,0.73,3.4,2.34C47.2,44.05,45.84,44.97,43.47,44.97 M52.6,35.78l0.26,0c0.22,0,0.24-0.15,0.24-0.22
				c0-0.22-0.15-0.22-0.24-0.22l-0.26,0L52.6,35.78z M52.29,35.06l0.57,0c0.2,0,0.57,0,0.57,0.42c0,0.29-0.2,0.37-0.31,0.39
				c0.22,0.02,0.24,0.15,0.28,0.37c0.02,0.13,0.04,0.35,0.09,0.42l-0.33,0c-0.02-0.07-0.06-0.5-0.06-0.51
				C53.06,36.05,53.04,36,52.93,36l-0.28,0l0,0.64l-0.31,0L52.29,35.06L52.29,35.06z M51.63,35.89c0,0.68,0.55,1.21,1.21,1.21
				c0.68,0,1.21-0.55,1.21-1.21c0-0.68-0.55-1.21-1.21-1.21C52.18,34.68,51.61,35.19,51.63,35.89 M54.27,35.89
				c0,0.81-0.64,1.45-1.45,1.45c-0.79,0-1.45-0.64-1.45-1.45c0-0.83,0.68-1.45,1.45-1.45C53.61,34.44,54.27,35.06,54.27,35.89"/>
		</g>
		<g>
			<path class="st1" d="M17.86,17.09c0-0.35-0.18-0.66-0.48-0.83l-7.97-4.58c-0.15-0.09-0.28-0.13-0.44-0.13l-0.09,0
				c-0.15,0-0.31,0.04-0.44,0.13l-7.96,4.6C0.18,16.45,0,16.78,0,17.11l0.04,12.34c0,0.17,0.09,0.33,0.24,0.4
				c0.15,0.09,0.33,0.09,0.48,0l4.73-2.71c0.29-0.18,0.48-0.5,0.48-0.83l-0.01-5.76c0-0.33,0.18-0.66,0.48-0.83l2.02-1.16
				c0.15-0.09,0.31-0.13,0.48-0.13c0.17,0,0.33,0.04,0.48,0.13l2.02,1.15c0.29,0.16,0.48,0.49,0.48,0.83l0.01,5.76
				c0,0.33,0.18,0.66,0.48,0.83l4.74,2.69c0.15,0.09,0.33,0.09,0.48,0c0.15-0.09,0.24-0.24,0.24-0.4L17.86,17.09z M55.43,23.46
				c0,0.09-0.04,0.17-0.13,0.22l-2.73,1.58c-0.07,0.04-0.17,0.04-0.24,0l-2.74-1.57c-0.07-0.04-0.13-0.13-0.13-0.22l0-3.16
				c0-0.09,0.04-0.17,0.11-0.22l2.73-1.58c0.07-0.04,0.17-0.04,0.24,0l2.74,1.57c0.07,0.04,0.13,0.13,0.13,0.22L55.43,23.46z
				 M56.13,0.07c-0.15-0.09-0.33-0.09-0.48,0c-0.15,0.09-0.24,0.24-0.24,0.4l0.02,12.23c0,0.13-0.07,0.22-0.16,0.29
				c-0.09,0.06-0.22,0.06-0.33,0l-1.98-1.14c-0.29-0.16-0.66-0.16-0.95,0l-7.96,4.6c-0.29,0.17-0.48,0.5-0.48,0.83l0.01,9.2
				c0,0.33,0.18,0.66,0.48,0.83l7.97,4.58c0.29,0.16,0.66,0.16,0.95,0l7.96-4.6c0.29-0.17,0.48-0.5,0.48-0.83L61.39,3.55
				c0-0.35-0.18-0.68-0.5-0.84L56.13,0.07z M82.69,20.17c0.29-0.17,0.48-0.5,0.48-0.83l0-2.22c0-0.33-0.18-0.66-0.48-0.83
				l-7.92-4.58c-0.29-0.16-0.66-0.16-0.95,0l-7.96,4.6c-0.29,0.17-0.48,0.5-0.48,0.83l0.01,9.2c0,0.35,0.18,0.66,0.48,0.83l7.92,4.5
				c0.29,0.16,0.64,0.16,0.94,0L79.49,29c0.15-0.09,0.24-0.24,0.24-0.42c0-0.17-0.09-0.33-0.24-0.42l-7.99-4.56
				c-0.15-0.09-0.24-0.24-0.24-0.4l0-2.88c0-0.17,0.09-0.33,0.24-0.42l2.49-1.44c0.15-0.09,0.33-0.09,0.48,0l2.5,1.43
				c0.15,0.09,0.24,0.24,0.24,0.4l0,2.28c0,0.17,0.09,0.33,0.24,0.42c0.15,0.09,0.33,0.09,0.48,0L82.69,20.17z"/>
		</g>
		<g>
			<path class="st2" d="M74.19,19.76c0.06-0.04,0.13-0.04,0.18,0l1.52,0.88c0.06,0.04,0.09,0.09,0.09,0.15l0,1.76
				c0,0.07-0.04,0.13-0.09,0.15l-1.52,0.88c-0.06,0.04-0.13,0.04-0.18,0l-1.52-0.88c-0.06-0.04-0.09-0.09-0.09-0.15l0-1.76
				c0-0.07,0.04-0.13,0.09-0.15L74.19,19.76z"/>
		</g>
		<g>
			<g>
				<path class="st3" d="M30.86,31.88c-0.13,0-0.26,0-0.37,0c-0.46-0.07-0.83-0.38-1.23-0.6c-0.94-0.51-1.86-1.06-2.79-1.61
					c-0.81-0.46-1.62-0.93-2.43-1.39c-0.57-0.33-1.12-0.64-1.69-0.97c-0.15-0.09-0.28-0.16-0.33-0.33c0-0.15,0.09-0.28,0.15-0.39
					c0.37-0.64,0.73-1.25,1.1-1.87c0.02-0.04,0.04-0.07,0.07-0.09c0.26-0.48,0.53-0.94,0.81-1.41c0.04-0.06,0.07-0.09,0.09-0.15
					c0.22-0.37,0.4-0.75,0.64-1.08c0.04-0.09,0.07-0.17,0.13-0.26c0.04-0.07,0.09-0.15,0.2-0.15c0.11,0.04,0.15,0.15,0.18,0.24
					c0.04,0.09,0.09,0.15,0.15,0.22c0.2,0.4,0.44,0.77,0.64,1.17c0.04,0.09,0.06,0.18,0.15,0.24c0.24,0.44,0.46,0.88,0.7,1.3
					c0.07,0.13,0.09,0.28,0.2,0.37c0.33,0.57,0.64,1.16,0.94,1.72c0.04,0.09,0.06,0.2,0.15,0.26c0.39,0.73,0.79,1.43,1.18,2.15
					c0.06,0.09,0.11,0.22,0.15,0.31c0.22,0.37,0.4,0.73,0.63,1.1c0.17,0.29,0.33,0.61,0.5,0.9C30.84,31.64,30.94,31.75,30.86,31.88z
					"/>
			</g>
			<g>
				<path class="st4" d="M30.86,31.88c-0.39-0.7-0.77-1.43-1.18-2.13c-0.04-0.06-0.06-0.11-0.09-0.17c0.04-0.04,0.02-0.09,0.02-0.13
					c-0.01-5.67-0.02-11.33-0.02-17c0-0.09,0.02-0.18,0-0.28c0-0.06,0.02-0.11,0.07-0.15c0.28-0.17,0.55-0.39,0.9-0.37
					c0.09,0,0.17,0,0.24,0c0.04,0,0.09-0.02,0.13,0.02c0.13,0.17,0.22,0.35,0.33,0.53c0.06,0.09,0.15,0.22,0.11,0.33
					c0.11,0.99,0.06,1.98,0.06,2.99c0.03,5.2,0.02,10.39,0.02,15.59c0,0.15,0,0.28-0.02,0.42c0.02,0.15-0.09,0.2-0.2,0.24
					s-0.22,0.04-0.33,0.07C30.92,31.88,30.88,31.88,30.86,31.88z"/>
			</g>
			<g>
				<path class="st5" d="M39.61,26.42L39.61,26.42l-0.04,0c-0.09-0.09-0.09-0.22-0.09-0.33c0-0.42,0-0.84,0-1.25
					c0-0.28-0.02-0.55,0-0.83c0-0.11,0-0.22,0.02-0.31c-0.02-0.22-0.02-0.4-0.02-0.62c0-0.39,0-0.81,0-1.19c0-0.11,0-0.24,0.02-0.35
					c-0.04-0.77-0.02-1.56-0.02-2.35c0-0.62,0-1.23,0-1.85c0-0.09-0.04-0.22,0.09-0.28c0.02,0,0.02,0,0.04,0
					C39.6,20.18,39.61,23.3,39.61,26.42z"/>
			</g>
			<g>
				<path class="st6" d="M21.86,23.87c0,0.79,0,1.6,0,2.39c0,0.07,0.04,0.15-0.04,0.2c0-3.1-0.01-6.2-0.01-9.31
					c0.06,0.05,0.04,0.13,0.04,0.2c0,0.5,0,1.01,0,1.49c0.06,0.04,0.07,0.11,0.07,0.18c0,0.48,0.02,0.95-0.02,1.43
					c0.04,0.46,0.02,0.94,0.02,1.4c0,0.57,0,1.16,0,1.74C21.93,23.69,21.95,23.8,21.86,23.87z"/>
			</g>
			<g>
				<path class="st7" d="M30.83,11.65c0,0.02,0,0.02,0,0.04c-0.09,0-0.18,0-0.28,0c0-0.02,0-0.02,0-0.04
					C30.65,11.65,30.74,11.65,30.83,11.65z"/>
			</g>
			<g>
				<path class="st8" d="M28.21,12.98c0.48-0.28,0.94-0.55,1.43-0.83c0.04,0.09,0.04,0.17,0.04,0.26
					c0.01,5.65,0.02,11.31,0.02,16.96c0,0.09,0.04,0.2-0.09,0.24c-0.22-0.37-0.4-0.73-0.63-1.1c-0.26-0.46-0.5-0.92-0.75-1.36
					c-0.06-0.13-0.04-0.26-0.04-0.39c-0.01-4.52-0.01-9.05-0.02-13.57C28.17,13.11,28.17,13.03,28.21,12.98z"/>
			</g>
			<g>
				<path class="st9" d="M28.21,12.98c0.04,0.09,0.04,0.2,0.04,0.29c0.01,4.5,0.01,9,0.02,13.49c0,0.11-0.02,0.24-0.04,0.35
					c-0.39-0.64-0.74-1.32-1.09-1.98c-0.06-0.24-0.04-0.46-0.04-0.7c-0.01-3.54-0.01-7.09-0.02-10.63c0-0.06,0-0.11,0.02-0.17
					C27.48,13.38,27.84,13.18,28.21,12.98z"/>
			</g>
			<g>
				<path class="st10" d="M24.27,19.96c-0.63-1.16-1.25-2.29-1.9-3.45c-0.02-0.04-0.06-0.07-0.09-0.09
					c0.83-0.48,1.63-0.96,2.46-1.44c0.22-0.13,0.44-0.24,0.64-0.37c0.09,0,0.11,0.05,0.11,0.13c0.02,0.09,0.02,0.2,0.02,0.31
					c0,2.09,0.01,4.22,0.01,6.31c0,0.17-0.02,0.33,0.02,0.5c0.02,0.09,0,0.17-0.09,0.22c-0.11-0.15-0.18-0.31-0.28-0.48
					c-0.07-0.02-0.13-0.05-0.17-0.13c-0.24-0.44-0.48-0.88-0.72-1.3C24.27,20.09,24.25,20.03,24.27,19.96z"/>
			</g>
			<g>
				<path class="st11" d="M27.11,13.62c0.09,0.07,0.07,0.17,0.07,0.28c0,1.8,0.01,3.56,0.01,5.36c0,1.87,0.01,3.73,0.01,5.62
					c0,0.09,0.02,0.2-0.04,0.28c-0.33-0.53-0.63-1.1-0.92-1.67c-0.04-0.17-0.04-0.33-0.04-0.51c0-2.88-0.01-5.75-0.01-8.61
					c0-0.09-0.02-0.15,0.04-0.22C26.52,13.94,26.82,13.79,27.11,13.62z"/>
			</g>
			<g>
				<path class="st12" d="M26.23,14.12c0.04,0.09,0.04,0.2,0.04,0.29c0,2.92,0.01,5.84,0.01,8.74c0,0.09,0,0.2-0.04,0.29
					c-0.28-0.46-0.53-0.94-0.77-1.43c0.04-0.15,0-0.31,0-0.46c0-2.24-0.01-4.48-0.01-6.72c0-0.09,0.04-0.18-0.04-0.26
					C25.68,14.43,25.95,14.27,26.23,14.12z"/>
			</g>
			<path class="st13" d="M24.91,21.97c0.1-0.11,0.14-0.29,0.27-0.38c-0.09-0.18-0.2-0.37-0.29-0.55c-0.2-0.37-0.4-0.71-0.61-1.08
				c0.01,0,0.01,0,0.02,0c0.05-0.09,0-0.17-0.04-0.24c-0.29-0.5-0.55-0.99-0.83-1.5c-0.29-0.57-0.61-1.16-0.94-1.72
				c-0.02-0.06-0.07-0.11-0.17-0.09c-0.18,0.07-0.29,0.22-0.38,0.39c-0.05,0.09-0.09,0.2-0.13,0.29c0,0.02,0,0.06,0,0.06
				c0.04,0.05,0.02,0.11,0.02,0.17c0,0.5,0,0.99,0,1.49c0.01,0.03,0.03,0.05,0.05,0.07c-0.02,0-0.03-0.01-0.05-0.02
				c0,0.53,0,1.08,0,1.62c0.01,0.01,0.02,0.01,0.03,0.02c0,0-0.01,0-0.01,0c0,0.44,0,0.92,0,1.38l0,0c0,0.67,0,1.33,0,2
				c-0.02,0.02-0.03,0.04-0.04,0.07c0,0.77,0,1.56,0,2.33c0,0.06,0.02,0.13-0.02,0.18c0,0.04,0,0.04,0,0.07
				c0.09,0.13,0.09,0.33,0.24,0.44c0.13-0.31,0.33-0.59,0.46-0.88c0.27-0.5,0.57-0.96,0.84-1.47c0.01-0.02,0-0.03-0.01-0.05
				c0.01,0,0.02,0.01,0.02,0.01c0,0,0.02,0.02,0.02,0.04c0.33-0.48,0.62-1.03,0.92-1.54c0-0.01,0-0.01,0-0.02
				c0.25-0.34,0.41-0.7,0.63-1.06C24.91,21.98,24.91,21.97,24.91,21.97z"/>
			<g>
				<path class="st14" d="M32.9,30.78c-0.48,0.29-0.95,0.57-1.45,0.83c-0.06-0.09-0.04-0.17-0.04-0.28
					c-0.01-6.09-0.02-12.17-0.03-18.25c0-0.2-0.04-0.39-0.04-0.59c0.09-0.04,0.15,0.05,0.18,0.11c0.22,0.39,0.46,0.75,0.66,1.14
					c0.11,0.22,0.22,0.44,0.39,0.64c0.09,0.15,0.17,0.29,0.26,0.44c0.04,0.09,0.09,0.17,0.09,0.28c0.11,1.14,0.04,2.28,0.04,3.41
					c0.02,3.95,0.01,7.88,0.02,11.82C32.97,30.48,32.97,30.63,32.9,30.78z"/>
			</g>
			<g>
				<path class="st15" d="M32.9,30.78c0-0.09,0-0.2,0-0.28c-0.01-4.46-0.01-8.92-0.02-13.38c0-0.7,0.03-1.36-0.04-2.06
					c0.13-0.04,0.15,0.09,0.2,0.15c0.26,0.44,0.52,0.88,0.77,1.32c0.07,0.13,0.15,0.26,0.22,0.39c0.04,0.07,0.09,0.15,0.09,0.22
					c0,0.06,0,0.11,0.02,0.17c0.13,0.26,0.11,0.51,0.11,0.79c0.01,3.84,0.01,7.67,0.02,11.51c0,0.15,0.02,0.31-0.07,0.44
					C33.76,30.3,33.32,30.54,32.9,30.78z"/>
			</g>
			<g>
				<path class="st16" d="M34.18,30.02c0-0.28,0-0.57,0-0.86c-0.01-3.71-0.01-7.43-0.02-11.14c0-0.28-0.02-0.55-0.11-0.83
					c-0.02-0.04-0.02-0.09-0.04-0.15c0.07-0.04,0.11,0.02,0.15,0.07c0.2,0.31,0.39,0.62,0.52,0.95c0.07,0.64,0.04,1.27,0.04,1.91
					c0,3.12,0.01,6.22,0.01,9.34c0,0.13,0.04,0.26-0.02,0.37C34.55,29.84,34.35,29.93,34.18,30.02z"/>
			</g>
			<g>
				<path class="st17" d="M39.57,26.49c-0.04,0.31-0.2,0.53-0.46,0.68c-0.53,0.31-1.06,0.61-1.6,0.92
					c-0.07-0.04-0.09-0.09-0.11-0.15c0-0.06,0-0.11,0-0.17c0-1.45,0-2.88-0.01-4.33c0-0.11-0.04-0.26,0.09-0.33
					c0.11-0.04,0.17,0.04,0.22,0.13c0.22,0.33,0.4,0.7,0.63,1.05c0.13,0.26,0.29,0.5,0.44,0.75c0.22,0.39,0.44,0.75,0.66,1.14
					C39.52,26.25,39.52,26.38,39.57,26.49z"/>
			</g>
			<g>
				<path class="st18" d="M35.36,29.34c-0.17,0.11-0.35,0.22-0.55,0.29c-0.06-0.04-0.09-0.09-0.09-0.15c0-0.04,0-0.07,0-0.09
					c-0.01-3.6-0.01-7.2-0.02-10.78c0-0.04,0-0.07,0-0.09c0.07-0.11,0.15-0.13,0.26,0c0.11,0.15,0.22,0.28,0.33,0.44
					c0.48,0.73,1.01,1.43,1.53,2.13c0.02,0.04,0.04,0.04,0.04,0.07c0,0.07-0.04,0.11-0.09,0.13c-0.11,0.04-0.18-0.04-0.24-0.13
					c-0.17-0.28-0.33-0.51-0.52-0.75c-0.18-0.22-0.33-0.48-0.52-0.72c-0.04-0.04-0.04-0.07-0.09-0.05
					c-0.04,0.02-0.04,0.07-0.04,0.09c0,0.07,0,0.15,0,0.2c0,3.08,0.01,6.19,0.01,9.27C35.37,29.25,35.36,29.29,35.36,29.34z"/>
			</g>
			<g>
				<path class="st19" d="M39.57,23.08c0,0.2,0,0.4,0,0.61c-0.09,0.09-0.17,0.04-0.24,0c-0.37-0.18-0.73-0.37-1.1-0.55
					c-0.07-0.04-0.13-0.07-0.2-0.09c-0.18-0.09-0.39-0.22-0.61-0.11c-0.11-0.07-0.15-0.22-0.22-0.31c-0.06-0.09-0.09-0.18-0.18-0.28
					c-0.05,0.09-0.04,0.15-0.04,0.24c0,1.82,0.01,3.63,0.01,5.45c0,0.13,0,0.26-0.04,0.39c-0.17,0.13-0.35,0.22-0.53,0.31
					c-0.09-0.02-0.09-0.09-0.11-0.15c0-0.07-0.02-0.15-0.02-0.22c0-2.28-0.01-4.52-0.01-6.79c0-0.07,0-0.15,0-0.22
					c0-0.07,0.04-0.15,0.09-0.18c0.09-0.04,0.15,0.02,0.2,0.09c0.04,0.06,0.06,0.13,0.11,0.17c0.15,0.31,0.46,0.42,0.74,0.53
					c0.55,0.26,1.08,0.53,1.63,0.81c0.09,0.04,0.18,0.09,0.28,0.13C39.42,22.93,39.51,22.98,39.57,23.08z"/>
			</g>
			<g>
				<path class="st20" d="M36.67,21.46c-0.13-0.05-0.15-0.16-0.2-0.28c-0.09-0.02-0.15-0.09-0.18-0.15
					c-0.09-0.15-0.17-0.28-0.26-0.42c-0.02-0.04-0.04-0.07-0.07-0.05c-0.06,0.02-0.04,0.06-0.04,0.09c0,0.06,0,0.13,0,0.18
					c0,2.55,0.01,5.08,0.01,7.64c0,0.18,0,0.37-0.04,0.55c-0.15,0.13-0.35,0.22-0.51,0.31c-0.07-0.05-0.07-0.15-0.07-0.24
					c0-3.18-0.01-6.35-0.01-9.51c0-0.02,0-0.04,0-0.04c0-0.07-0.02-0.15,0.07-0.17c0.07-0.02,0.09,0.05,0.15,0.11
					c0.2,0.31,0.4,0.61,0.61,0.92c0.15,0.24,0.33,0.46,0.48,0.7c0.04,0.07,0.09,0.13,0.2,0.11C36.85,21.35,36.79,21.43,36.67,21.46z
					"/>
			</g>
			<g>
				<path class="st21" d="M35.89,29.03c-0.07-0.05-0.06-0.13-0.06-0.2c0-2.77-0.01-5.56-0.01-8.33c0-0.06-0.04-0.15,0.05-0.17
					c0.07-0.02,0.11,0.05,0.15,0.11c0.15,0.24,0.29,0.5,0.44,0.73c-0.09,0.04-0.09,0.13-0.09,0.22c0,2.39,0.01,4.77,0.01,7.14
					c0,0.06,0.02,0.13,0.04,0.18C36.24,28.85,36.07,28.96,35.89,29.03z"/>
			</g>
			<g>
				<path class="st22" d="M36.93,28.42c-0.04-0.06-0.04-0.13-0.04-0.2c0-1.96-0.01-3.95-0.01-5.93c0-0.04,0-0.06,0-0.09
					s0-0.07,0.04-0.09c0.06-0.04,0.07,0.02,0.09,0.05c0.13,0.2,0.24,0.4,0.37,0.61c0.04,0.04,0.06,0.09,0.09,0.13
					c0.09,0.04,0.15,0.09,0.09,0.2c-0.13,0.06-0.09,0.17-0.09,0.26c0,1.45,0,2.9,0.01,4.35c0,0.13,0,0.26,0.04,0.37
					C37.34,28.22,37.13,28.31,36.93,28.42z"/>
			</g>
			<g>
				<path class="st23" d="M34.77,18.46c0.01,3.58,0.01,7.18,0.02,10.76c0,0.15,0,0.29,0.04,0.44c-0.04,0.04-0.07,0.04-0.09,0.07
					c-0.06-0.09-0.04-0.17-0.04-0.28c-0.01-3.51-0.01-7.01-0.02-10.54c0-0.29,0-0.59-0.07-0.88C34.77,18.09,34.84,18.27,34.77,18.46
					z"/>
			</g>
			<g>
				<path class="st24" d="M39.55,24.81c0.01,0,0.02,0.01,0.03,0.01c0-0.37,0-0.75,0.04-1.12c-0.07,0-0.13-0.04-0.18-0.07
					c-0.55-0.27-1.1-0.57-1.65-0.82c-0.17-0.07-0.22-0.09-0.26,0.09c0.02,0.05,0.06,0.13,0.09,0.2c0.22,0.39,0.46,0.79,0.7,1.17
					c0,0,0,0,0.01,0c-0.01,0.01-0.02,0.01-0.03,0.02c0.42,0.73,0.86,1.47,1.29,2.2c0-0.02,0.02-0.04,0.02-0.06
					c0-0.53-0.02-1.06-0.02-1.6C39.56,24.83,39.55,24.82,39.55,24.81z"/>
				<path class="st24" d="M39.55,23.09c0-0.5,0-1.03,0-1.54c-0.01,0-0.02-0.01-0.04-0.01c0.02-0.01,0.04,0,0.06-0.02
					c0-0.07,0-0.18,0-0.28c0-1.4,0-2.79-0.01-4.19c-0.04-0.17-0.11-0.31-0.22-0.46c-0.11-0.05-0.17,0.04-0.2,0.11
					c-0.27,0.51-0.57,1.01-0.84,1.52c-0.04,0.06-0.05,0.11,0,0.18c-0.11,0.24-0.24,0.5-0.38,0.73c-0.2,0.39-0.42,0.77-0.64,1.16
					c-0.06,0.02-0.05,0.06-0.05,0.11c0.01,0.01,0.02,0.01,0.03,0.02c0,0-0.01,0-0.01-0.01c-0.15,0.02-0.44,0.51-0.4,0.7
					c-0.04,0.02-0.04,0.06-0.07,0.09c-0.02,0.09-0.05,0.15-0.09,0.24c0.06,0.18,0.18,0.31,0.35,0.42c0.51,0.24,1.03,0.49,1.54,0.75
					C38.89,22.8,39.22,22.97,39.55,23.09z"/>
			</g>
			<path class="st25" d="M39.36,16.58c-0.09-0.09-0.18-0.16-0.29-0.26c-0.42-0.24-0.85-0.49-1.27-0.73
				c-0.9-0.53-1.84-1.08-2.76-1.59c0,0.04,0.02,0.07,0.04,0.1c-0.01-0.02-0.03-0.03-0.04-0.05c-0.02,0-0.04-0.02-0.06-0.04
				c-1.27-0.73-2.54-1.45-3.78-2.18c-0.09-0.04-0.17-0.09-0.26-0.09c-0.04,0.06,0,0.11,0.04,0.15c0.13,0.2,0.24,0.42,0.37,0.64
				c0.11,0.11,0.17,0.26,0.26,0.4c0.29,0.5,0.59,0.99,0.88,1.5c0.03-0.03,0.04-0.06,0.05-0.08c0,0.02,0.01,0.03,0.01,0.05
				c0.11,0.2,0.22,0.4,0.33,0.61c0.4,0.68,0.79,1.34,1.18,2.04c0.02,0.04,0.04,0.06,0.06,0.09c0.18,0.29,0.35,0.61,0.52,0.9
				c0.09,0.13,0.13,0.26,0.17,0.4c0.06,0,0.11,0.05,0.15,0.11c0.15,0.22,0.29,0.4,0.44,0.62c0.4,0.62,0.85,1.21,1.31,1.82
				c0.04,0.04,0.07,0.09,0.15,0.11c0.13-0.22,0.26-0.46,0.4-0.7c0.01-0.01,0.02-0.03,0.03-0.05c0.02,0,0.03,0,0.05,0
				c0.07-0.02,0.11-0.07,0.15-0.15c0.24-0.44,0.48-0.88,0.71-1.32c0.07-0.15,0.2-0.28,0.18-0.46c-0.01-0.01-0.02-0.02-0.03-0.04
				c0.31-0.56,0.62-1.16,0.94-1.73C39.28,16.61,39.32,16.6,39.36,16.58z"/>
		</g>
	</g>
</g>
</svg>
