<?xml version="1.0" encoding="utf-8"?>
<!-- Generator: Adobe Illustrator 25.2.1, SVG Export Plug-In . SVG Version: 6.00 Build 0)  -->
<svg version="1.1" id="Layer_1" xmlns="http://www.w3.org/2000/svg" xmlns:xlink="http://www.w3.org/1999/xlink" x="0px" y="0px"
	 viewBox="0 0 82.7 27.7" style="enable-background:new 0 0 82.7 27.7;" xml:space="preserve">
<style type="text/css">
	.st0{fill:#30348A;}
	.st1{fill:#7F78B6;}
	.st2{fill:#2F3389;}
	.st3{fill:#2F348A;}
	.st4{fill:#C2BDDD;}
	.st5{fill:#C3BEDD;}
</style>
<g id="BONwTa.tif">
	<g>
		<path class="st0" d="M77.6,6.39c-0.17,0.26-0.3,0.55-0.51,0.76c-0.49,0.5-1.25,0.57-1.84,0.22c-0.61-0.36-0.91-1.07-0.73-1.74
			c0.18-0.65,0.79-1.15,1.45-1.18c0.68-0.02,1.34,0.44,1.55,1.09c0.02,0.07,0.05,0.13,0.08,0.2C77.6,5.96,77.6,6.18,77.6,6.39z"/>
		<path class="st1" d="M9.4,7.48c0.11-0.02,0.23-0.05,0.34-0.05c3.41,0,6.82,0,10.23,0c0.48,0,0.56,0.08,0.56,0.56
			c0,3.42,0,6.85,0,10.27c0,0.11-0.04,0.22-0.05,0.34c-0.14-0.01-0.28-0.01-0.42-0.02c-1.67,0-3.34-0.01-5.01-0.01c0,0,0,0,0,0
			c0-1.71,0-3.43,0-5.14c0-0.41-0.11-0.52-0.51-0.52c-1.71,0-3.42,0-5.12,0c0,0,0,0,0,0c0-1.09,0-2.18,0-3.28
			C9.42,8.91,9.41,8.19,9.4,7.48z"/>
		<path class="st2" d="M62.73,22.54c0-4.58,0-9.16,0-13.74c0.84,0,1.66,0,2.51,0c0,0.36,0,0.7,0,1.05c0.37-0.28,0.69-0.6,1.07-0.82
			c1.74-0.99,4.01-0.59,5.49,0.95c2.3,2.4,1.8,6.5-1.01,8.27c-1.57,0.99-4.18,0.91-5.45-0.68c-0.01-0.01-0.03-0.02-0.08-0.04
			c0,1.67,0,3.33,0,5.02C64.42,22.54,63.6,22.54,62.73,22.54z M70.7,13.71c0.01-1.62-1.14-2.79-2.73-2.79
			c-1.57,0-2.71,1.15-2.72,2.74c-0.01,1.66,1.08,2.8,2.69,2.81C69.56,16.48,70.69,15.34,70.7,13.71z"/>
		<path class="st3" d="M60.79,8.8c0,3.28,0,6.53,0,9.8c-0.83,0-1.66,0-2.5,0c0-0.36,0-0.71,0-1.06c-0.02-0.02-0.05-0.03-0.07-0.05
			c-0.11,0.12-0.21,0.25-0.33,0.36c-1.42,1.31-3.81,1.39-5.46,0.19c-2.99-2.17-2.86-6.87,0.24-8.88c1.54-1,4.17-0.95,5.47,0.61
			c0.02,0.03,0.06,0.05,0.13,0.11c0-0.4,0-0.75,0-1.1C59.13,8.8,59.96,8.8,60.79,8.8z M55.54,16.47c1.6-0.01,2.74-1.17,2.73-2.79
			c-0.01-1.6-1.17-2.76-2.74-2.76c-1.58,0-2.71,1.16-2.72,2.77C52.81,15.33,53.93,16.47,55.54,16.47z"/>
		<path class="st3" d="M34.12,10.56c-0.71,0.31-1.4,0.63-2.1,0.92c-0.07,0.03-0.21-0.04-0.27-0.11c-0.48-0.54-1.2-0.75-1.87-0.52
			c-0.32,0.11-0.58,0.3-0.6,0.67c-0.03,0.36,0.21,0.56,0.5,0.67c0.58,0.21,1.18,0.4,1.77,0.59c0.74,0.24,1.49,0.44,2.05,1.03
			c1.2,1.26,0.98,3.37-0.48,4.34c-1.2,0.8-2.53,0.88-3.91,0.65c-1.19-0.2-2.12-0.8-2.74-1.84c-0.07-0.12-0.13-0.24-0.21-0.39
			c0.73-0.32,1.43-0.64,2.14-0.94c0.06-0.02,0.2,0.05,0.25,0.11c0.59,0.78,1.64,1.09,2.56,0.75c0.31-0.12,0.51-0.31,0.53-0.66
			c0.03-0.35-0.17-0.56-0.45-0.67c-0.53-0.21-1.07-0.37-1.61-0.57c-0.57-0.21-1.18-0.37-1.7-0.67c-1.88-1.07-1.52-3.55-0.31-4.53
			c1.89-1.52,5.09-1.03,6.38,1.02C34.07,10.44,34.09,10.49,34.12,10.56z"/>
		<path class="st3" d="M41.68,11.22c-0.74,0-1.45,0-2.18,0c-0.01,0.1-0.02,0.18-0.02,0.26c0,1.24,0,2.47,0,3.71
			c0,0.81,0.3,1.12,1.13,1.14c0.35,0.01,0.71,0,1.08,0c0,0.77,0,1.51,0,2.29c-1.14,0.12-2.26,0.2-3.33-0.29
			c-0.87-0.4-1.21-1.18-1.34-2.06c-0.06-0.38-0.07-0.77-0.07-1.16c-0.01-1.28,0-2.56,0-3.87c-0.56,0-1.12,0-1.7,0
			c0-0.83,0-1.63,0-2.45c0.56,0,1.1,0,1.7,0c0-0.49,0.01-0.96,0-1.42c-0.01-0.21,0.05-0.32,0.26-0.41c0.67-0.28,1.34-0.58,2.01-0.88
			c0.08-0.03,0.16-0.05,0.27-0.09c0,0.94,0,1.85,0,2.78c0.74,0,1.46,0,2.21,0C41.68,9.59,41.68,10.39,41.68,11.22z"/>
		<path class="st3" d="M43.8,8.79c0.84,0,1.66,0,2.5,0c0,0.52,0,1.03,0,1.54c0.63-1.22,1.67-1.69,2.98-1.75c0,0.95,0,1.87,0,2.79
			c-0.37,0.04-0.72,0.03-1.07,0.11c-1.24,0.27-1.88,1.06-1.9,2.32c-0.01,1.48,0,2.96-0.01,4.44c0,0.12,0,0.23,0,0.37
			c-0.86,0-1.68,0-2.52,0C43.8,15.33,43.8,12.07,43.8,8.79z"/>
		<path class="st4" d="M9.42,12.91c1.71,0,3.42,0,5.12,0c0.4,0,0.51,0.11,0.51,0.52c0,1.71,0,3.43,0,5.14
			c-1.73,0-3.46,0.01-5.19,0.01c-0.33,0-0.44-0.13-0.44-0.49C9.42,16.36,9.42,14.63,9.42,12.91z"/>
		<path class="st3" d="M77.28,8.8c0,3.27,0,6.53,0,9.81c-0.84,0-1.66,0-2.5,0c0-3.27,0-6.52,0-9.81C75.6,8.8,76.42,8.8,77.28,8.8z"
			/>
		<path class="st5" d="M15.05,18.57c1.67,0,3.34,0,5.01,0.01c0.14,0,0.28,0.01,0.42,0.02c-0.07,0.09-0.13,0.19-0.21,0.28
			c-1.57,1.57-3.15,3.14-4.72,4.71c-0.05,0.05-0.1,0.11-0.16,0.16c-0.17,0.12-0.31,0.06-0.34-0.15c-0.01-0.12,0-0.24,0-0.35
			C15.05,21.68,15.05,20.13,15.05,18.57z"/>
		<path class="st4" d="M9.4,7.48c0.01,0.72,0.02,1.43,0.02,2.15c0,1.09,0,2.18,0,3.28c-1.61,0-3.23,0-4.84-0.01
			c-0.12,0-0.25-0.07-0.37-0.11c0.06-0.11,0.1-0.23,0.18-0.31c0.43-0.44,0.87-0.87,1.3-1.3c1.14-1.15,2.28-2.31,3.42-3.46
			C9.19,7.63,9.3,7.56,9.4,7.48z"/>
	</g>
</g>
</svg>
