<?xml version="1.0" encoding="utf-8"?>
<!-- Generator: Adobe Illustrator 25.0.1, SVG Export Plug-In . SVG Version: 6.00 Build 0)  -->
<svg version="1.1" id="Layer_1" xmlns="http://www.w3.org/2000/svg" xmlns:xlink="http://www.w3.org/1999/xlink" x="0px" y="0px"
	 viewBox="0 0 800 800" style="enable-background:new 0 0 800 800;" xml:space="preserve">
<style type="text/css">
	.st0{fill:#086E91;}
</style>
<path class="st0" d="M400,0C179.4,0,0,179.4,0,400s179.4,400,400,400s400-179.4,400-400S620.5,0,400,0L400,0z M400,715.3
	C226.1,715.3,84.7,573.9,84.7,400S226.1,84.7,400,84.7S715.3,226.2,715.3,400S573.8,715.3,400,715.3L400,715.3z"/>
<g>
	<path class="st0" d="M447,632c-11.8,0-23.5-4.5-32.5-13.5L232,436c-18-18-18-47.1,0-65.1l179.5-179.5c18-18,47.1-18,65.1,0
		c18,18,18,47.1,0,65.1l-147,147l150,150c18,18,18,47.1,0,65.1C470.5,627.5,458.8,632,447,632z"/>
</g>
</svg>
